<?xml version="1.0" encoding="utf-8"?>
<!-- Generator: Adobe Illustrator 19.0.1, SVG Export Plug-In . SVG Version: 6.00 Build 0)  -->
<svg version="1.1" id="Layer_1" xmlns="http://www.w3.org/2000/svg" xmlns:xlink="http://www.w3.org/1999/xlink" x="0px" y="0px"
	 viewBox="94 -4 800 800" style="enable-background:new 94 -4 800 800;" xml:space="preserve">
<style type="text/css">
	.st0{fill:none;stroke:#333333;stroke-width:8;stroke-miterlimit:10;}
</style>
<g>
	<path class="st0" d="M327.3,720.9c-11.3-7.4-21.6-13.9-31.7-20.7c-97.4-65.1-142.7-182.1-114.5-295.7
		C208.7,293.3,304.8,210.1,419.3,197c63.8-7.3,123,5.7,177.5,38.8c12.3,7.5,21.9,7.4,33.7,1c32.8-17.9,50.2-55,42.1-91.5
		c-7.9-35.4-39.7-62.1-77.3-64.7c-33.8-2.3-66.9,18.7-78.4,50.5c6.4,1.8,12.8,3.6,23.2,6.4c-11.7,9.5-21.1,17.4-30.7,25
		c-9.5,7.6-19.2,14.9-31.4,24.3c-11.6-25.1-22.4-48.6-35.6-77.3c24.9,14.1,31.6-1.1,40.9-14.6c30.6-44.5,72.6-67.3,127.3-58
		c53.8,9.1,89.1,41.1,104,93.9c14,49.5-4.9,102.9-46.3,134.2c-5.3,4-10.8,7.8-16.3,11.8c109.2,118,101.7,299.6-26.2,411.6
		c29.2,0,54.5,0,79.8,0c25.1,0,50.1,0,76.4,0c0.9-7.8,1.7-14.3,2.1-17.3C797.7,684.7,813,700,829,716c-12.5,11-28.6,25.1-44.3,39
		c-0.5-3.8-1.4-10.7-2.4-19c-83.1,0-165.8,0-252.5,0c0-16-1.6-30.8,0.8-45c0.9-5.5,10.6-10.4,17.3-13.7
		c87.6-44.4,135.3-115.8,132.5-213.8c-2.7-95.2-51.3-164.6-139.5-202.6c-106.8-46-231.6-1.9-288.2,99.7
		c-56.6,101.5-28.2,227.2,66.8,295.3c9.8,7,19.8,13.7,31.3,21.6c5.1-11.2,9.2-20.2,15.1-33.1c13.3,28.3,25.4,54.1,38.2,81.3
		c-30.4,6.4-58.7,12.3-89.5,18.8C319.4,735.6,322.8,729.2,327.3,720.9z"/>
</g>
<path class="st0" d="M784.1,671.1c-0.4,3-1.1,9.5-2.1,17.3c-26.3,0-51.4,0-76.4,0c-25.3,0-50.6,0-79.8,0
	c126.3-110.6,135.1-288.9,30.3-407c-3.2-3-6.5-5.8-9.7-9c-0.7-0.7-1.3-1.4-1.9-2.2c-1.7-1.6-3.3-3.2-4.8-5c-0.8-0.9-1.5-1.9-2.3-2.9
	c-0.6-0.4-1.3-0.8-1.9-1.2c-4.4-2.9-9.2-6-12.5-10.2l0,0c-1.8-0.8-3.5-1.6-4.7-2.3c-3.3-1.9-6.1-4.1-8.6-6.5c-2.3-0.8-4.2-1.8-5.9-3
	c-2.2-0.9-4.5-2-6.9-3.5c-54.5-33.1-113.7-46-177.5-38.8c-114.5,13.1-210.6,96.3-238.2,207.5c-28.3,113.8,17,230.8,114.4,295.9
	c10.1,6.8,20.4,13.3,31.7,20.7c-4.5,8.4-7.9,14.7-12.7,23.6c30.8-6.5,59.1-12.4,89.5-18.8c-12.8-27.2-24.9-53-38.2-81.3
	c-5.9,12.8-10,21.9-15.1,33.1c-11.6-8-21.6-14.6-31.3-21.6c-95-68.1-123.4-193.8-66.8-295.3c56.6-101.6,181.4-145.7,288.2-99.7
	c88.2,38,136.8,107.4,139.5,202.6c2.8,98-44.8,169.4-132.5,213.8c-6.6,3.4-16.3,8.3-17.3,13.7c-2.5,14.2-0.8,29-0.8,45h252.5
	c1.1,8.3,1.9,15.2,2.4,19c15.8-13.9,31.8-28,44.3-39C813,700.1,797.7,684.8,784.1,671.1z"/>
</svg>
