<?xml version="1.0" encoding="utf-8"?>
<!-- Generator: Adobe Illustrator 19.0.1, SVG Export Plug-In . SVG Version: 6.00 Build 0)  -->
<svg version="1.1" id="Layer_1" xmlns="http://www.w3.org/2000/svg" xmlns:xlink="http://www.w3.org/1999/xlink" x="0px" y="0px"
	 viewBox="94 -4 800 800" style="enable-background:new 94 -4 800 800;" xml:space="preserve">
<style type="text/css">
	.st0{fill:none;stroke:#FFFFFF;stroke-width:13;stroke-miterlimit:10;}
</style>
<g>
	<path class="st0" d="M496.6,504.6c9.1-9.3,16.7-18.3,9.7-32c-1.6-3.2-1.9-7.1-2.9-10.6c-1.5-5.1-0.5-8.9,3.5-12.9
		c2.2-2.1,3-6.7,2.7-10c-0.8-10.7-9.2-7.3-15.5-7.7c-4.1-0.2-8.6-1.1-10.4,4.6c-1.7,5.3-3.3,9.8,2.4,14.3c2.4,1.9,3.3,6.7,3.3,10.2
		c0,3.8-1.1,8-2.9,11.4C479.3,486.1,487.1,495.3,496.6,504.6z"/>
	<path class="st0" d="M383.7,507.6c1.7-12.3,3.9-24.6,5.1-37c1.4-14.5,7.9-25.6,20.7-32.2c12.8-6.5,26.1-12.1,39.7-18.3
		c3.7,38.5,23.8,80.3,48.1,100.3c22.2-29.8,47.2-57.9,45.6-101.4c16.5,8.3,31.9,15.3,46.5,23.8c9.4,5.4,12.9,15.4,14.2,26
		c1.6,12.9,3.6,25.8,5.4,38.7c0,2.3,0,4.6,0,6.8c-14.5,3.4-28.9,7.6-43.5,10.1c-14.9,2.6-30.2,3.6-45.3,5.2c-15.9,0-31.9,0-47.8,0
		c-5-0.6-10-1.4-15-1.8c-25-2.1-50.1-4.3-73.8-13.5C383.7,512.2,383.7,509.9,383.7,507.6z M552.1,497.8c0.3-0.5,0.6-1,0.9-1.5
		c7-0.7,14.1-1,21-2.3c2.1-0.4,3.8-3.2,5.7-4.9c-2.3-1.5-4.6-4.2-6.9-4.2c-6.7,0-13.5,1-20.2,1.9c-4.3,0.6-11-1.7-11.2,5.2
		C541.4,493.8,548.4,495.8,552.1,497.8z"/>
	<path class="st0" d="M383.7,514.5c23.7,9.3,48.7,11.4,73.8,13.5c5,0.4,10,1.2,15,1.8c-29.6,0-59.2,0-88.8,0
		C383.7,524.6,383.7,519.5,383.7,514.5z"/>
	<path class="st0" d="M520.2,529.8c15.1-1.7,30.3-2.7,45.3-5.2c14.7-2.5,29-6.7,43.5-10.1c0,5.1,0,10.2,0,15.4
		C579.4,529.8,549.8,529.8,520.2,529.8z"/>
	<path class="st0" d="M496.9,239.3c39.2-0.2,65.4,28.7,60.9,67.4c-0.6,4.9,0.2,8.1,3.9,11.9c7.8,8,4.5,28.4-5.1,39.4
		c-3,3.5-5.7,7.7-7.2,12c-9.5,27.4-29.6,43.8-53.8,43.5c-23.2-0.3-42.4-16.1-52.1-42.4c-1.8-4.8-4.6-9.5-7.9-13.5
		c-10.2-12.2-10.9-28.2-2-41.9c1.6-2.4,1.1-6.5,0.9-9.8c-0.8-13.3-1.5-27.3,7.9-37.4C457,252.9,473.4,239,496.9,239.3z M545.2,328.7
		c-1.2,3-1.9,4.2-2.2,5.5c-3.6,12.7-5.7,14.5-17.1,14.6c-17.3,0.2-18.6-0.8-23.1-13.7c-0.8-2.2-4.1-5.2-6-5c-2.5,0.2-5.2,2.9-7,5.1
		c-3.2,3.9-4.9,10.4-8.9,12.2c-14.3,6.7-26.5,0.6-31.5-14.1c-0.4-1.2-1.3-2.2-2.9-4.7c-1.3,3.8-2,6.1-3.1,9.2
		c-2.2-5.3-4.1-9.9-6.8-16.3c-6,11.1-3.8,20.9,1.8,26.7c8.8,9.1,10.6,20.9,16.6,30.8c2.5,4.1,5.1,8.2,8.2,11.9
		c13.2,15.6,35.4,19.8,53.3,10.2c13.6-7.3,20.9-19.5,26-33.5c1.5-4.2,2.4-9.7,5.5-12c7.8-5.8,9.7-13.8,10.9-22.2
		c0.5-3.5-1.4-7.3-2.2-11c-0.7,0.1-1.5,0.3-2.2,0.4c-1.7,3.8-3.4,7.6-5.3,11.8C548,332.9,547.1,331.5,545.2,328.7z M446.9,325.4
		c8.4-6.9,34-7.6,43.1-2.6c3.2,1.8,8.6,2.3,11.8,0.8c15-6.7,29.4-5.3,45.4,0.8c-2.9-5.5,3.6-15.1-7.1-15.9
		c-20-1.4-35.2-11.2-49.6-23.7c-13.9-12.1-14-12-29.1-1.1C450.5,291.5,443.4,311.2,446.9,325.4z M470.1,324.6c-2.5,0-5.1,0.2-7.6,0
		c-7.6-0.7-9.3,2.8-7.5,9.7c2.4,9.3,5.3,11,18.9,10c7.6-0.6,12-5.9,11.6-14.7c-0.4-8.1-7.1-3.9-11.1-4.9
		C473,324.3,471.6,324.6,470.1,324.6z M522.7,324.6c-2.8,0-5.7,0.1-8.5,0c-6.1-0.3-8,1.9-6.5,8.1c2.5,10.6,5.2,12.5,19.4,11.6
		c7.1-0.5,11.4-5.6,11.3-14c-0.1-8-6.4-5-10.6-5.6C526.1,324.4,524.4,324.6,522.7,324.6z"/>
	<path class="st0" d="M496.6,504.6c-9.5-9.4-17.3-18.5-10.1-32.7c1.8-3.4,2.9-7.6,2.9-11.4c0-3.5-0.9-8.4-3.3-10.2
		c-5.7-4.5-4.1-9-2.4-14.3c1.8-5.7,6.3-4.8,10.4-4.6c6.2,0.3,14.7-3,15.5,7.7c0.2,3.3-0.6,7.9-2.7,10c-4,4-5,7.8-3.5,12.9
		c1.1,3.5,1.3,7.4,2.9,10.6C513.3,486.4,505.7,495.4,496.6,504.6z"/>
</g>
<g>
	<path class="st0" d="M661.5,247.7c0-14.4,0-24.9,0-36.1c-5-0.5-8.6-0.7-12.2-1.1c-11.5-1.4-18-7.7-18.1-19.4
		c-0.2-27.3-0.2-54.5,0-81.8c0.1-12.7,8.1-19.3,19.7-19.4c50.3-0.4,100.6-0.5,150.9,0.1c12.5,0.1,19.4,7.7,19.2,21.2
		c-0.3,25.9,0.1,51.7-0.1,77.6c-0.1,15.7-6.4,21.7-22.5,21.8c-27.7,0.2-55.5,0.5-83.2-0.2c-10.3-0.3-17.8,2.8-24.8,10.1
		C682.2,229,673.3,236.6,661.5,247.7z"/>
	<path class="st0" d="M477.7,608.4c25.9,0,51.8,0.2,77.7-0.1c11.9-0.2,17,4.9,16.9,16.9c-0.3,31.1-0.3,62.1,0,93.2
		c0.1,11.5-5.1,16.4-16.1,16.4c-52.7,0-105.4-0.1-158.1,0c-11.1,0-16.2-4.8-16.1-16.3c0.3-31.1,0.4-62.1,0-93.2
		c-0.2-13.2,5.9-17.3,18.1-17C425.9,608.7,451.8,608.4,477.7,608.4z M399.1,619.1c-1.6,2.2-4.7,4.7-4.4,6.5c0.7,3.2,2.8,6.9,5.5,8.7
		c23.3,15.9,46.7,31.8,70.5,46.9c3.2,2,10.1,1.5,13.5-0.7c23-14.6,45.7-29.8,68.1-45.4c3.2-2.2,4.1-7.7,6-11.7
		c-4.5,0.5-9.9-0.5-13.3,1.7c-20.2,12.8-39.8,26.8-60.2,39.4c-3.9,2.4-11.7,2.5-15.6,0.1c-20-12.3-39.3-25.8-58.9-38.8
		C407.3,623.7,404,622,399.1,619.1z"/>
	<path class="st0" d="M811.5,380c-0.2-21.9-7.5-58.8-22.2-94.2c-4.3-10.3-7.2-20.6,5.6-26.3c13.4-5.9,18.3,4.3,22.6,14.2
		c69.1,158.1-10.8,354.4-170.6,419.4c-10.9,4.5-22.1,8-27.5-5.9c-5-12.9,5.3-17.9,15.3-22.3C743.8,617,811.8,513.7,811.5,380z"/>
	<path class="st0" d="M304.5,280.1c0,10.3-0.6,20.7,0.2,31c0.9,12.4-4.6,16.3-16.2,15.8c-13.2-0.6-26.5-1.1-39.6,0.1
		c-15.6,1.4-28.2-2.1-37.5-15.3c-1.3-1.8-3.1-3.6-5-4.7c-6-3.7-17-6.6-17.4-10.7c-1.9-18.2-0.9-36.7-0.4-55c0.1-2,3.8-5.7,5.7-5.5
		c23.3,1.7,23.6-19.2,32.7-31.8c4.5-6.2,10.6-12.6,17.5-15.4c7.5-3.1,13.1,1.8,12.7,11c-0.1,1.1,0,2.3,0,3.4
		c1.1,30.2,1.1,30.6,31.8,31.4c11.8,0.3,16.8,4.5,15.9,16.5C303.9,260.5,304.5,270.3,304.5,280.1z"/>
	<path class="st0" d="M197.8,404.8c1.1,94.8,38.9,171.9,112.9,231c9.6,7.6,17.7,15.4,9,26.7c-9.2,11.9-19.7,4.4-28.4-2.7
		C203.2,588.2,162,495.4,166.6,382.1c0.2-4,0-9.1,2.2-11.6c4.1-4.6,10.7-11.2,14.7-10.4c5.5,1.2,12.3,8.1,13.5,13.7
		C199.3,383.7,197.8,394.4,197.8,404.8z"/>
	<path class="st0" d="M513.4,73.8c-87.6,1.1-154.9,28.3-211.8,81.7c-4.8,4.5-10.8,9.5-16.9,10.6c-4,0.8-13-4.9-13.1-7.9
		c-0.3-7,1.3-16.2,5.9-21c40.5-41.6,89.6-69.1,145.7-83.7c47.4-12.2,95.2-13.8,143.3-4c11,2.2,21.8,5.6,19.6,18.8
		c-2.4,14.4-14,13.4-25.8,11.4C541.7,76.8,522.9,75,513.4,73.8z"/>
	<path class="st0" d="M180.3,274.9c0,6.9,0,13.8,0,20.6c0,22.1-13.2,31.5-33.5,23c-3.6-1.5-6.7-7.5-7.6-12
		c-4-20.8-7.1-41.7-10.7-62.6c-2-11.9,0.9-18.1,14.9-17.9c42,0.8,36.6-3.4,36.9,35C180.3,265.7,180.3,270.3,180.3,274.9z"/>
</g>
</svg>
