<?xml version="1.0" encoding="utf-8"?>
<!-- Generator: Adobe Illustrator 19.0.1, SVG Export Plug-In . SVG Version: 6.00 Build 0)  -->
<svg version="1.1" id="Layer_1" xmlns="http://www.w3.org/2000/svg" xmlns:xlink="http://www.w3.org/1999/xlink" x="0px" y="0px"
	 viewBox="94 -4 800 800" style="enable-background:new 94 -4 800 800;" xml:space="preserve">
<style type="text/css">
	.st0{fill:none;stroke:#FFFFFF;stroke-width:13;stroke-miterlimit:10;}
</style>
<g>
	<path class="st0" d="M496.7,51.2c53.5,0,107.1,0,160.6,0c15.5,0,21.8,5.9,21.7,21.5c-0.3,35.3,0.4,70.8-2.2,106
		c-2.4,32.1-6.4,64.3-13.6,95.6c-8.6,37.3-31.4,67.9-57.1,95.4c-24.1,25.7-50.4,49.5-76.6,73.2c-11,10-15.3,21.2-12.1,34.9
		c9.1,39.5,18.4,79,28.3,118.3c4.6,18.2,14,24.5,33.1,24.5c26.5,0,52.9,0,79.4,0c11.9,0,17.3,5.5,17.4,17.4c0,28.3,0,56.5-0.1,84.8
		c0,12.2-5.6,17.9-18,17.9c-108,0-215.9,0-323.9,0c-11,0-17.1-6-17.2-17c-0.1-28.5-0.1-57.1,0-85.6c0-11.3,6.4-17.4,17.8-17.4
		c26.8,0,53.5,0,80.3,0c17.5,0,26.3-6.2,31.6-22.9c13.1-41,23.1-82.7,29.1-125.4c1.7-12.2-3-21.7-12.6-29.5
		c-43.1-34.6-82-73.1-111.8-120.2c-18.1-28.5-28-59.7-30.5-92.9c-3.4-44.6-5.2-89.4-7.3-134.1c-0.5-10,0.7-20.1,1.5-30.2
		c0.8-9.6,7.3-14.4,18.9-14.4c44.6,0,89.2,0,133.8,0C477.1,51.2,486.9,51.2,496.7,51.2z M627,225.3c1.4-68.3-53.4-131.7-131.2-131.2
		c-76.9,0.5-131,61.3-130.8,131.9c0.2,72,59.5,130.8,131.6,130.6C569.2,356.5,627.2,298,627,225.3z M495.1,699.4
		C495.1,699.3,495.1,699.3,495.1,699.4c27.9-0.1,55.9,0,83.8-0.1c10.1,0,12.2-2.1,12.3-11.8c0.1-13.1-0.2-26.2,0.2-39.2
		c0.3-8.3-3.6-11-11.3-11c-55.9,0.1-111.8,0.1-167.7,0.1c-8.2,0-12,3.4-11.8,11.8c0.3,12.5,0.1,25,0.1,37.5
		c0,10.5,2.4,12.9,13.2,12.9C441,699.4,468.1,699.4,495.1,699.4z"/>
	<path class="st0" d="M203.7,198.7c-0.6-24.6,3.9-48,19.1-68c16-21.1,45.6-28.5,69.8-18c7.5,3.2,11.9,20.5,6.4,26.4
		c-1.4,1.5-4.2,2-6.3,2.2c-28.8,1.6-36.4,8.1-39.5,36.9c-2.2,21.4-0.7,42.6,7,63.1c6.2,16.4,26.7,31.9,47.6,30.9
		c12.4-0.6,8.4,13.9,12.4,21.3c2.7,5.1,0.2,8.1-4.8,10.1c-28.9,11.4-54.5,3.8-77-14.9c-25.7-21.3-33-51-34.6-82.8
		C203.6,203.5,203.7,201.1,203.7,198.7z"/>
	<path class="st0" d="M740.2,194.2c-1.1-9.4-1.4-18.9-3.3-28.1c-3.8-17.9-13.2-24.6-31.6-24.9c-4.6-0.1-11.3,3.3-12.6-5.4
		c-2.1-13.8,0.1-20.2,8.3-23.4c28.7-11.1,59.5,0.3,74.8,27.7c22.5,40.1,16.7,105.1-12.7,140.4c-15.6,18.7-50.9,35.6-80.4,25.2
		c-11.8-4.1-12.7-5.1-9.2-17.2c1.1-4,1.8-8.4,4-11.7c1.5-2.4,5.2-5,7.9-4.9c18.3,0.9,36.8-9.7,44.8-26.4
		C736.8,231.6,739.4,217.2,740.2,194.2z"/>
	<path class="st0" d="M475.9,206c-13.7-23.5-13.2-39.9,0.9-51.5c13.1-10.7,30.7-10.7,43.3,0.1c14.3,12.2,14.7,28.7,1,50.9
		c0.9,0.9,1.7,2.3,2.9,2.7c24.5,9.5,33.4,29.7,37,53.5c1.2,7.9,1.8,16,1.7,23.9c-0.1,3-3,5.9-4.7,8.8c-1.4-2.8-4.1-5.7-4.1-8.6
		c-0.4-16.5-1.8-32.6-9.3-47.6c-10.3-20.4-28.5-26-49.2-25.1c-19.8,0.9-37.5,7.6-44.3,28.3c-4.3,13-5.3,27.1-7.6,40.8
		c-0.5,2.9,0.1,6-0.7,8.8c-0.5,1.5-2.9,3.4-4.4,3.4c-1.4,0-3.5-2.2-3.9-3.8c-6-20.6,7.6-61.8,24.9-74.7
		C464.2,212,470,209.4,475.9,206z M497.9,203.4c14,0.1,25-10.4,24.8-23.7c-0.1-13-10.9-24.1-23.7-24.2c-13.4-0.2-24.9,11-24.9,24
		C474.2,192.4,485,203.3,497.9,203.4z"/>
	<path class="st0" d="M468.6,285.6c0.1,6.4-0.1,11.2-7.8,7.7c-1.1-0.5-2.9-0.2-4.2,0.3c-5.9,2.1-7.9-0.4-6.8-5.9
		c1.8-9.6,3.8-19.2,6.1-28.6c0.5-1.9,2.7-3.4,4.2-5c1.7,1.8,4.4,3.4,4.8,5.4C466.5,268.4,467.5,277.5,468.6,285.6z"/>
	<path class="st0" d="M545.6,294.4c-4.6,0-8.3,0.6-11.7-0.2c-2.2-0.5-5.7-3-5.6-4.4c0.8-10.3,2.1-20.5,3.8-30.6
		c0.3-1.8,2.8-4.5,4.3-4.4c1.7,0,4.4,2.4,4.8,4.1c2.3,9.7,4.1,19.6,5.8,29.4C547.3,290.2,546.1,292.5,545.6,294.4z"/>
</g>
</svg>
