<?xml version="1.0" encoding="utf-8"?>
<!-- Generator: Adobe Illustrator 19.0.1, SVG Export Plug-In . SVG Version: 6.00 Build 0)  -->
<svg version="1.1" id="Layer_1" xmlns="http://www.w3.org/2000/svg" xmlns:xlink="http://www.w3.org/1999/xlink" x="0px" y="0px"
	 viewBox="94 -4 800 800" style="enable-background:new 94 -4 800 800;" xml:space="preserve">
<style type="text/css">
	.st0{fill:none;stroke:#333333;stroke-width:8;stroke-miterlimit:10;}
</style>
<g>
	<path class="st0" d="M554.8,240.8c36.5,15,69.9,28.4,102.9,42.7c4.9,2.1,9.4,8,11.5,13.2c17,43.1,24.5,88.1,27,135.9
		c-134.3,0-266.8,0-404,0c2.1-20.2,4.6-40.7,6.3-61.1c4.9-58.5,27-102.5,91.5-113.4c13.7-2.3,26.6-9.6,43.4-15.9
		c11.7,50.9,22.9,99.6,34.1,148.3c2.3-0.1,4.7-0.2,7-0.3c0-13.6-1.3-27.4,0.3-40.8c1.8-15.3,7.3-30.1,9.2-45.3
		c1.1-8.2-1.9-17-3-25.5c-2.4-0.9-4.7-1.8-7.1-2.6c6.1-5.2,12.2-10.4,21.2-17.9c6.3,7,11.6,12.9,18,19.9
		c-14,11.2-11.6,21.3-5.1,35.7c6.4,14.1,5,32,6.4,48.2c0.8,9.6,0.1,19.3,0.1,29c2,0.3,4,0.6,6,0.8
		C531.4,343.2,542.5,294.9,554.8,240.8z"/>
</g>
<g>
	<path class="st0" d="M556.3,119c0.4,19.7-7.6,36-21.2,49.7c-8.3,8.3-13.2,18.1-15.3,29.6c-0.4,2.4-3.3,5.5-5.6,6.1
		c-17.4,4.8-34.9,9.3-52.5,13.4c-2,0.5-4.6-1.2-7-1.9c1.9-1.8,3.4-4.6,5.6-5.2c15.5-4.1,31.1-7.8,46.7-11.5c4-0.9,5.9-2.6,6.7-7
		c2-11.7,8.1-21.3,16.6-29.6c23.2-22.4,25.2-58.4,4.7-83c-21.5-25.7-56.6-30.9-83.3-12.2c-31.4,22-35.1,68.7-7.6,95.7
		c10.3,10.2,16.5,22.5,18.2,36.9c0.3,2.2-1.9,4.7-2.9,7c-1.3-2-3.6-3.9-3.9-6c-2.3-14.7-10.5-26.1-20-36.9
		c-30.6-34.6-18.6-90.4,23.2-109.3C504.9,34.1,556.4,67.9,556.3,119z"/>
	<path class="st0" d="M498,148.3c-5.4,3.2-8.9,6.9-12.5,6.9c-3,0-5.8-4.6-10.1-6.4c0.5,2,1.2,4,1.5,6c1.7,11.1,3.6,22.2,4.8,33.4
		c0.2,2.1-2.2,4.5-3.5,6.7c-1.1-2.1-2.7-4.1-3.2-6.3c-3-13.6-5.3-27.3-8.6-40.8c-1.9-7.7-0.6-10.6,6.9-8.1c9.2,3.1,17.3,4.4,26.7,0
		c6.1-2.8,8.9,1,6.4,7.5c-5.1,13.4-8.6,27-8.7,41.5c0,2.1-2.2,4.2-3.4,6.2c-1.3-2.3-3.9-4.7-3.6-6.7c1.1-10.3,2.9-20.5,4.6-30.7
		C495.8,155.1,496.8,152.6,498,148.3z"/>
	<path class="st0" d="M588.2,194.1c-1.9,0.8-4.3,2.5-4.9,2c-9.5-7.5-18.8-15.3-27.9-23.3c-0.6-0.6,0.1-3.5,1-4.6
		c0.5-0.6,3.2-0.5,4.1,0.2c8.7,7.2,17.2,14.5,25.7,21.9C587,190.8,587.2,192.1,588.2,194.1z"/>
	<path class="st0" d="M389,195.1c-0.7-0.5-2.4-1.1-2.6-2.1c-0.4-1.3-0.2-3.5,0.7-4.2c7.9-7,16-13.9,24.2-20.6c0.8-0.7,3.7-0.6,4,0
		c0.8,1.3,1.3,4.1,0.5,4.8c-8.2,7.4-16.6,14.5-25,21.7C390.6,195,390,194.9,389,195.1z"/>
	<path class="st0" d="M588.7,112.1c-4.7,0-9.5,0.3-14.2-0.1c-1.5-0.1-2.8-2.1-4.2-3.3c1.3-1.3,2.6-3.6,4-3.6c9.7-0.3,19.4-0.3,29,0
		c1.5,0,2.9,2.2,4.3,3.4c-1.6,1.2-3.1,3.4-4.7,3.5C598.2,112.4,593.4,112.1,588.7,112.1z"/>
	<path class="st0" d="M385,112.1c-4.5,0-9,0.3-13.5-0.2c-1.5-0.1-2.7-2.1-4.1-3.3c1.3-1.3,2.6-3.6,3.9-3.6c9.2-0.3,18.4-0.3,27.6,0
		c1.3,0,2.6,2.4,3.9,3.7c-1.5,1.1-2.8,3-4.4,3.2C394,112.3,389.5,112,385,112.1L385,112.1z"/>
	<path class="st0" d="M546.7,61.4c-0.7-0.5-2.2-0.9-2.6-1.9s-0.2-3,0.5-3.6c7.3-6.7,14.8-13.3,22.4-19.6c0.9-0.7,3.5-0.1,4.7,0.8
		c0.7,0.5,0.7,3.5,0,4.2c-7.6,6.7-15.3,13.2-23.1,19.7C548.3,61.2,547.7,61.1,546.7,61.4z"/>
	<path class="st0" d="M491,19.9c0,4,0.4,8.1-0.2,12.1c-0.2,1.7-2.4,3.1-3.7,4.6c-1.1-1.4-3.1-2.8-3.2-4.3c-0.3-8.5-0.3-17.1,0-25.6
		c0.1-1.6,2.3-3.1,3.5-4.7c1.2,1.7,3.1,3.3,3.4,5.1C491.4,11.3,491.1,15.6,491,19.9C491.1,19.9,491.1,19.9,491,19.9z"/>
	<path class="st0" d="M404.2,36.1c1.4,0.8,2.7,1.2,3.7,2.1c6.2,5.3,12.4,10.5,18.2,16.1c1.3,1.3,1.5,3.8,2.1,5.8
		c-2.3-0.1-5.2,0.6-6.7-0.5c-6.5-4.9-12.6-10.2-18.6-15.6c-1.2-1.1-1.6-3.5-1.7-5.4C401.2,37.8,403.1,37,404.2,36.1z"/>
</g>
<path class="st0" d="M442.7,756.1c-4.1-39.3-8.2-77.8-12.2-116.4c-4.6-45-9.4-90-13.3-135.1c-1-10.9-6.8-12.8-16.9-12.7
	c-40.6,0.3-81.2,0.1-121.8,0.1c-5.3,0-10.6,0-17.2,0c0-11,0-20.6,0-31.2c157.4,0,313.6,0,469.3,0c1.1,1.7,2,2.5,2.1,3.3
	c3,27.6,3,27.7-27.1,27.8c-36.8,0.1-73.6,0.4-110.4-0.2c-12.9-0.2-17.8,3.4-19,15.7c-7.2,77.7-15.4,155.4-23.3,233
	c-0.5,4.9-1.7,9.8-2.8,15.5C515,756.1,480,756.1,442.7,756.1z"/>
</svg>
