<?xml version="1.0" encoding="utf-8"?>
<!-- Generator: Adobe Illustrator 19.0.1, SVG Export Plug-In . SVG Version: 6.00 Build 0)  -->
<svg version="1.1" id="Layer_1" xmlns="http://www.w3.org/2000/svg" xmlns:xlink="http://www.w3.org/1999/xlink" x="0px" y="0px"
	 viewBox="94 -4 800 800" style="enable-background:new 94 -4 800 800;" xml:space="preserve">
<style type="text/css">
	.st0{fill:#383838;}
	.st1{fill:#F26222;}
</style>
<g>
	<path class="st0" d="M106.7,610.8c9.6-18,18.8-36.2,28.9-54c5.7-10,12.8-19.3,20.2-30.3c-14.7-21-16.5-47.1-16.5-73.9
		c0.2-92.7,0-185.3,0.1-278c0-52.4,26.1-79.9,78.3-82.6c4.4-0.2,8.8-0.3,13.2-0.3c166.7,0,333.3-0.3,500,0.4
		c17.2,0.1,35.4,2.9,51.3,9.1c25.4,9.8,39.3,31.1,39.4,58.5c0.5,106.4,0.6,212.8-0.5,319.1c-0.2,16-7.6,31.8-12,48.9
		c23.8,21.7,38.5,52.9,47.9,84.6c6,20.1-0.4,44.3-3.6,66.3c-1.6,11.4-11.7,17.6-23.9,18c-5.9,0.2-11.8,0.4-17.6,0.4
		c-216.2,0-432.4,0-648.6,0c-43.4,0-43.4,0-56.7-39.4C106.7,642.2,106.7,626.5,106.7,610.8z M480.8,520.2L480.8,520.2
		c86.8,0,173.5,0.1,260.3,0c36.8,0,47.4-8.4,49.3-45.9c2-40.1,1.1-80.3,1.1-120.5c0.1-60.8,0.1-121.6,0-182.3
		c-0.1-31.4-14.8-46.7-46.2-48.7c-2.9-0.2-5.9-0.2-8.8-0.2c-170.1,0-340.2-0.1-510.3,0.1c-8.7,0-17.7,0.9-26.1,3.2
		c-17.9,4.8-28.7,18-28.7,36.3c-0.3,104.9-0.4,209.8,0.3,314.7c0.2,31.6,13.9,43.3,45.9,43.3C305.3,520.2,393.1,520.2,480.8,520.2z
		 M137.1,620.4c232.3,0,461,0,692.2,0c-8.3-16-16.8-29.7-22.6-44.5c-7.6-19-20.7-24.1-40.2-24c-181,0.6-361.9,0.4-542.9,0.4
		c-11.3,0-22.6-0.9-33.8,0.2c-6.9,0.7-16.7,2.4-19.7,7.1C158.3,578.5,148.7,598.7,137.1,620.4z M826.8,653c-229.5,0-458.2,0-686.7,0
		c-2,10.6,2.1,13.8,11.8,13.7c25-0.5,50-0.2,75-0.2c194.5,0,389.1,0,583.6,0C819,666.5,829.7,669,826.8,653z"/>
	<path class="st1" d="M826.8,653c2.9,16-7.8,13.5-16.3,13.5c-194.5,0-389.1,0-583.6,0c-25,0-50-0.3-75,0.2
		c-9.7,0.2-13.8-3.1-11.8-13.7C368.6,653,597.2,653,826.8,653z"/>
	<path class="st0" d="M480.8,143.3c84.8,0,169.6-0.1,254.4,0c30,0,39.3,9.6,39.3,39.9c0.1,90.7,0,181.4,0,272
		c0,5.9,0.1,11.8-0.7,17.6c-2.1,17.5-9.7,25-27.4,26.9c-6.3,0.7-12.7,0.9-19.1,0.9c-163.7,0-327.4,0-491.1,0
		c-41.8,0-47.7-5.8-47.8-47.3c-0.1-90.2-0.1-180.4,0-270.6c0-30.4,9-39.4,39.4-39.5C312.2,143.2,396.5,143.3,480.8,143.3z
		 M480.6,484.9c67.7,0,135.4,0,203,0c19.6,0,39.2-0.3,58.8-0.2c10.3,0.1,15.4-4.9,15.9-14.9c0.3-5.9,0.5-11.8,0.5-17.6
		c0-88.8,0-177.5,0-266.3c0-4.4,1.1-9.7-0.9-13c-3.1-5.1-7.8-10.3-13-12.7c-5-2.2-11.6-1.1-17.4-1.1c-84.8,0-169.7,0-254.5,0
		c-82.4,0-164.8-0.1-247.2,0.1c-19.3,0-22.1,3.3-22.2,22.4c0,92.2,0,184.4,0,276.6c0,25.2,1.6,26.8,26.7,26.8
		C313.9,484.9,397.3,484.8,480.6,484.9z"/>
</g>
<polygon points="189,558 208.8,558 198.9,573.1 181,573.1 "/>
<polygon points="212.7,558 232.5,558 222.6,573.1 204.7,573.1 "/>
<polygon points="236.5,558 256.3,558 246.4,573.1 228.5,573.1 "/>
<polygon points="260.5,558 280.3,558 270.4,573.1 252.5,573.1 "/>
<polygon points="284.5,558 304.3,558 294.4,573.1 276.5,573.1 "/>
<polygon points="308.5,558 328.3,558 318.4,573.1 300.5,573.1 "/>
<polygon points="332.5,558 352.3,558 342.4,573.1 324.5,573.1 "/>
<polygon points="357.5,558 377.3,558 367.4,573.1 349.5,573.1 "/>
<polygon points="382,558 401.8,558 391.9,573.1 374,573.1 "/>
<polygon points="405.7,558 425.5,558 415.6,573.1 397.7,573.1 "/>
<polygon points="429.5,558 449.3,558 439.4,573.1 421.5,573.1 "/>
<polygon points="453.5,558 473.3,558 463.4,573.1 445.5,573.1 "/>
<polygon points="477.5,558 497.3,558 487.4,573.1 469.5,573.1 "/>
<polygon points="501.5,558 521.3,558 511.4,573.1 493.5,573.1 "/>
<polygon points="525.5,558 545.3,558 535.4,573.1 517.5,573.1 "/>
<polygon points="550.5,558 570.3,558 560.4,573.1 542.5,573.1 "/>
<polygon points="575,558 594.8,558 584.9,573.1 567,573.1 "/>
<polygon points="598.7,558 618.5,558 608.6,573.1 590.7,573.1 "/>
<polygon points="622.5,558 642.3,558 632.4,573.1 614.5,573.1 "/>
<polygon points="646.5,558 666.3,558 656.4,573.1 638.5,573.1 "/>
<polygon points="670.5,558 690.3,558 680.4,573.1 662.5,573.1 "/>
<polygon points="694.5,558 714.3,558 704.4,573.1 686.5,573.1 "/>
<polygon points="718.5,558 738.3,558 728.4,573.1 710.5,573.1 "/>
<polygon points="743.5,558 763.3,558 753.4,573.1 735.5,573.1 "/>
<polygon points="189,577 208.8,577 198.9,592.1 181,592.1 "/>
<polygon points="212.7,577 232.5,577 222.6,592.1 204.7,592.1 "/>
<polygon points="236.5,577 256.3,577 246.4,592.1 228.5,592.1 "/>
<polygon points="260.5,577 280.3,577 270.4,592.1 252.5,592.1 "/>
<polygon points="284.5,577 304.3,577 294.4,592.1 276.5,592.1 "/>
<polygon points="308.5,577 328.3,577 318.4,592.1 300.5,592.1 "/>
<polygon points="332.5,577 352.3,577 342.4,592.1 324.5,592.1 "/>
<polygon points="357.5,577 377.3,577 367.4,592.1 349.5,592.1 "/>
<polygon points="382,577 401.8,577 391.9,592.1 374,592.1 "/>
<polygon points="405.7,577 425.5,577 415.6,592.1 397.7,592.1 "/>
<polygon points="429.5,577 449.3,577 439.4,592.1 421.5,592.1 "/>
<polygon points="453.5,577 473.3,577 463.4,592.1 445.5,592.1 "/>
<polygon points="477.5,577 497.3,577 487.4,592.1 469.5,592.1 "/>
<polygon points="501.5,577 521.3,577 511.4,592.1 493.5,592.1 "/>
<polygon points="525.5,577 545.3,577 535.4,592.1 517.5,592.1 "/>
<polygon points="550.5,577 570.3,577 560.4,592.1 542.5,592.1 "/>
<polygon points="575,577 594.8,577 584.9,592.1 567,592.1 "/>
<polygon points="598.7,577 618.5,577 608.6,592.1 590.7,592.1 "/>
<polygon points="622.5,577 642.3,577 632.4,592.1 614.5,592.1 "/>
<polygon points="646.5,577 666.3,577 656.4,592.1 638.5,592.1 "/>
<polygon points="670.5,577 690.3,577 680.4,592.1 662.5,592.1 "/>
<polygon points="694.5,577 714.3,577 704.4,592.1 686.5,592.1 "/>
<polygon points="718.5,577 738.3,577 728.4,592.1 710.5,592.1 "/>
<polygon points="743.5,577 763.3,577 753.4,592.1 735.5,592.1 "/>
<polygon points="189,596 208.8,596 198.9,611.1 181,611.1 "/>
<polygon points="212.7,596 232.5,596 222.6,611.1 204.7,611.1 "/>
<polygon points="236.5,596 256.3,596 246.4,611.1 228.5,611.1 "/>
<polygon points="260.5,596 280.3,596 270.4,611.1 252.5,611.1 "/>
<polygon points="284.5,596 304.3,596 294.4,611.1 276.5,611.1 "/>
<polygon points="308.5,596 328.3,596 318.4,611.1 300.5,611.1 "/>
<polygon points="332.5,596 352.3,596 342.4,611.1 324.5,611.1 "/>
<polygon points="357.5,596 377.3,596 367.4,611.1 349.5,611.1 "/>
<polygon points="382,596 401.8,596 391.9,611.1 374,611.1 "/>
<polygon points="405.7,596 425.5,596 415.6,611.1 397.7,611.1 "/>
<polygon points="429.5,596 449.3,596 439.4,611.1 421.5,611.1 "/>
<polygon points="453.5,596 473.3,596 463.4,611.1 445.5,611.1 "/>
<polygon points="477.5,596 497.3,596 487.4,611.1 469.5,611.1 "/>
<polygon points="501.5,596 521.3,596 511.4,611.1 493.5,611.1 "/>
<polygon points="525.5,596 545.3,596 535.4,611.1 517.5,611.1 "/>
<polygon points="550.5,596 570.3,596 560.4,611.1 542.5,611.1 "/>
<polygon points="575,596 594.8,596 584.9,611.1 567,611.1 "/>
<polygon points="598.7,596 618.5,596 608.6,611.1 590.7,611.1 "/>
<polygon points="622.5,596 642.3,596 632.4,611.1 614.5,611.1 "/>
<polygon points="646.5,596 666.3,596 656.4,611.1 638.5,611.1 "/>
<polygon points="670.5,596 690.3,596 680.4,611.1 662.5,611.1 "/>
<polygon points="694.5,596 714.3,596 704.4,611.1 686.5,611.1 "/>
<polygon points="718.5,596 738.3,596 728.4,611.1 710.5,611.1 "/>
<polygon points="743.5,596 763.3,596 753.4,611.1 735.5,611.1 "/>
<g>
	<path class="st1" d="M375.7,321.1c-0.1-54,44.6-99.7,101.1-98.4c52.4,1.2,96.6,43.7,96.4,99.2c-0.3,55.3-45.4,99.8-101.8,98.2
		C417.9,418.6,375.5,374.6,375.7,321.1z M449.1,291.3c4.1,4.1,8,8,11.9,12c3.7,3.7,3.6,3.6,8.1,1.2c1.8-1,2.3-2.1,2.3-4.1
		c-0.1-18.1,0-36.2,0-54.4c0-0.8,0-1.6,0-2.4c-14.3-0.6-38.1,6.7-54.5,24.8c-12.9,14-19.9,30.5-20.7,49.6c0.7,0.1,0.9,0.2,1.1,0.2
		c19.1,0,38.2,0,57.3,0c0.6,0,1.4-0.3,1.7-0.7c1.3-1.9,2.3-3.8,3.8-6.3c-5.3-5.1-10.6-10.1-15.7-14.9
		C446.1,294.5,447.5,293,449.1,291.3z M499.6,351.5c-4.1-4.2-8.1-8.3-12.2-12.4c-3.3-3.3-3.2-3.2-7.3-0.9c-1.8,1-2.4,2.2-2.4,4.3
		c0.1,10.4,0.1,20.8,0.1,31.2c0,7.9,0.1,15.8,0,23.7c0,1.8,0.6,2.5,2.4,2.2c2.1-0.3,4.2-0.5,6.3-0.8c20.9-3.2,37.8-13.4,50.6-30.1
		c9.5-12.3,14.4-26.5,15.7-41.9c0.2-2.1-0.9-2.1-2.4-2.1c-17.9,0-35.8,0.1-53.7-0.1c-2.9,0-4.6,0.8-5.9,3.4
		c-1.9,3.8-2.5,2.6,0.9,5.9c4.3,4.3,8.6,8.5,13,12.8C502.9,348.4,501.4,349.8,499.6,351.5z M471.3,343.7c-16,9.6-31.6,19-47.1,28.3
		c-0.1-0.1-0.2-0.3-0.3-0.4c9.3-15.5,18.6-31,28.1-46.8c-18.9,0-37.2,0-55.6,0c-0.1,0.6-0.1,1.1-0.1,1.5c0,0.8,0,1.7,0.1,2.5
		c0.9,7.9,2.6,15.7,5.9,23c13,28.6,35.3,44.4,66.4,47.8c2,0.2,2.7-0.4,2.7-2.5c-0.1-16.8-0.1-33.7-0.1-50.5
		C471.3,345.8,471.3,345.1,471.3,343.7z M477.9,299c15.8-9.5,31.3-18.8,46.8-28.1c0.1,0.1,0.2,0.3,0.3,0.4
		c-9.3,15.5-18.7,31.1-28.3,47c1.4,0,2.2,0,3.1,0c16,0,32,0,48,0c4.9,0,5,0,4.5-4.8c-1.1-12.4-5.1-23.8-11.8-34.2
		c-13-19.9-31.3-31.6-54.8-35.4c-2.6-0.4-5.2-0.4-7.8-0.7C477.9,261.9,477.9,280.2,477.9,299z"/>
</g>
</svg>
