<?xml version="1.0" encoding="utf-8"?>
<!-- Generator: Adobe Illustrator 19.0.1, SVG Export Plug-In . SVG Version: 6.00 Build 0)  -->
<svg version="1.1" id="Layer_1" xmlns="http://www.w3.org/2000/svg" xmlns:xlink="http://www.w3.org/1999/xlink" x="0px" y="0px"
	 viewBox="94 -4 800 800" style="enable-background:new 94 -4 800 800;" xml:space="preserve">
<style type="text/css">
	.st0{fill:none;stroke:#FFFFFF;stroke-width:13;stroke-miterlimit:10;}
</style>
<circle class="st0" cx="190.8" cy="91.5" r="55.5"/>
<g>
	<path class="st0" d="M853.9,743.1c-2,3.8-3.9,7.7-6,11.4c-4.3,7.6-10.8,11.9-19.7,11.9c-71.8,0-143.6,0-215.4,0
		c-12.8,0-22.5-9.9-22.5-22.4c0-12.6,9.8-22.3,22.6-22.3c63.1,0,126.2,0,189.3,0c2,0,4,0,6.4,0c0-97.8,0-195.1,0-293
		c-2.2,0-4.1,0-6.1,0c-101,0-202.1,0-303.1,0c-18.2,0-29.2-18.3-20.2-33.7c3.8-6.6,9.7-10.4,17.4-11c2-0.2,4-0.1,6.1-0.1
		c106,0,212,0.2,318-0.2c16.4-0.1,27.4,5.8,33.3,20.9C853.9,517.4,853.9,630.3,853.9,743.1z"/>
	<path class="st0" d="M431.4,444.1c2.1,0,3.9,0,5.7,0c40.6,0,81.1,0.4,121.7-0.2c16.4-0.3,31.9,13.6,35.9,26.2
		c16.8,53.4,34,106.7,50.9,160.1c1.2,3.7,2.7,5.1,6.7,5c10.6-0.3,21.1-0.1,31.7-0.1c17.5,0.1,31.5,14.1,31.5,31.4
		c-0.1,17.2-13.7,31.1-31.1,31.2c-23.6,0.2-47.2,0.1-70.9,0c-22.6-0.1-37.2-22.1-29.1-43.2c0.9-2.3,1.1-5.5,0.3-7.8
		c-14.2-45-28.6-89.9-42.8-134.8c-1.1-3.4-2.4-4.8-6.3-4.8c-47.1,0.2-94.2,0-141.3,0.1c-20,0-40.1,0.6-60.1,0.7
		c-27.6,0.1-48.5-20.6-48.5-48.2c0-68.5,0-137.1,0-205.6c0-26.9,21-47.9,47.9-47.9c16.5,0,33,0,49.4,0c21.3,0.1,39.3,13.5,45.9,33.8
		c0.9,2.8,2.7,5.6,4.7,7.7c16.3,16.5,32.6,32.9,49.2,49.1c1.8,1.8,5,3.1,7.6,3.1c32,0.2,64,0.4,96,0c14.2-0.2,23.2,11.1,23.1,21.6
		c-0.1,12.8-9.5,22.2-23,22.2c-35.9,0.1-71.8,0-107.7,0c-8.7,0-15.4-4.3-21.4-10c-7.4-7.1-14.5-14.5-21.8-21.7
		c-1.2-1.2-2.4-2.2-4.2-3.9C431.4,353.6,431.4,398.4,431.4,444.1z"/>
	<path class="st0" d="M358.3,766.2c-29.2,0-58.4,0-87.7,0c-12.2,0-21.8-8.3-23.6-20.2c-1.6-10.8,5.5-21.8,16.5-25c3.3-1,7-1,10.6-1
		c18.5-0.1,37-0.1,55.5,0c4.1,0,5.7-1.1,5.7-5.5c-0.1-41.8-0.1-83.6,0-125.4c0-4.2-1.3-5.6-5.6-5.6c-30.6,0.1-61.2,0.1-91.9,0
		c-14.7-0.1-26.8-9.1-31.2-22.8c-4.4-13.8,0-28.3,11.8-36.9c3.1-2.2,4.1-4.2,3.4-8c-4.6-27.8-9-55.6-13.5-83.5
		c-4.2-26.1-8.4-52.3-12.7-78.4c-3-18.5-5.7-37-9-55.5c-3.3-18.7,8.5-36.3,27.2-39.6c17.9-3.2,35.1,9.2,38.2,27.9
		c6.6,40.5,13.1,81,19.6,121.5c5.6,34.9,11.3,69.7,16.8,104.6c0.6,4,2.8,4.3,6.1,4.3c60.9-0.1,121.9-0.1,182.8,0
		c16.1,0,28.9,9.3,33.3,24.1c6.2,20.7-9.2,42.2-30.7,42.3c-30.6,0.2-61.2,0.1-91.9,0.1c-6.4,0-6.4,0-6.4,6.4
		c0,41.3,0.1,82.7-0.1,124c0,4.7,1.3,6.1,6,6.1c20.4-0.2,40.7-0.2,61.1,0.2c12.6,0.3,21.3,10.5,21,23.7c-0.2,12.4-10,22.3-22.2,22.3
		C417.7,766.2,388,766.1,358.3,766.2z"/>
	<path class="st0" d="M358.2,72.3c34.9,0,63,28,62.8,62.7c-0.2,34.8-28.2,62.4-63.2,62.4c-34.4,0-62.3-28.2-62.2-62.8
		C295.6,100,323.5,72.3,358.2,72.3z"/>
	<path class="st0" d="M695.6,364.3c5.2,0,9.5,0,13.8,0c3.8,0,6.4,1.4,6.6,5.5c0.2,3.7-2.2,5.8-6.7,5.8c-59.7,0-119.3,0-179,0
		c-4.6,0-6.7-2-6.7-5.9c0-3.8,2.2-5.5,7.5-5.5c49.1,0,98.2-0.1,147.3,0.1c5.8,0,8.7-1.8,11.5-6.7c25.3-45.2,50.9-90.3,76.5-135.4
		c0.4-0.7,0.7-1.4,1.1-2c1.5-2.5,3-5.2,6.5-3.3c3.4,1.9,2.3,4.5,0.8,7.2c-8,14.2-16.1,28.4-24.1,42.5
		c-17.6,31.1-35.2,62.1-52.7,93.2C697.3,361,696.8,362.1,695.6,364.3z"/>
</g>
<path class="st0" d="M166.5,84.6c2.8,1.5,6.1,2.5,8.4,4.6c5.7,5.3,10.1,3.9,15.4-1c6.2-5.8,13.4-10.6,20.1-15.8
	c1-0.8,2.3-1.3,3.5-1.9c0.5,0.5,1.1,1,1.6,1.4c-6.3,8-12.5,16-18.9,24c-13.5,16.8-15,17.5-28.3-2.5c-1.5-2.2-2.4-4.7-3.6-7.1
	C165.3,85.8,165.9,85.2,166.5,84.6z"/>
</svg>
