<?xml version="1.0" encoding="utf-8"?>
<!-- Generator: Adobe Illustrator 19.0.1, SVG Export Plug-In . SVG Version: 6.00 Build 0)  -->
<svg version="1.1" id="Layer_1" xmlns="http://www.w3.org/2000/svg" xmlns:xlink="http://www.w3.org/1999/xlink" x="0px" y="0px"
	 viewBox="94 -4 800 800" style="enable-background:new 94 -4 800 800;" xml:space="preserve">
<style type="text/css">
	.st0{fill:none;stroke:#FFFFFF;stroke-width:13;stroke-miterlimit:10;}
</style>
<g>
	<path class="st0" d="M161.3,703.5c2.2-12.4,4.5-24.8,6.5-37.3c6-36.5,23.6-64.8,59.8-77.1c50.9-17.2,102.3-32.8,154.4-49.3
		c-1.8,80,39.2,136,91.1,185.2c24.1,22.8,20.7,21.8,46.7,0.3c41.5-34.3,67.5-79.8,85.8-129.4c6-16.2,4.2-35.2,6.1-54.8
		c46.8,14,94.5,27.7,141.8,42.4c51.7,16,71.8,55.3,75.1,105.8c1.6,24.8,2.2,49.6,3.2,74.4c-223.5,0-447.1,0-670.6,0
		C161.3,743.6,161.3,723.5,161.3,703.5z"/>
	<path class="st0" d="M686,293.2c12.8,0.3,11-10.6,11.1-18.7c0.3-21.7,0.2-43.4,0.1-65.1c-0.2-25-7.4-47.9-20.8-68.9
		C649.5,98.4,611,72.1,563.5,58.6c-14.1-4-28.6-6.5-42.9-9.7h-44.5C449.3,56.4,420.6,60,396,72c-63.5,31-103.5,79.6-100.3,155
		c0.6,13.2,0.7,26.5-0.2,39.7c-0.3,5-2.9,11.1-6.5,14.3c-13.1,11.2-18.3,25.7-14.6,41.2c4.8,19.9,11.6,39.6,20,58.2
		c7,15.7,20.2,27.1,38.9,24.4c14.3-2.1,16.2,3.8,15.7,15.4c-1.6,36.7-12.7,67.9-51.1,86.2c42.1,13.8,79.7,18.5,113.3-10.4
		c74.5,59.4,99.4,56.7,171.5,0.2c33.9,29.6,71.3,23.5,112.8,10.2c-38.5-18.2-50.6-48.9-50.8-85.6c0-7.6,3.3-16.6,8.1-22.6
		c13.2-16.3,20.8-34.5,21.7-55.1c0.7-15.8-1.2-31.2-17.1-34.7c0-28.6,1-55.5-0.2-82.4c-1.9-40.7-18.1-74.8-52.1-98.8
		C559.6,95,508.8,87.4,455.3,98.4c-82.2,16.9-122,68.1-119.8,152.1c0.5,18.2,2.2,36.5,3.5,55.9c-15.3-24.2-23.6-47.9-22.6-76.7
		c1.3-40,14.5-73.1,41.1-101.8c50.8-55.1,141.5-73,215.8-42.6c67,27.4,102.9,80.5,102.9,152.2c0,12.2-0.3,24.4,0.1,36.5
		C676.4,281.6,672.9,292.8,686,293.2z M349.1,319.9c3-0.6,7.6,0.4,9.7,2.5c4.3,4.4,7.3,10,12.7,17.7c-2.5-13.3-4.7-23.5-6.4-33.8
		c-3.4-20.6,7.9-32.1,28.8-33.7c33.1-2.5,66.5-4.5,98.8-11.1c38.9-7.9,68.8-31.3,89.4-66.8c49.5,37.7,59.8,85.3,41.4,142.4
		c0.9-1.1,2-2.2,2.7-3.4c0.9-1.3,1.2-3.2,2.3-4.1c4.6-3.7,9.5-7.1,14.3-10.6c3.6,6,11.1,12.6,10.2,17.7
		c-2.6,14.7-7.7,29.2-13.7,42.9c-4.6,10.4-12.7,19.2-18.2,29.2c-23.7,43.1-54.8,78.8-99.1,101.9c-17.4,9.1-33.7,9.1-51.2-0.1
		c-27.1-14.2-49.4-33.5-67.7-57.3c-4.3-4.3-6.6-10-7.7-16.2c-4.8-7.1-8.7-14.9-12.2-22.7c-0.8-1.9-1.3-3.9-1.4-5.8
		c-0.2-0.3-0.4-0.6-0.6-0.8c-0.6-0.8-1-1.6-1.3-2.4c-4.2-4.3-8.1-8.9-11.6-14c-12.6-18.5-16.7-42.8-24.1-64.7
		C343.6,325.1,347,320.4,349.1,319.9z"/>
	<path class="st0" d="M496.8,718.4c-4.7-3.3-9.1-6.2-13.2-9.4c-32.2-24.8-33.5-29.6-18.4-66.8c1.6-3.9,2.6-8.1,4.8-11.7
		c6.5-11.2,5-19.6-5.3-28.4c-5.2-4.4-11.2-16.6-9.1-19.2c6.4-8,16.1-17.9,25.1-18.4c16.4-0.9,34.6-7.1,49.7,7.5
		c9.7,9.4,11.6,18.1,0.8,26c-16.3,11.8-13.6,24.8-5.4,39.3c1,1.8,1.7,3.9,2.5,5.8c14.9,35.5,14.6,36.9-15,62.4
		C508,709.9,502.4,714,496.8,718.4z"/>
</g>
<path class="st0" d="M450.4,445.1c0,0,28.3-17.1,47.9-13.8c0,0,17.9,2.2,21.3,27.8c0,0-4.2,22.5-28.2,20.7c0,0-31.6,2.1-92.9-27.2
	l-21.7-50.1C376.8,402.7,417.6,440,450.4,445.1z"/>
</svg>
