<?xml version="1.0" encoding="utf-8"?>
<!-- Generator: Adobe Illustrator 19.0.1, SVG Export Plug-In . SVG Version: 6.00 Build 0)  -->
<svg version="1.1" id="Layer_1" xmlns="http://www.w3.org/2000/svg" xmlns:xlink="http://www.w3.org/1999/xlink" x="0px" y="0px"
	 viewBox="94 -4 800 800" style="enable-background:new 94 -4 800 800;" xml:space="preserve">
<style type="text/css">
	.st0{fill:none;stroke:#FFFFFF;stroke-width:13;stroke-miterlimit:10;}
</style>
<g>
	<path class="st0" d="M469.6,772c1.2-5,2.3-10,3.5-15.1c1.4-6,2.8-12,4.4-18c0.6-2.1,0.2-3.5-1.5-4.9c-8-6.7-16-13.6-24-20.4
		c-1.6-1.3-3.2-2.6-2.5-5c0.8-2.6,3.1-2.4,5.2-2.5c10.7-0.8,21.3-1.6,31.9-2.6c1.1-0.1,2.5-1.5,3-2.6c4.2-9.8,8.3-19.7,12.4-29.5
		c0.7-1.8,1.4-3.6,3.8-3.6s3.1,1.9,3.8,3.6c4.1,9.8,8.2,19.5,12.2,29.3c0.9,2.2,2,3,4.4,3.1c10.8,0.7,21.5,1.5,32.3,2.5
		c1.3,0.1,3.3,1.4,3.6,2.4c0.3,1.3-0.6,3.3-1.6,4.3c-8,7.1-16.1,14-24.4,20.9c-1.8,1.5-2.3,2.8-1.7,5.1c2.5,10,4.8,20,7.2,30
		c0.2,0.7,0.5,1.4,0.4,2c-0.2,1.4-0.3,3.2-1.2,3.9c-0.9,0.7-3,0.6-4.1,0c-6.1-3.5-12-7.2-18-10.8c-3.6-2.2-7.2-4.3-10.7-6.6
		c-1.5-1-2.6-0.9-4,0c-9.4,5.8-18.9,11.6-28.4,17.3C472.6,776.5,469.6,775.1,469.6,772z"/>
</g>
<g>
	<path class="st0" d="M562.5,727.6c0.7-3.2,1.5-6.4,2.3-9.7c0.9-3.9,1.8-7.7,2.8-11.6c0.4-1.4,0.2-2.2-1-3.2
		c-5.2-4.3-10.3-8.8-15.4-13.1c-1-0.9-2.1-1.7-1.6-3.2c0.5-1.6,2-1.5,3.3-1.6c6.9-0.5,13.7-1,20.5-1.7c0.7-0.1,1.6-1,1.9-1.7
		c2.7-6.3,5.3-12.7,7.9-19c0.5-1.1,0.9-2.3,2.4-2.3c1.6,0,2,1.2,2.4,2.3c2.6,6.3,5.3,12.5,7.8,18.8c0.6,1.4,1.3,1.9,2.8,2
		c6.9,0.4,13.8,1,20.7,1.6c0.8,0.1,2.1,0.9,2.3,1.5c0.2,0.8-0.4,2.1-1.1,2.8c-5.1,4.6-10.4,9-15.7,13.4c-1.1,0.9-1.5,1.8-1.1,3.3
		c1.6,6.4,3.1,12.8,4.6,19.3c0.1,0.4,0.3,0.9,0.3,1.3c-0.2,0.9-0.2,2.1-0.8,2.5c-0.6,0.4-1.9,0.4-2.6,0c-3.9-2.2-7.7-4.6-11.5-7
		c-2.3-1.4-4.6-2.8-6.9-4.2c-0.9-0.6-1.6-0.6-2.6,0c-6.1,3.8-12.2,7.5-18.3,11.2C564.4,730.5,562.5,729.6,562.5,727.6z"/>
</g>
<g>
	<path class="st0" d="M403,727.6c0.7-3.2,1.5-6.4,2.3-9.7c0.9-3.9,1.8-7.7,2.8-11.6c0.4-1.4,0.2-2.2-1-3.2
		c-5.2-4.3-10.3-8.8-15.4-13.1c-1-0.9-2.1-1.7-1.6-3.2c0.5-1.6,2-1.5,3.3-1.6c6.9-0.5,13.7-1,20.5-1.7c0.7-0.1,1.6-1,1.9-1.7
		c2.7-6.3,5.3-12.7,7.9-19c0.5-1.1,0.9-2.3,2.4-2.3c1.6,0,2,1.2,2.4,2.3c2.6,6.3,5.3,12.5,7.8,18.8c0.6,1.4,1.3,1.9,2.8,2
		c6.9,0.4,13.8,1,20.7,1.6c0.8,0.1,2.1,0.9,2.3,1.5c0.2,0.8-0.4,2.1-1.1,2.8c-5.1,4.6-10.4,9-15.7,13.4c-1.1,0.9-1.5,1.8-1.1,3.3
		c1.6,6.4,3.1,12.8,4.6,19.3c0.1,0.4,0.3,0.9,0.3,1.3c-0.2,0.9-0.2,2.1-0.8,2.5c-0.6,0.4-1.9,0.4-2.6,0c-3.9-2.2-7.7-4.6-11.5-7
		c-2.3-1.4-4.6-2.8-6.9-4.2c-0.9-0.6-1.6-0.6-2.6,0c-6.1,3.8-12.2,7.5-18.3,11.2C404.9,730.5,403,729.6,403,727.6z"/>
</g>
<g>
	<path class="st0" d="M626.9,704.5c0.6-2.6,1.2-5.2,1.8-7.9c0.7-3.1,1.5-6.3,2.3-9.4c0.3-1.1,0.1-1.8-0.8-2.6
		c-4.2-3.5-8.3-7.1-12.5-10.7c-0.8-0.7-1.7-1.4-1.3-2.6c0.4-1.3,1.6-1.2,2.7-1.3c5.6-0.4,11.1-0.8,16.7-1.4c0.6-0.1,1.3-0.8,1.6-1.4
		c2.2-5.1,4.3-10.3,6.5-15.4c0.4-0.9,0.7-1.9,2-1.9s1.6,1,2,1.9c2.1,5.1,4.3,10.2,6.4,15.3c0.5,1.1,1.1,1.6,2.3,1.6
		c5.6,0.4,11.2,0.8,16.9,1.3c0.7,0.1,1.7,0.7,1.9,1.3c0.1,0.7-0.3,1.7-0.9,2.2c-4.2,3.7-8.4,7.3-12.7,10.9c-0.9,0.8-1.2,1.4-0.9,2.7
		c1.3,5.2,2.5,10.4,3.7,15.7c0.1,0.4,0.3,0.7,0.2,1.1c-0.1,0.7-0.2,1.7-0.6,2c-0.5,0.3-1.6,0.3-2.1,0c-3.2-1.8-6.3-3.8-9.4-5.7
		c-1.9-1.1-3.8-2.3-5.6-3.5c-0.8-0.5-1.3-0.5-2.1,0c-4.9,3.1-9.9,6.1-14.8,9.1C628.4,706.9,626.9,706.2,626.9,704.5z"/>
</g>
<g>
	<path class="st0" d="M349.3,704.5c0.6-2.6,1.2-5.2,1.8-7.9c0.7-3.1,1.5-6.3,2.3-9.4c0.3-1.1,0.1-1.8-0.8-2.6
		c-4.2-3.5-8.3-7.1-12.5-10.7c-0.8-0.7-1.7-1.4-1.3-2.6c0.4-1.3,1.6-1.2,2.7-1.3c5.6-0.4,11.1-0.8,16.7-1.4c0.6-0.1,1.3-0.8,1.6-1.4
		c2.2-5.1,4.3-10.3,6.5-15.4c0.4-0.9,0.7-1.9,2-1.9s1.6,1,2,1.9c2.1,5.1,4.3,10.2,6.4,15.3c0.5,1.1,1.1,1.6,2.3,1.6
		c5.6,0.4,11.2,0.8,16.9,1.3c0.7,0.1,1.7,0.7,1.9,1.3c0.1,0.7-0.3,1.7-0.9,2.2c-4.2,3.7-8.4,7.3-12.7,10.9c-0.9,0.8-1.2,1.4-0.9,2.7
		c1.3,5.2,2.5,10.4,3.7,15.7c0.1,0.4,0.3,0.7,0.2,1.1c-0.1,0.7-0.2,1.7-0.6,2c-0.5,0.3-1.6,0.3-2.1,0c-3.2-1.8-6.3-3.8-9.4-5.7
		c-1.9-1.1-3.8-2.3-5.6-3.5c-0.8-0.5-1.3-0.5-2.1,0c-4.9,3.1-9.9,6.1-14.8,9.1C350.8,706.9,349.3,706.2,349.3,704.5z"/>
</g>
<g>
	<path class="st0" d="M442.6,567.2c0.5-0.1,1-0.2,1.5-0.4c6,9.8,12,19.6,18,29.5c7.1,11.8,17.7,18,31.2,18.1
		c49.7,0.3,99.4,0.4,149.1,0c20.6-0.2,36-17,35.9-37.2c-0.1-20.1-15.1-35-35.9-36.4c-39.9-2.8-79.7-6-119.6-9
		c-4.7-0.3-7.2-2.1-9.2-6.5c-24.5-54.5-49.4-108.9-73.9-163.4c-4.4-9.8-10.5-18.1-19.3-24.1c-8.2-5.6-16.6-11.1-25.6-15
		c-71.2-30.6-142.1-28-212.9,2.1c-21.3,9.1-32.2,25.5-34.1,47.5c-1.8,20.7-1.4,41.6-1.5,62.4c-0.2,51.4-0.1,102.8-0.1,154.2
		c0,16,9.3,25.4,25.1,25.6c2.4,0,4.8,0,7.3,0c85.1,0,170.2,0,255.2,0c2.6,0,5.2,0,8.6,0C442.6,598.3,442.6,582.8,442.6,567.2z
		 M381.4,113c0.1-21.2-4-35.7-12.1-49c-26.6-43.7-86-60.4-135.1-38.1c-35,15.9-61.2,51.2-55,96.1c4.3,30.7,11.9,60.2,24.2,88.5
		c8.2,18.8,19.5,35.7,35.1,49.4c25.6,22.5,56.6,23,82,0.3c8.7-7.8,16.8-17,23.1-26.9C367.8,195,377.9,152.2,381.4,113z M489.3,254.3
		c111,0,221.2,0,331.5,0c0,77.7,0,154.9,0,232.6c-99.2,0-198,0-296.9,0c4.6,19,8.1,21.9,26.2,22.8c2.4,0.1,4.8,0.1,7.3,0.1
		c90.2,0,180.3,0,270.5,0c12.5,0,16.1-3.6,16.1-15.8c0-81.7,0-163.4,0-245.1c0-14.9-2.9-17.9-17.8-17.9c-114.9,0-229.8,0-344.7,0
		c-11.4,0-15.2,3.8-15.2,15.3c0,25.7,1.1,51.4-0.3,77.1c-1.4,26.3,2.2,50.9,15.9,73.7c2.4,4.1,4.1,8.6,6.1,12.9
		c0.4-0.2,0.9-0.3,1.3-0.5C489.3,358,489.3,306.4,489.3,254.3z M672.5,289.3c-6.4,0.5-9.8,4.5-11.5,11.2
		c-11.1,45.1-22.5,90.1-33.7,135.2c-1.9,7.8,1.1,13.7,7.7,15.6c6.2,1.7,12.1-2.4,14.1-10.2c2.8-10.8,5.5-21.6,8.1-32.4
		c8.7-34.7,17.4-69.5,26-104.2C685.2,296.5,680.5,289.7,672.5,289.3z M700.3,594.1c24.5,0,48.2,0.2,71.9-0.1
		c6.3-0.1,10.9-5.8,10.7-11.6c-0.3-6.1-5.2-10.7-12.2-10.9c-8.7-0.2-17.4-0.1-26.1-0.1c-8.4,0-16.7,0-25.7,0c0-17,0-32.8,0-49.1
		c-16.9,0-33.3,0-50.8,0C696.2,538.6,706.4,562.3,700.3,594.1z M609.8,323c-3.1-3.3-5.5-7.3-9.1-9.4c-5.2-3-9.9-0.3-13.2,4.1
		c-11,14.4-21.8,29-32.7,43.5c-5.6,7.5-5.7,10.7-0.2,18.2c10.4,14,20.8,27.9,31.3,41.8c5.8,7.7,11.9,9.2,17.8,4.6
		c5.9-4.6,5.9-10.6,0.1-18.5c-7.8-10.5-15.5-21.1-23.6-31.3c-3.2-4.1-3.6-6.9-0.2-11.1c8.3-10.4,16.2-21.1,24.1-31.8
		C606.1,330.5,607.4,327.4,609.8,323z M734.1,370.5c-10.1,13.5-19.8,26.2-29.2,39.1c-4.5,6.2-3.5,12.7,2.1,16.6
		c5.3,3.8,11.3,2.9,15.9-3c11.5-15,23-30,33.8-45.4c2.1-3.1,3-9.8,1.2-12.5c-11.5-16.7-23.8-32.9-36.3-48.9c-3.9-5-10.3-5.1-15-1.1
		c-4.9,4.2-5.9,9.2-2.5,14.9c1,1.6,2.2,3.2,3.4,4.7C716.2,346.5,725,358.3,734.1,370.5z"/>
	<path class="st0" d="M442.6,567.2c0,15.6,0,31.1,0,47.3c-3.4,0-6,0-8.6,0c-85.1,0-170.2,0-255.2,0c-2.4,0-4.8,0-7.3,0
		c-15.8-0.2-25.1-9.6-25.1-25.6c0-51.4-0.1-102.8,0.1-154.2c0.1-20.8-0.3-41.7,1.5-62.4c1.9-21.9,12.8-38.4,34.1-47.5
		c70.8-30.1,141.7-32.7,212.9-2.1c9,3.9,17.4,9.4,25.6,15c8.8,6,14.8,14.3,19.3,24.1c24.5,54.5,49.4,108.9,73.9,163.4
		c2,4.4,4.5,6.2,9.2,6.5c39.9,2.9,79.7,6.1,119.6,9c20.8,1.5,35.8,16.3,35.9,36.4c0.1,20.3-15.4,37.1-35.9,37.2
		c-49.7,0.4-99.4,0.3-149.1,0c-13.5-0.1-24.1-6.3-31.2-18.1c-5.9-9.9-12-19.7-18-29.5C443.6,567,443.1,567.1,442.6,567.2z"/>
	<path class="st0" d="M381.4,113c-3.6,39.2-13.6,82-37.8,120.3c-6.2,9.9-14.3,19.1-23.1,26.9c-25.4,22.7-56.4,22.2-82-0.3
		c-15.6-13.7-26.9-30.5-35.1-49.4c-12.3-28.3-20-57.9-24.2-88.5c-6.3-45,20-80.2,54.9-96.1C283.3,3.6,342.6,20.3,369.2,64
		C377.4,77.3,381.5,91.8,381.4,113z"/>
	<path class="st0" d="M489.3,254.3c0,52.1,0,103.7,0,155.2c-0.4,0.2-0.9,0.3-1.3,0.5c-2-4.3-3.6-8.9-6.1-12.9
		c-13.7-22.8-17.3-47.4-15.9-73.7c1.4-25.6,0.3-51.4,0.3-77.1c0-11.4,3.8-15.3,15.2-15.3c114.9,0,229.8,0,344.7,0
		c14.8,0,17.8,3,17.8,17.9c0,81.7,0,163.4,0,245.1c0,12.3-3.6,15.8-16.1,15.8c-90.2,0-180.3,0-270.5,0c-2.4,0-4.9,0-7.3-0.1
		c-18.1-0.8-21.6-3.8-26.2-22.8c98.9,0,197.7,0,296.9,0c0-77.8,0-155,0-232.6C710.5,254.3,600.4,254.3,489.3,254.3z"/>
	<path class="st0" d="M672.5,289.3c8,0.4,12.7,7.3,10.7,15.2c-8.6,34.7-17.3,69.5-26,104.2c-2.7,10.8-5.3,21.6-8.1,32.4
		c-2,7.7-7.9,11.9-14.1,10.2c-6.6-1.8-9.6-7.8-7.7-15.6c11.2-45.1,22.6-90.1,33.7-135.2C662.7,293.8,666.1,289.7,672.5,289.3z"/>
	<path class="st0" d="M700.3,594.1c6.1-31.8-4.1-55.5-32.3-71.8c17.5,0,33.9,0,50.8,0c0,16.2,0,32.1,0,49.1c9,0,17.3,0,25.7,0
		c8.7,0,17.4-0.1,26.1,0.1c7,0.2,12,4.8,12.2,10.9c0.3,5.8-4.4,11.5-10.7,11.6C748.5,594.3,724.8,594.1,700.3,594.1z"/>
	<path class="st0" d="M609.8,323c-2.4,4.4-3.7,7.5-5.7,10.1c-7.9,10.7-15.7,21.5-24.1,31.8c-3.4,4.2-3.1,7.1,0.2,11.1
		c8.1,10.2,15.8,20.8,23.6,31.3c5.9,7.9,5.8,13.9-0.1,18.5c-5.9,4.6-12,3.1-17.8-4.6c-10.5-13.9-21-27.8-31.3-41.8
		c-5.5-7.5-5.5-10.6,0.2-18.2c10.8-14.5,21.7-29.1,32.7-43.5c3.3-4.4,8.1-7.1,13.2-4.1C604.3,315.7,606.7,319.7,609.8,323z"/>
	<path class="st0" d="M734.1,370.5c-9.1-12.2-17.9-24-26.7-35.8c-1.2-1.6-2.4-3.1-3.4-4.7c-3.4-5.6-2.4-10.7,2.5-14.9
		c4.6-3.9,11.1-3.9,15,1.1c12.5,16,24.8,32.2,36.3,48.9c1.9,2.7,1,9.4-1.2,12.5c-10.8,15.5-22.3,30.5-33.8,45.4
		c-4.6,6-10.5,6.8-15.9,3c-5.5-3.9-6.6-10.4-2.1-16.6C714.3,396.7,724,384,734.1,370.5z"/>
</g>
</svg>
