<?xml version="1.0" encoding="utf-8"?>
<!-- Generator: Adobe Illustrator 19.0.1, SVG Export Plug-In . SVG Version: 6.00 Build 0)  -->
<svg version="1.1" id="Layer_1" xmlns="http://www.w3.org/2000/svg" xmlns:xlink="http://www.w3.org/1999/xlink" x="0px" y="0px"
	 viewBox="94 -4 800 800" style="enable-background:new 94 -4 800 800;" xml:space="preserve">
<style type="text/css">
	.st0{fill:#383838;}
	.st1{fill:#F26222;}
</style>
<g>
	<path class="st0" d="M689.4,305.4c18.5,2.7,25.4,13.7,23.9,31.3c-1.6,19.7,7.6,44.2-24.4,49.3c2.4,14.4-6.4,29.2,10.9,40.4
		c8.7,5.6,1.8,54.1-5.5,62.6c-3,3.5-4.9,8.8-5.5,13.5c-4.2,31.9-19.1,57-44.4,76.9c-6,4.7-11.2,13.3-12.4,20.7
		c-4.9,29.3-8.3,58.9-11.7,88.4c-4.6,40.3-36.1,71.4-77,72.7c-39.9,1.3-79.9,1.3-119.7,0c-40.8-1.4-71.8-32.2-76.6-73
		c-2.7-22.8-6-45.6-8.1-68.5c-1.8-19.3-7.3-34.1-25.2-46.5c-26.2-18.2-38.5-46.8-38.8-79c-0.5-64.9-0.5-129.9,0-194.8
		c0.3-37,17.2-65.6,46.7-87.9c6.9-5.2,13-14.9,14.5-23.4c5-27.9,8-56.2,11.2-84.4c4.5-39.4,35.3-70.8,75.1-72.4
		c40.5-1.6,81.2-1.5,121.7-0.1c40.6,1.4,71.8,33.2,76.1,73.6c3.2,29.6,7,59.1,11.5,88.5c1,6.4,5,14.1,10.1,17.8
		C673.1,233.8,688.8,264.2,689.4,305.4z M483.3,209.2c-29.1,0-58.2-0.2-87.2,0c-60.8,0.6-103.9,42.7-104.4,103.1
		c-0.5,56.8-0.5,113.6,0,170.4c0.5,59.4,42.9,102.7,102.1,103.6c60.2,0.9,120.4,0.9,180.6,0c56.6-0.9,99.5-41.8,101.1-98.1
		c1.7-60.1,1.6-120.4,0-180.5c-1.5-57.4-45-97.7-102.8-98.3C542.8,208.9,513,209.2,483.3,209.2z"/>
</g>
<g>
	<path class="st1" d="M159.4,250.1c-10.5-54.3,37.7-135.9,120.9-140.3c3.4,18.4,3.4,18.4-14,22.4c-48.8,11.3-83.3,51.6-88,102.9
		C176.9,251.1,176.9,251.1,159.4,250.1z"/>
	<path class="st1" d="M291,149.4c1,6.5,1.9,12.3,2.8,18.6c-48.1,9.3-73.8,37.9-76,86.9c-4.5,0.2-8.4,0.5-12.4,0.5
		c-1.9,0-3.8-0.4-5.5-0.6C189.9,207.2,239,149.7,291,149.4z"/>
	<path class="st1" d="M258,260.1c-6.2,0-12.1,0-17.9,0c-7.5-28.3,22.3-70.7,61.7-72c3,18,3,17.9-12,24.2
		c-17,7.1-27.3,19.7-29.9,38.2C259.5,253.5,258.7,256.5,258,260.1z"/>
</g>
</svg>
