<?xml version="1.0" encoding="utf-8"?>
<!-- Generator: Adobe Illustrator 19.0.1, SVG Export Plug-In . SVG Version: 6.00 Build 0)  -->
<svg version="1.1" id="Layer_1" xmlns="http://www.w3.org/2000/svg" xmlns:xlink="http://www.w3.org/1999/xlink" x="0px" y="0px"
	 viewBox="94 -4 800 800" style="enable-background:new 94 -4 800 800;" xml:space="preserve">
<style type="text/css">
	.st0{fill:#FFFFFF;}
</style>
<g>
	<path class="st0" d="M483.6,353.4c-1.1-20.8-2.2-41.7-3.4-63.4c8.9,0,19.2,0,28.5,0c-1.3,21.1-2.6,42.5-3.9,63.8
		c1.4,0.3,2.8,0.6,4.2,0.9c1.8-3.7,3.8-7.3,5.3-11.2C524,318.1,534,292.8,543,267c3.3-9.4,7.5-11,16.1-7.3
		c14.6,6.2,29.7,11.2,44.2,17.7c48.4,21.6,70.6,59.7,71.5,112.2c0.3,16.8-4.5,29.3-15.3,41.7c-91.9,104.8-259.6,98.2-341.9-14
		c-4-5.4-6.7-13.3-6.6-20c0.2-17.4,0.6-35.2,3.9-52.2c6.3-31.9,26.6-53.9,55.7-66.7c18.5-8.2,38.2-13.6,57.4-20.3
		c8-2.8,10.9,2.2,13.4,8.3c10.7,25.5,21.5,51,32.3,76.5c1.7,3.9,3.7,7.7,5.6,11.6C480.8,354.1,482.2,353.7,483.6,353.4z"/>
	<path class="st0" d="M289.4,436.4c102.7,142.5,307.1,139.1,406.3,0.6c2.9,1.9,5.9,3.6,8.7,5.7c11.2,8.8,22.6,17.5,33.4,26.7
		c12.5,10.6,22.4,19.5,42.1,9.3c20.9-10.8,47.7,2,60.1,22.1c12.8,20.8,10.7,46.2-5.4,64.6c-15.8,18.1-41.5,23.4-63.5,13.1
		c-21.6-10.1-33.5-33-30.2-57.4c0.4-2.8,0.1-7.2-1.7-8.7c-12-10.2-24.6-19.9-39.5-31.7c-4.6,5.8-8,11.5-12.7,15.9
		c-47.4,45.1-103.5,71.4-168.8,77.2c-6.7,0.6-9.5,3.3-9.5,9.8c0.1,10.2-0.8,20.5,0.4,30.5c0.5,4.1,4.7,9.1,8.5,11.3
		c21.9,12.5,32.4,32.3,29.3,57c-2.7,21.1-19.3,38.5-42.1,44c-24.3,5.9-50.1-7-60.5-30.2c-10.3-23-3.7-52.8,17.5-65.2
		c12.9-7.5,15.8-16,15.3-29.4c-0.9-25.2-0.2-25.8-24.6-29.4c-63.6-9.5-117.4-37.5-161.8-83.7c-5.3-5.5-9-5.4-14.2-0.6
		c-4.8,4.4-10,8.4-15.3,12.2c-9.9,7-16.1,13.5-13.8,28.6c3.9,25.9-20,51.4-47.1,54.8c-27.9,3.5-54.2-16-59.9-44.4
		c-5.2-25.6,12-53.7,37.3-61.3c13.5-4.1,26.9-3.7,39,3.3c8,4.7,13.1,2.6,19.4-2.5C253.6,464.6,271.3,450.9,289.4,436.4z"/>
	<path class="st0" d="M572.3,154.8c-1.1,39.3-13,70.7-36.1,97.5c-25.6,29.7-58.4,30.9-84,1.5c-31.6-36.3-46.2-78.3-33.4-126.5
		C429,88.5,460.9,63,495.7,64c33.8,0.9,65.2,29.8,73.4,67.9C571,140.7,571.6,149.6,572.3,154.8z"/>
</g>
</svg>
