<?xml version="1.0" encoding="utf-8"?>
<!-- Generator: Adobe Illustrator 19.0.1, SVG Export Plug-In . SVG Version: 6.00 Build 0)  -->
<svg version="1.1" id="Layer_1" xmlns="http://www.w3.org/2000/svg" xmlns:xlink="http://www.w3.org/1999/xlink" x="0px" y="0px"
	 viewBox="94 -4 800 800" style="enable-background:new 94 -4 800 800;" xml:space="preserve">
<style type="text/css">
	.st0{fill:#383838;}
	.st1{fill:#F26222;}
</style>
<g>
	<path class="st0" d="M328,702.8c0-29.6,0-58,0-90.3c-31.4,8.5-59.6,15.9-87.7,23.7c-36.1,10-60.5,3.6-76.8-20.5
		c-16.2-23.9-14-46.5,7.9-76.7c49.1-67.6,98.4-135,147.4-202.6c17.5-24.2,40.5-37.2,70.8-37c65.8,0.3,131.7,0.4,197.6-0.1
		c30.5-0.2,53.4,12.7,70.9,36.7c50.2,68.8,100.5,137.7,150.6,206.6c17.9,24.7,19.6,51.4,5,72.9c-15.6,23.1-40.4,30.8-71.8,22.2
		c-29.9-8.2-59.8-16.4-92.2-25.3c0,31.7,0,60.1,0,90.4C542.7,702.8,437.6,702.8,328,702.8z M606.2,601c-34.9-17.2-57.9-39.1-44.1-77
		c15.3-42,50.4-40,86.2-32.1c0-41.2,0-80.3,0-121.7c-47.8,15.6-93.1,31.4-139,44.8c-12.7,3.7-28.2,3.7-40.9,0
		c-46.6-13.6-92.5-29.5-140.7-45.1c0,42.4,0,81.6,0,120.8c54.8-4.7,77.7,2.9,86.7,31.3c3.6,11.4,5.7,27.2,0.6,36.6
		c-9.2,16.7-24.5,30-37.2,44.8c32.1,10.6,67,22.4,102.1,33.6c5.2,1.7,11.9,2,17.1,0.4C531.9,626.2,566.7,614.3,606.2,601z"/>
	<path class="st0" d="M493.9,65.5c57.2,1,101.1,46.9,100.4,105.1c-0.6,57.2-47.1,103-103.7,102.3c-57.7-0.8-105.5-49.2-104-105.6
		C388,109.5,435.5,64.5,493.9,65.5z"/>
	<path class="st0" d="M491.7,777.2c-101.3,0-202.5,0-303.8,0c-6.7,0-14.2,1.5-20-0.8c-5.2-2-11.8-8.4-11.9-12.9
		c-0.1-4.6,6.3-11.6,11.3-13.5c6.7-2.6,14.9-1.6,22.5-1.6c203.4-0.1,406.7,0,610.1,0c2.5,0,5.6-0.9,7.5,0.2
		c9,4.9,17.8,10.3,26.6,15.6c-8.6,4.4-17.2,12.5-25.9,12.6C702.7,777.5,597.2,777.2,491.7,777.2z"/>
	<path class="st1" d="M606.2,601c-39.5,13.3-74.3,25.2-109.2,36.4c-5.2,1.7-11.8,1.3-17.1-0.4c-35.1-11.2-70-23-102.1-33.6
		c12.7-14.8,28-28.1,37.2-44.8c5.2-9.4,3.1-25.2-0.6-36.6c-9.1-28.5-31.9-36.1-86.7-31.3c0-39.3,0-78.4,0-120.8
		c48.2,15.7,94.1,31.5,140.7,45.1c12.7,3.7,28.3,3.7,40.9,0c45.9-13.4,91.2-29.2,139-44.8c0,41.4,0,80.5,0,121.7
		c-35.8-7.8-70.8-9.8-86.2,32.1C548.3,562,571.3,583.8,606.2,601z"/>
</g>
</svg>
