<?xml version="1.0" encoding="utf-8"?>
<!-- Generator: Adobe Illustrator 20.1.0, SVG Export Plug-In . SVG Version: 6.00 Build 0)  -->
<svg version="1.1" id="Layer_1" xmlns="http://www.w3.org/2000/svg" xmlns:xlink="http://www.w3.org/1999/xlink" x="0px" y="0px"
	 viewBox="0 0 800 800" style="enable-background:new 0 0 800 800;" xml:space="preserve">
<style type="text/css">
	.st0{fill:#383838;}
	.st1{fill:#F26222;}
	.st2{fill:#FFFFFF;}
</style>
<g>
	<path class="st0" d="M338.1,590.7c0-36.6,0-70.6,0-105.8c25.2,0,49.7,0,75.3,0c0,34.5,0,68.9,0,105.8c6.4,0,11.7,0,17,0
		c50.3,0,100.7-0.1,151,0c27.1,0,43.9,14.6,44.1,37.7c0.2,23.3-16.6,38.3-43.4,38.3c-137.3,0.1-274.5,0.1-411.8,0
		c-26.8,0-43.8-14.9-43.7-38c0-23.1,17-37.9,43.9-37.9c49.8-0.1,99.6,0,149.5,0C325.4,590.7,330.9,590.7,338.1,590.7z"/>
</g>
<g>
	<g>
		<path class="st1" d="M421.4,540.4c-88.3,0-176.6-1.4-264.8,0.4C50.1,542.9,0.6,475.7,15.8,370c7.3-50.8,47.3-75.5,93.6-87
			c25.4-6.3,39.7-15.4,47.8-43.2c41.1-141.5,194.2-179,297-73.6c14.1,14.4,25.4,19,45.7,13c98.9-28.9,174.4,20.6,192.2,122.1
			c1.9,11,13.6,24.2,24.2,29.3c63.9,30.4,88.1,87.9,62.5,153.6c-14.5,37.1-42,56.2-81.9,56.2C605.1,540.5,513.2,540.4,421.4,540.4z"
			/>
	</g>
</g>
<g>
	<path class="st2" d="M329,281.5c10.2,10.8,21.1,22.1,31.5,33c27.1-27.2,53.6-53.9,81.4-81.9c-6.1-5-13.3-10.9-20.5-16.8
		c0.5-0.9,1-1.7,1.5-2.7c26.5-6.4,53.1-12.8,81.3-19.7c-6.7,27.7-13.2,54.4-20.2,83.4c-6.5-8-12-14.5-17.6-21.4
		c-35.5,35.8-69.4,69.9-103,103.9c-12.1-12.4-23-23.6-34.1-34.9c-32.9,33.2-64.3,64.9-95.9,96.7c-8.2-8.7-15-15.9-21.3-22.6
		C250.3,360.3,289.2,321.3,329,281.5z"/>
	<path class="st2" d="M490.7,515.1c-13.8,0-27.1,0-40.7,0c0-63.6,0-126.8,0-190.6c13.3,0,26.8,0,40.7,0
		C490.7,388,490.7,451.1,490.7,515.1z"/>
	<path class="st2" d="M379.5,362.2c13.5,0,26.8,0,40.5,0c0,51.2,0,101.8,0,152.9c-13.4,0-26.7,0-40.5,0
		C379.5,464.3,379.5,413.6,379.5,362.2z"/>
	<path class="st2" d="M306.7,514.9c0-38,0-75.6,0-113.7c13.3,0,26.6,0,40.4,0c0,37.6,0,75.4,0,113.7
		C334,514.9,320.8,514.9,306.7,514.9z"/>
	<path class="st2" d="M277.5,515.2c-13.9,0-27.2,0-41,0c0-25.2,0-50.2,0-75.7c13.4,0,27,0,41,0C277.5,464.5,277.5,489.5,277.5,515.2
		z"/>
</g>
</svg>
