<?xml version="1.0" encoding="utf-8"?>
<!-- Generator: Adobe Illustrator 19.0.1, SVG Export Plug-In . SVG Version: 6.00 Build 0)  -->
<svg version="1.1" id="Layer_1" xmlns="http://www.w3.org/2000/svg" xmlns:xlink="http://www.w3.org/1999/xlink" x="0px" y="0px"
	 viewBox="94 -4 800 800" style="enable-background:new 94 -4 800 800;" xml:space="preserve">
<style type="text/css">
	.st0{fill:#383838;}
	.st1{fill:#F26222;}
	.st2{fill:#FFFFFF;}
</style>
<g>
	<path class="st0" d="M497.1,261.1c-25.1,0-50.2-0.1-75.3,0.1c-5.1,0.1-7.3-1.7-9.4-6.3c-3.1-6.9-6.8-13.7-11.4-19.7
		c-15.2-19.7-24.2-41.3-22.3-66.6c0.6-7.6,2.2-14.6,8.2-20.2c1.9-1.8,2.4-5.6,2.6-8.6c0.8-15.4-0.3-31.1,2-46.3
		c7.2-45.4,40.3-75.2,86-80.4c26.4-3,51.5,0.5,75.8,11.1c17.1,7.4,28.4,19.5,31.7,38.2c0.3,1.8,0.9,3.9,2.1,5.1
		c15.2,14.9,16.7,34.5,18.4,53.9c0.4,4,0.2,8,0.1,12c-0.3,7.3,0.1,13.5,5.3,20.3c7.6,10,5.2,23.1,3.6,34.9
		c-2.6,18.8-11.8,34.5-23.5,49.2c-4,5-6.9,11.2-9.3,17.2c-1.9,4.6-4.2,6.5-9.3,6.4c-25.1-0.3-50.2-0.1-75.3-0.1
		C497.1,261.2,497.1,261.1,497.1,261.1z"/>
	<path class="st0" d="M497.2,283.5c43.8,0,87.6,0,131.3,0c20.3,0,36.7,8.3,46.8,25.7c5,8.6,8.5,19.5,8.6,29.3
		c0.7,88.4,0.5,176.7,0.4,265.1c0,29.7-24.6,54.4-54.9,54.5c-88.1,0.3-176.2,0.3-264.3,0c-31.3-0.1-55.2-24.4-55.3-55.6
		c-0.2-87.8-0.2-175.7,0-263.5c0.1-32.3,24.3-55.4,57.7-55.5C410.7,283.4,454,283.5,497.2,283.5L497.2,283.5z M346.1,471.1
		c0,42.7,0,85.4,0,128.1c0,16,6.7,22.7,22.9,22.7c85.4,0,170.8,0,256.2,0c16.1,0,22.9-6.8,22.9-22.8c0-42.2,0-84.3,0-126.5
		c0-44.3,0-88.6,0-132.9c0-12.4-6.6-19.4-18.9-20.2c-5-0.3-10.1-0.1-15.2-0.1c-81.1,0-162.2-0.1-243.4,0c-18.5,0-24.5,6.1-24.5,24.4
		C346.1,386.2,346.1,428.7,346.1,471.1z"/>
	<path class="st1" d="M393,734.7c0,10.1,0.1,20.3,0,30.4c-0.1,8.9-5.6,14.9-13.2,14.9s-13.5-6.1-13.6-14.9
		c-0.2-20.8-0.2-41.6,0-62.4c0.1-8.7,6.1-14.9,13.5-14.9c7.7,0,13.1,5.9,13.3,14.9C393.2,713.4,393.1,724,393,734.7z"/>
	<path class="st1" d="M601.1,733.9c0-10.7-0.2-21.3,0.1-32c0.2-8.4,5.8-14.1,13.2-14.1c7,0,13.3,5.6,13.4,13.3
		c0.3,21.9,0.4,43.7,0,65.6c-0.1,8-7,13.7-14.2,13.3c-7.1-0.4-12.2-5.9-12.4-14.1C600.9,755.2,601.1,744.6,601.1,733.9z"/>
	<path class="st1" d="M761.2,340c10.1,0,20.3-0.1,30.4,0c8.9,0.1,14.6,5.5,14.6,13.5s-5.7,13.2-14.7,13.3c-20.5,0.1-41,0.1-61.6,0
		c-9.6,0-15.4-5.2-15.4-13.5c0-8.2,5.9-13.3,15.5-13.3C740.4,339.9,750.8,340,761.2,340z"/>
	<path class="st1" d="M471.3,734c0,10.4,0.1,20.8,0,31.2c-0.1,8.8-5.8,14.9-13.4,14.8c-7.7-0.1-13.3-6.1-13.3-14.9
		c-0.1-20.8-0.1-41.6,0-62.4c0.1-8.7,5.9-14.8,13.5-14.8c7.7,0,13.1,6,13.2,14.9C471.3,713.2,471.3,723.6,471.3,734z"/>
	<path class="st1" d="M549.6,734.7c0,10.1,0.1,20.3,0,30.4c-0.1,8.7-5.8,14.9-13.4,14.9s-13.3-6.1-13.3-14.8
		c-0.1-20.8-0.1-41.6,0-62.4c0-8.8,5.6-14.9,13.3-14.9c7.5,0,13.3,6.2,13.5,14.9C549.8,713.4,549.6,724,549.6,734.7z"/>
	<path class="st1" d="M234,366.8c-10.1,0-20.2,0.1-30.4,0c-9.9-0.1-15.5-4.8-15.6-13.1c-0.1-8.3,5.6-13.5,15.2-13.6
		c20.5-0.1,41-0.1,61.5,0c9.2,0,14.6,5,14.8,13.1c0.1,8.3-5.5,13.5-15.1,13.6C254.2,366.8,244.1,366.8,234,366.8z"/>
	<path class="st1" d="M234,418.3c10.4,0,20.8-0.1,31.2,0c9,0.1,14.5,5.5,14.3,13.6c-0.1,7.6-5.7,13.1-14.1,13.2
		c-21,0.2-42.1,0.2-63.1,0c-8.8-0.1-14.4-5.9-14.3-13.8c0.1-8.1,5.5-12.9,14.9-13C213.2,418.2,223.6,418.3,234,418.3z"/>
	<path class="st1" d="M760.8,418.3c10.1,0,20.2-0.1,30.4,0c9.4,0.1,14.7,4.9,14.9,13c0.1,7.9-5.5,13.7-14.3,13.8
		c-21,0.2-42.1,0.2-63.1,0c-8.9-0.1-14.3-5.9-14-14c0.2-7.8,5.5-12.6,14.3-12.7C739.5,418.2,750.2,418.3,760.8,418.3z"/>
	<path class="st1" d="M233.9,496.5c10.4,0,20.8-0.2,31.1,0.1c9.1,0.2,14.1,4.8,14.4,12.6c0.3,8.1-5,14-13.9,14.1
		c-21,0.3-42.1,0.3-63.1,0c-9.1-0.1-14.5-5.7-14.4-13.7c0.1-8.1,5.3-12.9,14.8-13.1C213.2,496.3,223.6,496.5,233.9,496.5z"/>
	<path class="st1" d="M760.4,523.4c-10.1,0-20.2,0.2-30.4,0c-9.7-0.2-15.5-5.4-15.5-13.5c0-8.3,5.5-13.3,15.4-13.4
		c20.5-0.1,41-0.1,61.5,0c9.4,0.1,14.6,5,14.7,13.2c0.1,8-5.4,13.3-14.5,13.6C781.2,523.6,770.8,523.4,760.4,523.4L760.4,523.4z"/>
	<path class="st1" d="M233.7,601.2c-10.4,0-20.8,0.2-31.2,0c-9.5-0.2-14.6-5.2-14.6-13.3c0-7.9,5.6-13.4,14.6-13.5
		c20.8-0.2,41.5-0.2,62.3,0c9,0.1,14.5,5.6,14.5,13.6c0,8.1-5.2,13-14.6,13.2C254.5,601.3,244.1,601.2,233.7,601.2z"/>
	<path class="st1" d="M760.2,601.2c-10.4,0-20.8,0.1-31.1-0.1c-8.9-0.2-14.1-4.9-14.4-12.6c-0.3-8,5-14,13.9-14.1
		c21-0.3,42.1-0.3,63.1,0c9.1,0.1,14.5,5.7,14.5,13.6c-0.1,8.1-5.2,12.9-14.7,13.1C780.9,601.4,770.6,601.2,760.2,601.2z"/>
</g>
<g>
	<path class="st2" d="M414.6,484c-5,3.3-9.8,6.1-14.1,9.4c-0.7,0.6-0.5,3.8,0.4,4.8c1,1.1,3.7,1.9,5,1.4c4-1.7,7.8-3.9,11.3-6.5
		c1.2-0.9,1.7-3.5,1.4-5.2C418.4,486.7,416.4,485.7,414.6,484z M419.1,390c-0.3-0.5-0.6-2.1-1.5-2.8c-3.8-2.4-7.6-4.9-11.8-6.6
		c-1.3-0.5-4.4,0.7-5.1,2c-0.7,1.4-0.2,4.6,0.9,5.5c3.6,2.7,7.6,4.9,11.6,6.8C416.1,396.4,419,394.1,419.1,390z"/>
	<path class="st0" d="M507.2,356.1c4.1,0.9,8.2,1.6,12.3,2.6c32.9,8,58.5,35.1,63.6,67.4c5.6,35.6-9.4,69.1-39.3,87.2
		c-4.7,2.8-6.4,5.9-6.2,11.2c0.4,11.8,0.2,23.5,0.2,35.3c0,11.6-6.8,18.7-18.4,18.9c-2.4,0-3.5,0.9-4.9,2.9
		c-1.8,2.5-4.8,4.3-7.2,6.4c-4.8,0-9.7,0-14.5,0c-2.7-2.6-5.3-5.4-8.2-7.9c-0.9-0.8-2.3-1.2-3.5-1.3c-12.6-0.6-18.9-7.3-18.8-19.9
		c0.1-11.8-0.1-23.5,0.2-35.3c0.1-4.6-1.4-7.4-5.4-9.8c-28.4-16.7-45.3-48.4-40.7-83.2c4.8-36.5,29.7-63.6,64.6-72
		c3.9-0.9,7.9-1.6,11.9-2.4C497.6,356.1,502.4,356.1,507.2,356.1z M499.7,526.5L499.7,526.5c4.4,0,8.8,0.1,13.1,0
		c5.5-0.2,8.1-2.5,9.1-8c1.3-7.5,4.8-13.3,11.5-17.4c25.2-15.3,36.9-37.7,34.6-67.1c-2.9-36.9-37.9-65.5-74.8-61.5
		c-29.6,3.2-53.9,24.8-60.2,53.4c-6.5,29.5,6.4,59.3,32.6,74.7c7.3,4.2,11.2,10.2,12.4,18.3c0.8,4.9,3.5,7.4,8.5,7.6
		C491,526.6,495.4,526.5,499.7,526.5z"/>
	<path class="st1" d="M384.1,439.4c3.7-3.7,14.6-5.9,19.1-3.4c1.3,0.8,2.7,2.6,2.8,4.1c0.1,1.2-1.3,3.1-2.5,3.8
		c-3.9,2.2-16.1,0.3-19.4-2.8C384.1,440.6,384.1,440,384.1,439.4z"/>
	<path class="st1" d="M615.9,441.2c-3.3,3.1-15.5,5-19.4,2.8c-1.2-0.7-2.6-2.6-2.5-3.8c0.1-1.5,1.5-3.4,2.8-4.1
		c4.5-2.5,15.4-0.4,19.1,3.4C615.9,440,615.9,440.6,615.9,441.2z"/>
	<path class="st1" d="M414.6,484c1.8,1.7,3.8,2.7,4,4c0.3,1.6-0.2,4.3-1.4,5.2c-3.5,2.6-7.3,4.8-11.3,6.5c-1.3,0.6-4-0.3-5-1.4
		c-0.9-1-1.2-4.2-0.4-4.8C404.9,490.1,409.6,487.3,414.6,484z"/>
	<path class="st1" d="M419.1,390c-0.1,4-3,6.3-5.8,5c-4.1-1.9-8.1-4.1-11.6-6.8c-1.1-0.9-1.6-4.1-0.9-5.5c0.7-1.3,3.8-2.5,5.1-2
		c4.1,1.7,8,4.2,11.8,6.6C418.5,387.9,418.8,389.5,419.1,390z"/>
	<path class="st1" d="M581,490.3c-0.1-4.1,2.9-6.3,6.2-4.8c3.9,1.8,7.8,4,11.2,6.7c1.2,0.9,1.6,4,1,5.5c-0.5,1.2-3.5,2.6-4.6,2.1
		c-4.4-1.9-8.5-4.5-12.5-7C581.4,492.3,581.2,490.8,581,490.3z"/>
	<path class="st1" d="M581,390.9c-0.1-3.9,13.1-12.1,16.6-10.2c2.9,1.5,3.6,5.6,0.9,7.5c-3.6,2.6-7.6,4.8-11.7,6.8
		C583.9,396.4,581.1,394.1,581,390.9z"/>
	<path class="st1" d="M505,428.4c0,4.9,0.1,8.5,0,12.1c-0.2,3.3-0.7,6.7-5.1,6.5c-4.1-0.1-4.6-3.4-4.7-6.5c-0.2-3.6,0-7.2,0-11.3
		c-6.8-0.2-12.9,1.2-18.5,4c-0.8,0.4-0.8,3.3-0.3,4.8c3.6,12.8,7.3,25.5,11,38.2c0.5,1.6,1.5,3.3,1.2,4.8c-0.4,2-1.4,4.8-3,5.6
		c-2.6,1.3-4.9-0.5-5.8-3.4c-2.1-6.9-4.1-13.9-6.1-20.8c-4.2-14.5-8.4-28.9-12.6-43.4c-0.4-1.3-1.3-2.8-0.9-3.9
		c0.6-1.8,1.7-4.2,3.1-4.8c1.4-0.5,4.3,0.7,5.1,2c1.5,2.5,2.3,5.6,2.9,8.5c0.7,2.9,2.1,3,4.6,2.4c5.2-1.3,10.5-2.6,15.8-3.5
		c2.7-0.5,3.5-1.6,3.5-4.2c-0.1-2.1-0.2-4.4,0.7-6.2c0.7-1.5,2.8-3.1,4.2-3.1c1.5,0,3,1.8,4.3,3c0.5,0.4,0.5,1.4,0.6,2.1
		c0.3,2.5-0.2,5.8,1.1,7.2c1.4,1.5,4.7,1.1,7.2,1.7c3.5,0.8,7.1,1.6,10.5,2.7c2.8,0.9,4.6,0.7,5.2-2.6c0.4-2.2,1.2-4.4,1.9-6.5
		c1-2.9,2.8-5,6-3.8c3,1.1,3.7,3.4,2.8,6.6c-4.6,15.4-9,30.9-13.5,46.4c-1.9,6.4-3.8,12.7-5.6,19.1c-0.9,3.2-2.7,5.3-6.1,4.5
		c-3.8-0.9-3.6-4.1-2.8-7c3.9-13.7,7.8-27.5,12.1-41.2c1.3-4.2,0.3-6.2-3.9-7C515.2,430.8,510.6,429.7,505,428.4z"/>
</g>
</svg>
