<?xml version="1.0" encoding="utf-8"?>
<!-- Generator: Adobe Illustrator 19.0.1, SVG Export Plug-In . SVG Version: 6.00 Build 0)  -->
<svg version="1.1" id="Layer_1" xmlns="http://www.w3.org/2000/svg" xmlns:xlink="http://www.w3.org/1999/xlink" x="0px" y="0px"
	 viewBox="94 -4 800 800" style="enable-background:new 94 -4 800 800;" xml:space="preserve">
<style type="text/css">
	.st0{fill:#383838;}
	.st1{fill:#F26222;}
</style>
<g>
	<path class="st0" d="M126.3,428.3c0-21.6,0-43.3,0-64.9c1.2-5.2,2.7-10.4,3.5-15.6c23.9-144.5,103.4-244.4,240-297
		c29.3-11.3,61.3-15.5,92.1-23c21.6,0,43.3,0,64.9,0c4.6,1.1,9.1,2.6,13.8,3.4c146.1,23.2,246.7,103.6,299.5,241.7
		c11,28.8,15.1,60.3,22.4,90.5c0,20.4,0,40.9,0,61.3c-1.2,5.8-2.5,11.6-3.4,17.4C835.5,588.8,754.8,689.7,615.6,742
		c-28.3,10.6-59.1,14.7-88.7,21.8c-21.6,0-43.3,0-64.9,0c-5.2-1.2-10.3-2.7-15.6-3.6C302.7,736.8,203,657.7,150,522.1
		C138.4,492.3,134,459.6,126.3,428.3z M494.6,71.8c-181.4,1.9-325.4,146.9-324.2,326.5c1.1,177.5,147.9,322.4,325.6,321.4
		c177.9-1,324.3-148.5,322.3-324.7C816.2,215.5,670.4,69.9,494.6,71.8z"/>
</g>
<polygon class="st0" points="598.2,210.1 619.1,224.6 654.5,170.1 631.8,157.4 "/>
<polygon class="st1" points="687.2,290 741.7,260 756.2,279.1 701.7,312.7 "/>
<rect x="721.7" y="401.7" class="st1" width="65.4" height="27.2"/>
<polygon class="st1" points="701.7,514.3 754.4,547 744.4,569.7 687.2,537.9 "/>
<polygon class="st0" points="236.8,547.9 292.2,514.3 304,537 251.3,569.7 "/>
<rect x="202.3" y="401.7" class="st0" width="68.1" height="27.2"/>
<polygon class="st0" points="236.8,279.1 250.4,260 304,290.9 294,312.7 "/>
<polygon class="st0" points="339.4,170.1 362.1,157.4 392.1,211 373.9,224.6 "/>
<rect x="482.9" y="125.6" class="st0" width="27.2" height="65.4"/>
<polygon class="st1" points="506,437.7 601.3,354.3 612,360.3 524.7,458.3 525.3,466 496,439 "/>
<circle class="st1" cx="494.3" cy="468.7" r="30.3"/>
</svg>
