<?xml version="1.0" encoding="utf-8"?>
<!-- Generator: Adobe Illustrator 19.0.1, SVG Export Plug-In . SVG Version: 6.00 Build 0)  -->
<svg version="1.1" id="Layer_1" xmlns="http://www.w3.org/2000/svg" xmlns:xlink="http://www.w3.org/1999/xlink" x="0px" y="0px"
	 viewBox="0 0 800 800" style="enable-background:new 0 0 800 800;" xml:space="preserve">
<style type="text/css">
	.st0{fill:#3F403F;}
	.st1{fill:#F26222;}
</style>
<g>
	<path class="st0" d="M168.5,218.1c-14.3,52,10.5,86.2,50.5,114.8c15.5,11.1,28.4,25.7,43,38.1c8,6.9,9.6,12.6,0.9,20.1
		c-42.7,36.8-91.2,47.9-144.5,29.6c-53.3-18.3-85.3-56.5-94.6-112.5c-12.6-76,40.1-149.5,124.3-161.9c15-2.2,21.4,2.5,20.6,18.1
		C167.9,182.3,168.5,200.2,168.5,218.1z"/>
	<path class="st0" d="M763.7,517.5c0,42.1-0.6,84.3,0.3,126.4c0.3,15.5-5.2,19.9-19.9,19.3c-22.3-1-44.7-0.6-67-0.1
		c-11.4,0.3-16.1-4-16-15.5c0.2-86.8,0.2-173.6,0-260.4c0-11.8,5.1-15.5,16.3-15.3c23,0.5,46,0.7,68.9-0.1
		c13.3-0.5,17.9,4.1,17.7,17.5C763.2,431.9,763.7,474.7,763.7,517.5z"/>
	<path class="st0" d="M517.9,540.9c0,35.1-0.3,70.2,0.2,105.3c0.2,12.2-4,17.2-16.6,16.8c-23.6-0.7-47.2-0.6-70.8,0
		c-11.7,0.3-15.6-4.4-15.5-15.8c0.3-70.8,0.3-141.7,0-212.5c-0.1-12.1,3.8-17.3,16.5-16.9c23,0.7,46,0.8,68.9,0
		c13.5-0.5,17.9,4.7,17.6,17.9C517.5,470.7,517.9,505.8,517.9,540.9z"/>
	<path class="st1" d="M752,234.3c0.1,28.8-19.2,49.7-44.9,48.4c-15.8-0.8-24.6,5.1-33.1,16.9c-12.4,17.1-27,32.5-39.1,49.7
		c-4.3,6.2-6.4,16.3-4.9,23.7c5.8,28.3-9.3,53-37.6,58.5c-24.3,4.7-49.4-14.2-53.8-40.5c-4.2-24.7-39.5-41.3-61.3-30
		c-8.1,4.2-18.6,7-27.3,5.7c-15.1-2.3-23.5,3.5-31.4,15.1c-8.2,12.2-17.9,23.3-27.2,34.7c-11.2,13.8-21.5,25.1-13.1,47.1
		c9,23.7-15.7,50.3-42.7,52.4c-24.7,1.9-48.9-20.7-49.3-46c-0.5-26.2,24.3-50.4,50.3-45.7c15.2,2.7,22.6-3.1,30.2-13.5
		c7.5-10.3,15.4-20.4,23.6-30.2c13.4-16,24.8-30.1,18.4-55.2c-6.5-25.5,15.3-47.3,41.3-49.2c25.1-1.9,45.4,15.8,49.4,40.9
		c1.1,6.8,6.4,14.5,12,18.8c8.5,6.5,18.7,11,28.8,14.9c4.4,1.7,10.4,0.3,15.5-0.6c14-2.6,28-5.3,41.8-8.8c7.1-1.8,15.7-3.7,20.2-8.7
		c13.8-15.1,25.4-32.1,38.9-47.4c8.8-10.1,11.8-18.4,5.5-32c-8.3-17.8-2.5-35.5,12-48.6c14.4-13,31.4-16.8,49.7-8.5
		C741.7,204.2,750.9,218.6,752,234.3z M454.2,345.4c12.4-2.3,22-8.8,22.1-23.2c0.1-14.5-10-23-23-23.1c-13.1-0.1-23,8.9-23.2,23.1
		C430,336.4,439.5,343.4,454.2,345.4z M331,491.5c17.3-0.2,25.8-9.2,25.3-22.5c-0.5-13.1-9.2-22.2-24.2-21.4
		c-13.6,0.7-21.3,7.9-21.5,21.6C310.5,484.1,319.2,490.8,331,491.5z M703.3,216.3c-12.2,1.3-20.9,8.1-20.3,23.1
		c0.6,13.8,8.9,20.8,22.2,21.1c14.9,0.4,23.4-9.3,23.5-22.3C728.8,225,719.9,216.1,703.3,216.3z M607.7,385.4
		c-0.6-13.3-7.6-21.7-22.2-21.9c-14.7-0.2-22.2,8.3-22.5,22.4c-0.3,13.7,7.4,21.4,20.9,21.7C598,407.9,606.8,401.3,607.7,385.4z"/>
	<path class="st1" d="M288.2,184.7c21.4,19.5,34.2,43.2,39.5,70.6c8,42.1,0.5,81.2-26.7,115.1c-3,3.7-13.7,6.7-16.1,4.6
		c-33.6-29-66.4-59-96.8-86.4C222.3,253.1,254.8,219.4,288.2,184.7z"/>
	<path class="st0" d="M640.8,584.3c0,21.1-0.4,42.1,0.1,63.2c0.3,11.7-4.4,15.8-15.8,15.5c-23.6-0.5-47.2-0.7-70.8,0
		c-13,0.4-16.3-5.5-16.2-17.3c0.4-42.1,0.5-84.2-0.1-126.4c-0.2-13.6,5-17.8,18-17.3c22.3,0.8,44.7,1,67-0.1
		c15-0.7,18.6,5.5,18,19.1C640.2,542.1,640.8,563.2,640.8,584.3z"/>
	<path class="st1" d="M279.4,165.8c-32.8,35.7-63.7,69.4-97.5,106.2c-1.9-8.7-3.7-13.2-3.8-17.7c-0.2-36.4,0.3-72.8-0.3-109.2
		c-0.2-15.7,6.4-20.6,21.1-17.8C230.7,133.5,260.2,143.9,279.4,165.8z"/>
	<path class="st0" d="M343.1,662.8c-50.8,0-50.8,0-50.7-50.8c0-29.1,0-29.1,28.5-29.1c19.7,0,39.5,0.3,59.2-0.1
		c10.5-0.2,15.1,4,14.9,14.6c-0.3,16.5-0.4,33.1,0.1,49.6c0.3,11.2-3.9,16.4-15.6,15.8C367.3,662.3,355.2,662.8,343.1,662.8z"/>
</g>
</svg>
