<?xml version="1.0" encoding="utf-8"?>
<!-- Generator: Adobe Illustrator 19.0.1, SVG Export Plug-In . SVG Version: 6.00 Build 0)  -->
<svg version="1.1" id="Layer_1" xmlns="http://www.w3.org/2000/svg" xmlns:xlink="http://www.w3.org/1999/xlink" x="0px" y="0px"
	 viewBox="94 -4 800 800" style="enable-background:new 94 -4 800 800;" xml:space="preserve">
<style type="text/css">
	.st0{fill:#FFFFFF;}
</style>
<g>
	<path class="st0" d="M869.7,296c0,53.2,0,106.4,0,159.7c-0.2,1.4-0.4,2.8-0.6,4.3c-0.5,4.4-0.6,9-1.5,13.3
		c-8.7,42.2-32.6,72.8-71.3,91.9c-1,0.5-2,1-3.3,1.6c-0.1,45.1-0.2,90.2-0.3,135.4c-1.3-0.6-2.1-1.4-2.8-2.2
		c-18.5-20.9-36.9-41.7-55.3-62.6c-17.1-19.3-34.2-38.6-51.2-58c-1.4-1.6-2.9-2.5-5.1-2.2c-1.7,0.2-3.3,0-5,0
		c-75.6,0-151.3,0-226.9,0c-10.2,0-20.2-1-30.1-3.4c-57.5-13.9-97.4-64-97.7-123.1c-0.3-49.6-0.1-99.1,0-148.7
		c0-21.9,5.4-42.5,16.1-61.7c22.3-40,64.5-64.9,110.3-65c19.7-0.1,39.4,0,59.2,0c79.2,0,158.4,0,237.6,0c8.2,0,16.3,0.5,24.3,2.1
		c37.3,7.5,66.1,27.4,85.9,59.9c10.5,17.3,16.6,36.1,17.4,56.5C869.2,294.4,869.5,295.2,869.7,296z"/>
	<path class="st0" d="M482.7,90c2.7,0.4,5.3,0.8,8,1.2c27.8,4.2,50.3,17.5,68,39.2c0.4,0.5,0.6,1,1.3,2c-1.7,0-2.9,0-4.1,0
		c-36.4,0-72.8,0-109.3,0c-29,0-56.3,6.7-81.5,21c-45.9,26.1-74.3,65.1-84.8,116.9c-2.1,10.5-3,21.1-3,31.7c0,33.8,0,67.6,0,101.4
		c0,2.9-0.7,5-2.7,7.2c-29.9,33.3-59.8,66.7-89.6,100c-0.6,0.7-1.3,1.3-2.5,2.5c0-13.2,0-25.7-0.1-38.3c0-12.7-0.1-25.5-0.1-38.2
		c0-12.6,0-25.2,0-37.8c-1.3-0.6-2.4-1.1-3.4-1.6c-32.1-16.2-51.8-41.9-58.8-77.2c-0.4-2.1-0.5-4.3-0.9-6.5c-0.3-1.5-0.8-3-1.1-4.5
		c0-40.1,0-80.1,0-120.2c0.4-1.5,0.9-3,1.1-4.5c0.5-2.9,0.8-5.8,1.3-8.7c8.3-44.2,45.1-78.9,89.7-84.6c2.5-0.3,4.9-0.8,7.4-1.1
		C306.2,90,394.4,90,482.7,90z"/>
</g>
</svg>
