<?xml version="1.0" encoding="utf-8"?>
<!-- Generator: Adobe Illustrator 19.0.1, SVG Export Plug-In . SVG Version: 6.00 Build 0)  -->
<svg version="1.1" id="Layer_1" xmlns="http://www.w3.org/2000/svg" xmlns:xlink="http://www.w3.org/1999/xlink" x="0px" y="0px"
	 viewBox="0 0 800 800" style="enable-background:new 0 0 800 800;" xml:space="preserve">
<style type="text/css">
	.st0{fill:#FFFFFF;}
	.st1{fill:#3F403F;}
	.st2{fill:#F26222;}
</style>
<g>
	<path class="st0" d="M681,404.7c0-51.7-0.4-103.5,0.3-155.2c0.2-13.7-4.9-21.6-16.4-28.2c-89.7-51.4-178.9-103.5-269-154.4
		c-7.5-4.2-21.6-4.2-29.1,0c-90,50.8-179.3,102.9-268.9,154.4c-10.7,6.1-16.4,13.2-16.4,26.5c0.5,104.6,0.4,209.2,0,313.8
		c0,12.3,4.5,19.7,14.9,25.6c90.1,51.8,179.9,104.2,270.3,155.3c7.5,4.3,21.7,4.2,29.2,0c90-50.8,179.3-103,268.9-154.4
		c11.6-6.6,16.5-14.6,16.3-28.3C680.6,508.2,681,456.4,681,404.7z"/>
	<path class="st1" d="M681,404.7c0,51.7-0.4,103.5,0.3,155.2c0.2,13.7-4.8,21.7-16.3,28.3C575.2,639.6,486,691.8,396,742.6
		c-7.6,4.3-21.7,4.3-29.2,0c-90.5-51.1-180.2-103.5-270.3-155.3c-10.4-6-15-13.3-14.9-25.6c0.4-104.6,0.4-209.2,0-313.8
		c-0.1-13.3,5.7-20.4,16.4-26.5C187.5,169.9,276.7,117.8,366.8,67c7.5-4.2,21.6-4.3,29.1,0c90,50.8,179.3,103,269,154.4
		c11.5,6.6,16.6,14.5,16.4,28.2C680.5,301.2,681,353,681,404.7z M93.5,404.6c0,49.5,0.3,99.1-0.2,148.6
		c-0.1,12.1,3.6,19.4,14.5,25.6c86.9,49.6,173.6,99.7,260,150.1c10.2,5.9,17.8,5.5,27.7-0.3c86.5-50.4,173.1-100.4,260-150.1
		c10.2-5.8,14-12.7,14-24.2c-0.3-99.6-0.3-199.2,0-298.8c0-11.4-3.4-18.5-13.7-24.4c-86.9-49.7-173.6-99.7-260-150.1
		c-10.7-6.3-18.7-5.8-29.2,0.3c-86,50.1-172.1,99.9-258.6,149.3c-10.7,6.1-14.8,13.3-14.7,25.5C93.8,305.5,93.5,355,93.5,404.6z"/>
	<path class="st2" d="M239.7,461.9c0-54.2,0-106.9,0-161.1c94.2,0,188.3,0,283.8,0c0,53.2,0,106.8,0,161.1
		C429.1,461.9,335.3,461.9,239.7,461.9z M325.4,334c-29.1,0.9-48.6,18.5-48.7,41.6c-0.1,23,21.3,42.5,47.3,43.1
		c28.4,0.7,48.2-15.9,49.1-43.1c-15.4,0-30.8,0-47.7,0C325.4,360.7,325.4,347.9,325.4,334z M426,356c3.3,8.9,30.5,11.8,59.7,6.3
		C482.3,353.3,455.2,350.4,426,356z M485.6,399.9c-29.1-5.5-56.4-2.7-59.7,6.3C455.2,411.7,482.3,408.9,485.6,399.9z M425.9,334.6
		c0,1.7,0,3.4-0.1,5c20,0,40,0,59.9,0c0-1.7,0.1-3.4,0.1-5C465.9,334.6,445.9,334.6,425.9,334.6z M485.8,384c0-2.3-0.1-4.5-0.1-6.8
		c-20-1.1-40.1-3.8-59.9,1.8c0,1.7,0.1,3.3,0.1,5C445.8,384,465.8,384,485.8,384z M426,422.2c0,1.5,0,3,0,4.5c19.9,0,39.8,0,59.7,0
		c0-1.5,0-3,0-4.5C465.8,422.2,445.9,422.2,426,422.2z"/>
	<path class="st2" d="M301,566.4c16.4-32.3,31.3-62.5,47-92.1c5.5-10.3,62.9-11.5,68.4-1.3c16,30.1,31.1,60.7,47.3,92.7
		c-14.1,1.3-27.1,5.3-31.8-11.4c-5.9-20.9-20.2-24.1-39.5-19.4c-2.2,17.2-4.4,34.8-7,52.3c0,0.1-5-0.5-9.3-1c0-17.2,0-33.9,0-50.2
		c-29.3-6-31.4-6-42.6,19C326.4,570.4,315.2,566.4,301,566.4z M350,521.4c9.9,0,16.9,0,24.8,0c0-14.7,0-28.5,0-42.3
		c-0.9-0.2-1.8-0.4-2.7-0.6C365.1,492.1,358.1,505.7,350,521.4z M394.4,480c-1,0.3-2.1,0.6-3.1,0.9c0,13.5,0,26.9,0,40.2
		c8.3,0,15,0,23.7,0C407.5,506.1,400.9,493.1,394.4,480z"/>
	<path class="st2" d="M366.6,266c5.5-5.5,11-10.9,16.5-16.4c5.5,5.7,11,11.4,16.4,17.1c-0.8,1.5-1.5,3.1-2.3,4.6
		c33.6,0,67.1,0,100.7,0c8.4,0,17.2-1.3,25.2,0.6c5.2,1.2,9.3,7.2,13.9,11c-4.7,3.6-9,9.8-14,10.4c-13.3,1.5-26.9,0.5-40.4,0.5
		c-76.5,0-152.9,0-229.4,0c-3.9,0-8.5,1.3-11.7-0.3c-5.3-2.7-9.6-7.2-14.3-10.9c4.8-3.7,9.5-10.4,14.5-10.7
		c20.7-1.3,41.6-0.6,62.4-0.6c21.3,0,42.6,0,63.9,0C367.5,269.5,367,267.8,366.6,266z"/>
	<path class="st0" d="M350,521.4c8.1-15.8,15.1-29.3,22.1-42.9c0.9,0.2,1.8,0.4,2.7,0.6c0,13.8,0,27.6,0,42.3
		C366.9,521.4,359.9,521.4,350,521.4z"/>
	<path class="st0" d="M394.4,480c6.6,13.1,13.1,26.2,20.6,41.1c-8.7,0-15.4,0-23.7,0c0-13.3,0-26.7,0-40.2
		C392.3,480.6,393.3,480.3,394.4,480z"/>
</g>
</svg>
