<?xml version="1.0" encoding="utf-8"?>
<!-- Generator: Adobe Illustrator 20.0.0, SVG Export Plug-In . SVG Version: 6.00 Build 0)  -->
<svg version="1.1" id="Layer_1" xmlns="http://www.w3.org/2000/svg" xmlns:xlink="http://www.w3.org/1999/xlink" x="0px" y="0px"
	 viewBox="0 0 800 800" style="enable-background:new 0 0 800 800;" xml:space="preserve">
<style type="text/css">
	.st0{fill:#383838;}
	.st1{fill:#F26222;}
</style>
<path class="st0" d="M402.4,633.2c-74.8,0.1-74.2-0.1-103.9-71.1c-22-52.5-48.8-103.1-67.8-156.6C193.9,301.9,245,205.3,349.4,173.7
	c101.1-30.6,213.8,28.9,236.9,129.5c6.7,29,4.2,64-5.8,92.1c-25.7,71.7-56.7,141.6-88.9,210.6c-6,12.9-26.6,21.7-42.2,26.5
	C435,636.7,418.2,633.2,402.4,633.2z"/>
<path class="st1" d="M315.1,140.6c-3-40.3-5.5-74.6-8-108.9c2.8-1,5.6-2.1,8.3-3.1c16.3,30.5,32.5,61,51.2,95.9
	C348.3,130.2,334.2,134.6,315.1,140.6z"/>
<path class="st1" d="M438.4,124.1c19.3-35,35.6-64.5,51.8-94c2.7,0.3,5.4,0.7,8.1,1c-2.6,35.3-5.2,70.5-8,109.6
	C471.4,134.6,457,130,438.4,124.1z"/>
<path class="st1" d="M158.2,125.3c31.1,17,62.1,34.1,96.9,53.2c-12,14.1-21.8,25.5-35.1,41.1c-23.9-31.4-45.6-60-67.3-88.5
	C154.5,129.2,156.3,127.2,158.2,125.3z"/>
<path class="st1" d="M696.2,481.9c-33.5-8-67-16.1-104.4-25.1c7.6-16.8,13.7-30.6,22.3-49.6c30.8,23.8,58.5,45.2,86.2,66.5
	C699,476.5,697.6,479.2,696.2,481.9z"/>
<path class="st1" d="M192.1,407.5c9,19.7,15.3,33.4,23,50.2c-38.2,8.4-72.8,15.9-107.3,23.5c-1.1-2.3-2.1-4.6-3.2-6.8
	C131.9,453.5,159.3,432.6,192.1,407.5z"/>
<path class="st1" d="M182.9,337.7c-37.8-13.8-69.6-25.4-101.4-37c0.5-2.6,1.1-5.3,1.6-7.9c33.9-3,67.7-6,105.8-9.4
	C186.8,302.5,185.2,317.4,182.9,337.7z"/>
<path class="st1" d="M724.6,302.7c-32.2,10.7-64.4,21.5-101.5,33.8c-2-18-3.7-32.8-6-53.7c37.1,3.7,71.6,7.1,106.1,10.6
	C723.6,296.5,724.1,299.6,724.6,302.7z"/>
<path class="st1" d="M585.8,219.9c-13.5-16-23.1-27.5-35.6-42.3c33.4-17.5,63.5-33.3,93.5-49.1c2.2,2.2,4.4,4.4,6.6,6.6
	C630.2,161.7,610,188.2,585.8,219.9z"/>
<path class="st1" d="M359.9,732.5c31.5,0,59.1,0,90.1,0C424.5,776.2,383.2,775.6,359.9,732.5z"/>
<path class="st0" d="M355,693.2c34.2,0,68.4,0,102.6,0c0,6.9,0,13.9,0,20.8c-34.2,0-68.4,0-102.6,0C354.9,707.1,355,700.1,355,693.2
	z"/>
<path class="st0" d="M354.9,653.3c34.1,0,68.3,0,102.4,0c0,6.4,0,12.8,0,19.2c-34.1,0-68.3,0-102.4,0
	C354.9,666.1,354.9,659.7,354.9,653.3z"/>
</svg>
