<?xml version="1.0" encoding="utf-8"?>
<!-- Generator: Adobe Illustrator 19.0.1, SVG Export Plug-In . SVG Version: 6.00 Build 0)  -->
<svg version="1.1" id="Layer_1" xmlns="http://www.w3.org/2000/svg" xmlns:xlink="http://www.w3.org/1999/xlink" x="0px" y="0px"
	 viewBox="94 -4 800 800" style="enable-background:new 94 -4 800 800;" xml:space="preserve">
<style type="text/css">
	.st0{fill:#FFFFFF;}
</style>
<g>
	<path class="st0" d="M342.2,605.2c-27.8,0-55.9,2.9-83.2-0.8c-28.7-3.8-57.2-12.2-84.7-21.7c-23.1-8-31-39.1-15.1-58.6
		c8.5-10.5,21.4-18.6,33.9-24.2c14.4-6.5,30.4-9.6,45.9-13.5c16.9-4.3,28.1-19.5,14.2-35.9c-5.2-6.2-6.7-15.4-10.3-23
		c-3.5-7.4-7.6-14.6-11.5-21.9c-4.3-8-10.7-15.3-2.9-25.4c2.3-3,0.8-9.4,0.1-14.1c-7-45.9,30.6-78,75.1-64c6.5,2,8.2,4.7,5.7,11.6
		c-22.4,63-15.3,122.3,22.8,177.7c2,2.8,1.7,9.7-0.4,12.5c-17.1,22.3-17.5,47.5-11.1,72.5C323.2,586.3,333.6,594.2,342.2,605.2z"/>
	<path class="st0" d="M750.3,690.5c-6.4-3.5-13.9-5.9-18.9-10.8c-40.6-39.9-81.3-79.7-120.5-121c-8-8.4-9.9-22.6-14.1-34.4
		c-0.5-1.5,2.3-4.6,4-6.4c3.9-4.3,7.9-8.5,12.2-12.3c6.2-5.4,13.6-15.6,19-14.7c12.8,2,27.4,6.5,36.4,15.1
		c39.8,37.5,77.9,76.8,116.5,115.6c15.6,15.7,15.7,28.9-0.5,44.7C774.9,675.6,767.5,688.7,750.3,690.5z"/>
	<path class="st0" d="M651.3,463.3c18.8-53.7,27.7-71.2,2.2-160.8c25.2-10,74.1,13,81.1,38.4c1.4,5.1,1.2,10.5,1.9,15.8
		c1.1,9.4,3.2,18.9,3.2,28.3c0,6.4-2.3,13-4.7,19.1c-3.8,10.1-8.4,19.8-12.8,29.6c-3.3,7.2-6.3,14.7-10.3,21.5
		c-6.5,10.9-5.5,20,5.8,25.5c9.8,4.8,20.8,7.5,31.3,10.7c8.5,2.6,17.3,4.1,25.6,7.1c33.5,12,44.4,30.9,39.1,65.8
		c-1.9,12.5-12.2,16.1-21.5,19c-4,1.2-11.2-2.7-14.9-6.4c-28.6-27.9-56.3-56.9-85.3-84.4C680.4,481.8,666.1,473.8,651.3,463.3z"/>
	<path class="st0" d="M643.3,382.6c-0.4,89.4-71.9,158.7-162.4,159.2c-74.1,0.4-157.9-58.4-158.7-159.2
		c-0.8-93.1,72.2-162,161.4-162.2C573.1,220.3,643.8,293.1,643.3,382.6z M338.6,381.6c0.5,79.3,66.6,144.9,145,143.9
		c79.9-1,144.7-66.5,143.5-145.2C626,301.1,561.4,236.9,483,237C404,237.1,338.1,303.1,338.6,381.6z"/>
	<path class="st0" d="M509.9,196.5c1.1-9.8,3.1-16.6,2.3-23c-2.7-21.5-0.4-41.6,18-55.2c20.1-14.8,42.9-15.1,65.9-6.4
		c4.5,1.7,8.8,4.3,13.3,5.9c22.3,7.8,33.5,25.3,32.4,48.9c-0.4,8,2.5,16.1,2.5,24.2c0,6-1.5,12.3-3.7,17.9
		c-4.8,12.5-10.5,24.7-15.9,37c-1,2.4-2.1,4.8-4.2,9.4C589.4,222.4,551.8,203.4,509.9,196.5z"/>
	<path class="st0" d="M346.5,253.7c-2.9-6.8-4.9-12-7.3-17c-4.2-8.6-8.6-17.1-13.1-25.5c-4.2-7.9-8.9-15.3-1.8-24.5
		c1.9-2.4,0.5-7.6,0.1-11.4c-2.2-22-1.4-43.6,18.7-57.6c20.4-14.2,43.1-14.6,66-5.3c4.9,2,9.7,4.2,14.7,5.9
		c17.4,6,26.8,18.5,29,36.3c1.5,12.2,2.2,24.5,2.6,36.8c0.1,2.2-2.9,6.1-4.9,6.4C410.3,204.9,376.5,223.9,346.5,253.7z"/>
	<path class="st0" d="M355.4,518.6c66.7,55.8,139.9,63.1,217.4,27.6c8.1,13.5,16,26.5,25.5,42.3c-21.7,5.1-43.3,11.5-65.3,15
		c-58.3,9.3-115,2.9-169.3-21.3C339.2,571.3,334.8,538.6,355.4,518.6z"/>
	<path class="st0" d="M430.9,486.7c27.5,19.1,89,15.9,104.9-1.8c-18.7-11.2-19.6-15-8.6-34.7c2.8-5,4.3-10.7,6.6-15.9
		c4.5-10.3,9.4-20.4,13.6-30.9c2.1-5.3,4.1-11.1,4.1-16.6c-0.1-11.3-1.5-22.7-2.6-34c-1.6-17.5-8.4-31.7-25.4-39.3
		c-6.9-3.1-13.9-5.7-20.9-8.6c-46.1-19.4-86.4,8.7-83.3,58c0.4,5.7,2.6,13.5-0.2,16.9c-9.3,11.3-0.5,18.6,3.9,27.1
		c3,5.8,6.7,11.2,9.5,17.1c4.9,10.4,8.9,21.3,14.1,31.5c5.8,11.4,3.7,20.4-7.4,27C436.7,484,434,485.2,430.9,486.7z"/>
	<path class="st0" d="M430.9,486.7c3-1.5,5.8-2.7,8.4-4.2c11.1-6.6,13.1-15.6,7.4-27c-5.2-10.3-9.2-21.1-14.1-31.5
		c-2.8-5.9-6.4-11.3-9.5-17.1c-4.4-8.4-13.2-15.7-3.9-27.1c2.8-3.4,0.6-11.1,0.2-16.9c-3.1-49.3,37.2-77.4,83.3-58
		c6.9,2.9,14,5.6,20.9,8.6c17,7.5,23.8,21.8,25.4,39.3c1,11.3,2.5,22.7,2.6,34c0.1,5.5-2,11.3-4.1,16.6
		c-4.2,10.4-9.1,20.6-13.6,30.9c-2.3,5.3-3.9,10.9-6.6,15.9c-11,19.7-10.1,23.5,8.6,34.7C520,502.6,458.4,505.8,430.9,486.7z"/>
</g>
</svg>
