<?xml version="1.0" encoding="utf-8"?>
<!-- Generator: Adobe Illustrator 19.0.1, SVG Export Plug-In . SVG Version: 6.00 Build 0)  -->
<svg version="1.1" id="Layer_1" xmlns="http://www.w3.org/2000/svg" xmlns:xlink="http://www.w3.org/1999/xlink" x="0px" y="0px"
	 viewBox="94 -4 800 800" style="enable-background:new 94 -4 800 800;" xml:space="preserve">
<style type="text/css">
	.st0{fill:#383838;}
	.st1{fill:#F26222;}
</style>
<g>
	<path class="st0" d="M759.9,700.9c-5.2,2.6-10.9,4.2-16.6,4.6c-3.6,1.1-7.3,1.7-11,1.8c-3,0.7-6,1-9,1c-3.8,0-7.5-0.5-10.9-1.4
		v12.2H273.8V92.9h313.5v90.7h125.1V527c3.2,0.7,6.2,1.8,9,3.1c1.2-0.1,2.4-0.2,3.5-0.2c7.5,0,14.4,1.9,20.3,5.2
		c3.8,1,7.4,2.6,10.7,4.6c6.9,2.3,13,6.3,17.8,11.5c0.6,0.4,1.2,0.8,1.7,1.3c0-127.9,0-255.9-0.3-383.8c0-6.6-3.7-14.8-8.4-19.5
		C731.6,113.5,696.1,78,659.6,43.5c-6.7-6.3-18.1-10.9-27.3-10.9c-134-0.7-268.1-0.5-402.1-0.5c-5.5,0-11,0.5-17.8,0.8v748.5h561.8
		c0.7-3.3,1.5-5.3,1.5-7.3c0-27.1,0-54.2,0-81.3C771.1,696.4,765.6,699.2,759.9,700.9z"/>
	<path class="st0" d="M316.3,631.8c0-9.5,0-17.7,0-26.9c110.8,0,220.4,0,332.2,0c0,8.4,0,17,0,26.9
		C539.1,631.8,428.7,631.8,316.3,631.8z"/>
	<path class="st0" d="M316.3,588.8c0-9.5,0-17.7,0-26.9c110.8,0,220.4,0,332.2,0c0,8.4,0,17,0,26.9
		C539.1,588.8,428.7,588.8,316.3,588.8z"/>
	<path class="st0" d="M316.3,545.8c0-9.5,0-17.7,0-26.9c110.8,0,220.4,0,332.2,0c0,8.4,0,17,0,26.9
		C539.1,545.8,428.7,545.8,316.3,545.8z"/>
	<path class="st0" d="M316.2,500.8c0-9.5,0-17.7,0-26.9c110.8,0,220.4,0,332.2,0c0,8.4,0,17,0,26.9
		C539,500.8,428.6,500.8,316.2,500.8z"/>
	<path class="st0" d="M316.2,454.8c0-9.5,0-17.7,0-26.9c110.8,0,220.4,0,332.2,0c0,8.4,0,17,0,26.9
		C539,454.8,428.6,454.8,316.2,454.8z"/>
	<path class="st0" d="M316.3,675.7c0-9.3,0-17.4,0-26.8c110.5,0,220.2,0,332.1,0c0,8.2,0,16.7,0,26.8
		C538.9,675.7,429.2,675.7,316.3,675.7z"/>
</g>
<path class="st1" d="M316.3,308.6c47.3-12.6,83.9,1.9,108.3,44.8C383,383.5,323.2,358.8,316.3,308.6z"/>
<path class="st1" d="M451.8,329.4c-44.3-26.4-59.4-62-45.5-110.6c22.8,3,38.4,17.2,48,37.2C466.1,280.6,465.6,305.6,451.8,329.4z"/>
<path class="st1" d="M650.4,215.5c16.5-5.8,21.6-0.2,21.3,15.3c-0.7,39.8-0.7,79.5,0,119.3c0.2,15.9-5.5,20.6-21.2,14.7
	C650.4,315.7,650.4,266.4,650.4,215.5z"/>
<path class="st1" d="M370.5,273.6c-18.8,0-36.5,0-54.2,0c3.4-29.7,20.9-47.9,54.2-55.1C370.5,236.1,370.5,253.4,370.5,273.6z"/>
<path class="st1" d="M598.9,303c0-16.2-0.6-32.4,0.4-48.6c0.3-4.2,5.4-8.2,8.3-12.3c3.7,4.1,10.6,8.1,10.7,12.3c0.9,34,0.7,68,0,102
	c-0.1,3.6-6.2,7.1-9.4,10.7c-3.3-3.6-9.2-7-9.4-10.7C598.5,338.6,599,320.8,598.9,303C599,303,599,303,598.9,303z"/>
<path class="st1" d="M547.3,365.1c0-24.8,0-48,0-70.8c18.9-7.2,21.5,1.9,21.3,16.8C567.5,370.9,572,370.5,547.3,365.1z"/>
<path class="st1" d="M494.5,321.8c22.6-0.5,24,3.1,18.1,43.1C490,367,490,367,494.5,321.8z"/>
<path class="st1" d="M836.2,622.3c-2.2,11.1-1.6,23.9-7.2,32.9c-12.1,19.5-3.3,30.8,10.6,43.2c14.3,12.8,27.5,26.9,40.9,40.7
	c11.6,12,13.8,25.1,1.1,37.5s-25.7,9.5-37.5-2c-16.8-16.4-32.6-33.9-50.4-49.2c-5.3-4.5-16.7-6.7-23.2-4.3
	c-43.6,16.3-83.2,10.3-116.8-21.2c-32.3-30.3-42.6-68.6-28.6-111c14.6-44.1,47.2-67.9,92.6-74.6
	C776.6,505.5,835.1,559.4,836.2,622.3z M811.1,621.3c0-44.9-37.7-83-82.8-83.7c-45.5-0.7-85,38-85.4,83.7
	c-0.4,45.8,38.4,84.7,84.2,84.5C773.7,705.5,811.1,667.8,811.1,621.3z"/>
</svg>
