<?xml version="1.0" encoding="utf-8"?>
<!-- Generator: Adobe Illustrator 19.0.1, SVG Export Plug-In . SVG Version: 6.00 Build 0)  -->
<svg version="1.1" id="Layer_1" xmlns="http://www.w3.org/2000/svg" xmlns:xlink="http://www.w3.org/1999/xlink" x="0px" y="0px"
	 viewBox="94 -4 800 800" style="enable-background:new 94 -4 800 800;" xml:space="preserve">
<style type="text/css">
	.st0{display:none;}
	.st1{display:inline;}
	.st2{fill:#FFFFFF;}
	.st3{fill:#3F3F3F;}
	.st4{fill:#F26222;}
	.st5{display:inline;fill:#F26222;}
</style>
<g id="Layer_1_1_" class="st0">
	<g class="st1">
		<path class="st2" d="M608.1,440.9c1.1,0.4,2.1,1,3.2,1.3c16.5,4.6,33.3,7.2,50.3,7.2c67,0.1,123.3-23.1,164.2-77.7
			c52.7-70.3,65.9-176,11.8-265.5C789.9,26.9,698-15.6,607.8,3.4C524.2,21,469.2,72.9,439.3,152.3c-1.8,4.7-2.9,9.6-4.3,14.4
			c20.3-49.4,53.1-87.6,101.2-111.3s98.4-27.3,149.6-11.1C777,73.1,839.6,164.8,824.2,269.2c-6.7,45.4-27.1,84.4-60.3,116.1
			C720.2,426.9,667.8,444.2,608.1,440.9z M713.8,191.2c-0.2-0.9-0.4-1.8-0.6-2.7c-4.8,0.4-9.8,0.1-14.4,1.3
			c-52.5,14.2-105.7,23.6-160.1,24.5c-33.1,0.5-65.9-2-98.2-10c-8.5-2.1-15.9-5.7-21.8-12.3c-1.5-1.7-4.5-2.8-6.9-2.9
			c-10.5-0.3-21-0.1-31.5-0.1c-9.3,0-11.1,2.1-8.7,11.3c0.7,2.7,1.8,5.7,3.6,7.5c4.6,4.5,9.2,9.2,14.7,12.5
			c12.1,7.3,25.8,10.6,39.6,13.2c33.5,6.3,67.3,6.3,101.1,4.3c49.9-2.9,98.5-12.3,145.2-30.4C688.7,202.6,701.2,196.7,713.8,191.2z
			 M680.6,280.2c0-0.6,0-1.2,0-1.8c-2.1-0.1-4.4-0.8-6.3-0.2c-40.5,11.4-81.6,19.3-123.7,21.5c-33.1,1.7-65.9,0-98.2-8.1
			c-6.9-1.7-12.6-5.1-17.2-10.4c-1-1.1-2.6-2.3-4-2.4c-10.2-0.1-20.3,0.1-30.5,0.1c-3.5,0-4.6,1.7-4.6,4.9c-0.2,6.8,2.9,12.2,8,15.9
			c5.3,3.9,11.2,7.3,17.3,9.8c15.9,6.4,32.8,8.8,49.7,9.9c53.3,3.5,105.7-2,156.9-17.8C646.2,296.1,663.7,288.9,680.6,280.2z
			 M678.1,352.7c-7.5,2.1-14.9,4.2-22.4,6.1c-43.3,10.9-87,16.6-131.6,9.3c-10-1.6-20.8-2.1-28-11.3c-0.6-0.7-2.1-1-3.1-1
			c-6.7,0-13.3,0.2-20,0c-3.1-0.1-4.1,1.4-3.6,3.9c0.5,2.4,0.9,5.5,2.5,6.8c4.9,4.1,10,8.5,15.7,10.9c16.2,6.7,33.7,7.6,50.9,8
			c22,0.5,43.8-1.6,65.4-5.8C630.1,374.5,655,366.1,678.1,352.7z M905.1,2c-1.1,0.5-3.7,1.2-5.9,2.6c-19.3,12.1-38.6,24.4-57.8,36.6
			c-6.5,4.1-8.2,10.8-4.4,16.7c3.6,5.6,10.1,6.7,16.6,2.6c8.7-5.5,17.4-11.1,26.1-16.6c10.8-6.9,21.7-13.7,32.4-20.7
			c4.9-3.2,6.5-8.2,4.8-13.5C915.6,5.1,911.5,2.1,905.1,2z M444.5,51.4c-3-3.8-4.9-7.8-8-9.9c-19.2-12.6-38.6-24.9-58.1-37.1
			c-1.8-1.1-3.9-2-6-2.3c-5-0.7-9.6,2.4-11.4,7.2c-2,5.3-0.4,10.7,4.6,14c11.7,7.6,23.6,15,35.4,22.5c8.2,5.2,16.3,10.3,24.5,15.4
			c3.9,2.4,8.2,2.8,11.7-0.1C440,58.8,441.7,55.3,444.5,51.4z M487.1-102.1c-9.6,0.2-14.7,8.6-11,16.7c9.9,21.5,20,42.8,30.1,64.2
			c3.1,6.5,9,8.8,14.8,6.3c5.9-2.6,8.5-9.1,5.6-15.5c-10-21.8-20.2-43.4-30.4-65.1C494.1-99.9,490.6-102,487.1-102.1z M758.7-14
			c3.8-0.1,7.3-2.4,9.4-7c3.8-8.1,7.6-16.2,11.4-24.4c6.2-13.2,12.5-26.4,18.5-39.7c3.1-6.7,0.8-13.3-5.3-16.1
			c-5.9-2.7-11.8-0.2-15.1,6.5c-2.4,4.9-4.7,9.9-7,14.9c-7.5,16.1-15.1,32.2-22.6,48.3C744.1-22.7,748.9-14.1,758.7-14z M651-89.6
			L651-89.6c0-11.8,0-23.7,0-35.5c0-7.6-4.5-12.7-11.1-12.7s-11.1,5-11.1,12.7c0,23.3,0,46.7,0,70c0,7.6,4.6,12.8,11.1,12.8
			c6.6-0.1,11.1-5.1,11.1-12.7C651-66.6,651-78.1,651-89.6z"/>
		<path class="st3" d="M608.1,440.9c59.7,3.3,112.1-13.9,155.6-55.5c33.2-31.7,53.6-70.7,60.3-116.1
			c15.5-104.4-47.2-196.1-138.4-224.9C634.4,28.2,584.1,31.8,536,55.5c-48,23.7-80.8,61.8-101.2,111.3c1.4-4.8,2.6-9.7,4.3-14.4
			C469,73,524,21.1,607.6,3.5C697.7-15.4,789.7,27,837.5,106.3c54,89.5,40.8,195.2-11.8,265.5c-40.9,54.6-97.2,77.8-164.2,77.7
			c-17.1,0-33.9-2.6-50.3-7.2C610.2,441.9,609.2,441.3,608.1,440.9z"/>
		<path class="st4" d="M713.8,191.2c-12.6,5.5-25.1,11.4-37.9,16.4c-46.7,18.1-95.3,27.4-145.2,30.4c-33.8,2-67.6,1.9-101.1-4.3
			c-13.8-2.6-27.5-5.9-39.6-13.2c-5.4-3.3-10.1-8-14.7-12.5c-1.9-1.9-3-4.9-3.6-7.5c-2.3-9.2-0.6-11.3,8.7-11.3
			c10.5,0,21-0.2,31.5,0.1c2.4,0.1,5.4,1.2,6.9,2.9c6,6.6,13.3,10.2,21.8,12.3c32.3,7.9,65.1,10.5,98.2,10
			c54.5-0.9,107.7-10.3,160.1-24.5c4.6-1.2,9.6-0.9,14.4-1.3C713.4,189.4,713.6,190.3,713.8,191.2z"/>
		<path class="st4" d="M680.6,280.2c-16.9,8.7-34.4,15.9-52.5,21.5c-51.2,15.9-103.5,21.3-156.9,17.8c-17-1.1-33.8-3.5-49.7-9.9
			c-6.1-2.5-11.9-5.9-17.3-9.8c-5.1-3.7-8.2-9.1-8-15.9c0.1-3.2,1.1-4.9,4.6-4.9c10.2,0,20.3-0.2,30.5-0.1c1.3,0,3,1.2,4,2.4
			c4.7,5.3,10.3,8.7,17.2,10.4c32.3,8,65.1,9.8,98.2,8.1c42.1-2.2,83.2-10.1,123.7-21.5c1.9-0.5,4.2,0.1,6.3,0.2
			C680.6,279,680.6,279.6,680.6,280.2z"/>
		<path class="st4" d="M678.1,352.7c-23.1,13.4-48,21.9-74.1,26.9c-21.6,4.2-43.5,6.3-65.4,5.8c-17.3-0.4-34.7-1.2-50.9-8
			c-5.8-2.4-10.8-6.8-15.7-10.9c-1.6-1.3-2-4.4-2.5-6.8c-0.5-2.5,0.5-4,3.6-3.9c6.7,0.2,13.3-0.1,20,0c1.1,0,2.6,0.3,3.1,1
			c7.1,9.2,17.9,9.7,28,11.3c44.6,7.2,88.3,1.5,131.6-9.3C663.2,356.9,670.6,354.7,678.1,352.7z"/>
		<path class="st4" d="M905.1,2c6.4,0.1,10.4,3.1,12,7.8c1.7,5.2,0.1,10.3-4.8,13.5c-10.7,7-21.6,13.8-32.4,20.7
			c-8.7,5.5-17.4,11.1-26.1,16.6c-6.5,4.1-13.1,3-16.6-2.6c-3.8-5.9-2.1-12.6,4.4-16.7c19.2-12.3,38.5-24.5,57.8-36.6
			C901.4,3.2,904,2.5,905.1,2z"/>
		<path class="st4" d="M444.5,51.4c-2.8,3.9-4.4,7.4-7.1,9.7c-3.5,2.9-7.8,2.5-11.7,0.1c-8.2-5.1-16.4-10.3-24.5-15.4
			c-11.8-7.5-23.7-14.9-35.4-22.5c-5-3.3-6.6-8.6-4.6-14c1.8-4.7,6.4-7.8,11.4-7.2c2.1,0.3,4.2,1.2,6,2.3
			c19.4,12.3,38.9,24.5,58.1,37.1C439.6,43.6,441.5,47.6,444.5,51.4z"/>
		<path class="st4" d="M487.1-102.1c3.5,0,7,2.2,9,6.5c10.2,21.7,20.4,43.4,30.4,65.1c2.9,6.3,0.3,12.9-5.6,15.5
			c-5.8,2.5-11.7,0.2-14.8-6.3C496-42.7,485.9-64,476-85.5C472.4-93.5,477.5-101.9,487.1-102.1z"/>
		<path class="st4" d="M758.7-14c-9.8-0.1-14.6-8.8-10.5-17.5c7.5-16.1,15-32.2,22.6-48.3c2.3-5,4.6-10,7-14.9
			c3.2-6.7,9.2-9.2,15.1-6.5c6,2.7,8.3,9.3,5.3,16.1c-6.1,13.3-12.3,26.5-18.5,39.7c-3.8,8.1-7.7,16.2-11.4,24.4
			C766-16.4,762.5-14.1,758.7-14z"/>
		<path class="st4" d="M651-89.6c0,11.5,0,23,0,34.5c0,7.6-4.5,12.7-11.1,12.7c-6.4,0.1-11-5.1-11.1-12.8c-0.1-23.3-0.1-46.7,0-70
			c0-7.7,4.5-12.7,11.1-12.7s11.1,5.1,11.1,12.7C651-113.3,651-101.4,651-89.6L651-89.6z"/>
	</g>
	<g class="st1">
		<path class="st3" d="M826.8,130.6c0.5,30.9-9.3,58.8-24.7,85c-10,17-20.9,33.5-31.4,50.1c-15.2,24-28.3,48.8-34.7,76.7
			c-1.5,6.5-6.5,10.3-13.9,11c-40.4,3.5-80.8,7-121.2,10.2c-16,1.3-26.6-6.6-29.3-22.8c-4.6-27.6-16.3-51.9-31.2-75.1
			c-12.5-19.3-26-38-37.4-57.9C466.3,144,475.4,82.5,516.4,24.6c27.2-38.4,65.3-61.8,112.2-68.8c54.6-8.1,102.2,7.9,142.1,45.5
			C807.4,36.3,825.8,79.8,826.8,130.6z"/>
		<path class="st4" d="M612.8,491.2c-5.3,0.5-10.4,1.2-15.4,1.5c-9.2,0.6-14.6-4.5-15.5-14.2c-1-10.6,2.9-16.4,12.3-17.4
			c30.7-3.3,61.5-6.4,92.3-9.6c9.2-0.9,18.4-1.8,27.5-2.8s15,3.7,16.4,13.2c1.5,10.5-2.5,17-11.7,18.6c-3.2,0.5-6.5,0.7-9.7,1
			c-3,0.3-6.1,0.6-9.6,1c-0.2,1.7-0.4,3.2-0.4,4.7c-0.2,12.6-6.9,20.3-19.3,20.7c-15.5,0.5-31.1,0.4-46.7,0
			C622.8,507.6,616.8,502.4,612.8,491.2z"/>
		<path class="st4" d="M581.8,432.5c-0.1-8.3,4.5-13.4,13.6-14.4c18.9-2,37.8-3.8,56.6-5.8c20-2,40-3.7,59.9-6.3
			c16.2-2.1,20.5,10,18.4,21.7c-1.1,5.8-5.5,9.2-11.5,9.8c-16.5,1.8-33.1,3.5-49.6,5.2c-22.5,2.3-45,4.4-67.4,6.8
			C587.7,451.1,582,446.3,581.8,432.5z"/>
		<path class="st4" d="M581.8,390.5c-0.3-8.6,4.4-14.1,13-15c39.1-4,78.2-7.8,117.2-12.1c17-1.8,19.6,10.2,18.5,20.9
			c-0.7,5.9-5.6,10-12,10.7c-20,2.2-40,4.2-59.9,6.3c-19.3,2-38.5,3.9-57.8,5.7C587.5,408.3,582.2,403.6,581.8,390.5z"/>
	</g>
	<path class="st5" d="M939.3-46.2c6.9,0.1,11.3,3.4,13,8.5c1.9,5.7,0.1,11.2-5.2,14.6c-11.7,7.6-23.5,15-35.3,22.5
		c-9.5,6-18.9,12.1-28.4,18c-7.1,4.5-14.2,3.3-18.1-2.8c-4.1-6.5-2.3-13.7,4.8-18.2c20.9-13.3,41.8-26.6,62.8-39.8
		C935.3-44.9,938-45.7,939.3-46.2z"/>
	<path class="st5" d="M438.6,7.5c-3,4.2-4.8,8-7.8,10.5c-3.8,3.2-8.5,2.7-12.7,0.1c-8.9-5.6-17.8-11.2-26.7-16.8
		c-12.8-8.1-25.7-16.2-38.5-24.5c-5.5-3.5-7.2-9.4-5-15.2c1.9-5.1,7-8.5,12.3-7.8c2.2,0.3,4.5,1.3,6.5,2.5
		c21.1,13.3,42.3,26.6,63.1,40.4C433.3-1,435.3,3.4,438.6,7.5z"/>
	<path class="st5" d="M484.9-159.3c3.8,0,7.6,2.4,9.8,7.1c11.1,23.6,22.2,47.1,33,70.8c3.2,6.9,0.4,14-6,16.8
		c-6.3,2.8-12.7,0.2-16.1-6.8c-11-23.2-21.9-46.4-32.7-69.8C469-149.9,474.5-159.1,484.9-159.3z"/>
	<path class="st5" d="M780.1-63.6c-10.7-0.1-15.8-9.5-11.5-19c8.1-17.5,16.4-35,24.5-52.5c2.5-5.4,5-10.8,7.6-16.2
		c3.5-7.2,10-10,16.4-7.1c6.5,3,9.1,10.2,5.7,17.5c-6.6,14.4-13.4,28.8-20.2,43.2c-4.1,8.8-8.3,17.6-12.4,26.5
		C788-66.2,784.3-63.7,780.1-63.6z"/>
	<path class="st5" d="M663.1-145.8c0,12.5,0,25,0,37.5c0,8.3-4.9,13.8-12.1,13.9c-7,0.1-12-5.6-12-13.9c-0.1-25.4-0.1-50.7,0-76.1
		c0-8.4,4.9-13.8,12-13.8c7.2,0,12.1,5.5,12.1,13.8C663.1-171.5,663.1-158.6,663.1-145.8L663.1-145.8z"/>
</g>
<g id="Layer_2" class="st0">
	<g class="st1">
		<path d="M814.9,66.4c0.5,33.4-10.1,63.7-26.7,92c-10.8,18.4-22.6,36.2-34,54.2c-16.4,25.9-30.6,52.8-37.5,83.1
			c-1.6,7.1-7.1,11.2-15.1,11.9c-43.7,3.8-87.4,7.6-131.2,11.1c-17.3,1.4-28.8-7.1-31.7-24.7c-4.9-29.9-17.6-56.2-33.8-81.3
			c-13.5-20.9-28.1-41.1-40.5-62.7c-39.7-69.1-29.9-135.7,14.5-198.3c29.4-41.6,70.6-66.9,121.4-74.4c59.1-8.8,110.6,8.5,153.8,49.3
			C794-35.7,813.8,11.4,814.9,66.4z"/>
		<path d="M583.3,456.7c-5.8,0.6-11.2,1.3-16.7,1.6c-9.9,0.6-15.8-4.9-16.7-15.4c-1-11.4,3.2-17.8,13.3-18.9
			c33.3-3.6,66.6-6.9,99.9-10.4c9.9-1,19.9-2,29.8-3.1c9.9-1.1,16.2,4,17.7,14.3c1.6,11.4-2.7,18.4-12.7,20.1
			c-3.5,0.6-7,0.7-10.5,1.1c-3.3,0.3-6.6,0.7-10.4,1.1c-0.2,1.8-0.4,3.5-0.5,5.1c-0.2,13.7-7.4,22-20.9,22.4
			c-16.8,0.5-33.7,0.4-50.5,0C594.1,474.4,587.7,468.8,583.3,456.7z"/>
		<path d="M549.7,393.2c-0.1-9,4.8-14.5,14.7-15.6c20.4-2.2,40.9-4.2,61.3-6.2c21.6-2.2,43.3-4,64.8-6.8
			c17.6-2.3,22.2,10.8,19.9,23.5c-1.2,6.3-5.9,10-12.5,10.7c-17.9,1.9-35.8,3.8-53.7,5.6c-24.3,2.5-48.7,4.8-73,7.4
			C556.2,413.3,550,408.1,549.7,393.2z"/>
		<path d="M549.7,347.7c-0.4-11.5,7.4-17.9,21.5-16c36.3,4.8,73.1,0.9,107.9-10.6c28.7-9.5,33.1,6.3,31.6,19.9
			c-0.7,6.4-6,10.8-13,11.6c-21.6,2.3-43.3,4.6-64.9,6.8c-20.9,2.1-41.7,4.2-62.6,6.2C555.9,367,550.2,361.9,549.7,347.7z"/>
	</g>
</g>
<g id="Layer_4" class="st0">
	<g class="st1">
		<path class="st4" d="M636.6,271c-69,0-137.2-5.9-204-24.6c-18.8-5.3-23.9-15.1-25.8-34.2c-3.5-35,11.5-55.5,41.3-69
			c23.9-10.9,48.3-21,71.2-33.7c17.5-9.7,33.8-22.2,49.2-35.2c4.5-3.8,7.6-14.7,5.5-20c-5.9-14.7-13.7-29-22.8-42
			c-14.4-20.6-22.5-41-15.3-67c4-14.5,1.1-30.8,2.7-46.2c6.8-62.6,78.6-103,136-76.9c5.4,2.5,11,4.7,16.8,6.1
			c24.5,6.2,35.5,18,38.6,42.7c3.7,29.5,7.7,59.1,10.6,88.7c2,20.9-7.8,37.7-19.7,54.2C712,26.3,705,40.3,699.4,54.5
			c-2,5,0.7,15.2,4.8,18.7c15.4,13,31.4,25.8,48.9,35.6c28.6,15.9,59.3,28.2,87.9,44.2c23.5,13.2,35.1,55,22.5,78.6
			c-3.5,6.6-13.4,11.4-21.4,13.8c-58.8,18-119.3,23.8-180.5,25.5C653.4,271.2,645,271,636.6,271z"/>
		<path class="st3" d="M884.8,196.1c2.1-37.1-17.1-55.8-42.4-69.6c-24.1-13.1-48.9-24.9-74.9-38c6-4.6,11.5-8.6,16.8-12.8
			c21.3-17.1,25.7-24.9,8.1-43.8c-27-28.9-17.2-60.8-13.7-91.3c4.1-35.7,49.2-58.8,83.2-46.6c7.3,2.6,14.8,4.7,21.9,7.7
			c4.2,1.8,8.7,4.3,11.7,7.7c13.8,15.5,15.5,94.1,3.8,111.3c-27.7,40.9-22.7,39.8,14.5,63.7c17.9,11.5,38.9,18.2,57.8,28.3
			c21.7,11.6,28.8,29.7,21.7,52.6c-1.2,3.9-5.5,8.7-9.1,9.6C952,182.2,919.5,188.8,884.8,196.1z"/>
		<path class="st3" d="M506.2,87.3c-32.5,16.4-63.2,30.9-93,47.2c-21.5,11.7-36,29.5-35.1,60.3c-30.6-6.7-59.8-11.9-88.2-19.9
			c-15.6-4.4-16-42.8,0.2-53.7c17.2-11.6,36.7-19.7,55.1-29.5c9.5-5,19.5-9.4,28.1-15.6c22.3-16.3,24.7-27,6.6-48.4
			c-27.3-32.2-17.5-67.4-6.5-99.6c11.4-33.5,50.2-42.6,84.4-32.3c26.6,8,36.8,22.7,37.5,48.5c0.4,14.8,4.3,29.5,4.7,44.3
			c0.2,7.9-3.2,16.1-5.9,23.9c-1.3,3.8-4.5,7-7,10.4c-21.5,28.4-20.4,36.7,7.7,57.2C498.1,82.4,501.7,84.4,506.2,87.3z"/>
		<path class="st4" d="M636.2,415.8c9.5,26.9,26,40.1,55.1,38.6c-20.6,17.8-31.6,36.9-19.6,64.8c-23.7-15.9-45.9-17.6-69.2,0.6
			c8.5-26.7,4.7-47.7-20.6-63.5C608.2,453.3,629.8,446.1,636.2,415.8z"/>
		<path class="st4" d="M897.4,380.6c7.1-27.2,0.9-47.6-23.9-63.1c28.9,0.1,47.6-11.7,55.7-40.3c9.5,26.7,25.4,41.6,55.5,38.8
			c-19.7,17.4-34.4,35.7-20.9,65.2C940,365.9,919.9,363.7,897.4,380.6z"/>
		<path class="st4" d="M377,402.5c-22.6-16.9-43.3-15.5-63.8,0.4c-5-40.2-5-40.2-24-66c27.7,1.7,46.6-9,54.5-38.1
			c9.9,25.9,25.2,41.8,55.5,38.7C378.3,354.6,368.2,374.5,377,402.5z"/>
		<path class="st4" d="M536.6,403.8c-26.5,16.6-33.2,36.7-22.8,64c-23.5-15.5-45.6-19.1-68.9,0.9c7.7-26.9,4.5-48.7-21.1-64.9
			c27.3-1.1,46.5-11.3,53.6-40.9c8.7,13.7,13,26.2,21.7,32.5C507.4,401.3,520.4,400.6,536.6,403.8z"/>
		<path class="st4" d="M794.8,365.4c9.6,26.1,26.2,38.3,58.7,35.2c-23.9,20-37.5,39.1-23.1,67.9c-24.5-16.8-46.7-19.5-70.2,0.7
			c10.1-28.4,2.7-48.9-20.1-66.1C767.8,403.6,785.7,392.2,794.8,365.4z"/>
	</g>
</g>
<g id="Layer_5" class="st0">
	<g class="st1">
		<path class="st3" d="M494.9,5.3c30.8,30.5,64.6,64.1,99.4,98.6c-6.7,7.3-12.3,13.3-18.7,20.2c-31.8-31.9-62.8-62.6-93.3-93.8
			c-6.7-6.9-11.6-8.8-21.3-4.3c-31.3,14.5-67.7,6-89-19.2c-21.5-25.4-24.4-61.2-7.1-89.8c17.3-28.7,51.2-42.2,84.6-33.9
			c31.3,7.8,55.7,36.2,56,70.1C505.6-30.7,499.2-14.5,494.9,5.3z"/>
		<path class="st3" d="M681.2,229.7c7.2-6.7,12.9-12,19.1-17.8c33.4,33.5,66.3,66.5,99.6,99.8c19.9-11.3,38.9-17.3,60.2-13.2
			c44.2,8.6,71.3,51.4,59.7,95.1c-11,41.3-55.6,65.3-97,52.2c-42.1-13.4-64.4-59.4-47-100.1c5.4-12.6,3.1-19.1-5.9-27.8
			C740.4,289.4,711.7,260.1,681.2,229.7z"/>
		<path class="st3" d="M476.4,311.8c33.7-34.3,67.2-68.3,100.5-102.3c6.5,6.8,12.2,12.8,18.5,19.4c-30.9,30.8-62,62.1-93.5,93
			c-6,5.9-7.8,10.3-3.9,18.7c16.4,35.7,5.3,75.3-25.9,96c-31,20.6-72.4,15.9-98-11c-25-26.4-27.7-67.6-6.3-97.2
			c22.1-30.6,61.7-39.8,97.1-22.6C467.9,307.3,470.7,308.8,476.4,311.8z"/>
		<path class="st4" d="M652.6-53.3c0,47,0,93.7,0,142.3c-8.3,0.5-15.8,0.9-24.9,1.4c-0.4-7.2-1-12.8-1.1-18.3
			c-0.1-35.8-0.5-71.5,0.2-107.3c0.2-12.4-2.2-19.1-15.8-23.5c-33.1-10.7-53.5-46-48.8-79.4c5.3-37.3,33.6-64.4,70.4-67.5
			c34.1-2.8,66.7,19.2,77.7,52.4c12.7,38.5-6.3,79.5-43.8,94.7C662.1-56.8,657.7-55.2,652.6-53.3z"/>
		<path class="st3" d="M420.6,154.1c47.4,0,95.1,0,143.7,0c0,8.5,0,15.7,0,25c-5.3,0-10.9,0-16.5,0c-38.9,0-77.8,0.3-116.6-0.2
			c-8.7-0.1-12.7,2.5-15.9,10.9c-13.2,35.6-46.4,55.9-81.2,50.8c-36.6-5.3-63.8-33.7-67.5-70.7c-3.3-32.3,22-68.4,54.7-78.1
			c35.9-10.6,74.3,5.8,90.4,39C415,138,417.3,145.5,420.6,154.1z"/>
		<path class="st3" d="M652.6,242c0,42.7,0.4,84.8-0.2,126.9c-0.2,11,2.8,16.2,13.9,20.2c34.7,12.5,53.3,49,46.2,86.8
			c-6.4,34.2-39.4,60.6-75.1,60.2c-37.2-0.5-67.8-27-74.7-64.6c-6.3-34.4,14.3-71.6,48.5-82.7c13.7-4.5,15.9-11.3,15.7-23.6
			c-0.6-35.3-0.2-70.5-0.2-105.8C626.6,237.7,628,236.7,652.6,242z"/>
		<path class="st3" d="M716.3,179.1c0-9.3,0-16.3,0-25.2c9.9,0,18.7,0,27.5,0c25.8,0,51.6-0.8,77.3,0.2c21.1,0.8,36.2,0.4,46-25.6
			c12.6-33.6,53.3-47,87.9-36.4c32.8,10,55.7,42.8,53.7,76.9c-2.3,37.2-28.7,65.9-66,71.6c-33.9,5.2-68.6-14.3-80.6-47.1
			c-4.2-11.5-9.6-14.8-21.4-14.6C799.8,179.6,758.8,179.1,716.3,179.1z"/>
		<path class="st3" d="M708.8,115.5c-6-7.1-10.5-12.5-16.3-19.3c7.5-6.4,14.3-12,21-17.7c19.7-16.6,38.9-33.8,59.3-49.6
			c16.7-13,28-23,18.7-49.2c-12-33.8,10.5-70.3,43.8-84.5c31.6-13.5,70.2-3.2,90.6,24.3c22.2,29.9,20.5,68.9-4.3,97.3
			c-22.6,25.8-61.6,33.3-92,15.9c-10.7-6.1-16.9-5.2-25.8,2.6C772.9,62.1,741.3,88.1,708.8,115.5z"/>
	</g>
</g>
<g id="Layer_3">
</g>
<g>
	<path class="st3" d="M484.9,36.2c108.5,1.5,195,29.6,268.4,92.6c56.8,48.9,94.1,109.9,105.8,184.5c13.4,84.9-8,161.6-60.9,228.8
		c-56.9,72.4-132.8,114.1-222.3,132c-49.8,10-99.7,9.8-149.7,1.5c-3.7-0.6-8.2,0.2-11.6,1.8C370.4,698,325,715.7,278,728.5
		c-32.7,8.9-65.9,15.5-100,13.3c-11.7-0.7-23.1-4.2-34.7-6.3c-5.9-1.1-6.5-5-3.8-8.9c3.8-5.5,8.2-10.7,13-15.3
		c18.3-17.5,37.7-34,55.2-52.2c16.5-17.3,27.4-38.3,33.1-61.9c1.4-5.8,0.1-9.1-4.2-13c-49.6-45-84.3-99.4-97.7-165.4
		c-19.6-96.2,5.1-181.5,68.6-255.3c55.9-65,128-103,211.6-119.1C444.8,39.4,471.1,37.9,484.9,36.2z M406.7,376.2
		c0,16.3-2.7,30.9-8.7,44.7c-8.2,18.8-21.6,32.8-38.9,43.5c-2.8,1.7-6.3,4.9-6.5,7.6c-0.6,14-0.5,28,0,42c0.1,1.7,3.8,3.7,6.1,4.6
		c1.5,0.6,3.7-0.4,5.6-0.8c39.4-6.7,71.4-24.4,90.3-61.3c11.6-22.5,16.5-46.9,16.8-71.9c0.6-39.8,0.1-79.7,0.5-119.5
		c0.1-6.8-2.3-8.7-8.8-8.7c-34,0.3-68.1,0.3-102.1,0c-7.2-0.1-9,2.5-9,9.3c0.3,33.8,0.3,67.6,0,101.4c-0.1,6.9,2,9.4,9.1,9.2
		C376.1,375.9,391,376.2,406.7,376.2z M606.8,376.2c-2,11.6-3,22.1-5.7,32.3c-6.6,24.4-21.6,42.7-43.1,55.9
		c-2.9,1.8-6.5,5.3-6.7,8.2c-0.7,13.5-0.3,27-0.3,40.5c0,4.6,1.9,6.8,6.8,5.4c8.1-2.2,16.4-3.9,24.4-6.5
		c31.4-10.3,57.3-27.5,72.5-58c10.5-21.1,15-43.8,15.4-67.1c0.6-40.5,0.2-81.1,0.6-121.7c0.1-6.7-2.2-8.7-8.8-8.7
		c-34,0.3-68.1,0.3-102.1,0c-6.5,0-8.9,1.7-8.9,8.6c0.3,34.3,0.3,68.6,0,102.8c0,6.3,2,8.5,8.3,8.4
		C574.4,376,589.6,376.2,606.8,376.2z"/>
	<path class="st4" d="M406.7,376.2c-15.7,0-30.6-0.3-45.5,0.1c-7,0.2-9.1-2.3-9.1-9.2c0.3-33.8,0.3-67.6,0-101.4
		c-0.1-6.7,1.8-9.4,9-9.3c34,0.3,68.1,0.3,102.1,0c6.6,0,8.9,1.9,8.8,8.7c-0.3,39.8,0.1,79.7-0.5,119.5c-0.4,25-5.3,49.4-16.8,71.9
		c-18.9,36.9-50.9,54.6-90.3,61.3c-1.9,0.3-4.1,1.4-5.6,0.8c-2.4-0.9-6.1-2.9-6.1-4.6c-0.5-14-0.6-28,0-42c0.1-2.7,3.7-5.9,6.5-7.6
		c17.3-10.7,30.8-24.7,38.9-43.5C404,407.1,406.7,392.5,406.7,376.2z"/>
	<path class="st4" d="M606.8,376.2c-17.2,0-32.4-0.2-47.6,0.1c-6.3,0.1-8.4-2.1-8.3-8.4c0.2-34.3,0.3-68.6,0-102.8
		c-0.1-6.9,2.4-8.6,8.9-8.6c34,0.2,68.1,0.3,102.1,0c6.6-0.1,8.9,2,8.8,8.7c-0.3,40.6,0,81.1-0.6,121.7c-0.3,23.3-4.8,46-15.4,67.1
		c-15.2,30.5-41.1,47.8-72.5,58c-8,2.6-16.3,4.3-24.4,6.5c-4.9,1.4-6.8-0.9-6.8-5.4c0-13.5-0.4-27.1,0.3-40.5
		c0.2-2.9,3.8-6.4,6.7-8.2c21.5-13.2,36.5-31.4,43.1-55.9C603.8,398.4,604.8,387.8,606.8,376.2z"/>
</g>
</svg>
