<?xml version="1.0" encoding="utf-8"?>
<!-- Generator: Adobe Illustrator 19.0.1, SVG Export Plug-In . SVG Version: 6.00 Build 0)  -->
<svg version="1.1" id="Layer_1" xmlns="http://www.w3.org/2000/svg" xmlns:xlink="http://www.w3.org/1999/xlink" x="0px" y="0px"
	 viewBox="94 -4 800 800" style="enable-background:new 94 -4 800 800;" xml:space="preserve">
<style type="text/css">
	.st0{fill:#383838;}
	.st1{fill:#F26222;}
	.st2{fill:#FFFFFF;}
</style>
<g>
	<path class="st0" d="M364,123.9c5.2,1.3,10.3,2.6,15.5,3.8c36.1,8.2,64.5,27.8,85.2,58.3c4.6,6.8,9.4,8.8,17.2,8.3
		c47.1-2.8,80,18.5,101.3,59.9c1.9,3.7,7.8,7.4,12,7.6c57.4,2.7,100.5,46.6,99.7,102C694,421,651,463.7,592.6,464
		c-114.4,0.4-228.9,0.3-343.3,0c-52.3-0.1-91.4-33.2-101.6-84.6c-0.4-2.2-1.7-4.3-2.5-6.4c0-6.2,0-12.4,0-18.6
		c0.8-1.8,1.9-3.5,2.2-5.3c6.1-36.9,26.6-62.9,60.5-78.1c6.5-2.9,7.8-7.1,7.9-13.6c1.5-62.5,43.6-114,104.8-128.6
		c6.7-1.6,13.4-3.2,20.1-4.8C348.5,123.9,356.2,123.9,364,123.9z M420.6,432.2c0,0.1,0,0.1,0,0.2c5.4,0,10.9,0,16.3,0
		c54.3-0.1,108.6,0.6,162.9-0.6c38.2-0.8,66.2-36,62.8-76.2c-3-35.6-38.4-65.4-73.3-61.8c-24.9,2.6-24.9,2.6-33.3-20.5
		c-11.5-31.4-39-52.9-70.5-46.9c-26,5-36.5-4.2-49.2-24.5c-24.9-39.8-74.2-54.6-117.7-39.8c-43.6,14.9-73,56.6-71.4,101.2
		c1,25.4,1,25.4-23,35c-31.9,12.7-49.9,42.4-45.3,74.4c4.8,33.6,32,58.8,65.9,59.2C303.4,432.6,362,432.2,420.6,432.2z"/>
	<path class="st0" d="M615,668c-54.3,0-108.6,0.1-162.8,0c-46.8-0.1-75.7-39.6-61.9-84.2c6.7-21.6,26.9-38.1,49.4-40.4
		c2.7-0.3,5.4-0.4,8.1-0.4c111.3,0,222.5-0.3,333.8,0.1c35.9,0.1,61.3,26.7,61.2,62.2c-0.1,35.3-26.9,62.5-62.7,62.7
		C725.1,668.2,670.1,668,615,668z M505.4,605c0-16-13.6-29.6-29.5-29.7c-16-0.1-29.9,13.4-30.1,29.2c-0.3,16.4,13.5,30.1,30.2,30.1
		C492.1,634.4,505.4,621.1,505.4,605z"/>
	<path class="st0" d="M733.9,334.7c10.1,5.8,19.9,8.6,25.1,15c11.3,14.1,23.3,28.9,29.4,45.5c17.5,47.2,32.1,95.4,47.9,143.2
		c0.3,1,0,2.2,0,6.1c-6.9-2-12.7-3.7-18.6-5.4c-12.8-3.7-25.6-10.4-38.5-10.5c-109.8-0.8-219.6-0.8-329.4,0
		c-12.5,0.1-24.9,6.7-37.4,10.3c-5.9,1.7-11.8,3.5-19.2,5.7c-2-15.8,4.9-26.3,9.7-37.4c6.5-14.7,16.3-20.3,33.2-20.1
		c62.8,0.9,125.7-0.6,188.5,0c33,0.3,57.6-13.4,76-39.4c21.7-30.6,32.8-64.8,32.5-102.5C733.2,343.4,733.4,341.5,733.9,334.7z"/>
</g>
<g>
	<path class="st1" d="M448.8,344.8c11.6,0,23.2-0.1,34.7,0c8,0,13,4.1,13.3,10.5c0.7,12.3-2.6,18-12.1,18.2c-23.7,0.5-47.3,0.5-71,0
		c-7.3-0.2-15-4.8-13.8-16.3c0.9-8.4,5.1-12.3,14.9-12.3C426.2,344.8,437.5,344.8,448.8,344.8z"/>
	<path class="st1" d="M337.6,373.7c-11.1,0-22.1,0.1-33.2,0c-5.9,0-12.4-1.6-13.5-7.6c-1.2-6.3-3.2-14.1,4.1-18.9
		c2-1.3,4.6-2.2,6.9-2.2c23.4-0.2,46.8-0.1,70.3-0.1c8.4,0,14.7,5.6,15,13c0.4,8.8-5.7,15.5-14.9,15.7
		C360.7,373.9,349.1,373.7,337.6,373.7z"/>
	<path class="st1" d="M449.3,273.8c11.6,0,23.1,0,34.7,0c9.5,0,12.5,2.1,12.9,9c0.7,12.2-2.6,17.9-12.1,18.1
		c-24.1,0.5-48.3,0.4-72.4,0c-7.9-0.1-12.8-7.6-12.2-16.9c0.5-7.2,4.2-10.2,13-10.2C425.1,273.7,437.2,273.8,449.3,273.8z"/>
	<path class="st1" d="M448.6,404.6c-11.8,0-23.6,0.1-35.5,0c-8.9-0.1-13.2-4.7-13.1-14c0.1-8.6,4.4-13.2,13.1-13.2
		c23.6-0.1,47.3-0.1,70.9,0c8.8,0,12.9,4.6,12.8,14c0,8.7-4.2,13.1-12.8,13.2C472.2,404.7,460.4,404.6,448.6,404.6z"/>
	<path class="st1" d="M338,273.8c12.1,0,24.2,0,36.3,0c7.1,0,12,3.9,12.9,10.1c1,6.9-2.7,13.6-9.1,15.6c-2.6,0.8-5.4,1.4-8.1,1.4
		c-21.9,0.1-43.7,0.1-65.6,0c-12.4,0-19.7-12.2-13-22.6c1.6-2.4,5.8-4.4,8.8-4.5C312.8,273.5,325.4,273.8,338,273.8z"/>
	<path class="st1" d="M448.2,332c-11.6,0-23.2,0.1-34.7,0c-9.1-0.1-13.5-4.5-13.4-13.7c0-8.2,5.3-13.5,13.7-13.6
		c23.2,0,46.3-0.1,69.5,0c9.5,0,13.6,4.4,13.6,14.3c0,8.8-4.4,12.9-13.9,13C471.4,332,459.8,332,448.2,332z"/>
	<path class="st1" d="M337.5,332c-11.8,0-23.7,0.1-35.5,0c-7.6-0.1-11.4-3.7-11.7-10.9c-0.4-10.2,2.9-16.1,10.5-16.2
		c24.7-0.3,49.4-0.3,74.1,0c7.6,0.1,11,6,10.6,16.1c-0.2,6.6-4.8,11-11.8,11C361.7,332,349.6,332,337.5,332z"/>
	<path class="st1" d="M336.8,404.6c-11.6,0-23.2,0.1-34.8,0c-8.1-0.1-11.7-4.5-11.7-14.2c0-9.4,3.2-13,11.8-13.1
		c23.4-0.1,46.9-0.1,70.3,0c9.1,0,13.2,4.5,13.2,13.7s-4.2,13.5-13.3,13.6C360.4,404.6,348.6,404.6,336.8,404.6z"/>
	<circle class="st2" cx="305.3" cy="287.8" r="6.3"/>
	<circle class="st2" cx="307.3" cy="318.3" r="6.3"/>
	<circle class="st2" cx="305.3" cy="356.9" r="6.3"/>
	<circle class="st2" cx="307.3" cy="389.7" r="6.3"/>
	<circle class="st2" cx="414.2" cy="389.7" r="6.3"/>
	<circle class="st2" cx="414.2" cy="359.3" r="6.3"/>
	<circle class="st2" cx="414.2" cy="318.3" r="6.3"/>
	<circle class="st2" cx="414.2" cy="287.4" r="6.3"/>
</g>
</svg>
