<?xml version="1.0" encoding="utf-8"?>
<!-- Generator: Adobe Illustrator 19.0.1, SVG Export Plug-In . SVG Version: 6.00 Build 0)  -->
<svg version="1.1" id="Layer_1" xmlns="http://www.w3.org/2000/svg" xmlns:xlink="http://www.w3.org/1999/xlink" x="0px" y="0px"
	 viewBox="94 -4 800 800" style="enable-background:new 94 -4 800 800;" xml:space="preserve">
<style type="text/css">
	.st0{display:none;}
	.st1{display:inline;}
	.st2{fill:#FFFFFF;}
	.st3{fill:#3F3F3F;}
	.st4{fill:#F26222;}
	.st5{display:inline;fill:#F26222;}
</style>
<g id="Layer_1_1_" class="st0">
	<g class="st1">
		<path class="st2" d="M752.1,199.9c1.1,0.4,2.1,1,3.2,1.3c16.5,4.6,33.3,7.2,50.3,7.2c67,0.1,123.3-23.1,164.2-77.7
			c52.7-70.3,65.9-176,11.8-265.5C933.9-214.1,842-256.6,751.8-237.6C668.2-220,613.2-168.1,583.3-88.7c-1.8,4.7-2.9,9.6-4.3,14.4
			c20.3-49.4,53.1-87.6,101.2-111.3s98.4-27.3,149.6-11.1C921-167.9,983.6-76.2,968.2,28.2c-6.7,45.4-27.1,84.4-60.3,116.1
			C864.2,185.9,811.8,203.2,752.1,199.9z M857.8-49.8c-0.2-0.9-0.4-1.8-0.6-2.7c-4.8,0.4-9.8,0.1-14.4,1.3
			C790.3-37,737.1-27.6,682.7-26.7c-33.1,0.5-65.9-2-98.2-10c-8.5-2.1-15.9-5.7-21.8-12.3c-1.5-1.7-4.5-2.8-6.9-2.9
			c-10.5-0.3-21-0.1-31.5-0.1c-9.3,0-11.1,2.1-8.7,11.3c0.7,2.7,1.8,5.7,3.6,7.5c4.6,4.5,9.2,9.2,14.7,12.5
			c12.1,7.3,25.8,10.6,39.6,13.2c33.5,6.3,67.3,6.3,101.1,4.3c49.9-2.9,98.5-12.3,145.2-30.4C832.7-38.4,845.2-44.3,857.8-49.8z
			 M824.6,39.2c0-0.6,0-1.2,0-1.8c-2.1-0.1-4.4-0.8-6.3-0.2c-40.5,11.4-81.6,19.3-123.7,21.5c-33.1,1.7-65.9,0-98.2-8.1
			c-6.9-1.7-12.6-5.1-17.2-10.4c-1-1.1-2.6-2.3-4-2.4c-10.2-0.1-20.3,0.1-30.5,0.1c-3.5,0-4.6,1.7-4.6,4.9c-0.2,6.8,2.9,12.2,8,15.9
			c5.3,3.9,11.2,7.3,17.3,9.8c15.9,6.4,32.8,8.8,49.7,9.9c53.3,3.5,105.7-2,156.9-17.8C790.2,55.1,807.7,47.9,824.6,39.2z
			 M822.1,111.7c-7.5,2.1-14.9,4.2-22.4,6.1c-43.3,10.9-87,16.6-131.6,9.3c-10-1.6-20.8-2.1-28-11.3c-0.6-0.7-2.1-1-3.1-1
			c-6.7,0-13.3,0.2-20,0c-3.1-0.1-4.1,1.4-3.6,3.9c0.5,2.4,0.9,5.5,2.5,6.8c4.9,4.1,10,8.5,15.7,10.9c16.2,6.7,33.7,7.6,50.9,8
			c22,0.5,43.8-1.6,65.4-5.8C774.1,133.5,799,125.1,822.1,111.7z M1049.1-239c-1.1,0.5-3.7,1.2-5.9,2.6
			c-19.3,12.1-38.6,24.4-57.8,36.6c-6.5,4.1-8.2,10.8-4.4,16.7c3.6,5.6,10.1,6.7,16.6,2.6c8.7-5.5,17.4-11.1,26.1-16.6
			c10.8-6.9,21.7-13.7,32.4-20.7c4.9-3.2,6.5-8.2,4.8-13.5C1059.6-235.9,1055.5-238.9,1049.1-239z M588.5-189.6
			c-3-3.8-4.9-7.8-8-9.9c-19.2-12.6-38.6-24.9-58.1-37.1c-1.8-1.1-3.9-2-6-2.3c-5-0.7-9.6,2.4-11.4,7.2c-2,5.3-0.4,10.7,4.6,14
			c11.7,7.6,23.6,15,35.4,22.5c8.2,5.2,16.3,10.3,24.5,15.4c3.9,2.4,8.2,2.8,11.7-0.1C584-182.2,585.7-185.7,588.5-189.6z
			 M631.1-343.1c-9.6,0.2-14.7,8.6-11,16.7c9.9,21.5,20,42.8,30.1,64.2c3.1,6.5,9,8.8,14.8,6.3c5.9-2.6,8.5-9.1,5.6-15.5
			c-10-21.8-20.2-43.4-30.4-65.1C638.1-340.9,634.6-343,631.1-343.1z M902.7-255c3.8-0.1,7.3-2.4,9.4-7c3.8-8.1,7.6-16.2,11.4-24.4
			c6.2-13.2,12.5-26.4,18.5-39.7c3.1-6.7,0.8-13.3-5.3-16.1c-5.9-2.7-11.8-0.2-15.1,6.5c-2.4,4.9-4.7,9.9-7,14.9
			c-7.5,16.1-15.1,32.2-22.6,48.3C888.1-263.7,892.9-255.1,902.7-255z M795-330.6L795-330.6c0-11.8,0-23.7,0-35.5
			c0-7.6-4.5-12.7-11.1-12.7s-11.1,5-11.1,12.7c0,23.3,0,46.7,0,70c0,7.6,4.6,12.8,11.1,12.8c6.6-0.1,11.1-5.1,11.1-12.7
			C795-307.6,795-319.1,795-330.6z"/>
		<path class="st3" d="M752.1,199.9c59.7,3.3,112.1-13.9,155.6-55.5c33.2-31.7,53.6-70.7,60.3-116.1
			c15.5-104.4-47.2-196.1-138.4-224.9c-51.2-16.2-101.5-12.6-149.6,11.1c-48,23.7-80.8,61.8-101.2,111.3c1.4-4.8,2.6-9.7,4.3-14.4
			C613-168,668-219.9,751.6-237.5c90.1-18.9,182.1,23.5,229.9,102.8c54,89.5,40.8,195.2-11.8,265.5c-40.9,54.6-97.2,77.8-164.2,77.7
			c-17.1,0-33.9-2.6-50.3-7.2C754.2,200.9,753.2,200.3,752.1,199.9z"/>
		<path class="st4" d="M857.8-49.8c-12.6,5.5-25.1,11.4-37.9,16.4C773.2-15.3,724.6-6,674.7-3c-33.8,2-67.6,1.9-101.1-4.3
			c-13.8-2.6-27.5-5.9-39.6-13.2c-5.4-3.3-10.1-8-14.7-12.5c-1.9-1.9-3-4.9-3.6-7.5c-2.3-9.2-0.6-11.3,8.7-11.3
			c10.5,0,21-0.2,31.5,0.1c2.4,0.1,5.4,1.2,6.9,2.9c6,6.6,13.3,10.2,21.8,12.3c32.3,7.9,65.1,10.5,98.2,10
			c54.5-0.9,107.7-10.3,160.1-24.5c4.6-1.2,9.6-0.9,14.4-1.3C857.4-51.6,857.6-50.7,857.8-49.8z"/>
		<path class="st4" d="M824.6,39.2c-16.9,8.7-34.4,15.9-52.5,21.5C720.9,76.6,668.6,82,615.2,78.5c-17-1.1-33.8-3.5-49.7-9.9
			c-6.1-2.5-11.9-5.9-17.3-9.8c-5.1-3.7-8.2-9.1-8-15.9c0.1-3.2,1.1-4.9,4.6-4.9c10.2,0,20.3-0.2,30.5-0.1c1.3,0,3,1.2,4,2.4
			c4.7,5.3,10.3,8.7,17.2,10.4c32.3,8,65.1,9.8,98.2,8.1c42.1-2.2,83.2-10.1,123.7-21.5c1.9-0.5,4.2,0.1,6.3,0.2
			C824.6,38,824.6,38.6,824.6,39.2z"/>
		<path class="st4" d="M822.1,111.7c-23.1,13.4-48,21.9-74.1,26.9c-21.6,4.2-43.5,6.3-65.4,5.8c-17.3-0.4-34.7-1.2-50.9-8
			c-5.8-2.4-10.8-6.8-15.7-10.9c-1.6-1.3-2-4.4-2.5-6.8c-0.5-2.5,0.5-4,3.6-3.9c6.7,0.2,13.3-0.1,20,0c1.1,0,2.6,0.3,3.1,1
			c7.1,9.2,17.9,9.7,28,11.3c44.6,7.2,88.3,1.5,131.6-9.3C807.2,115.9,814.6,113.7,822.1,111.7z"/>
		<path class="st4" d="M1049.1-239c6.4,0.1,10.4,3.1,12,7.8c1.7,5.2,0.1,10.3-4.8,13.5c-10.7,7-21.6,13.8-32.4,20.7
			c-8.7,5.5-17.4,11.1-26.1,16.6c-6.5,4.1-13.1,3-16.6-2.6c-3.8-5.9-2.1-12.6,4.4-16.7c19.2-12.3,38.5-24.5,57.8-36.6
			C1045.4-237.8,1048-238.5,1049.1-239z"/>
		<path class="st4" d="M588.5-189.6c-2.8,3.9-4.4,7.4-7.1,9.7c-3.5,2.9-7.8,2.5-11.7,0.1c-8.2-5.1-16.4-10.3-24.5-15.4
			c-11.8-7.5-23.7-14.9-35.4-22.5c-5-3.3-6.6-8.6-4.6-14c1.8-4.7,6.4-7.8,11.4-7.2c2.1,0.3,4.2,1.2,6,2.3
			c19.4,12.3,38.9,24.5,58.1,37.1C583.6-197.4,585.5-193.4,588.5-189.6z"/>
		<path class="st4" d="M631.1-343.1c3.5,0,7,2.2,9,6.5c10.2,21.7,20.4,43.4,30.4,65.1c2.9,6.3,0.3,12.9-5.6,15.5
			c-5.8,2.5-11.7,0.2-14.8-6.3C640-283.7,629.9-305,620-326.5C616.4-334.5,621.5-342.9,631.1-343.1z"/>
		<path class="st4" d="M902.7-255c-9.8-0.1-14.6-8.8-10.5-17.5c7.5-16.1,15-32.2,22.6-48.3c2.3-5,4.6-10,7-14.9
			c3.2-6.7,9.2-9.2,15.1-6.5c6,2.7,8.3,9.3,5.3,16.1c-6.1,13.3-12.3,26.5-18.5,39.7c-3.8,8.1-7.7,16.2-11.4,24.4
			C910-257.4,906.5-255.1,902.7-255z"/>
		<path class="st4" d="M795-330.6c0,11.5,0,23,0,34.5c0,7.6-4.5,12.7-11.1,12.7c-6.4,0.1-11-5.1-11.1-12.8c-0.1-23.3-0.1-46.7,0-70
			c0-7.7,4.5-12.7,11.1-12.7s11.1,5.1,11.1,12.7C795-354.3,795-342.4,795-330.6L795-330.6z"/>
	</g>
	<g class="st1">
		<path class="st3" d="M970.8-110.4c0.5,30.9-9.3,58.8-24.7,85c-10,17-20.9,33.5-31.4,50.1c-15.2,24-28.3,48.8-34.7,76.7
			c-1.5,6.5-6.5,10.3-13.9,11c-40.4,3.5-80.8,7-121.2,10.2c-16,1.3-26.6-6.6-29.3-22.8c-4.6-27.6-16.3-51.9-31.2-75.1
			c-12.5-19.3-26-38-37.4-57.9c-36.7-63.8-27.6-125.3,13.4-183.2c27.2-38.4,65.3-61.8,112.2-68.8c54.6-8.1,102.2,7.9,142.1,45.5
			C951.4-204.7,969.8-161.2,970.8-110.4z"/>
		<path class="st4" d="M756.8,250.2c-5.3,0.5-10.4,1.2-15.4,1.5c-9.2,0.6-14.6-4.5-15.5-14.2c-1-10.6,2.9-16.4,12.3-17.4
			c30.7-3.3,61.5-6.4,92.3-9.6c9.2-0.9,18.4-1.8,27.5-2.8s15,3.7,16.4,13.2c1.5,10.5-2.5,17-11.7,18.6c-3.2,0.5-6.5,0.7-9.7,1
			c-3,0.3-6.1,0.6-9.6,1c-0.2,1.7-0.4,3.2-0.4,4.7c-0.2,12.6-6.9,20.3-19.3,20.7c-15.5,0.5-31.1,0.4-46.7,0
			C766.8,266.6,760.8,261.4,756.8,250.2z"/>
		<path class="st4" d="M725.8,191.5c-0.1-8.3,4.5-13.4,13.6-14.4c18.9-2,37.8-3.8,56.6-5.8c20-2,40-3.7,59.9-6.3
			c16.2-2.1,20.5,10,18.4,21.7c-1.1,5.8-5.5,9.2-11.5,9.8c-16.5,1.8-33.1,3.5-49.6,5.2c-22.5,2.3-45,4.4-67.4,6.8
			C731.7,210.1,726,205.3,725.8,191.5z"/>
		<path class="st4" d="M725.8,149.5c-0.3-8.6,4.4-14.1,13-15c39.1-4,78.2-7.8,117.2-12.1c17-1.8,19.6,10.2,18.5,20.9
			c-0.7,5.9-5.6,10-12,10.7c-20,2.2-40,4.2-59.9,6.3c-19.3,2-38.5,3.9-57.8,5.7C731.5,167.3,726.2,162.6,725.8,149.5z"/>
	</g>
	<path class="st5" d="M1083.3-287.2c6.9,0.1,11.3,3.4,13,8.5c1.9,5.7,0.1,11.2-5.2,14.6c-11.7,7.6-23.5,15-35.3,22.5
		c-9.5,6-18.9,12.1-28.4,18c-7.1,4.5-14.2,3.3-18.1-2.8c-4.1-6.5-2.3-13.7,4.8-18.2c20.9-13.3,41.8-26.6,62.8-39.8
		C1079.3-285.9,1082-286.7,1083.3-287.2z"/>
	<path class="st5" d="M582.6-233.5c-3,4.2-4.8,8-7.8,10.5c-3.8,3.2-8.5,2.7-12.7,0.1c-8.9-5.6-17.8-11.2-26.7-16.8
		c-12.8-8.1-25.7-16.2-38.5-24.5c-5.5-3.5-7.2-9.4-5-15.2c1.9-5.1,7-8.5,12.3-7.8c2.2,0.3,4.5,1.3,6.5,2.5
		c21.1,13.3,42.3,26.6,63.1,40.4C577.3-242,579.3-237.6,582.6-233.5z"/>
	<path class="st5" d="M628.9-400.3c3.8,0,7.6,2.4,9.8,7.1c11.1,23.6,22.2,47.1,33,70.8c3.2,6.9,0.4,14-6,16.8
		c-6.3,2.8-12.7,0.2-16.1-6.8c-11-23.2-21.9-46.4-32.7-69.8C613-390.9,618.5-400.1,628.9-400.3z"/>
	<path class="st5" d="M924.1-304.6c-10.7-0.1-15.8-9.5-11.5-19c8.1-17.5,16.4-35,24.5-52.5c2.5-5.4,5-10.8,7.6-16.2
		c3.5-7.2,10-10,16.4-7.1c6.5,3,9.1,10.2,5.7,17.5c-6.6,14.4-13.4,28.8-20.2,43.2c-4.1,8.8-8.3,17.6-12.4,26.5
		C932-307.2,928.3-304.7,924.1-304.6z"/>
	<path class="st5" d="M807.1-386.8c0,12.5,0,25,0,37.5c0,8.3-4.9,13.8-12.1,13.9c-7,0.1-12-5.6-12-13.9c-0.1-25.4-0.1-50.7,0-76.1
		c0-8.4,4.9-13.8,12-13.8c7.2,0,12.1,5.5,12.1,13.8C807.1-412.5,807.1-399.6,807.1-386.8L807.1-386.8z"/>
</g>
<g id="Layer_2" class="st0">
	<g class="st1">
		<path d="M958.9-174.6c0.5,33.4-10.1,63.7-26.7,92c-10.8,18.4-22.6,36.2-34,54.2c-16.4,25.9-30.6,52.8-37.5,83.1
			c-1.6,7.1-7.1,11.2-15.1,11.9c-43.7,3.8-87.4,7.6-131.2,11.1c-17.3,1.4-28.8-7.1-31.7-24.7c-4.9-29.9-17.6-56.2-33.8-81.3
			c-13.5-20.9-28.1-41.1-40.5-62.7c-39.7-69.1-29.9-135.7,14.5-198.3c29.4-41.6,70.6-66.9,121.4-74.4c59.1-8.8,110.6,8.5,153.8,49.3
			C938-276.7,957.8-229.6,958.9-174.6z"/>
		<path d="M727.3,215.7c-5.8,0.6-11.2,1.3-16.7,1.6c-9.9,0.6-15.8-4.9-16.7-15.4c-1-11.4,3.2-17.8,13.3-18.9
			c33.3-3.6,66.6-6.9,99.9-10.4c9.9-1,19.9-2,29.8-3.1c9.9-1.1,16.2,4,17.7,14.3c1.6,11.4-2.7,18.4-12.7,20.1
			c-3.5,0.6-7,0.7-10.5,1.1c-3.3,0.3-6.6,0.7-10.4,1.1c-0.2,1.8-0.4,3.5-0.5,5.1c-0.2,13.7-7.4,22-20.9,22.4
			c-16.8,0.5-33.7,0.4-50.5,0C738.1,233.4,731.7,227.8,727.3,215.7z"/>
		<path d="M693.7,152.2c-0.1-9,4.8-14.5,14.7-15.6c20.4-2.2,40.9-4.2,61.3-6.2c21.6-2.2,43.3-4,64.8-6.8
			c17.6-2.3,22.2,10.8,19.9,23.5c-1.2,6.3-5.9,10-12.5,10.7c-17.9,1.9-35.8,3.8-53.7,5.6c-24.3,2.5-48.7,4.8-73,7.4
			C700.2,172.3,694,167.1,693.7,152.2z"/>
		<path d="M693.7,106.7c-0.4-11.5,7.4-17.9,21.5-16c36.3,4.8,73.1,0.9,107.9-10.6c28.7-9.5,33.1,6.3,31.6,19.9
			c-0.7,6.4-6,10.8-13,11.6c-21.6,2.3-43.3,4.6-64.9,6.8c-20.9,2.1-41.7,4.2-62.6,6.2C699.9,126,694.2,120.9,693.7,106.7z"/>
	</g>
</g>
<g id="Layer_4" class="st0">
	<g class="st1">
		<path class="st4" d="M780.6,30c-69,0-137.2-5.9-204-24.6c-18.8-5.3-23.9-15.1-25.8-34.2c-3.5-35,11.5-55.5,41.3-69
			c23.9-10.9,48.3-21,71.2-33.7c17.5-9.7,33.8-22.2,49.2-35.2c4.5-3.8,7.6-14.7,5.5-20c-5.9-14.7-13.7-29-22.8-42
			c-14.4-20.6-22.5-41-15.3-67c4-14.5,1.1-30.8,2.7-46.2c6.8-62.6,78.6-103,136-76.9c5.4,2.5,11,4.7,16.8,6.1
			c24.5,6.2,35.5,18,38.6,42.7c3.7,29.5,7.7,59.1,10.6,88.7c2,20.9-7.8,37.7-19.7,54.2c-8.9,12.4-15.9,26.4-21.5,40.6
			c-2,5,0.7,15.2,4.8,18.7c15.4,13,31.4,25.8,48.9,35.6C925.7-116.3,956.4-104,985-88c23.5,13.2,35.1,55,22.5,78.6
			C1004-2.8,994.1,2,986.1,4.4c-58.8,18-119.3,23.8-180.5,25.5C797.4,30.2,789,30,780.6,30z"/>
		<path class="st3" d="M1028.8-44.9c2.1-37.1-17.1-55.8-42.4-69.6c-24.1-13.1-48.9-24.9-74.9-38c6-4.6,11.5-8.6,16.8-12.8
			c21.3-17.1,25.7-24.9,8.1-43.8c-27-28.9-17.2-60.8-13.7-91.3c4.1-35.7,49.2-58.8,83.2-46.6c7.3,2.6,14.8,4.7,21.9,7.7
			c4.2,1.8,8.7,4.3,11.7,7.7c13.8,15.5,15.5,94.1,3.8,111.3c-27.7,40.9-22.7,39.8,14.5,63.7c17.9,11.5,38.9,18.2,57.8,28.3
			c21.7,11.6,28.8,29.7,21.7,52.6c-1.2,3.9-5.5,8.7-9.1,9.6C1096-58.8,1063.5-52.2,1028.8-44.9z"/>
		<path class="st3" d="M650.2-153.7c-32.5,16.4-63.2,30.9-93,47.2c-21.5,11.7-36,29.5-35.1,60.3c-30.6-6.7-59.8-11.9-88.2-19.9
			c-15.6-4.4-16-42.8,0.2-53.7c17.2-11.6,36.7-19.7,55.1-29.5c9.5-5,19.5-9.4,28.1-15.6c22.3-16.3,24.7-27,6.6-48.4
			c-27.3-32.2-17.5-67.4-6.5-99.6c11.4-33.5,50.2-42.6,84.4-32.3c26.6,8,36.8,22.7,37.5,48.5c0.4,14.8,4.3,29.5,4.7,44.3
			c0.2,7.9-3.2,16.1-5.9,23.9c-1.3,3.8-4.5,7-7,10.4c-21.5,28.4-20.4,36.7,7.7,57.2C642.1-158.6,645.7-156.6,650.2-153.7z"/>
		<path class="st4" d="M780.2,174.8c9.5,26.9,26,40.1,55.1,38.6c-20.6,17.8-31.6,36.9-19.6,64.8c-23.7-15.9-45.9-17.6-69.2,0.6
			c8.5-26.7,4.7-47.7-20.6-63.5C752.2,212.3,773.8,205.1,780.2,174.8z"/>
		<path class="st4" d="M1041.4,139.6c7.1-27.2,0.9-47.6-23.9-63.1c28.9,0.1,47.6-11.7,55.7-40.3c9.5,26.7,25.4,41.6,55.5,38.8
			c-19.7,17.4-34.4,35.7-20.9,65.2C1084,124.9,1063.9,122.7,1041.4,139.6z"/>
		<path class="st4" d="M521,161.5c-22.6-16.9-43.3-15.5-63.8,0.4c-5-40.2-5-40.2-24-66c27.7,1.7,46.6-9,54.5-38.1
			c9.9,25.9,25.2,41.8,55.5,38.7C522.3,113.6,512.2,133.5,521,161.5z"/>
		<path class="st4" d="M680.6,162.8c-26.5,16.6-33.2,36.7-22.8,64c-23.5-15.5-45.6-19.1-68.9,0.9c7.7-26.9,4.5-48.7-21.1-64.9
			c27.3-1.1,46.5-11.3,53.6-40.9c8.7,13.7,13,26.2,21.7,32.5C651.4,160.3,664.4,159.6,680.6,162.8z"/>
		<path class="st4" d="M938.8,124.4c9.6,26.1,26.2,38.3,58.7,35.2c-23.9,20-37.5,39.1-23.1,67.9c-24.5-16.8-46.7-19.5-70.2,0.7
			c10.1-28.4,2.7-48.9-20.1-66.1C911.8,162.6,929.7,151.2,938.8,124.4z"/>
	</g>
</g>
<g id="Layer_5" class="st0">
	<g class="st1">
		<path class="st3" d="M638.9-235.7c30.8,30.5,64.6,64.1,99.4,98.6c-6.7,7.3-12.3,13.3-18.7,20.2c-31.8-31.9-62.8-62.6-93.3-93.8
			c-6.7-6.9-11.6-8.8-21.3-4.3c-31.3,14.5-67.7,6-89-19.2c-21.5-25.4-24.4-61.2-7.1-89.8c17.3-28.7,51.2-42.2,84.6-33.9
			c31.3,7.8,55.7,36.2,56,70.1C649.6-271.7,643.2-255.5,638.9-235.7z"/>
		<path class="st3" d="M825.2-11.3c7.2-6.7,12.9-12,19.1-17.8c33.4,33.5,66.3,66.5,99.6,99.8c19.9-11.3,38.9-17.3,60.2-13.2
			c44.2,8.6,71.3,51.4,59.7,95.1c-11,41.3-55.6,65.3-97,52.2c-42.1-13.4-64.4-59.4-47-100.1c5.4-12.6,3.1-19.1-5.9-27.8
			C884.4,48.4,855.7,19.1,825.2-11.3z"/>
		<path class="st3" d="M620.4,70.8c33.7-34.3,67.2-68.3,100.5-102.3c6.5,6.8,12.2,12.8,18.5,19.4c-30.9,30.8-62,62.1-93.5,93
			c-6,5.9-7.8,10.3-3.9,18.7c16.4,35.7,5.3,75.3-25.9,96c-31,20.6-72.4,15.9-98-11c-25-26.4-27.7-67.6-6.3-97.2
			c22.1-30.6,61.7-39.8,97.1-22.6C611.9,66.3,614.7,67.8,620.4,70.8z"/>
		<path class="st4" d="M796.6-294.3c0,47,0,93.7,0,142.3c-8.3,0.5-15.8,0.9-24.9,1.4c-0.4-7.2-1-12.8-1.1-18.3
			c-0.1-35.8-0.5-71.5,0.2-107.3c0.2-12.4-2.2-19.1-15.8-23.5c-33.1-10.7-53.5-46-48.8-79.4c5.3-37.3,33.6-64.4,70.4-67.5
			c34.1-2.8,66.7,19.2,77.7,52.4c12.7,38.5-6.3,79.5-43.8,94.7C806.1-297.8,801.7-296.2,796.6-294.3z"/>
		<path class="st3" d="M564.6-86.9c47.4,0,95.1,0,143.7,0c0,8.5,0,15.7,0,25c-5.3,0-10.9,0-16.5,0c-38.9,0-77.8,0.3-116.6-0.2
			c-8.7-0.1-12.7,2.5-15.9,10.9c-13.2,35.6-46.4,55.9-81.2,50.8c-36.6-5.3-63.8-33.7-67.5-70.7c-3.3-32.3,22-68.4,54.7-78.1
			c35.9-10.6,74.3,5.8,90.4,39C559-103,561.3-95.5,564.6-86.9z"/>
		<path class="st3" d="M796.6,1c0,42.7,0.4,84.8-0.2,126.9c-0.2,11,2.8,16.2,13.9,20.2c34.7,12.5,53.3,49,46.2,86.8
			c-6.4,34.2-39.4,60.6-75.1,60.2c-37.2-0.5-67.8-27-74.7-64.6c-6.3-34.4,14.3-71.6,48.5-82.7c13.7-4.5,15.9-11.3,15.7-23.6
			c-0.6-35.3-0.2-70.5-0.2-105.8C770.6-3.3,772-4.3,796.6,1z"/>
		<path class="st3" d="M860.3-61.9c0-9.3,0-16.3,0-25.2c9.9,0,18.7,0,27.5,0c25.8,0,51.6-0.8,77.3,0.2c21.1,0.8,36.2,0.4,46-25.6
			c12.6-33.6,53.3-47,87.9-36.4c32.8,10,55.7,42.8,53.7,76.9c-2.3,37.2-28.7,65.9-66,71.6c-33.9,5.2-68.6-14.3-80.6-47.1
			c-4.2-11.5-9.6-14.8-21.4-14.6C943.8-61.4,902.8-61.9,860.3-61.9z"/>
		<path class="st3" d="M852.8-125.5c-6-7.1-10.5-12.5-16.3-19.3c7.5-6.4,14.3-12,21-17.7c19.7-16.6,38.9-33.8,59.3-49.6
			c16.7-13,28-23,18.7-49.2c-12-33.8,10.5-70.3,43.8-84.5c31.6-13.5,70.2-3.2,90.6,24.3c22.2,29.9,20.5,68.9-4.3,97.3
			c-22.6,25.8-61.6,33.3-92,15.9c-10.7-6.1-16.9-5.2-25.8,2.6C916.9-178.9,885.3-152.9,852.8-125.5z"/>
	</g>
</g>
<g id="Layer_3">
</g>
<g>
	<path class="st3" d="M122.9,559.8c39.6-37.8,80.7-74.2,118.3-113.8c24.3-25.6,50.6-35.5,85.5-34.8c95.9,1.8,191.8,0.7,287.6,0.7
		c10.3,0,20.5,0,30.7,0c1,48.5-12.6,62.9-57.7,63.1c-47.4,0.2-94.7,0-141.9,0c-4.3,46.6,19.9,68.1,63,74
		c81.9,11.2,144.1-14.6,193.1-80.9c20.1-27.2,47.4-49.1,71.5-73.3c33.5-33.6,52.8-34.8,91-5.9c0,1.9,0,3.8,0,5.7
		C808.5,461.9,751.8,528.3,698,597c-21.4,27.2-44.2,39.6-79.4,38.4c-73.1-2.5-146.3-1.6-219.4,0c-14.3,0.3-30.8,7.4-42,16.7
		c-26,21.7-49.4,46.5-79.7,75.7c-52.7-55.2-103.8-108.7-154.8-162.1C122.9,563.6,122.9,561.7,122.9,559.8z"/>
	<path class="st4" d="M508,323.2c22.2-56.6,71.9-87.1,130.4-81.9c8.4,0.7,17.1-2.6,25.1-7.5c-82.7-42.3-171.8,25.7-186.4,138.8
		c-8.8,0-17.7,0-26.4,0c-14.4-93.9,50.9-184.1,146.5-204.3c94.2-20,194.7,40.5,216.8,131.3c1.6,6.6-2.6,18.1-8,22.3
		C725.4,384.9,594.1,385.5,508,323.2z"/>
	<path class="st4" d="M461.6,227c-18.7-20.6-33.9-37.5-49-54.2c-17.7,14.5-18.1,14.9,1.1,33.2c10.1,9.7,21.7,17.9,35.7,29.3
		c-43.2,11.5-83.9-2-113.2-34.2c-28.5-31.3-41.3-68.2-32-110c1.4-6.4,14.7-13.4,23.2-14.4C405.5,68.3,474,141.8,461.6,227z"/>
</g>
</svg>
