<?xml version="1.0" encoding="utf-8"?>
<!-- Generator: Adobe Illustrator 19.0.1, SVG Export Plug-In . SVG Version: 6.00 Build 0)  -->
<svg version="1.1" id="Layer_1" xmlns="http://www.w3.org/2000/svg" xmlns:xlink="http://www.w3.org/1999/xlink" x="0px" y="0px"
	 viewBox="-559 101 800 800" style="enable-background:new -559 101 800 800;" xml:space="preserve">
<style type="text/css">
	.st0{fill:#383838;}
	.st1{fill:#F26222;}
</style>
<g>
	<path class="st0" d="M1242.5,766.3c15.7,0,29.9,1.4,43.6-0.3c32.2-3.9,56.1-19.8,64.4-52.8c3.1-12.5,4.1-25.8,4.3-38.7
		c0.6-48.5,0-97,0.6-145.4c0.3-22.3,11-32,33.2-32.6c4.8-0.1,9.7,0,14.4,0c0-21.3,0-40.9,0-61c-4.5,0-8.1,0-11.8,0
		c-24.6-0.2-34.9-9.8-35.9-34.3c-0.5-13.7-0.2-27.4-0.3-41.1c-0.5-41.1,0.3-82.3-1.9-123.3c-1.5-27.8-15.5-49.3-42.5-60.6
		c-21.6-9.1-44.2-8-67.4-7.3c0,20.3,0,39.7,0,59.7c3.1,0,5.4,0,7.7,0c22-0.5,34.7,10.1,37.4,31.8c0.9,7.6,0.8,15.3,0.8,23
		c0.1,44.5-0.3,88.9,0.3,133.4c0.3,23.9,11.4,38,33.3,46c1.8,0.7,3.5,1.8,6.1,3.2c-30.7,11-39.6,23.5-39.7,55
		c-0.1,48.8,0,97.6-0.1,146.5c0,5.7-0.5,11.3-1.3,17c-1.3,9.6-6.7,16.1-16.1,18.4c-7.4,1.8-15.2,2.1-22.7,3.8
		c-2.5,0.6-6.3,3.4-6.3,5.3C1242.3,729.8,1242.5,747.8,1242.5,766.3z M1023.2,418.9c33.7-0.3,65.5-2.4,95.9-12.4
		c16.9-5.5,33.8-13.1,48.4-23.1c19.1-13.1,18.9-32.9,0-46.5c-12.7-9.2-27.6-16.7-42.6-21.3c-60.1-18.1-121.1-18.4-182.3-5.1
		c-22.3,4.9-44,11.8-61.8,26.9c-16.2,13.7-17.2,31.3-0.6,44.4c11.3,8.9,24.8,16,38.3,21C952.7,415.6,988.7,418.5,1023.2,418.9z
		 M868.4,499c0,22.9,0.5,42.8-0.2,62.7c-0.5,15.3,4.5,28.6,16.6,36.7c14.2,9.5,29.6,18.8,45.9,23.4c54.9,15.4,111,14.1,166.9,5.3
		c23.6-3.7,46.8-10.2,64.9-26.6c7.9-7.2,16.5-17.9,17.6-27.8c2.5-23.6,0.8-47.8,0.8-69.1c-9.9,7.9-19.9,17.7-31.5,24.7
		c-9.5,5.8-20.7,9.5-31.7,12c-60.5,13.7-121.3,13.8-181.9,0.9C909.7,535.6,885.3,525.9,868.4,499z M1181,395.2
		c-10,15.8-24.4,25.1-40.7,31.7c-8.6,3.5-17.6,6.5-26.7,8.5c-54.9,11.8-110.2,12-165.4,2.5c-30.5-5.3-59.9-14-79.7-44.7
		c0,23.1,0.4,43.3-0.1,63.6c-0.4,14.1,5.1,25.3,14.9,34.7c13.2,12.6,29.3,20,46.6,24.5c55.9,14.6,112.5,14.2,169.1,4.9
		c22.6-3.7,44.3-10.6,62.7-25c10.3-8,18.9-17.7,19.3-31.4C1181.5,441.3,1181,418.3,1181,395.2z"/>
	<path class="st1" d="M645,435.7c6.7-0.1,13.4,0,20-0.4c16.9-1.1,25.6-8.9,28.4-25.6c1.1-6.9,1.7-13.9,1.7-20.9
		c0.2-46.1-0.3-92.3,0.3-138.4c0.6-51.7,29.6-80.4,81.2-81.6c9.7-0.2,19.3,0,29.9,0c0,19.9,0,39.4,0,59.3c-5.4,0.7-10.7,1-15.8,2
		c-19.9,3.8-29.5,15.1-29.6,35.4c-0.2,46.8-0.1,93.6-0.1,140.4c0,34.2-7.7,46-39.3,59.3c1.1,1,1.9,2,2.8,2.4
		c26.3,9.5,36.4,23.6,36.4,52c0.1,49.2,0,98.3,0,147.5c0,30.2,4.6,35.4,34.3,38.8c3.6,0.4,7.2,0.8,11.5,1.3c0,19.8,0,39.4,0,59.8
		c-25.9,1.1-51.3,2.1-74.6-10.5c-26.4-14.3-36-38.9-36.5-67c-0.9-48.5-0.3-97-0.4-145.4c0-3,0-6-0.1-9
		c-0.6-28.7-10.5-38.3-39.1-38.5c-3.7,0-7.3-0.3-11-0.5C645,475.9,645,455.8,645,435.7z"/>
	<path class="st1" d="M1242.5,766.3c0-18.5-0.2-36.5,0.3-54.4c0.1-1.9,3.8-4.7,6.3-5.3c7.5-1.7,15.2-2,22.7-3.8
		c9.4-2.3,14.8-8.8,16.1-18.4c0.7-5.6,1.3-11.3,1.3-17c0.1-48.8,0-97.6,0.1-146.5c0.1-31.5,9-43.9,39.7-55c-2.6-1.4-4.2-2.5-6.1-3.2
		c-22-8-33-22.1-33.3-46c-0.6-44.5-0.2-88.9-0.3-133.4c0-7.7,0.1-15.4-0.8-23c-2.7-21.7-15.4-32.2-37.4-31.8c-2.3,0.1-4.6,0-7.7,0
		c0-20,0-39.4,0-59.7c23.2-0.7,45.8-1.8,67.4,7.3c26.9,11.3,41,32.8,42.5,60.6c2.2,41,1.4,82.2,1.9,123.3
		c0.2,13.7-0.2,27.4,0.3,41.1c1,24.4,11.3,34,35.9,34.3c3.7,0,7.3,0,11.8,0c0,20.1,0,39.6,0,61c-4.7,0-9.5-0.1-14.4,0
		c-22.2,0.6-32.9,10.3-33.2,32.6c-0.6,48.5-0.1,97-0.6,145.4c-0.2,12.9-1.1,26.2-4.3,38.7c-8.3,33-32.2,48.9-64.4,52.8
		C1272.3,767.7,1258.2,766.3,1242.5,766.3z"/>
	<path class="st0" d="M1023.2,418.9c-34.5-0.4-70.5-3.4-104.7-16.1c-13.6-5-27-12.1-38.3-21c-16.5-13.1-15.6-30.7,0.6-44.4
		c17.9-15.1,39.5-22,61.8-26.9c61.1-13.3,122.2-13,182.3,5.1c15,4.5,29.9,12.1,42.6,21.3c18.9,13.6,19,33.4,0,46.5
		c-14.6,10-31.5,17.6-48.4,23.1C1088.7,416.6,1056.9,418.6,1023.2,418.9z"/>
	<path class="st0" d="M868.4,499c16.9,26.8,41.3,36.6,67.4,42.1c60.6,12.9,121.4,12.8,181.9-0.9c11-2.5,22.2-6.3,31.7-12
		c11.6-7,21.6-16.7,31.5-24.7c0,21.4,1.7,45.5-0.8,69.1c-1.1,9.9-9.6,20.5-17.6,27.8c-18.1,16.4-41.3,22.9-64.9,26.6
		c-55.9,8.9-111.9,10.1-166.9-5.3c-16.2-4.6-31.6-13.9-45.9-23.4c-12.2-8.1-17.1-21.4-16.6-36.7C868.9,541.9,868.4,522,868.4,499z"
		/>
	<path class="st0" d="M1181,395.2c0,23.1,0.4,46.1-0.2,69.2c-0.4,13.7-9,23.4-19.3,31.4c-18.4,14.4-40.1,21.3-62.7,25
		c-56.6,9.3-113.2,9.8-169.1-4.9c-17.3-4.5-33.4-11.9-46.6-24.5c-9.9-9.5-15.3-20.6-14.9-34.7c0.5-20.2,0.1-40.5,0.1-63.6
		c19.8,30.7,49.2,39.4,79.7,44.7c55.2,9.5,110.5,9.4,165.4-2.5c9.1-2,18.1-5,26.7-8.5C1156.6,420.3,1171,411,1181,395.2z"/>
</g>
<g>
	<path class="st0" d="M-326.3,573.3c0-9.8,0-18.3,0-27.8c-8-1.1-15.2-2.1-23.9-3.3c0-34.5,0-69.2,0-105.4c129.2,0,258.9,0,389.8,0
		c0,34.5,0,69.2,0,105.3c-8.5,0.9-16.9,1.9-27,3c0,9,0,17.9,0,28.1c8.4,0.6,16.9,1.2,26.8,1.9c0,35.9,0,71.8,0,109
		c-8.5,0.6-17,1.2-27,2c0,9,0,17.9,0,28.3c8.7,0.9,17.2,1.7,27.1,2.7c0,36.1,0,72,0,109.3c-129.5,0-259.1,0-389.9,0
		c0-36.2,0-72.1,0-109c7.7-1,14.9-1.9,23.6-3c0-9.3,0-18.2,0-28.3c-7.5-0.5-14.8-1-23.4-1.6c0-36.2,0-72,0-109.2
		C-343,574.6-335.7,574-326.3,573.3z M-17.7,573.6c5.7-28.5,4.5-30-21.4-30c-78.8,0-157.6,0-236.4,0c-26.3,0-29.2,4.2-20.3,30
		C-203.5,573.6-111.1,573.6-17.7,573.6z M-297,685.8c-5.6,28.6-4.5,30,21.6,30c78.8,0,157.6,0,236.4,0c26.2,0,29.2-4.4,20.2-30
		C-111.1,685.8-203.6,685.8-297,685.8z M-326.2,516.7c29.9,0,57.6,0,85.5,0c0-15.7,0-30.1,0-44.3c-29.3,0-57,0-85.5,0
		C-326.2,487.6-326.2,501.6-326.2,516.7z M-240.2,659.6c0-15.9,0-29.9,0-44.3c-29.3,0-57.4,0-85.7,0c0,15.4,0,29.4,0,44.3
		C-297.1,659.6-269.4,659.6-240.2,659.6z M-325.7,753.8c0,16.3,0,30.3,0,44.1c29.5,0,57.7,0,85.3,0c0-15.7,0-29.7,0-44.1
		C-269.5,753.8-297.2,753.8-325.7,753.8z"/>
	<path class="st1" d="M-307,380.6c-10.6-1.7-19.8-3-28.8-4.7c-42.3-8-73.5,11.1-82.5,52.7c-3.2,14.7-7.4,21.4-24,19.9
		c-19.6-1.8-31.7,9.9-31.8,26.1c0,15.3,11.3,26.3,29.9,27.1c19.3,0.8,38.6,0.2,59.4,0.2c0,18.7,0,35.8,0,54.3
		c-27,0-54.7,3.4-81.2-0.8c-36.7-5.8-61.1-37.3-64.9-75.4c-3.4-33.6,17.5-66.6,50.9-82.4c6.7-3.2,13.8-8.8,17.4-15.1
		c18.2-32.4,44.9-52.7,80.6-62.7c5.9-1.6,13.5-9,14.4-14.7c13.1-80.1,67.7-139.7,143.2-154.7c76.8-15.3,150.2,18.7,192.6,89
		c1.6,2.6,3.3,5.2,6,9.5C34,221.2,92.7,222,148,260.2c33.7,23.2,58.5,55,64.5,95.5C229.7,472.8,166,540.1,77.7,555.2
		c0-18.5,0-36.8,0-55.7c41.4-12.7,70.7-38.7,80.6-82.5c10.4-46.1-10.3-92-50.5-115.5c-40.6-23.8-89.9-19.3-125.7,11.9
		C-30.9,324.7-43.3,337-58,350.7c-4.3-19.4-7.6-36.3-11.7-52.9c-14.6-58.1-64.5-95.7-124.1-93.9c-57.5,1.8-106.5,43.3-115.8,101.3
		c-3.1,19.3,1,39.7,1.8,59.5C-307.6,369.7-307.3,374.5-307,380.6z"/>
</g>
</svg>
