<?xml version="1.0" encoding="utf-8"?>
<!-- Generator: Adobe Illustrator 19.0.1, SVG Export Plug-In . SVG Version: 6.00 Build 0)  -->
<svg version="1.1" id="Layer_1" xmlns="http://www.w3.org/2000/svg" xmlns:xlink="http://www.w3.org/1999/xlink" x="0px" y="0px"
	 viewBox="-559 101 800 800" style="enable-background:new -559 101 800 800;" xml:space="preserve">
<style type="text/css">
	.st0{fill:#383838;}
	.st1{fill:#F26222;}
</style>
<g>
	<path class="st0" d="M60.4,799.3c15.7,0,29.9,1.4,43.6-0.3c32.2-3.9,56.1-19.8,64.4-52.8c3.1-12.5,4.1-25.8,4.3-38.7
		c0.6-48.5,0-97,0.6-145.4c0.3-22.3,11-32,33.2-32.6c4.8-0.1,9.7,0,14.4,0c0-21.3,0-40.9,0-61c-4.5,0-8.1,0-11.8,0
		c-24.6-0.2-34.9-9.8-35.9-34.3c-0.5-13.7-0.2-27.4-0.3-41.1c-0.5-41.1,0.3-82.3-1.9-123.3c-1.5-27.8-15.5-49.3-42.5-60.6
		c-21.6-9.1-44.2-8-67.4-7.3c0,20.3,0,39.7,0,59.7c3.1,0,5.4,0,7.7,0c22-0.5,34.7,10.1,37.4,31.8c0.9,7.6,0.8,15.3,0.8,23
		c0.1,44.5-0.3,88.9,0.3,133.4c0.3,23.9,11.4,38,33.3,46c1.8,0.7,3.5,1.8,6.1,3.2c-30.7,11-39.6,23.5-39.7,55
		c-0.1,48.8,0,97.6-0.1,146.5c0,5.7-0.5,11.3-1.3,17c-1.3,9.6-6.7,16.1-16.1,18.4c-7.4,1.8-15.2,2.1-22.7,3.8
		c-2.5,0.6-6.3,3.4-6.3,5.3C60.2,762.8,60.4,780.8,60.4,799.3z M-158.9,451.9c33.7-0.3,65.5-2.4,95.9-12.4
		c16.9-5.5,33.8-13.1,48.4-23.1c19.1-13.1,18.9-32.9,0-46.5c-12.7-9.2-27.6-16.7-42.6-21.3c-60.1-18.1-121.1-18.4-182.3-5.1
		c-22.3,4.9-44,11.8-61.8,26.9c-16.2,13.7-17.2,31.3-0.6,44.4c11.3,8.9,24.8,16,38.3,21C-229.4,448.6-193.4,451.5-158.9,451.9z
		 M-313.7,532c0,22.9,0.5,42.8-0.2,62.7c-0.5,15.3,4.5,28.6,16.6,36.7c14.2,9.5,29.6,18.8,45.9,23.4c54.9,15.4,111,14.1,166.9,5.3
		c23.6-3.7,46.8-10.2,64.9-26.6c7.9-7.2,16.5-17.9,17.6-27.8c2.5-23.6,0.8-47.8,0.8-69.1c-9.9,7.9-19.9,17.7-31.5,24.7
		c-9.5,5.8-20.7,9.5-31.7,12c-60.5,13.7-121.3,13.8-181.9,0.9C-272.4,568.6-296.8,558.9-313.7,532z M-1.1,428.2
		c-10,15.8-24.4,25.1-40.7,31.7c-8.6,3.5-17.6,6.5-26.7,8.5c-54.9,11.8-110.2,12-165.4,2.5c-30.5-5.3-59.9-14-79.7-44.7
		c0,23.1,0.4,43.3-0.1,63.6c-0.4,14.1,5.1,25.3,14.9,34.7c13.2,12.6,29.3,20,46.6,24.5c55.9,14.6,112.5,14.2,169.1,4.9
		c22.6-3.7,44.3-10.6,62.7-25c10.3-8,18.9-17.7,19.3-31.4C-0.7,474.3-1.1,451.3-1.1,428.2z"/>
	<path class="st1" d="M-537.1,468.7c6.7-0.1,13.4,0,20-0.4c16.9-1.1,25.6-8.9,28.4-25.6c1.1-6.9,1.7-13.9,1.7-20.9
		c0.2-46.1-0.3-92.3,0.3-138.4c0.6-51.7,29.6-80.4,81.2-81.6c9.7-0.2,19.3,0,29.9,0c0,19.9,0,39.4,0,59.3c-5.4,0.7-10.7,1-15.8,2
		c-19.9,3.8-29.5,15.1-29.6,35.4c-0.2,46.8-0.1,93.6-0.1,140.4c0,34.2-7.7,46-39.3,59.3c1.1,1,1.9,2,2.8,2.4
		c26.3,9.5,36.4,23.6,36.4,52c0.1,49.2,0,98.3,0,147.5c0,30.2,4.6,35.4,34.3,38.8c3.6,0.4,7.2,0.8,11.5,1.3c0,19.8,0,39.4,0,59.8
		c-25.9,1.1-51.3,2.1-74.6-10.5c-26.4-14.3-36-38.9-36.5-67c-0.9-48.5-0.3-97-0.4-145.4c0-3,0-6-0.1-9
		c-0.6-28.7-10.5-38.3-39.1-38.5c-3.7,0-7.3-0.3-11-0.5C-537.1,508.9-537.1,488.8-537.1,468.7z"/>
	<path class="st1" d="M60.4,799.3c0-18.5-0.2-36.5,0.3-54.4c0.1-1.9,3.8-4.7,6.3-5.3c7.5-1.7,15.2-2,22.7-3.8
		c9.4-2.3,14.8-8.8,16.1-18.4c0.7-5.6,1.3-11.3,1.3-17c0.1-48.8,0-97.6,0.1-146.5c0.1-31.5,9-43.9,39.7-55c-2.6-1.4-4.2-2.5-6.1-3.2
		c-22-8-33-22.1-33.3-46c-0.6-44.5-0.2-88.9-0.3-133.4c0-7.7,0.1-15.4-0.8-23c-2.7-21.7-15.4-32.2-37.4-31.8c-2.3,0.1-4.6,0-7.7,0
		c0-20,0-39.4,0-59.7c23.2-0.7,45.8-1.8,67.4,7.3c26.9,11.3,41,32.8,42.5,60.6c2.2,41,1.4,82.2,1.9,123.3
		c0.2,13.7-0.2,27.4,0.3,41.1c1,24.4,11.3,34,35.9,34.3c3.7,0,7.3,0,11.8,0c0,20.1,0,39.6,0,61c-4.7,0-9.5-0.1-14.4,0
		c-22.2,0.6-32.9,10.3-33.2,32.6c-0.6,48.5-0.1,97-0.6,145.4c-0.2,12.9-1.1,26.2-4.3,38.7c-8.3,33-32.2,48.9-64.4,52.8
		C90.2,800.7,76.1,799.3,60.4,799.3z"/>
	<path class="st0" d="M-158.9,451.9c-34.5-0.4-70.5-3.4-104.7-16.1c-13.6-5-27-12.1-38.3-21c-16.5-13.1-15.6-30.7,0.6-44.4
		c17.9-15.1,39.5-22,61.8-26.9c61.1-13.3,122.2-13,182.3,5.1c15,4.5,29.9,12.1,42.6,21.3c18.9,13.6,19,33.4,0,46.5
		c-14.6,10-31.5,17.6-48.4,23.1C-93.4,449.6-125.2,451.6-158.9,451.9z"/>
	<path class="st0" d="M-313.7,532c16.9,26.8,41.3,36.6,67.4,42.1c60.6,12.9,121.4,12.8,181.9-0.9c11-2.5,22.2-6.3,31.7-12
		c11.6-7,21.6-16.7,31.5-24.7c0,21.4,1.7,45.5-0.8,69.1c-1.1,9.9-9.6,20.5-17.6,27.8c-18.1,16.4-41.3,22.9-64.9,26.6
		c-55.9,8.9-111.9,10.1-166.9-5.3c-16.2-4.6-31.6-13.9-45.9-23.4c-12.2-8.1-17.1-21.4-16.6-36.7C-313.2,574.9-313.7,555-313.7,532z"
		/>
	<path class="st0" d="M-1.1,428.2c0,23.1,0.4,46.1-0.2,69.2c-0.4,13.7-9,23.4-19.3,31.4c-18.4,14.4-40.1,21.3-62.7,25
		c-56.6,9.3-113.2,9.8-169.1-4.9c-17.3-4.5-33.4-11.9-46.6-24.5c-9.9-9.5-15.3-20.6-14.9-34.7c0.5-20.2,0.1-40.5,0.1-63.6
		c19.8,30.7,49.2,39.4,79.7,44.7c55.2,9.5,110.5,9.4,165.4-2.5c9.1-2,18.1-5,26.7-8.5C-25.5,453.3-11.1,444-1.1,428.2z"/>
</g>
</svg>
