<?xml version="1.0" encoding="utf-8"?>
<!-- Generator: Adobe Illustrator 19.0.1, SVG Export Plug-In . SVG Version: 6.00 Build 0)  -->
<svg version="1.1" id="Layer_1" xmlns="http://www.w3.org/2000/svg" xmlns:xlink="http://www.w3.org/1999/xlink" x="0px" y="0px"
	 viewBox="94 -4 800 800" style="enable-background:new 94 -4 800 800;" xml:space="preserve">
<style type="text/css">
	.st0{fill:#383838;}
	.st1{fill:#F26222;}
	.st2{fill:#F4F4F4;}
</style>
<g>
	<path class="st0" d="M883.9,588.3c-2.2,1.8-4.7,3.3-6.4,5.5c-33.6,43.1-77.2,70.6-130.7,80.6c-81,15-161.9-15.7-211.8-84.2
		c-2.9-4-2-13.2,0.5-18.4c48.4-101.1,97.3-202,146-302.9c3.2-6.7,6.4-13.4,10.3-21.8c-127.2,0-252.9,0-380.7,0
		c2.4,5.4,4.4,10.2,6.6,14.8c49.6,102.7,99.1,205.5,149.2,308c5.3,10.8,3.8,17.5-3.2,26.4c-85.2,108.2-249.5,108.9-335.7,1.2
		c-3.4-4.2-7.1-8.2-10.6-12.2c0-2,0-4,0-6c2.9-4.5,6.2-8.7,8.5-13.4c54.2-112,108.5-224.1,162.3-336.3c4.8-9.9,10.1-13.6,21.3-13.5
		c49.3,0.7,98.7,0.3,148.1,0.3c5.4,0,10.9,0,18.2,0c0-43.5,0-86,0-129.4c17.6,0,33.2,0,50.5,0c0,42.9,0,85.1,0,129.4
		c6.9,0,12.1,0,17.4,0c48.4,0,96.7,0.7,145.1-0.4c15-0.4,21.5,5.1,27.7,18c53.2,111.4,107.2,222.5,161,333.6c1.9,4,4.3,7.8,6.5,11.7
		C883.9,582.3,883.9,585.3,883.9,588.3z M563.4,581.4c96.7,0,191.5,0,287.7,0C803,482,755.7,384.2,707.2,283.8
		C658.5,384.7,611.3,482.3,563.4,581.4z M295.3,283.8c-48.7,100.9-96,198.8-143.8,297.6c96.6,0,191.2,0,287.6,0
		C391.1,482,344,384.4,295.3,283.8z"/>
	<path class="st1" d="M175.9,589.8h238.4H440c0,0,0.6,8.1-12.6,21.6c0,0-34.6,39.2-75.1,50.5c0,0-48.6,17.4-97.5,4.8
		c0,0-39.7-9-67.1-32.1c0,0-20-16.2-35.7-36.5l-4.3-4.9v-3.3L175.9,589.8z"/>
	<path class="st2" d="M588.4,589.9h238.2h27.1v5.8l-5.3,4.6c0,0-21.1,27.2-39.5,38.7c0,0-27.1,21.8-71.1,29.5c0,0-38,6.3-67.9-1.3
		c0,0-42.6-8.8-72.5-35.2c0,0-24.5-22-32.4-34.8c0,0-1.6-5.8-1.5-7.4L588.4,589.9L588.4,589.9z"/>
</g>
</svg>
