<?xml version="1.0" encoding="utf-8"?>
<!-- Generator: Adobe Illustrator 19.0.1, SVG Export Plug-In . SVG Version: 6.00 Build 0)  -->
<svg version="1.1" id="Layer_1" xmlns="http://www.w3.org/2000/svg" xmlns:xlink="http://www.w3.org/1999/xlink" x="0px" y="0px"
	 viewBox="94 -4 800 800" style="enable-background:new 94 -4 800 800;" xml:space="preserve">
<style type="text/css">
	.st0{fill:none;stroke:#FFFFFF;stroke-width:14;stroke-miterlimit:10;}
</style>
<g>
	<path class="st0" d="M334.6,493.2c-13.1,34.4-6.2,65.8,18.9,91.5c-2.8,0.1-5.1,0.4-7.5,0.4c-78.1,0-156.1,0-234.2,0
		c-10,0-10,0-10-10c0-5.9,0.7-11.9-0.1-17.7c-1.7-11.6,4-19.2,13.1-24c17.7-9.2,35.7-17.5,53.7-26c14-6.6,28.7-12,42.2-19.7
		c17.9-10.2,24.8-27.1,22.3-47.4c-0.5-4.1-3-8.4-5.7-11.5c-7.1-8.3-10.7-17.9-13.2-28.3c-0.8-3.2-3.1-6.7-5.8-8.6
		c-10.6-7.3-14.1-24.2-7.2-35.3c1.3-2.1,2-5.2,1.8-7.8c-0.8-8.5-2.5-17-3.1-25.5c-2.4-29.7,17.6-52.2,42.1-58.7
		c21-5.6,42.1-5.6,62.9,2.5c23.3,9,40,37,34.4,61.5c-1.5,6.6-2.3,13.5-3,20.3c-0.2,2.3,0.1,5,1.2,6.9c7.9,13.2,5.1,27.3-7.2,36.4
		c-2.3,1.7-4,4.9-4.7,7.8c-2.8,11.3-7.2,21.6-15,30.6c-8.9,10.2-5.8,33.9,5.6,46.3C321.4,482.7,328,487.4,334.6,493.2z"/>
	<path class="st0" d="M777.2,506.8c0-92.5,0-183.5,0-275.3c-152.1,0-304.2,0-457.5,0c0,6.7,0,13.6,0,21.1
		c-8.3-2.7-15.4-4.9-22.4-7.5c-1.2-0.5-2.6-2.5-2.7-3.8c-0.2-6.4-0.6-12.9,0.3-19.1c1.3-9.4,9.7-16,19.6-16.6c2.2-0.1,4.4,0,6.6,0
		c153,0,306,0,458.9,0c16.8,0,24,7.2,24,24.1c0,93.1,0,186.3,0,279.4c0,15.3-7.1,22.6-22.2,22.6c-97.5,0-195.1,0-292.6,0
		c-2.4,0-4.7,0-7.1,0c-0.7-8.6-1.2-16.3-1.9-24.8C579.1,506.8,677.7,506.8,777.2,506.8z"/>
	<path class="st0" d="M455.7,585.7c4.8-6,10.3-10.2,12.4-15.7c5.2-13.8,15.3-14.8,27.3-13.6c3.6,0.4,6.1,0.1,7.3,4.9
		c0.6,2.4,5.4,5.1,8.3,5.2c26.7,0.4,53.5,0.4,80.2,0c2.8,0,7.3-2.9,8-5.4c1.2-4.3,3.2-4.7,6.7-4.7c90.7,0,181.4,0.1,272.1-0.1
		c5.1,0,6.7,1.6,6.7,6.8c0,16.3-6.2,23-22.2,23c-132.8,0-265.5,0-398.3,0C461.8,586.1,459.5,585.9,455.7,585.7z"/>
	<path class="st0" d="M567.6,304.9c-36.5,0-72.9-0.2-109.4,0.1c-6.9,0.1-9.5-1.8-9.1-9c0.6-10.3,0.3-20.6,0.1-30.9
		c-0.1-4.5,1-6.6,6.1-6.6c74.9,0.1,149.8,0.1,224.6,0c5,0,6.2,2,6.1,6.6c-0.2,10.8-0.4,21.6,0.1,32.4c0.3,6.1-2.1,7.5-7.6,7.5
		C641.5,304.8,604.6,304.9,567.6,304.9z"/>
	<path class="st0" d="M405.1,586.5c-28.8,1.2-60.2-21.5-60.6-60.3c-0.3-36.1,28.1-61.1,59.9-61.2c33.9,0,61,26.9,61.1,60.9
		C465.7,559.3,438.6,586.4,405.1,586.5z M434.3,493c-14.4,15.1-27.7,29-43,45c-4.1-5.3-6.6-11-10.9-13.5c-7.3-4.1-7.6,5.7-11.8,7.4
		c8.1,8.6,15.9,16.9,22.5,24c17.5-17.6,34.8-35,52-52.2C441,501.1,438.2,497.8,434.3,493z"/>
	<path class="st0" d="M500.9,348.7c0,2.2,0.3,4.5,0,6.6c-1.7,10.8-10,4.2-15.1,5.4c-3.7,0.8-9.4,1.9-9.1-5.6c0.1-1.2,0-2.5,0-3.7
		c-0.1-16.3-0.1-16,16.2-16.3c6.5-0.1,9,2,8.1,8.4C500.8,345.2,501,347,500.9,348.7C501,348.7,501,348.7,500.9,348.7z"/>
	<path class="st0" d="M501,410.1c0,2-0.1,3.9,0,5.9c0.3,4.6-1.3,6.7-6.2,6.5c-21.6-0.7-17.6,3.6-18.2-17.9c-0.2-5.5,1.3-8.5,7.3-7.6
		c1.4,0.2,2.9,0,4.4,0C501.7,397.3,500.9,394.6,501,410.1z"/>
	<path class="st0" d="M488.5,483.1c-13.4-0.1-11.8,1.1-11.8-13.2c0-14.6-0.9-12,14.3-12.1c11.3-0.1,9.9-1.3,10,15
		C501,483.1,501,483.1,488.5,483.1z"/>
</g>
</svg>
