<?xml version="1.0" encoding="utf-8"?>
<!-- Generator: Adobe Illustrator 19.0.1, SVG Export Plug-In . SVG Version: 6.00 Build 0)  -->
<svg version="1.1" id="Layer_1" xmlns="http://www.w3.org/2000/svg" xmlns:xlink="http://www.w3.org/1999/xlink" x="0px" y="0px"
	 viewBox="94 -4 800 800" style="enable-background:new 94 -4 800 800;" xml:space="preserve">
<style type="text/css">
	.st0{fill:none;stroke:#FFFFFF;stroke-width:13;stroke-miterlimit:10;}
</style>
<g>
	<path class="st0" d="M152.1,618c-2.2-0.9-4.5-1.8-6.7-2.6c-10.1-3.9-13.6-13.4-6.5-21.4c5-5.6,11.9-10.9,19-12.8
		c50.3-13.3,100.9-25.3,151.2-38.5c18.9-5,37.6-7,57.1-6.9c78,0.5,156,0.2,234,0.4c17.3,0,34.8-1.2,51.8,1.2
		c20.1,2.8,39.8,8.7,59.5,13.7c38.5,9.7,77,19.3,115.3,29.7c7.4,2,14.6,6.9,20.4,12.1c7.8,7,5.6,15.5-4.2,19.5
		c-4.1,1.6-8.7,2.5-13,2.6c-15.1,0.4-30.1,0.3-45.2,0.3c-67.6,0.2-135.3,0.5-202.9,0.7c-107.4,0.3-214.9,0.4-322.3,0.7
		c-2.5,0-5.1,0.9-7.6,1.3C218.6,618,185.3,618,152.1,618z M308.5,583.9c0.1,0.5,0.2,1,0.3,1.5c124.3,0,248.6,0,372.9,0
		c-1.5-2-3.4-3.1-5.3-4c-14.3-6.4-28.6-12.9-43.1-19c-3.8-1.6-8.2-2.6-12.3-2.6c-75.7-0.2-151.5,0.2-227.2-0.3
		c-17.4-0.1-33.7,2.1-49.5,9.6C332.7,574.7,320.5,579,308.5,583.9z"/>
	<path class="st0" d="M107.5,561.3c0.5-2.8,1.5-5.6,1.6-8.4c0.6-26,0.8-52.1,1.8-78.1c0.4-9.8,1.5-19.8,4.4-29.1
		c2-6.1,7-12.2,12.3-16c9.2-6.7,16.1-5.5,24.9,1.6c10.2,8.1,20.4,16.1,32.1,25.3c1.1-10.2,2-18.9,2.9-27.7c0.4-3.8,0.8-7.6,1.2-11.4
		c0.4-4.8,3.5-5.3,6.5-3.1c3.4,2.4,6.7,5.4,8.8,8.9c8.5,13.8,12.7,29.3,14.7,45.1c2.3,18.9,3.3,37.9,4.1,56.9
		c0.5,11.7-0.1,12-11.5,15c-34.6,9.2-69.3,18.4-103.9,27.6C107.5,565.8,107.5,563.5,107.5,561.3z"/>
	<path class="st0" d="M880.5,576.1c-29.2-7.8-58.4-15.5-87.6-23.3c-7.4-2-14.8-3.8-21.9-6.3c-1.9-0.7-4.3-3.3-4.5-5.2
		c-2.9-32.1,0.6-63.5,10.8-94c2.5-7.5,6.9-14.5,11.4-21.1c1.6-2.4,6-3,9.1-4.4c0.9,2.8,2.2,5.6,2.5,8.4c1.3,10.8,2.2,21.6,3.4,33.8
		c3.1-2.1,5.1-3.2,7-4.7c8.2-6.3,16.3-12.7,24.4-19.1c12.7-10,29.2-6.9,35.9,8.1c3.7,8.2,5.6,17.6,6.1,26.5c1.3,24.6,1.3,49.3,2,74
		c0.1,2.4,0.9,4.7,1.4,7.1C880.5,562.6,880.5,569.4,880.5,576.1z"/>
	<path class="st0" d="M506.8,199.8c4.5,1.3,9,2.4,13.4,3.9c12.8,4.5,18.7,12.9,18.7,26.4c0,10.6,0.1,21.1,0,31.7
		c-0.1,19.9-20.2,44.7-39.7,48.3c-4.1,0.8-9.3,0.3-12.9-1.7c-21-11.4-35.6-27.2-34.6-53.1c0.3-6.7,0-13.5,0-20.2
		c0-19.4,8.8-30,27.8-33.7c1.9-0.4,3.8-1.1,5.7-1.7C492.4,199.8,499.6,199.8,506.8,199.8z"/>
	<path class="st0" d="M598.6,512.3c-67.7,0-135,0-203.3,0c-0.1-2.6-0.4-5.2-0.4-7.8c0-40.9,0-81.8,0-122.7
		c0-29.6,18.4-50.7,47.8-54.9c15.8-2.3,15.7-2.3,20,12.9c5.1,18.1,10.3,36.2,15.4,54.3c0.4,1.2,0.9,2.4,2.7,3.8
		c1.6-8.1,3.1-16.2,4.7-24.2c1.3-6.6,2.7-13.2,3.7-19.8c0.5-3.4,0.9-5.9,5.5-5.8c4.7,0.1,4.6,3.3,5.2,6.3c2.3,12.8,4.6,25.6,7,38.4
		c0.4,1.9,1.1,3.8,2.2,7.8c2.8-10.3,5.2-18.6,7.4-27c4-14.7,7.8-29.5,12-44.1c0.6-2,3.3-4.8,4.9-4.7c19.8,1,38,6.5,52.1,21.5
		c9.4,10,13.6,22.2,13.6,35.6c0.2,41.6,0.1,83.1,0,124.7C599.2,508.4,598.8,510.2,598.6,512.3z"/>
	<path class="st0" d="M673.8,434.1c7.9-6.2,14.4-11.2,20.9-16.2c3.4-2.6,6.9-5.1,10-8c5.7-5.3,11.5-8.7,19.8-5.8
		c8.4,2.9,15.2,7.5,17.8,16c2.6,8.5,4.7,17.4,5.1,26.2c1.1,24.7,1.1,49.4,1.7,74.1c0.2,7.8,0.9,15.5,1.4,24.6
		c-9.5-2.1-18-3.7-26.3-5.9c-27.7-7.5-55.3-15.1-82.9-23c-2-0.6-4.5-3.8-4.7-5.9c-3.3-34.5,1-68,13.4-100.3
		c2.1-5.3,5.5-10.3,9.1-14.8c1.7-2,5.6-3.3,8.2-2.9c1.4,0.2,2.9,4.5,3.2,7.1C672,410.1,672.7,421,673.8,434.1z"/>
	<path class="st0" d="M238.9,536.5c0-9.7-0.1-18.6,0-27.6c0.3-18.4,0.6-36.8,1.4-55.2c0.4-10.7,1.1-21.5,2.7-32.1
		c2.4-15.8,10.5-23.7,26.2-26.2c2.8-0.5,6.6,0.7,9,2.4c10.1,7.5,19.9,15.4,29.8,23.2c1.7,1.3,3.5,2.5,6.5,4.5
		c0.9-8.2,1.7-15,2.4-21.8c0.5-4.9,0.9-9.8,1.4-14.7c0.6-5.6,4-7.7,8.3-4.2c3.7,3,7.6,7,9.1,11.3c5.2,15.7,11.2,31.4,13.7,47.6
		c2.8,18.3,2.2,37.1,3.2,55.7c0.3,5.4-2,7.9-7.3,9.3c-34.3,8.9-68.4,18.1-102.6,27.3C241.8,536.2,240.9,536.2,238.9,536.5z"/>
	<path class="st0" d="M186.7,347.1c1.5,16.5-4.2,32.4-14.9,46.8c-8.2,11-16.5,12.9-27.8,5c-17.7-12.4-29.4-28.8-29.3-51.6
		c0.1-7.6-1-15.5,0.5-22.9c3.9-19.8,16.5-26.1,40-23.7c20.9,2.1,33.2,20.8,31.5,37.9C186.6,340.9,186.7,343.2,186.7,347.1z"/>
	<path class="st0" d="M743.8,320.2c2.6,21.7-8,39.1-25,53.6c-1.5,1.3-3.3,2.4-5,3.4c-11.4,6.5-17.5,5.7-25.8-4.5
		c-10.2-12.5-16.1-27-16.1-43.3c0-8-0.4-16.3,1.3-24.1c3.4-16.2,16.8-26.5,33.3-27.1c4-0.1,8.1,0,12.1,0.3
		c14.3,1,24.5,11.4,25.1,25.9C744,309.1,743.8,313.8,743.8,320.2z"/>
	<path class="st0" d="M873.6,349.1c2.6,23.3-7.8,41-25,55.1c-13.8,11.3-23.6,9.7-33.7-4.8c-13.7-19.6-16.4-41.6-11.8-64.3
		c3.6-17.9,23.1-29.4,42.1-26.6c21.5,3.3,28.5,11.3,28.5,33.2C873.6,344.1,873.6,346.6,873.6,349.1z"/>
	<path class="st0" d="M316.5,316c1.3,18.1-4.6,34.7-16.4,49.2c-7.4,9-13.7,10.7-23.5,4.7c-19.6-11.9-31.5-29.1-32.1-52.7
		c-0.2-8.5-0.4-17.2,1.3-25.4c2.9-14.3,11.6-20.8,26.2-21.3c6-0.2,12.3-0.6,18.1,0.8c15.2,3.6,25.8,17.1,26.4,32.6
		C316.6,307.6,316.5,311.5,316.5,316z"/>
</g>
</svg>
