<?xml version="1.0" encoding="utf-8"?>
<!-- Generator: Adobe Illustrator 19.0.1, SVG Export Plug-In . SVG Version: 6.00 Build 0)  -->
<svg version="1.1" id="Layer_1" xmlns="http://www.w3.org/2000/svg" xmlns:xlink="http://www.w3.org/1999/xlink" x="0px" y="0px"
	 viewBox="-255 347 100 100" style="enable-background:new -255 347 100 100;" xml:space="preserve">
<style type="text/css">
	.st0{display:none;}
	.st1{fill:#3A59A0;enable-background:new    ;}
	.st2{fill:#FFFFFF;}
</style>
<g id="Layer_1_1_" class="st0">
	
</g>
<g id="Layer_3" class="st0">
</g>
<g>
	<path class="st1" d="M-155,447c-33.3,0-66.7,0-100,0c0-33.3,0-66.6,0-100c33.3,0,66.7,0,100,0C-155,380.3-155,413.7-155,447z
		 M-214,416.9C-214,416.9-214,416.9-214,416.9c0,5.4,0,10.7,0,16.1c0,1.5,0,1.5,1.5,1.5c3.6,0,7.2,0,10.7,0c1.3,0,1.3,0,1.3-1.4
		c0-10.9,0-21.8,0-32.7c0-0.8,0.2-1.1,1.1-1.1c3.7,0,7.4,0,11,0c0.9,0,1.1-0.4,1.2-1.1c0.1-3.4,0.3-6.8,0.4-10.1
		c0.1-1.6,0-1.6-1.6-1.6c-3.7,0-7.4,0-11.1,0c-0.4,0-1,0.1-1-0.6c0.1-3.6,0.1-7.2,0.2-10.7c0.1-1.6,1.1-2.7,2.7-3
		c1.7-0.2,3.4-0.3,5-0.3c1.5,0,3,0,4.5,0c0.5,0,1,0,1-0.7c0.1-3.5,0.1-7,0.2-10.5c0-0.2-0.4-0.7-0.6-0.7c-0.7-0.2-1.4-0.2-2.1-0.2
		c-3.8-0.3-7.6-0.5-11.4,0.2c-4.3,0.9-8,2.9-10.5,6.7c-1.9,2.9-2.6,6.2-2.6,9.6c0,3,0,6,0,9c0,1.3,0,1.3-1.3,1.3c-2.3,0-4.6,0-6.8,0
		c-0.8,0-1.1,0.3-1.1,1.1c0,3.5,0,7.1,0,10.6c0,0.9,0.3,1.1,1.1,1.1c2.3,0,4.6,0,6.8,0c1.3,0,1.3,0,1.3,1.3
		C-214,406.1-214,411.5-214,416.9z"/>
	<path class="st2" d="M-214,416.9c0-5.4,0-10.8,0-16.2c0-1.3,0-1.3-1.3-1.3c-2.3,0-4.6,0-6.8,0c-0.8,0-1.2-0.2-1.1-1.1
		c0-3.5,0-7.1,0-10.6c0-0.9,0.3-1.2,1.1-1.1c2.3,0,4.6,0,6.8,0c1.3,0,1.3,0,1.3-1.3c0-3,0-6,0-9c0-3.4,0.7-6.7,2.6-9.6
		c2.5-3.8,6.1-5.8,10.5-6.7c3.8-0.8,7.6-0.5,11.4-0.2c0.7,0.1,1.4,0.1,2.1,0.2c0.3,0.1,0.6,0.5,0.6,0.7c0,3.5-0.1,7-0.2,10.5
		c0,0.7-0.6,0.7-1,0.7c-1.5,0-3-0.1-4.5,0c-1.7,0-3.4,0.1-5,0.3c-1.6,0.2-2.6,1.4-2.7,3c-0.2,3.6-0.2,7.1-0.2,10.7
		c0,0.7,0.5,0.6,1,0.6c3.7,0,7.4,0,11.1,0c1.6,0,1.6,0,1.6,1.6c-0.1,3.4-0.3,6.8-0.4,10.1c0,0.8-0.3,1.1-1.2,1.1c-3.7,0-7.4,0-11,0
		c-0.9,0-1.1,0.3-1.1,1.1c0,10.9,0,21.8,0,32.7c0,1.3,0,1.3-1.3,1.4c-3.6,0-7.2,0-10.7,0c-1.5,0-1.5,0-1.5-1.5
		C-214,427.7-214,422.3-214,416.9C-214,416.9-214,416.9-214,416.9z"/>
</g>
</svg>
