<?xml version="1.0" encoding="utf-8"?>
<!-- Generator: Adobe Illustrator 20.1.0, SVG Export Plug-In . SVG Version: 6.00 Build 0)  -->
<svg version="1.1" id="Layer_1" xmlns="http://www.w3.org/2000/svg" xmlns:xlink="http://www.w3.org/1999/xlink" x="0px" y="0px"
	 viewBox="0 0 800 800" style="enable-background:new 0 0 800 800;" xml:space="preserve">
<style type="text/css">
	.st0{fill:#383838;}
	.st1{fill:#F26222;}
	.st2{fill:#FFFFFF;}
</style>
<g>
	<path class="st0" d="M338.1,590.7c0-36.6,0-70.6,0-105.8c25.2,0,49.7,0,75.3,0c0,34.5,0,68.9,0,105.8c6.4,0,11.7,0,17,0
		c50.3,0,100.7-0.1,151,0c27.1,0,43.9,14.6,44.1,37.7c0.2,23.3-16.6,38.3-43.4,38.3c-137.3,0.1-274.5,0.1-411.8,0
		c-26.8,0-43.8-14.9-43.7-38c0-23.1,17-37.9,43.9-37.9c49.8-0.1,99.6,0,149.5,0C325.4,590.7,330.9,590.7,338.1,590.7z"/>
</g>
<g>
	<g>
		<path class="st1" d="M421.4,540.4c-88.3,0-176.6-1.4-264.8,0.4C50.1,542.9,0.6,475.7,15.8,370c7.3-50.8,47.3-75.5,93.6-87
			c25.4-6.3,39.7-15.4,47.8-43.2c41.1-141.5,194.2-179,297-73.6c14.1,14.4,25.4,19,45.7,13c98.9-28.9,174.4,20.6,192.2,122.1
			c1.9,11,13.6,24.2,24.2,29.3c63.9,30.4,88.1,87.9,62.5,153.6c-14.5,37.1-42,56.2-81.9,56.2C605.1,540.5,513.2,540.4,421.4,540.4z"
			/>
	</g>
</g>
<g>
	<path class="st2" d="M131.9,367.3c0.9-4.7,1.6-9,2.5-13.4c0.4-2.2,1.1-4.3,1.9-6.3c5.7-15.6,16.3-22.9,32.8-22.5
		c3.8,0.1,7.7,1,11.6,1.4c2.3,0.3,3,1.4,2.1,3.7c-1.3,3-2.4,6.3-3.4,9.4c-0.6,2-1.6,2.8-3.7,2c-1.3-0.5-2.8-0.7-4.3-0.9
		c-10-1-15.9,3-18.4,12.8c-1.1,4.4-1.8,8.9-2.8,13.8c5.8,0,11.3,0.2,16.7-0.1c3.1-0.1,4,1,3.3,3.9c-0.6,2.6-1.1,5.2-1.4,7.9
		c-0.3,2.8-1.6,3.7-4.3,3.7c-5.5-0.2-10.9-0.1-16.7-0.1c-1.4,7.7-2.7,15.4-4.1,23c-3.6,19.5-6.8,39-10.9,58.4
		c-1.4,6.7-4.3,13.4-7.7,19.4c-4.5,8.1-12.1,12.4-21.4,12.8c-5.9,0.3-11.9-0.7-17.8-1.3c-2.2-0.2-3-1.6-2.1-3.8
		c1.2-3.1,2.3-6.3,3.4-9.4c0.6-1.8,1.5-2.5,3.5-1.7c1.4,0.5,3,0.9,4.5,1c9.6,0.7,14.2-1.7,17-10.8c2.7-8.5,4.5-17.4,6.2-26.3
		c3.8-20.2,7.3-40.4,11-61.2c-3.6,0-7,0-10.3,0c-4.3,0-4.4-0.1-3.7-4.3c0.4-2.7,1-5.5,1.4-8.2c0.3-2.2,1.4-3,3.6-3
		C124.5,367.4,128.2,367.3,131.9,367.3z"/>
	<path class="st2" d="M419.8,414.7c-0.3,13.9,7.9,22.6,21.7,23.5c8.9,0.6,17.6,0.1,25.9-3.1c2.4-1,3.7-0.4,4.4,2.1
		c0.8,2.4,1.7,4.9,2.8,7.1c1,2.1,0.5,3.5-1.7,4c-6.3,1.5-12.7,3.4-19.1,4.2c-9.2,1.1-18.4,0.6-27.4-2.3
		c-15.2-4.9-23.7-15.5-25.9-31.1c-1-7.3-0.9-14.7,1-21.8c4.5-18,17.9-28.8,36.8-29.7c8.6-0.4,17,0.6,24.4,5.3
		c10.4,6.6,15,16.6,15.9,28.5c0.3,3.2,0,6.4,0,9.7c0,2.9-1.3,3.7-4.1,3.7c-17-0.1-33.8-0.1-50.8-0.1
		C422.4,414.7,421.3,414.7,419.8,414.7z M460.2,401.3c-1-12.4-7.7-19.7-18.4-19.9c-12.6-0.3-20.2,6.5-21.9,19.9
		C433.4,401.3,446.8,401.3,460.2,401.3z"/>
	<path class="st2" d="M255,410.8c-1.1,5.7-1.7,11.5-3.4,16.9c-4.7,14.9-17.7,24.3-34.4,25c-5.6,0.3-11.4-0.2-16.9-1.5
		c-16.2-4-26.5-16.8-27.7-34.4c-0.4-6.4-0.2-13.2,1.1-19.5c3.9-18,17.3-28.9,35.7-29.8c8.7-0.4,17.1,0.6,24.9,4.8
		c12.4,6.7,18,17.7,19.5,31.1c0.3,2.4,0.3,4.9,0.4,7.3C254.7,410.8,254.9,410.8,255,410.8z M190.9,410.1c1.2,5.7,1.9,11.5,3.8,16.9
		c3,8.4,9.7,11.8,18.3,11.9c8.7,0.1,15.6-3.1,19-11.5c4.6-11.4,4.6-23.1,0-34.4c-3.4-8.3-10.3-11.2-18.8-11.1
		c-8.6,0-15.4,3.3-18.4,11.7C192.9,398.7,192.2,404.3,190.9,410.1z"/>
	<path class="st2" d="M370,366.7c6.9,1.1,13.7,2.3,20.6,3.5c2.6,0.4,3.7,1.7,2.3,4.3c-1.1,2.2-2,4.5-2.7,6.8c-0.8,2.8-2.3,3-5,2.6
		c-5.3-0.9-10.8-1.7-16.2-1.8c-12.4-0.2-20.6,6.5-23.4,18.6c-1.5,6.5-1.5,13,0,19.5c2.5,10.8,11,17.7,22.8,17.7
		c6.2,0,12.4-1.2,18.4-2.2c2.1-0.3,3.1-0.2,3.8,1.8c1,2.8,2.1,5.7,3.2,8.4c0.7,1.7,0.3,2.8-1.4,3.3c-15.1,4.4-30.2,5.5-45.1-0.6
		c-9.1-3.7-15.3-10.6-18.8-19.7c-4.3-11.4-4.6-23.1-0.9-34.7c5.2-16.1,19.3-26.1,37.3-26.8c1.6-0.1,3.1,0,4.7,0
		C369.9,367.2,370,366.9,370,366.7z"/>
	<path class="st2" d="M287.6,375.3c4-2.2,7.6-4.5,11.5-6.2c7.1-3,14.4-1.9,21.7-0.3c0.7,0.2,1.6,1.9,1.3,2.7
		c-1.1,3.6-2.4,7.1-4,10.6c-0.3,0.8-2,1.4-3.1,1.5c-2.4,0.1-4.9-0.3-7.3-0.3c-9.6,0.4-16.2,5.8-18.1,15.2c-0.9,4.2-1.2,8.6-1.3,12.9
		c-0.2,12.6-0.2,25.1,0,37.8c0,3-1,3.9-3.8,3.8c-3.7-0.2-7.6-0.2-11.3,0c-2.3,0.1-3.2-0.7-3.2-3c0-26.3,0-52.5,0-78.8
		c0-2.4,1.1-3,3.3-3c3.6,0.1,7.1,0.2,10.7,0c2.9-0.2,4.2,0.8,3.8,3.7C287.6,373,287.6,374.2,287.6,375.3z"/>
</g>
<g>
	<path class="st2" d="M496.6,447.3v-17.2H513v17.2H496.6z"/>
	<path class="st2" d="M566,426.7l11.4,6c-2.1,5.2-5.3,9.1-9.4,11.7c-4.2,2.7-9.2,4-15,4c-8.8,0-15.5-2.7-20-8.2
		c-4.6-5.5-6.9-13.5-6.9-24.2c0-10,2.4-17.8,7.2-23.6s11.4-8.6,19.7-8.6c5.8,0,10.8,1.4,15,4.2c4.1,2.8,7.1,6.8,9,12l-12.4,5.4
		c-1.1-3.2-2.5-5.7-4.3-7.1c-1.7-1.5-3.8-2.3-6.3-2.3c-4.5,0-7.8,1.7-9.9,5c-2.1,3.4-3.2,8.7-3.2,15.9c0,6.4,1,11.2,3,14.4
		c2,3.1,5,4.7,9.1,4.7c3,0,5.5-0.8,7.6-2.3C562.7,432.3,564.5,429.9,566,426.7z"/>
	<path class="st2" d="M583.8,416.2c0-10.2,2.3-18.1,7-23.7c4.7-5.7,11.2-8.5,19.6-8.5s14.9,2.9,19.6,8.5c4.7,5.7,7,13.7,7,23.7
		c0,10.2-2.3,18.1-7,23.7c-4.7,5.7-11.2,8.5-19.6,8.5s-14.9-2.9-19.6-8.6C586.2,434.2,583.8,426.3,583.8,416.2z M598.7,416.2
		c0,6.6,1,11.6,3,14.9s4.9,4.9,8.8,4.9s6.9-1.7,8.9-4.9c1.9-3.2,3-8.2,3-14.9c0-6.6-1-11.6-2.9-14.8s-4.9-4.8-8.9-4.8
		c-3.9,0-6.9,1.7-8.9,4.9C599.7,404.8,598.7,409.6,598.7,416.2z"/>
	<path class="st2" d="M648.4,447.3V385H662v7.2c2.4-2.9,5.1-5,8.1-6.3c2.9-1.4,6.1-2.1,9.5-2.1c3.7,0,6.8,0.8,9.2,2.3s4.5,3.8,6.1,7
		c3.2-3.2,6.4-5.7,9.7-7c3.1-1.5,6.7-2.2,10.4-2.2c5.1,0,9.2,1.4,12.2,4.3c3,2.8,4.4,6.7,4.4,11.6v47.7h-14.8v-42.9
		c0-2.7-0.6-4.8-1.7-6.3c-1.2-1.5-2.9-2.2-5-2.2c-2.3,0-4.5,0.5-6.7,1.7c-2.2,1-4.3,2.7-6.3,4.8v45h-14.4v-41.3c0-3.5-0.5-6-1.6-7.7
		c-1-1.7-2.7-2.4-4.9-2.4c-2.4,0-4.8,0.6-7,1.7s-4.3,2.8-6.1,4.9v44.8h-14.5v-0.3H648.4z"/>
</g>
</svg>
