<?xml version="1.0" encoding="utf-8"?>
<!-- Generator: Adobe Illustrator 20.0.0, SVG Export Plug-In . SVG Version: 6.00 Build 0)  -->
<svg version="1.1" id="Layer_1" xmlns="http://www.w3.org/2000/svg" xmlns:xlink="http://www.w3.org/1999/xlink" x="0px" y="0px"
	 viewBox="0 0 800 800" style="enable-background:new 0 0 800 800;" xml:space="preserve">
<style type="text/css">
	.st0{fill:#383838;}
	.st1{fill:#F26222;}
</style>
<g>
	<path class="st0" d="M117.6,520.8c-6.8-26.6-12.2-50.7-19.4-74.3c-1.4-4.5-9.6-9.4-15-9.7c-20.2-1.1-40.5-0.5-62.3-0.5
		c0-23.9,0-45.2,0-70.9c19.1,0,38.6-0.5,58,0.2c12.5,0.4,17.9-4.4,20.1-16.9c3.2-18.1,7.2-36.2,13.4-53.5
		c4.3-11.8,1.4-16.9-8.9-22.3c-17.3-9.2-33.7-19.9-52.4-31.1c11.6-20.6,22.3-39.7,33.7-60c23.1,12.2,44.3,23.5,62.8,33.2
		c20.6-18.6,40.5-36.1,59.6-54.6c2.4-2.3,1.3-10.6-0.9-14.7c-9.6-18.5-20.2-36.5-31.3-56.1c20.2-12,39.1-23.2,59.5-35.3
		c12,19.4,22.9,36.4,33.1,53.8c5,8.6,9.9,10.5,19.9,7c18.5-6.6,37.6-11.9,56.8-15.7c11.6-2.3,14.2-7.8,13.9-18.2
		c-0.5-19.6-0.1-39.3-0.1-60.5c23.8,0,45.1,0,70.8,0c0,18.3,0.6,37.2-0.2,55.9c-0.6,14,4.3,20.3,18.7,22.4c17.5,2.6,35,7,51.6,13
		c11.8,4.3,16.9,1.4,22.4-8.8c9.2-17.2,19.9-33.7,31.1-52.5c20.6,11.6,39.7,22.3,60,33.7c-12.2,23.1-23.5,44.3-33,62.2
		c18.6,20.8,35.8,40.9,54.3,59.9c2.5,2.5,11.7,0.9,16.4-1.5c18-9.3,35.3-19.7,54.4-30.5c10.5,17.8,20.9,33.8,29.4,50.7
		c1.8,3.5-2,12.9-6,15.7c-16.6,11.7-34.2,21.9-51.1,32.4c6.6,26,12.5,51.3,19.9,76c1.2,3.9,9.3,7.8,14.4,8
		c20.2,0.9,40.5,0.4,62.4,0.4c0,23.8,0,45.1,0,70.8c-19,0-38.5,0.5-57.9-0.2c-12.6-0.5-17.9,4.3-20.2,16.8c-3.4,18.7-8,37.3-14,55.3
		c-3.3,10.1-1.2,14.8,7.7,19.7c17.7,9.7,34.8,20.5,54.2,32c-11.6,20.6-22.4,39.6-33.8,60c-23-12.2-44.2-23.4-62.4-33
		c-20.7,18.6-40.7,36-59.8,54.5c-2.4,2.3-1.2,10.6,0.9,14.8c9.6,18.5,20.2,36.5,31.1,56.1c-20.1,11.9-39,23.1-59.6,35.3
		c-12-19.3-22.9-36.3-33.1-53.8c-5-8.6-9.9-10.6-19.9-7c-17.9,6.5-36.3,11.9-54.9,15.5c-11.7,2.3-16.4,6.5-15.9,18.5
		c0.8,19.6,0.2,39.3,0.2,60.5c-23.8,0-45.1,0-70.8,0c0-18.3-0.6-37.2,0.2-55.9c0.6-14-4.3-20.3-18.7-22.4c-17.5-2.6-35-7-51.6-13
		c-11.8-4.3-16.9-1.4-22.4,8.8c-9.2,17.2-19.9,33.7-31.1,52.4c-20.6-11.6-39.6-22.3-60-33.8c12.2-23,23.4-44.2,33-62.3
		c-18.6-20.7-36-40.7-54.4-59.8c-2.3-2.4-10.6-1.3-14.7,0.9c-18,9.3-35.6,19.6-55.8,31c-10.6-17.6-21.5-34.5-30.7-52.2
		c-1.5-2.9,3.1-11.4,7-14.1C83.3,541.5,100.9,531.2,117.6,520.8z M679.3,398.5c0.1-155.6-125.9-282.9-280.5-283.2
		c-155.5-0.3-283,126-283.2,280.5C115.3,551.4,241.4,678.7,396.1,679C551.6,679.3,679.2,552.9,679.3,398.5z"/>
</g>
<path class="st1" d="M584.8,387.1c-37.2-11.9-71.3-22.9-105.4-33.8c-23.8-7.6-23.8-7.5-23.3-34.9c3,0.4,6,0.4,8.7,1.3
	c47.8,15.7,95.6,31.6,143.5,47.1c7,2.3,11.4,5.3,10.6,13.1c-0.8,7.4,5.5,16.1-5.1,21.6c-47.8,24.9-95.5,50.2-143.2,75.3
	c-8.9-22.6-7.3-27.1,12.6-37.4C516.2,422.5,549.2,405.5,584.8,387.1z"/>
<path class="st1" d="M327.4,328c4.3,28.1,4.3,28.1-18.4,39.6c-31.9,16.3-63.7,32.6-97.8,50c36.1,11.7,70.1,22.7,104.1,33.7
	c0.4,0.1,0.9,0.2,1.3,0.3c24.5,7.8,24.5,7.8,23.3,35.7c-3.6-0.9-7-1.5-10.3-2.6c-46.9-15.6-93.6-31.9-140.8-46.6
	c-11.8-3.7-10.5-11.2-11.7-19.4c-1.3-8.5,0.3-13.6,9.1-18c43.3-21.8,86.2-44.7,129.2-67.1C319,331.7,322.7,330.2,327.4,328z"/>
<path class="st1" d="M410.3,277.2c8.1-0.7,15.2-1.2,24-2c-6.3,32.7-12.4,64.5-18.6,96.4c-8.7,45-17.5,90-26.1,135
	c-4,20.6-3.9,20.6-27.6,19C378,443.1,394,360.7,410.3,277.2z"/>
</svg>
