<?xml version="1.0" encoding="utf-8"?>
<!-- Generator: Adobe Illustrator 20.1.0, SVG Export Plug-In . SVG Version: 6.00 Build 0)  -->
<svg version="1.1" id="Layer_1" xmlns="http://www.w3.org/2000/svg" xmlns:xlink="http://www.w3.org/1999/xlink" x="0px" y="0px"
	 viewBox="0 0 800 800" style="enable-background:new 0 0 800 800;" xml:space="preserve">
<style type="text/css">
	.st0{fill:#383838;}
	.st1{fill:#F26222;}
</style>
<g>
	<path class="st0" d="M394.8,770.3c-65.9-0.9-137.3-0.9-206.7-20.2c-83.5-23.2-115.6-65.9-124.5-136.4c-8.9-70.7,6.6-137.2,48-196.6
		c37.8-54.2,86.8-94.9,146.7-122.6c13.3-6.2,25-5.1,39.6,0.8c63.7,25.6,126.7,24.7,186.8-12.3c4.1-2.5,10.8-4,15.1-2.4
		c122,44.1,208.8,123.3,235.6,253.6c10.3,50.3,7.9,104.2-22.9,151.1c-26.9,40.9-68.6,57.4-113.3,68.1
		C533.8,769,467,769.9,394.8,770.3z"/>
	<path class="st0" d="M278.6,93.6c9.6-0.5,19.5,0,28.8-1.9c13.2-2.8,24.3-9.2,28.6-23.6c1.5-4.8,3.9-9.4,6.3-13.8
		c17.2-30.7,48.3-31.4,66.9-1.5c3,4.8,5.4,9.9,7.6,15.1c8.2,19.8,15.3,21.5,35.4,12.2c12.4-5.7,26.2-9.4,39.7-11.6
		c14.7-2.3,20.9,7.3,19.4,20.7c-0.9,8.2-3.5,16.5-7.2,23.9c-18.1,36.3-28.5,74.3-30.5,115.1c-0.4,8.7-8.3,20.3-16,24.7
		c-31.4,17.7-66.2,22.1-101.6,18c-18.8-2.2-37.8-6.2-55.5-12.7c-8.8-3.2-17.7-12.4-21.8-21.2c-16.1-34.2-30.3-69.4-45.4-104.1
		c-11-25.4-1.4-40.5,26.5-40.8c6.2-0.1,12.4,0.5,18.7,0.8C278.6,93.2,278.6,93.4,278.6,93.6z"/>
</g>
<g>
	<path class="st1" d="M385.2,700.8v-37.4c-21.7-0.4-43.7-7.1-56.8-16.4l9-25c13.1,8.6,32.5,16.1,53.5,16.1
		c26.5,0,44.5-15.3,44.5-36.6c0-20.6-14.6-33.3-42.2-44.5c-38.1-15-61.7-32.5-61.7-65c0-31,22.1-54.6,56.1-60.2v-37.4H411v36.3
		c22.1,0.7,37.4,6.7,48.6,13.1l-9.3,24.7c-7.9-4.5-23.2-13.1-47.1-13.1c-28.8,0-39.6,17.2-39.6,32.5c0,19.1,13.8,28.8,46.4,42.6
		c38.5,15.7,57.9,34.8,57.9,68c0,29.9-20.6,57.6-59.1,63.6v38.9H385.2z"/>
</g>
</svg>
