<?xml version="1.0" encoding="utf-8"?>
<!-- Generator: Adobe Illustrator 19.0.1, SVG Export Plug-In . SVG Version: 6.00 Build 0)  -->
<svg version="1.1" id="Layer_1" xmlns="http://www.w3.org/2000/svg" xmlns:xlink="http://www.w3.org/1999/xlink" x="0px" y="0px"
	 viewBox="94 -4 800 800" style="enable-background:new 94 -4 800 800;" xml:space="preserve">
<style type="text/css">
	.st0{fill:#F26222;}
	.st1{fill:#FFFFFF;}
	.st2{fill:#383838;}
</style>
<g>
	<path class="st0" d="M517.5,379.3c3.1-3.7,5.7-6.7,8.1-9.8c3-3.8,6.1-4.6,11.3-3.6c22.5,4.6,43.3-9.5,47.8-32
		c0.9-4.6,0.1-9.5,0.1-14.2c-0.5-0.2-1-0.4-1.6-0.6c-7.7,7.8-15.3,15.7-23.1,23.4c-4.6,4.5-7.8,4.5-12.4,0.1
		c-6.4-6.2-12.7-12.5-19-18.9c-4.7-4.9-4.7-7.9,0-12.8c6.5-6.7,13.2-13.2,19.8-19.9c1.2-1.2,2.1-2.6,3.5-4.3
		c-29.1-5-52.9,20.2-46.7,48.5c0.9,4,0.6,6.6-2.4,9.3c-0.9,0.8-1.3,3-1,4.2c1,3.5,2.6,6.8,4.1,10.5c1.3-1.1,2.4-2.6,3.8-3
		c2-0.6,4.2-0.5,6.3-0.8c-0.4,2-0.1,4.5-1.3,5.8c-2.4,2.5-5.6,4.3-8.9,6.7C510.5,372.3,513.2,375,517.5,379.3z M563.7,443.7
		c5.4-3.1,6.5-6.2,2.5-10.7c-2.9-3.2-4.9-7.2-7.7-10.6c-1.5-1.8-3.8-3-5.8-4.2c-2.2-1.3-5-2-6.7-3.7c-13.6-13.4-27-27-40.7-40.4
		c-3.7-3.6-6.1-6.8-5.4-12.7c0.4-3.9-2.6-8.3-4.5-12.3c-0.9-1.8-2.8-3-4.3-4.5c-13.7-13.7-27.3-27.4-41-41c-7.4-7.3-15-7.7-21.4-1.6
		c-7,6.7-6.9,14.5,0.8,22.3c14.9,15.1,30,29.9,44.9,45c4,4.1,8.8,5.9,14.1,4.8c4.4-0.9,6.9,0.8,9.7,3.6c11.8,12,23.9,23.7,35.7,35.7
		c4.3,4.4,10.3,7.8,10.8,15.2c0.1,1.3,1.9,2.7,3.2,3.6C553,436.2,558.3,439.9,563.7,443.7z M494.6,381.2
		c-8.4,8.5-16.2,16.6-24.1,24.6c-5.6,5.6-11,11.3-16.9,16.7c-1.3,1.2-3.9,1-6,1.4c0.3-2.2,0.4-4.4,1-6.5c0.3-1.1,1.7-1.8,2.6-2.7
		c10-10,20-20,30-30c1.3-1.3,2.6-2.8,4.2-4.6c-3.2-0.9-5.8-0.9-7.5-2.2c-4.7-3.7-7.5-1.5-10.9,2c-12.6,13-25.5,25.6-38.3,38.5
		c-7,7.1-6.6,15.1,1,22.8c7.7,7.8,15.7,8.3,22.8,1.3c14.6-14.5,29.1-29.1,43.8-43.6c2.5-2.4,5.6-4.2,8.8-6.5
		C500.7,387.6,498,384.7,494.6,381.2z"/>
	<path class="st0" d="M517.5,379.3c-4.3-4.3-7-7-11.5-11.4c3.3-2.4,6.5-4.2,8.9-6.7c1.2-1.2,0.9-3.8,1.3-5.8
		c-2.1,0.2-4.3,0.1-6.3,0.8c-1.4,0.5-2.5,1.9-3.8,3c-1.5-3.8-3.1-7.1-4.1-10.5c-0.4-1.2,0.1-3.4,1-4.2c3-2.7,3.3-5.3,2.4-9.3
		c-6.2-28.3,17.6-53.5,46.7-48.5c-1.3,1.7-2.3,3.1-3.5,4.3c-6.6,6.7-13.3,13.2-19.8,19.9c-4.7,4.9-4.7,7.9,0,12.8
		c6.2,6.4,12.5,12.7,19,18.9c4.6,4.4,7.8,4.4,12.4-0.1c7.8-7.7,15.4-15.6,23.1-23.4c0.5,0.2,1,0.4,1.6,0.6c0,4.7,0.8,9.7-0.1,14.2
		c-4.5,22.5-25.3,36.5-47.8,32c-5.1-1-8.3-0.2-11.3,3.6C523.2,372.5,520.6,375.5,517.5,379.3z"/>
	<path class="st0" d="M563.7,443.7c-5.4-3.8-10.7-7.4-15.8-11.2c-1.3-1-3.1-2.4-3.2-3.6c-0.5-7.4-6.4-10.8-10.8-15.2
		c-11.8-12-23.8-23.8-35.7-35.7c-2.8-2.8-5.3-4.5-9.7-3.6c-5.3,1-10.1-0.7-14.1-4.8c-14.9-15.1-30-29.9-44.9-45
		c-7.7-7.8-7.9-15.5-0.8-22.3c6.4-6.1,14-5.7,21.4,1.6c13.8,13.6,27.4,27.3,41,41c1.5,1.5,3.4,2.7,4.3,4.5c1.9,4,4.9,8.4,4.5,12.3
		c-0.7,5.9,1.7,9.1,5.4,12.7c13.6,13.4,27,27,40.7,40.4c1.8,1.7,4.5,2.4,6.7,3.7c2.1,1.3,4.3,2.4,5.8,4.2c2.8,3.3,4.8,7.3,7.7,10.6
		C570.2,437.5,569.1,440.6,563.7,443.7z M439.9,305.5c0,0.2,0,0.5,0,0.7c17.5,17.4,34.9,34.9,53.4,53.4c-2.1-4.2-3-8-5.3-10.4
		c-12.6-13-25.3-25.8-38.3-38.3C447.1,308.4,443.2,307.3,439.9,305.5z M483.5,366.7c0-0.3,0-0.6,0.1-1
		c-17.1-17.1-34.2-34.1-51.2-51.2c0.9,3.2,2.1,7,4.6,9.5c12.4,12.8,25.1,25.5,37.9,37.9C477.1,364.2,480.6,365.2,483.5,366.7z"/>
	<path class="st0" d="M494.6,381.2c3.3,3.5,6.1,6.4,10.6,11.1c-3.2,2.3-6.3,4.1-8.8,6.5c-14.7,14.4-29.2,29-43.8,43.6
		c-7,7-15,6.5-22.8-1.3c-7.7-7.7-8.1-15.7-1-22.8c12.8-12.8,25.7-25.5,38.3-38.5c3.4-3.5,6.2-5.8,10.9-2c1.6,1.3,4.3,1.3,7.5,2.2
		c-1.6,1.8-2.9,3.3-4.2,4.6c-10,10-20,20-30,30c-0.9,0.9-2.2,1.6-2.6,2.7c-0.6,2.1-0.7,4.3-1,6.5c2-0.4,4.7-0.2,6-1.4
		c5.8-5.3,11.3-11,16.9-16.7C478.4,397.8,486.2,389.7,494.6,381.2z"/>
	<path class="st0" d="M439.9,305.5c3.3,1.8,7.1,2.9,9.7,5.4c13,12.5,25.8,25.3,38.3,38.3c2.3,2.4,3.3,6.2,5.3,10.4
		c-18.5-18.5-35.9-35.9-53.4-53.4C439.9,306,439.9,305.7,439.9,305.5z"/>
	<path class="st0" d="M483.5,366.7c-2.9-1.5-6.4-2.5-8.7-4.7c-12.8-12.4-25.5-25.1-37.9-37.9c-2.4-2.5-3.6-6.2-4.6-9.5
		c17.1,17.1,34.2,34.1,51.2,51.2C483.5,366.1,483.5,366.4,483.5,366.7z"/>
</g>
<g>
	<path class="st1" d="M682.5,153.2c7-12.2,14.2-24.9,21.4-37.6c7.2-12.6,7.6-25.9-6.2-32.4c-20.5-9.6-36.6-35.9-64.8-19.6
		c-2.9,1.7-4.5,5.7-6.5,8.8c-22.6,35.5-22.6,35.5-62.9,26.3c-2.2-0.5-4.3-0.8-6.5-1.1c-12.2-1.7-17.2-7.8-16.5-20.9
		c3.2-62.3-4.3-52.6-56.7-53.4c-0.7,0-1.5,0-2.2,0c-19.6-1.3-27.8,7.6-27.8,27.5c0,41.1-0.6,41.1-40.3,52.4
		c-0.7,0.2-1.5,0.2-2.1,0.5c-16.2,9.3-24.3,2.1-32.5-12.6c-23.3-41.8-25.5-41.9-67.4-17.2c-4.4,2.6-9,5.1-13.3,7.9
		c-12.5,8.3-15.4,19-7.9,32.3s15,26.7,19.8,35.4c-16.7,17.6-31.2,32.8-46.2,48.6c-9-5.1-19.3-10.8-29.6-16.6
		c-23.1-13-30.9-10.9-44.5,11.9c-28.2,47.4-28.5,47.9,18.6,75c12.2,7.1,13.9,13.9,10.1,26.4c-13,42.8-12.6,43.2-59.7,46.4
		c-15.5,1-23.3,8.3-22.9,23.5c1.2,50.1-12.4,70.5,55.9,63.9c12.3-1.2,16.8,4.9,18.9,16.1c2.8,15.1,13.4,32.4,8.9,44.1
		c-4.5,11.6-23.5,17.9-36.5,25.9c-13,8.1-17.3,20.4-9.2,31.9c12.7,17.9,13.7,47.6,44.6,48.7c2.6,0.1,5.4-2.2,8-3.5
		c13.7-7,28.8-21.3,40.6-19c13.3,2.6,23.6,20.3,35.5,31.2c3.2,3,7.3,5.1,10.6,7.3c-3,6.9-4.3,11.2-6.6,14.8
		c-34.5,53.8-25.2,50.9,26.3,81c1.3,0.7,2.5,1.6,3.9,2.1c17.6,7,30.1-2.2,30.4-21.2c0.6-31.4-5.7-60.7-13.8-91.4
		c-9.9-37.6-24.1-72.2-40.4-106.7c-22.3-47.1-38-94.9-29.7-148.9c18.8-122.7,139.4-207,259.5-179.5
		c126.6,29,199.2,154.1,160.6,275.8c-18.4,58-55.5,108.2-65.5,170.4c-3.5,21.6-10.6,42.9-9.2,65.4c0.7,10.6-1.3,25.7,4.7,30.8
		c24.9,21.3,40.5-7.6,59.8-15.2c13.6-5.3,20.4-16.9,12.5-32.3c-2-3.9-4.3-7.8-6.4-11.6c-5.7-10.1-11.3-20.3-17.3-31
		c5.2-4.7,9-8.1,12.7-11.7c10.5-10.3,20.1-27.6,31.7-29.1c12.6-1.6,27.5,10.8,40.7,18.2c14.6,8.2,27.2,5.3,33.3-8.8
		c8.6-20,35.7-35.3,18.1-62.8c-1.5-2.3-4.6-3.6-7-5.2c-12.6-8.6-31.8-14.7-36.1-26.3c-4.4-11.9,6.3-29.1,9.1-44.2
		c2.2-11.6,7.7-16.4,19.5-15.5c67.8,4.9,54.1-12.2,55.4-60.1c0-1.5,0-3,0-4.4c-0.3-15.4-8.3-22-23.6-22.9c-46.5-2.7-46-3.2-59.3-47
		c-4-13.2-0.6-19.4,10.9-26.1c46.1-26.6,45.9-27,18.8-73.4c-1.1-1.9-2.4-3.7-3.4-5.7c-9.2-17.9-22.5-19-38.6-9.8
		c-12,6.9-24.1,13.6-34.5,19.4C712.9,182.9,698.2,168.6,682.5,153.2z"/>
	<path class="st2" d="M682.5,153.2c15.8,15.4,30.4,29.7,46.7,45.6c10.4-5.8,22.5-12.5,34.5-19.4c16.1-9.3,29.4-8.1,38.6,9.8
		c1,2,2.3,3.8,3.4,5.7c27.1,46.4,27.4,46.8-18.8,73.4c-11.6,6.7-15,12.9-10.9,26.1c13.3,43.8,12.8,44.2,59.3,47
		c15.3,0.9,23.3,7.5,23.6,22.9c0,1.5,0.1,3,0,4.4c-1.3,47.8,12.4,64.9-55.4,60.1c-11.8-0.8-17.3,3.9-19.5,15.5
		c-2.8,15.1-13.6,32.3-9.1,44.2c4.3,11.6,23.5,17.7,36.1,26.3c2.4,1.6,5.5,2.9,7,5.2c17.6,27.4-9.4,42.8-18.1,62.8
		c-6.1,14.1-18.7,17.1-33.3,8.8c-13.2-7.5-28.1-19.9-40.7-18.2c-11.6,1.5-21.2,18.8-31.7,29.1c-3.7,3.6-7.5,6.9-12.7,11.7
		c6,10.7,11.6,20.8,17.3,31c2.2,3.9,4.4,7.7,6.4,11.6c8,15.4,1.1,27-12.5,32.3c-19.4,7.6-34.9,36.5-59.8,15.2
		c-6-5.1-4-20.2-4.7-30.8c-1.4-22.5,5.7-43.8,9.2-65.4c10.1-62.2,47.2-112.4,65.5-170.4c38.6-121.7-34-246.8-160.6-275.8
		c-120-27.5-240.7,56.9-259.5,179.5c-8.3,54,7.5,101.9,29.7,148.9c16.3,34.5,30.5,69.1,40.4,106.7c8.1,30.7,14.5,60,13.8,91.4
		c-0.4,19-12.9,28.2-30.4,21.2c-1.4-0.5-2.6-1.4-3.9-2.1c-51.5-30.1-60.8-27.1-26.3-81c2.3-3.6,3.6-7.9,6.6-14.8
		c-3.3-2.3-7.4-4.4-10.6-7.3c-11.8-10.9-22.1-28.6-35.5-31.2c-11.8-2.3-26.9,12-40.6,19c-2.6,1.3-5.4,3.6-8,3.5
		c-30.9-1.2-31.9-30.8-44.6-48.7c-8.1-11.5-3.9-23.8,9.2-31.9c13-8.1,32-14.3,36.5-25.9c4.6-11.8-6-29.1-8.9-44.1
		c-2.1-11.2-6.7-17.3-18.9-16.1c-68.3,6.6-54.7-13.8-55.9-63.9c-0.4-15.2,7.4-22.4,22.9-23.5c47.1-3.2,46.7-3.6,59.7-46.4
		c3.8-12.5,2.1-19.4-10.1-26.4c-47.1-27.2-46.8-27.7-18.6-75c13.6-22.8,21.4-24.9,44.5-11.9c10.3,5.8,20.6,11.5,29.6,16.6
		c15-15.8,29.5-31,46.2-48.6c-4.9-8.7-12.3-22-19.8-35.4c-7.4-13.3-4.6-24,7.9-32.3c4.3-2.8,8.9-5.3,13.3-7.9
		c41.9-24.7,44.1-24.6,67.4,17.2c8.2,14.7,16.4,22,32.5,12.6c0.6-0.4,1.4-0.3,2.1-0.5c39.7-11.3,40.3-11.3,40.3-52.4
		c0-19.9,8.1-28.8,27.8-27.5c0.7,0,1.5,0,2.2,0c52.4,0.8,59.9-8.9,56.7,53.4c-0.7,13.1,4.4,19.2,16.5,20.9c2.2,0.3,4.4,0.6,6.5,1.1
		c40.3,9.2,40.3,9.2,62.9-26.3c2-3.1,3.6-7.1,6.5-8.8c28.2-16.3,44.4,10,64.8,19.6c13.8,6.5,13.4,19.7,6.2,32.4
		C696.6,128.3,689.4,141,682.5,153.2z"/>
	<path class="st2" d="M496.8,609c-21.4,0-42.8,0.2-64.1-0.1c-17.5-0.3-32.3-9.1-33.5-26.1c-3.1-43.7-26.2-79.2-43.5-117.1
		c-14.2-30.9-25.6-62.1-25-97.3c1.3-82,64.3-151.3,149.5-162.2c78-10,159.7,46.7,178.9,123.9c11.3,45.2,2.8,87.5-16.9,128.4
		c-9.6,19.9-20,39.4-28.8,59.6c-6.2,14.1-14.4,29-14.7,43.6c-0.8,41.4-20.5,49.7-57.5,47.4C526.3,608.3,511.6,609,496.8,609z
		 M512.8,525h0.1c0,12.5,0.4,25.1-0.1,37.6c-0.5,11.4,3.1,19.7,15.7,18.2c13.9-1.7,32.2,9.4,40.4-11.6c15.4-39.5,31-78.9,45.3-118.8
		c8.4-23.3,19.7-47.2,21-71.2c3.2-59.1-24.1-104-77.2-130.3c-53.4-26.4-104.7-18.6-150.5,18.7c-43.4,35.3-59.8,92.6-42,145.4
		c8.2,24.3,21,46.9,30.3,70.9c10.6,27.2,20.5,54.8,29.1,82.7c7.5,24.3,26.4,12.4,40.5,14.3c14.1,1.9,16.6-7.8,16.4-19.7
		c-0.5-25.8-1.2-51.6,0.6-77.3c0.5-7.3,9.5-14,14.5-21c5.3,6.7,13.8,12.9,15.2,20.4C514.6,496.7,512.8,511,512.8,525z"/>
</g>
<path class="st0" d="M568.6,667.6c0,9.4,0,18.3,0,27.8c-50.1,0-100.1,0-150.5,0c0-9.2,0-18.2,0-27.8
	C468.1,667.6,517.9,667.6,568.6,667.6z"/>
<path class="st0" d="M418,651.5c0-9.3,0-18.1,0-27.6c50,0,100,0,150.4,0c0,9.1,0,18.1,0,27.6C518.5,651.5,468.7,651.5,418,651.5z"/>
<path class="st0" d="M543.1,720.1c-10.3,10.5-18.1,23.9-29.3,28.4c-12,4.8-28.7,4.6-40.9,0.1c-11.5-4.3-19.8-17.2-29.5-26.3
	c0.6-0.7,1.1-1.4,1.7-2.2C477,720.1,509.1,720.1,543.1,720.1z"/>
</svg>
