<?xml version="1.0" encoding="utf-8"?>
<!-- Generator: Adobe Illustrator 19.0.1, SVG Export Plug-In . SVG Version: 6.00 Build 0)  -->
<svg version="1.1" id="Layer_1" xmlns="http://www.w3.org/2000/svg" xmlns:xlink="http://www.w3.org/1999/xlink" x="0px" y="0px"
	 viewBox="94 -4 800 800" style="enable-background:new 94 -4 800 800;" xml:space="preserve">
<style type="text/css">
	.st0{fill:#F26222;}
	.st1{fill:#383838;}
</style>
<g>
	<path class="st0" d="M378,506.7c0-18.3,0-33.5,0-51.4c46.4,0,92.2,0,139.8,0c0-31,0-59.4,0-89.8c-59.6,0-119.9,0-183.4,0
		c0,23.8-0.8,47.5,0.3,71.1c0.8,16.7-4.8,24.5-22.2,23.8c-19.7-0.7-39.5-0.5-59.3-0.1c-14.1,0.3-20.6-4.5-20.4-20
		c0.8-52.7,0.7-105.4,0-158.1c-0.2-15.5,6.2-19.8,20.6-19.8c116.1,0.3,232.3,0.3,348.4,0c15.1,0,19.9,6,19.8,20.6
		c-0.5,84-0.1,168-0.6,252.1c0,6.2-3.8,16.2-7.9,17.5c-5.4,1.7-15.3-1.6-19.3-6.2c-30.5-35.2-69.5-43.1-113.7-40.1
		C446.7,508.5,413,506.7,378,506.7z"/>
	<path class="st1" d="M378.4,548.6c48.8,0,95.6-0.9,142.3,0.7c10.1,0.4,21.1,8.4,29.6,15.4c16.5,13.5,31.8,28.7,47.2,43.5
		c12.7,12.2,26,12.6,40.3,3.5c20.8-13.3,40.5-28.7,62.4-39.6c20.9-10.3,43.7-20.8,66.3-22.5c40.8-3.1,60,31,38.7,66.4
		c-31.7,52.8-80.2,86.3-136.4,108.8c-67.6,27.1-133.4,25.7-199.6-8.8c-26.6-13.9-58.3-17.8-90.9-27.2
		C378.4,646.8,378.4,599.6,378.4,548.6z"/>
	<path class="st1" d="M334.4,623.5c0,32.9-0.5,65.8,0.2,98.7c0.3,15.2-3.8,22.3-20.7,22c-52.6-0.8-105.3-0.8-157.9,0
		c-15.6,0.2-20-6.5-19.9-20.5c0.3-67.4,0.3-134.9,0-202.3c-0.1-15.9,6.4-21.7,22.2-21.5c51,0.6,102,0.8,153-0.1
		c18.8-0.3,24.1,7.3,23.5,25C333.7,557.7,334.5,590.6,334.4,623.5z"/>
	<path class="st0" d="M694.3,123.9c-21.2-16.5-37.9-29.5-54.6-42.5c1-2.5,2-5.1,3-7.6c14.2,0,28.4,0,42.6,0
		c36.1,0,72.3-0.7,108.4,0.7c6.8,0.3,18.8,9.1,19,14.3c1.6,43.5,1.1,87,1,130.6c0,7.2-0.7,14.5-1.6,29.9
		c-20.3-19.2-36.1-34.3-58.1-55.1c-28.6,31.6-56.4,62.2-84.1,92.8c-1.8-1-3.6-2-5.4-3c0-19.2,0-38.4,0-61.6c-23,0-43.6,0-66,0
		C630.1,189.8,658.9,160.2,694.3,123.9z"/>
</g>
</svg>
