<?xml version="1.0" encoding="utf-8"?>
<!-- Generator: Adobe Illustrator 19.0.1, SVG Export Plug-In . SVG Version: 6.00 Build 0)  -->
<svg version="1.1" xmlns="http://www.w3.org/2000/svg" xmlns:xlink="http://www.w3.org/1999/xlink" x="0px" y="0px"
	 viewBox="0 0 800 800" style="enable-background:new 0 0 800 800;" xml:space="preserve">
<style type="text/css">
	.st0{display:none;}
	.st1{display:inline;fill:#FFFFFF;}
	.st2{display:inline;fill:#3F3F3F;}
	.st3{display:inline;fill:#F26222;}
	.st4{display:inline;}
	.st5{fill:#3F3F3F;}
	.st6{fill:#F26222;}
</style>
<g id="Layer_1" class="st0">
	<g>
		<path class="st1" d="M370.1,685.9c1.1,0.4,2.1,1,3.2,1.3c16.5,4.6,33.3,7.2,50.3,7.2c67,0.1,123.3-23.1,164.2-77.7
			c52.7-70.3,65.9-176,11.8-265.5C551.9,271.9,460,229.4,369.8,248.4c-83.6,17.6-138.6,69.5-168.5,148.9c-1.8,4.7-2.9,9.6-4.3,14.4
			c20.3-49.4,53.1-87.6,101.2-111.3c48.1-23.7,98.4-27.3,149.6-11.1c91.2,28.8,153.8,120.5,138.4,224.9
			c-6.7,45.4-27.1,84.4-60.3,116.1C482.2,671.9,429.8,689.2,370.1,685.9z M475.8,436.2c-0.2-0.9-0.4-1.8-0.6-2.7
			c-4.8,0.4-9.8,0.1-14.4,1.3c-52.5,14.2-105.7,23.6-160.1,24.5c-33.1,0.5-65.9-2-98.2-10c-8.5-2.1-15.9-5.7-21.8-12.3
			c-1.5-1.7-4.5-2.8-6.9-2.9c-10.5-0.3-21-0.1-31.5-0.1c-9.3,0-11.1,2.1-8.7,11.3c0.7,2.7,1.8,5.7,3.6,7.5
			c4.6,4.5,9.2,9.2,14.7,12.5c12.1,7.3,25.8,10.6,39.6,13.2c33.5,6.3,67.3,6.3,101.1,4.3c49.9-2.9,98.5-12.3,145.2-30.4
			C450.7,447.6,463.2,441.7,475.8,436.2z M442.6,525.2c0-0.6,0-1.2,0-1.8c-2.1-0.1-4.4-0.8-6.3-0.2c-40.5,11.4-81.6,19.3-123.7,21.5
			c-33.1,1.7-65.9,0-98.2-8.1c-6.9-1.7-12.6-5.1-17.2-10.4c-1-1.1-2.6-2.3-4-2.4c-10.2-0.1-20.3,0.1-30.5,0.1
			c-3.5,0-4.6,1.7-4.6,4.9c-0.2,6.8,2.9,12.2,8,15.9c5.3,3.9,11.2,7.3,17.3,9.8c15.9,6.4,32.8,8.8,49.7,9.9
			c53.3,3.5,105.7-2,156.9-17.8C408.2,541.1,425.7,533.9,442.6,525.2z M440.1,597.7c-7.5,2.1-14.9,4.2-22.4,6.1
			c-43.3,10.9-87,16.6-131.6,9.3c-10-1.6-20.8-2.1-28-11.3c-0.6-0.7-2.1-1-3.1-1c-6.7,0-13.3,0.2-20,0c-3.1-0.1-4.1,1.4-3.6,3.9
			c0.5,2.4,0.9,5.5,2.5,6.8c4.9,4.1,10,8.5,15.7,10.9c16.2,6.7,33.7,7.6,50.9,8c22,0.5,43.8-1.6,65.4-5.8
			C392.1,619.5,417,611.1,440.1,597.7z M667.1,247c-1.1,0.5-3.7,1.2-5.9,2.6c-19.3,12.1-38.6,24.4-57.8,36.6
			c-6.5,4.1-8.2,10.8-4.4,16.7c3.6,5.6,10.1,6.7,16.6,2.6c8.7-5.5,17.4-11.1,26.1-16.6c10.8-6.9,21.7-13.7,32.4-20.7
			c4.9-3.2,6.5-8.2,4.8-13.5C677.6,250.1,673.5,247.1,667.1,247z M206.5,296.4c-3-3.8-4.9-7.8-8-9.9c-19.2-12.6-38.6-24.9-58.1-37.1
			c-1.8-1.1-3.9-2-6-2.3c-5-0.7-9.6,2.4-11.4,7.2c-2,5.3-0.4,10.7,4.6,14c11.7,7.6,23.6,15,35.4,22.5c8.2,5.2,16.3,10.3,24.5,15.4
			c3.9,2.4,8.2,2.8,11.7-0.1C202,303.8,203.7,300.3,206.5,296.4z M249.1,142.9c-9.6,0.2-14.7,8.6-11,16.7
			c9.9,21.5,20,42.8,30.1,64.2c3.1,6.5,9,8.8,14.8,6.3c5.9-2.6,8.5-9.1,5.6-15.5c-10-21.8-20.2-43.4-30.4-65.1
			C256.1,145.1,252.6,143,249.1,142.9z M520.7,231c3.8-0.1,7.3-2.4,9.4-7c3.8-8.1,7.6-16.2,11.4-24.4c6.2-13.2,12.5-26.4,18.5-39.7
			c3.1-6.7,0.8-13.3-5.3-16.1c-5.9-2.7-11.8-0.2-15.1,6.5c-2.4,4.9-4.7,9.9-7,14.9c-7.5,16.1-15.1,32.2-22.6,48.3
			C506.1,222.3,510.9,230.9,520.7,231z M413,155.4C413,155.4,413,155.4,413,155.4c0-11.8,0-23.7,0-35.5c0-7.6-4.5-12.7-11.1-12.7
			c-6.6,0-11.1,5-11.1,12.7c0,23.3,0,46.7,0,70c0,7.6,4.6,12.8,11.1,12.8c6.6-0.1,11.1-5.1,11.1-12.7C413,178.4,413,166.9,413,155.4
			z"/>
		<path class="st2" d="M370.1,685.9c59.7,3.3,112.1-13.9,155.6-55.5c33.2-31.7,53.6-70.7,60.3-116.1
			c15.5-104.4-47.2-196.1-138.4-224.9c-51.2-16.2-101.5-12.6-149.6,11.1c-48,23.7-80.8,61.8-101.2,111.3c1.4-4.8,2.6-9.7,4.3-14.4
			c29.9-79.4,84.9-131.3,168.5-148.9c90.1-18.9,182.1,23.5,229.9,102.8c54,89.5,40.8,195.2-11.8,265.5
			c-40.9,54.6-97.2,77.8-164.2,77.7c-17.1,0-33.9-2.6-50.3-7.2C372.2,686.9,371.2,686.3,370.1,685.9z"/>
		<path class="st3" d="M475.8,436.2c-12.6,5.5-25.1,11.4-37.9,16.4c-46.7,18.1-95.3,27.4-145.2,30.4c-33.8,2-67.6,1.9-101.1-4.3
			c-13.8-2.6-27.5-5.9-39.6-13.2c-5.4-3.3-10.1-8-14.7-12.5c-1.9-1.9-3-4.9-3.6-7.5c-2.3-9.2-0.6-11.3,8.7-11.3
			c10.5,0,21-0.2,31.5,0.1c2.4,0.1,5.4,1.2,6.9,2.9c6,6.6,13.3,10.2,21.8,12.3c32.3,7.9,65.1,10.5,98.2,10
			c54.5-0.9,107.7-10.3,160.1-24.5c4.6-1.2,9.6-0.9,14.4-1.3C475.4,434.4,475.6,435.3,475.8,436.2z"/>
		<path class="st3" d="M442.6,525.2c-16.9,8.7-34.4,15.9-52.5,21.5c-51.2,15.9-103.5,21.3-156.9,17.8c-17-1.1-33.8-3.5-49.7-9.9
			c-6.1-2.5-11.9-5.9-17.3-9.8c-5.1-3.7-8.2-9.1-8-15.9c0.1-3.2,1.1-4.9,4.6-4.9c10.2,0,20.3-0.2,30.5-0.1c1.3,0,3,1.2,4,2.4
			c4.7,5.3,10.3,8.7,17.2,10.4c32.3,8,65.1,9.8,98.2,8.1c42.1-2.2,83.2-10.1,123.7-21.5c1.9-0.5,4.2,0.1,6.3,0.2
			C442.6,524,442.6,524.6,442.6,525.2z"/>
		<path class="st3" d="M440.1,597.7c-23.1,13.4-48,21.9-74.1,26.9c-21.6,4.2-43.5,6.3-65.4,5.8c-17.3-0.4-34.7-1.2-50.9-8
			c-5.8-2.4-10.8-6.8-15.7-10.9c-1.6-1.3-2-4.4-2.5-6.8c-0.5-2.5,0.5-4,3.6-3.9c6.7,0.2,13.3-0.1,20,0c1.1,0,2.6,0.3,3.1,1
			c7.1,9.2,17.9,9.7,28,11.3c44.6,7.2,88.3,1.5,131.6-9.3C425.2,601.9,432.6,599.7,440.1,597.7z"/>
		<path class="st3" d="M667.1,247c6.4,0.1,10.4,3.1,12,7.8c1.7,5.2,0.1,10.3-4.8,13.5c-10.7,7-21.6,13.8-32.4,20.7
			c-8.7,5.5-17.4,11.1-26.1,16.6c-6.5,4.1-13.1,3-16.6-2.6c-3.8-5.9-2.1-12.6,4.4-16.7c19.2-12.3,38.5-24.5,57.8-36.6
			C663.4,248.2,666,247.5,667.1,247z"/>
		<path class="st3" d="M206.5,296.4c-2.8,3.9-4.4,7.4-7.1,9.7c-3.5,2.9-7.8,2.5-11.7,0.1c-8.2-5.1-16.4-10.3-24.5-15.4
			c-11.8-7.5-23.7-14.9-35.4-22.5c-5-3.3-6.6-8.6-4.6-14c1.8-4.7,6.4-7.8,11.4-7.2c2.1,0.3,4.2,1.2,6,2.3
			c19.4,12.3,38.9,24.5,58.1,37.1C201.6,288.6,203.5,292.6,206.5,296.4z"/>
		<path class="st3" d="M249.1,142.9c3.5,0,7,2.2,9,6.5c10.2,21.7,20.4,43.4,30.4,65.1c2.9,6.3,0.3,12.9-5.6,15.5
			c-5.8,2.5-11.7,0.2-14.8-6.3c-10.1-21.4-20.2-42.7-30.1-64.2C234.4,151.5,239.5,143.1,249.1,142.9z"/>
		<path class="st3" d="M520.7,231c-9.8-0.1-14.6-8.8-10.5-17.5c7.5-16.1,15-32.2,22.6-48.3c2.3-5,4.6-10,7-14.9
			c3.2-6.7,9.2-9.2,15.1-6.5c6,2.7,8.3,9.3,5.3,16.1c-6.1,13.3-12.3,26.5-18.5,39.7c-3.8,8.1-7.7,16.2-11.4,24.4
			C528,228.6,524.5,230.9,520.7,231z"/>
		<path class="st3" d="M413,155.4c0,11.5,0,23,0,34.5c0,7.6-4.5,12.7-11.1,12.7c-6.4,0.1-11-5.1-11.1-12.8c-0.1-23.3-0.1-46.7,0-70
			c0-7.7,4.5-12.7,11.1-12.7c6.6,0,11.1,5.1,11.1,12.7C413,131.7,413,143.6,413,155.4C413,155.4,413,155.4,413,155.4z"/>
	</g>
	<g class="st4">
		<path class="st5" d="M588.8,375.6c0.5,30.9-9.3,58.8-24.7,85c-10,17-20.9,33.5-31.4,50.1c-15.2,24-28.3,48.8-34.7,76.7
			c-1.5,6.5-6.5,10.3-13.9,11c-40.4,3.5-80.8,7-121.2,10.2c-16,1.3-26.6-6.6-29.3-22.8c-4.6-27.6-16.3-51.9-31.2-75.1
			c-12.5-19.3-26-38-37.4-57.9c-36.7-63.8-27.6-125.3,13.4-183.2c27.2-38.4,65.3-61.8,112.2-68.8c54.6-8.1,102.2,7.9,142.1,45.5
			C569.4,281.3,587.8,324.8,588.8,375.6z"/>
		<path class="st6" d="M374.8,736.2c-5.3,0.5-10.4,1.2-15.4,1.5c-9.2,0.6-14.6-4.5-15.5-14.2c-1-10.6,2.9-16.4,12.3-17.4
			c30.7-3.3,61.5-6.4,92.3-9.6c9.2-0.9,18.4-1.8,27.5-2.8c9.1-1,15,3.7,16.4,13.2c1.5,10.5-2.5,17-11.7,18.6c-3.2,0.5-6.5,0.7-9.7,1
			c-3,0.3-6.1,0.6-9.6,1c-0.2,1.7-0.4,3.2-0.4,4.7c-0.2,12.6-6.9,20.3-19.3,20.7c-15.5,0.5-31.1,0.4-46.7,0
			C384.8,752.6,378.8,747.4,374.8,736.2z"/>
		<path class="st6" d="M343.8,677.5c-0.1-8.3,4.5-13.4,13.6-14.4c18.9-2,37.8-3.8,56.6-5.8c20-2,40-3.7,59.9-6.3
			c16.2-2.1,20.5,10,18.4,21.7c-1.1,5.8-5.5,9.2-11.5,9.8c-16.5,1.8-33.1,3.5-49.6,5.2c-22.5,2.3-45,4.4-67.4,6.8
			C349.7,696.1,344,691.3,343.8,677.5z"/>
		<path class="st6" d="M343.8,635.5c-0.3-8.6,4.4-14.1,13-15c39.1-4,78.2-7.8,117.2-12.1c17-1.8,19.6,10.2,18.5,20.9
			c-0.7,5.9-5.6,10-12,10.7c-20,2.2-40,4.2-59.9,6.3c-19.3,2-38.5,3.9-57.8,5.7C349.5,653.3,344.2,648.6,343.8,635.5z"/>
	</g>
	<path class="st3" d="M701.3,198.8c6.9,0.1,11.3,3.4,13,8.5c1.9,5.7,0.1,11.2-5.2,14.6c-11.7,7.6-23.5,15-35.3,22.5
		c-9.5,6-18.9,12.1-28.4,18c-7.1,4.5-14.2,3.3-18.1-2.8c-4.1-6.5-2.3-13.7,4.8-18.2c20.9-13.3,41.8-26.6,62.8-39.8
		C697.3,200.1,700,199.3,701.3,198.8z"/>
	<path class="st3" d="M200.6,252.5c-3,4.2-4.8,8-7.8,10.5c-3.8,3.2-8.5,2.7-12.7,0.1c-8.9-5.6-17.8-11.2-26.7-16.8
		c-12.8-8.1-25.7-16.2-38.5-24.5c-5.5-3.5-7.2-9.4-5-15.2c1.9-5.1,7-8.5,12.3-7.8c2.2,0.3,4.5,1.3,6.5,2.5
		c21.1,13.3,42.3,26.6,63.1,40.4C195.3,244,197.3,248.4,200.6,252.5z"/>
	<path class="st3" d="M246.9,85.7c3.8,0,7.6,2.4,9.8,7.1c11.1,23.6,22.2,47.1,33,70.8c3.2,6.9,0.4,14-6,16.8
		c-6.3,2.8-12.7,0.2-16.1-6.8c-11-23.2-21.9-46.4-32.7-69.8C231,95.1,236.5,85.9,246.9,85.7z"/>
	<path class="st3" d="M542.1,181.4c-10.7-0.1-15.8-9.5-11.5-19c8.1-17.5,16.4-35,24.5-52.5c2.5-5.4,5-10.8,7.6-16.2
		c3.5-7.2,10-10,16.4-7.1c6.5,3,9.1,10.2,5.7,17.5c-6.6,14.4-13.4,28.8-20.2,43.2c-4.1,8.8-8.3,17.6-12.4,26.5
		C550,178.8,546.3,181.3,542.1,181.4z"/>
	<path class="st3" d="M425.1,99.2c0,12.5,0,25,0,37.5c0,8.3-4.9,13.8-12.1,13.9c-7,0.1-12-5.6-12-13.9c-0.1-25.4-0.1-50.7,0-76.1
		c0-8.4,4.9-13.8,12-13.8c7.2,0,12.1,5.5,12.1,13.8C425.1,73.5,425.1,86.4,425.1,99.2C425.1,99.2,425.1,99.2,425.1,99.2z"/>
</g>
<g id="Layer_2" class="st0">
	<g class="st4">
		<path d="M576.9,311.4c0.5,33.4-10.1,63.7-26.7,92c-10.8,18.4-22.6,36.2-34,54.2c-16.4,25.9-30.6,52.8-37.5,83.1
			c-1.6,7.1-7.1,11.2-15.1,11.9c-43.7,3.8-87.4,7.6-131.2,11.1c-17.3,1.4-28.8-7.1-31.7-24.7c-4.9-29.9-17.6-56.2-33.8-81.3
			c-13.5-20.9-28.1-41.1-40.5-62.7c-39.7-69.1-29.9-135.7,14.5-198.3c29.4-41.6,70.6-66.9,121.4-74.4c59.1-8.8,110.6,8.5,153.8,49.3
			C556,209.3,575.8,256.4,576.9,311.4z"/>
		<path d="M345.3,701.7c-5.8,0.6-11.2,1.3-16.7,1.6c-9.9,0.6-15.8-4.9-16.7-15.4c-1-11.4,3.2-17.8,13.3-18.9
			c33.3-3.6,66.6-6.9,99.9-10.4c9.9-1,19.9-2,29.8-3.1c9.9-1.1,16.2,4,17.7,14.3c1.6,11.4-2.7,18.4-12.7,20.1
			c-3.5,0.6-7,0.7-10.5,1.1c-3.3,0.3-6.6,0.7-10.4,1.1c-0.2,1.8-0.4,3.5-0.5,5.1c-0.2,13.7-7.4,22-20.9,22.4
			c-16.8,0.5-33.7,0.4-50.5,0C356.1,719.4,349.7,713.8,345.3,701.7z"/>
		<path d="M311.7,638.2c-0.1-9,4.8-14.5,14.7-15.6c20.4-2.2,40.9-4.2,61.3-6.2c21.6-2.2,43.3-4,64.8-6.8
			c17.6-2.3,22.2,10.8,19.9,23.5c-1.2,6.3-5.9,10-12.5,10.7c-17.9,1.9-35.8,3.8-53.7,5.6c-24.3,2.5-48.7,4.8-73,7.4
			C318.2,658.3,312,653.1,311.7,638.2z"/>
		<path d="M311.7,592.7c-0.4-11.5,7.4-17.9,21.5-16c36.3,4.8,73.1,0.9,107.9-10.6c28.7-9.5,33.1,6.3,31.6,19.9
			c-0.7,6.4-6,10.8-13,11.6c-21.6,2.3-43.3,4.6-64.9,6.8c-20.9,2.1-41.7,4.2-62.6,6.2C317.9,612,312.2,606.9,311.7,592.7z"/>
	</g>
</g>
<g id="Layer_4" class="st0">
	<g class="st4">
		<path class="st6" d="M398.6,516c-69,0-137.2-5.9-204-24.6c-18.8-5.3-23.9-15.1-25.8-34.2c-3.5-35,11.5-55.5,41.3-69
			c23.9-10.9,48.3-21,71.2-33.7c17.5-9.7,33.8-22.2,49.2-35.2c4.5-3.8,7.6-14.7,5.5-20c-5.9-14.7-13.7-29-22.8-42
			c-14.4-20.6-22.5-41-15.3-67c4-14.5,1.1-30.8,2.7-46.2c6.8-62.6,78.6-103,136-76.9c5.4,2.5,11,4.7,16.8,6.1
			c24.5,6.2,35.5,18,38.6,42.7c3.7,29.5,7.7,59.1,10.6,88.7c2,20.9-7.8,37.7-19.7,54.2c-8.9,12.4-15.9,26.4-21.5,40.6
			c-2,5,0.7,15.2,4.8,18.7c15.4,13,31.4,25.8,48.9,35.6c28.6,15.9,59.3,28.2,87.9,44.2c23.5,13.2,35.1,55,22.5,78.6
			c-3.5,6.6-13.4,11.4-21.4,13.8c-58.8,18-119.3,23.8-180.5,25.5C415.4,516.2,407,516,398.6,516z"/>
		<path class="st5" d="M646.8,441.1c2.1-37.1-17.1-55.8-42.4-69.6c-24.1-13.1-48.9-24.9-74.9-38c6-4.6,11.5-8.6,16.8-12.8
			c21.3-17.1,25.7-24.9,8.1-43.8c-27-28.9-17.2-60.8-13.7-91.3c4.1-35.7,49.2-58.8,83.2-46.6c7.3,2.6,14.8,4.7,21.9,7.7
			c4.2,1.8,8.7,4.3,11.7,7.7c13.8,15.5,15.5,94.1,3.8,111.3c-27.7,40.9-22.7,39.8,14.5,63.7c17.9,11.5,38.9,18.2,57.8,28.3
			c21.7,11.6,28.8,29.7,21.7,52.6c-1.2,3.9-5.5,8.7-9.1,9.6C714,427.2,681.5,433.8,646.8,441.1z"/>
		<path class="st5" d="M268.2,332.3c-32.5,16.4-63.2,30.9-93,47.2c-21.5,11.7-36,29.5-35.1,60.3c-30.6-6.7-59.8-11.9-88.2-19.9
			c-15.6-4.4-16-42.8,0.2-53.7c17.2-11.6,36.7-19.7,55.1-29.5c9.5-5,19.5-9.4,28.1-15.6c22.3-16.3,24.7-27,6.6-48.4
			c-27.3-32.2-17.5-67.4-6.5-99.6c11.4-33.5,50.2-42.6,84.4-32.3c26.6,8,36.8,22.7,37.5,48.5c0.4,14.8,4.3,29.5,4.7,44.3
			c0.2,7.9-3.2,16.1-5.9,23.9c-1.3,3.8-4.5,7-7,10.4c-21.5,28.4-20.4,36.7,7.7,57.2C260.1,327.4,263.7,329.4,268.2,332.3z"/>
		<path class="st6" d="M398.2,660.8c9.5,26.9,26,40.1,55.1,38.6c-20.6,17.8-31.6,36.9-19.6,64.8c-23.7-15.9-45.9-17.6-69.2,0.6
			c8.5-26.7,4.7-47.7-20.6-63.5C370.2,698.3,391.8,691.1,398.2,660.8z"/>
		<path class="st6" d="M659.4,625.6c7.1-27.2,0.9-47.6-23.9-63.1c28.9,0.1,47.6-11.7,55.7-40.3c9.5,26.7,25.4,41.6,55.5,38.8
			c-19.7,17.4-34.4,35.7-20.9,65.2C702,610.9,681.9,608.7,659.4,625.6z"/>
		<path class="st6" d="M139,647.5c-22.6-16.9-43.3-15.5-63.8,0.4c-5-40.2-5-40.2-24-66c27.7,1.7,46.6-9,54.5-38.1
			c9.9,25.9,25.2,41.8,55.5,38.7C140.3,599.6,130.2,619.5,139,647.5z"/>
		<path class="st6" d="M298.6,648.8c-26.5,16.6-33.2,36.7-22.8,64c-23.5-15.5-45.6-19.1-68.9,0.9c7.7-26.9,4.5-48.7-21.1-64.9
			c27.3-1.1,46.5-11.3,53.6-40.9c8.7,13.7,13,26.2,21.7,32.5C269.4,646.3,282.4,645.6,298.6,648.8z"/>
		<path class="st6" d="M556.8,610.4c9.6,26.1,26.2,38.3,58.7,35.2c-23.9,20-37.5,39.1-23.1,67.9c-24.5-16.8-46.7-19.5-70.2,0.7
			c10.1-28.4,2.7-48.9-20.1-66.1C529.8,648.6,547.7,637.2,556.8,610.4z"/>
	</g>
</g>
<g id="Layer_5">
	<g>
		<path class="st5" d="M256.9,250.3c30.8,30.5,64.6,64.1,99.4,98.6c-6.7,7.3-12.3,13.3-18.7,20.2c-31.8-31.9-62.8-62.6-93.3-93.8
			c-6.7-6.9-11.6-8.8-21.3-4.3c-31.3,14.5-67.7,6-89-19.2c-21.5-25.4-24.4-61.2-7.1-89.8c17.3-28.7,51.2-42.2,84.6-33.9
			c31.3,7.8,55.7,36.2,56,70.1C267.6,214.3,261.2,230.5,256.9,250.3z"/>
		<path class="st5" d="M443.2,474.7c7.2-6.7,12.9-12,19.1-17.8c33.4,33.5,66.3,66.5,99.6,99.8c19.9-11.3,38.9-17.3,60.2-13.2
			c44.2,8.6,71.3,51.4,59.7,95.1c-11,41.3-55.6,65.3-97,52.2c-42.1-13.4-64.4-59.4-47-100.1c5.4-12.6,3.1-19.1-5.9-27.8
			C502.4,534.4,473.7,505.1,443.2,474.7z"/>
		<path class="st5" d="M238.4,556.8c33.7-34.3,67.2-68.3,100.5-102.3c6.5,6.8,12.2,12.8,18.5,19.4c-30.9,30.8-62,62.1-93.5,93
			c-6,5.9-7.8,10.3-3.9,18.7c16.4,35.7,5.3,75.3-25.9,96c-31,20.6-72.4,15.9-98-11c-25-26.4-27.7-67.6-6.3-97.2
			c22.1-30.6,61.7-39.8,97.1-22.6C229.9,552.3,232.7,553.8,238.4,556.8z"/>
		<path class="st6" d="M414.6,191.7c0,47,0,93.7,0,142.3c-8.3,0.5-15.8,0.9-24.9,1.4c-0.4-7.2-1-12.8-1.1-18.3
			c-0.1-35.8-0.5-71.5,0.2-107.3c0.2-12.4-2.2-19.1-15.8-23.5c-33.1-10.7-53.5-46-48.8-79.4c5.3-37.3,33.6-64.4,70.4-67.5
			c34.1-2.8,66.7,19.2,77.7,52.4c12.7,38.5-6.3,79.5-43.8,94.7C424.1,188.2,419.7,189.8,414.6,191.7z"/>
		<path class="st5" d="M182.6,399.1c47.4,0,95.1,0,143.7,0c0,8.5,0,15.7,0,25c-5.3,0-10.9,0-16.5,0c-38.9,0-77.8,0.3-116.6-0.2
			c-8.7-0.1-12.7,2.5-15.9,10.9c-13.2,35.6-46.4,55.9-81.2,50.8c-36.6-5.3-63.8-33.7-67.5-70.7c-3.3-32.3,22-68.4,54.7-78.1
			c35.9-10.6,74.3,5.8,90.4,39C177,383,179.3,390.5,182.6,399.1z"/>
		<path class="st5" d="M414.6,487c0,42.7,0.4,84.8-0.2,126.9c-0.2,11,2.8,16.2,13.9,20.2c34.7,12.5,53.3,49,46.2,86.8
			c-6.4,34.2-39.4,60.6-75.1,60.2c-37.2-0.5-67.8-27-74.7-64.6c-6.3-34.4,14.3-71.6,48.5-82.7c13.7-4.5,15.9-11.3,15.7-23.6
			c-0.6-35.3-0.2-70.5-0.2-105.8C388.6,482.7,390,481.7,414.6,487z"/>
		<path class="st5" d="M478.3,424.1c0-9.3,0-16.3,0-25.2c9.9,0,18.7,0,27.5,0c25.8,0,51.6-0.8,77.3,0.2c21.1,0.8,36.2,0.4,46-25.6
			c12.6-33.6,53.3-47,87.9-36.4c32.8,10,55.7,42.8,53.7,76.9c-2.3,37.2-28.7,65.9-66,71.6c-33.9,5.2-68.6-14.3-80.6-47.1
			c-4.2-11.5-9.6-14.8-21.4-14.6C561.8,424.6,520.8,424.1,478.3,424.1z"/>
		<path class="st5" d="M470.8,360.5c-6-7.1-10.5-12.5-16.3-19.3c7.5-6.4,14.3-12,21-17.7c19.7-16.6,38.9-33.8,59.3-49.6
			c16.7-13,28-23,18.7-49.2c-12-33.8,10.5-70.3,43.8-84.5c31.6-13.5,70.2-3.2,90.6,24.3c22.2,29.9,20.5,68.9-4.3,97.3
			c-22.6,25.8-61.6,33.3-92,15.9c-10.7-6.1-16.9-5.2-25.8,2.6C534.9,307.1,503.3,333.1,470.8,360.5z"/>
	</g>
</g>
<g id="Layer_3">
</g>
</svg>
