<?xml version="1.0" encoding="utf-8"?>
<!-- Generator: Adobe Illustrator 19.0.1, SVG Export Plug-In . SVG Version: 6.00 Build 0)  -->
<svg version="1.1" id="Layer_1" xmlns="http://www.w3.org/2000/svg" xmlns:xlink="http://www.w3.org/1999/xlink" x="0px" y="0px"
	 viewBox="94 -4 800 800" style="enable-background:new 94 -4 800 800;" xml:space="preserve">
<style type="text/css">
	.st0{fill:#FFFFFF;}
</style>
<g>
	<path class="st0" d="M493.8,584.1c18,0,36,0,54.1,0c16.5,0,23.3-6.6,23.1-23.2c-0.2-13.1,2.8-25.3,9.5-36.5
		c6.9-11.7,14.7-22.9,21.5-34.7c10.3-17.6,21.6-34.8,29.7-53.4c17.6-40.6,17.8-81.9-0.2-122.7c-27.1-61.3-93-98.9-161.6-87.1
		c-55.4,9.6-94.4,41-115.7,92.8c-18.1,43.9-14,87.6,7.8,129.1c12,22.9,26.6,44.4,40.2,66.4c9.2,14.8,15.4,30.3,14.8,48.3
		c-0.4,13.9,7.2,20.9,21.3,20.9C456.9,584.2,475.4,584.1,493.8,584.1z M494.1,610.7c-18.7,0-37.3-0.1-56,0
		c-12.6,0.1-21.2,7.2-21.6,18.3c-0.4,13.6-0.4,27.2,0,40.8c0.3,10.4,8.2,17.8,18.8,18.2c2.6,0.1,5.3,0.4,7.9,0
		c5.4-0.8,8.6,1.4,12,5.7c19.5,25.3,56.9,26.2,76.4,1.5c4.6-5.8,9-8.2,15.9-7.2c0.6,0.1,1.3,0,2,0c15-0.1,22.3-7.3,22.3-22.1
		c0-10.8,0-21.5,0-32.3c0-15.7-7.3-23-23-23.1C530.6,610.7,512.3,610.7,494.1,610.7z M354.4,208.3c-1.4-3-3.1-9.8-7.3-14.2
		c-18-18.9-36.4-37.5-55.3-55.5c-11.7-11.2-27.1-10-37.4,1.3c-8.8,9.7-8.5,24.8,1.6,35.2c17.6,18.1,35.6,35.8,53.5,53.6
		c1.4,1.4,3.1,2.5,4.7,3.6c8.6,5.8,17.6,6.4,26.7,1.5C349.5,229.1,353.8,221.6,354.4,208.3z M714.2,131.1
		c-6.8-0.3-13.1,2.5-18.3,7.6c-18.1,17.9-36.2,35.9-54,54.1c-7.6,7.8-10.4,17.4-6.2,27.9c6.9,17.2,27.5,22.3,41.2,9.4
		c19.1-17.9,37.1-36.8,55.6-55.3c0.9-0.9,1.6-2.1,2.4-3.2c5.9-8.2,6.8-16.9,2.6-26C732.9,136.1,725.2,131.6,714.2,131.1z
		 M273.4,622.6c7.5,0.2,13.8-2.6,18.9-7.8c17.9-17.8,35.9-35.6,53.6-53.6c7.8-8,10.8-17.7,6.3-28.4c-7.5-18.1-28.7-21.6-43.3-7.2
		c-17.4,17.1-34.5,34.4-51.7,51.7c-1.4,1.4-2.6,3-3.8,4.6c-6.2,8.3-7.1,17.2-2.6,26.6C255.4,617.8,263.1,622.3,273.4,622.6z
		 M739.8,597.9c0.6-0.3,1.1-0.6,1.7-0.9c-2.9-5.9-4.6-13-8.9-17.5c-17.8-18.8-36.1-37.2-54.8-55.1c-11.8-11.3-27.6-10.1-37.9,1.6
		c-9,10.3-7.9,25,3.1,36.1c17,17.2,34.1,34.2,51.2,51.3c1.7,1.7,3.6,3.2,5.6,4.6c8.3,5.8,17,6.4,26,2
		C735,615.5,739.3,607.9,739.8,597.9z"/>
	<path class="st0" d="M498,39.1c3.2,1.4,6.5,2.5,9.5,4.4c7.5,4.8,12,11.9,12,20.8c0.2,27.2,0.5,54.4-0.5,81.6
		c-0.5,13.5-11.5,22.3-24.6,22.5c-13.2,0.1-23.4-8.6-25.4-21.8c-0.5-3.2-0.8-6.5-0.8-9.8c-0.1-20.9,0.5-41.7-0.2-62.6
		c-0.5-17.1,4.8-29.6,22.1-35C492.7,39.1,495.4,39.1,498,39.1z"/>
	<path class="st0" d="M156.3,372.9c1.4-3.2,2.5-6.6,4.4-9.5c4.8-7.5,11.9-12,20.8-12c27.6-0.1,55.3-0.3,82.9,0.6
		c12.5,0.4,21.1,12.1,21.2,25.1c0,12.4-8.8,23.1-21.2,24.6c-8.2,1-16.6,0.9-24.9,1c-16,0.1-32.1-0.5-48.1,0.2
		c-17.1,0.7-29.6-4.8-35-22C156.3,378.2,156.3,375.5,156.3,372.9z"/>
	<path class="st0" d="M831.8,380.8c-1.4,3.2-2.5,6.6-4.4,9.5c-4.8,7.5-11.9,12-20.8,12c-27.6,0.1-55.3,0.3-82.9-0.6
		c-12.5-0.4-21.1-12.1-21.2-25.1c0-12.4,8.8-23.1,21.2-24.6c8.2-1,16.6-0.9,24.9-1c16-0.1,32.1,0.5,48.1-0.2
		c17.1-0.7,29.6,4.8,35,22C831.8,375.5,831.8,378.2,831.8,380.8z"/>
	<path class="st0" d="M493.8,584.1c-18.5,0-36.9,0.1-55.4,0c-14-0.1-21.7-7-21.3-20.9c0.5-18-5.6-33.4-14.8-48.3
		c-13.7-22-28.2-43.6-40.2-66.4c-21.8-41.5-25.9-85.2-7.8-129.1c21.4-51.8,60.3-83.3,115.7-92.8c68.5-11.8,134.5,25.8,161.6,87.1
		c18,40.8,17.8,82.2,0.2,122.7c-8.1,18.6-19.5,35.8-29.7,53.4c-6.9,11.8-14.6,23-21.5,34.7c-6.6,11.2-9.6,23.4-9.5,36.5
		c0.2,16.6-6.6,23.2-23.1,23.2C529.9,584.2,511.9,584.1,493.8,584.1z"/>
	<path class="st0" d="M494.1,610.7c18.2,0,36.5-0.1,54.7,0c15.7,0.1,22.9,7.4,23,23.1c0,10.8,0,21.5,0,32.3
		c-0.1,14.9-7.3,22-22.3,22.1c-0.7,0-1.3,0.1-2,0c-6.8-1-11.3,1.4-15.9,7.2c-19.5,24.7-56.9,23.8-76.4-1.5c-3.3-4.3-6.6-6.5-12-5.7
		c-2.6,0.4-5.3,0.1-7.9,0c-10.6-0.5-18.5-7.8-18.8-18.2c-0.4-13.6-0.4-27.2,0-40.8c0.4-11.2,9-18.2,21.6-18.3
		C456.8,610.6,475.4,610.7,494.1,610.7z"/>
	<path class="st0" d="M354.4,208.3c-0.6,13.3-4.9,20.9-13.5,25.5c-9.1,4.9-18.1,4.3-26.7-1.5c-1.6-1.1-3.3-2.2-4.7-3.6
		c-17.9-17.8-35.9-35.5-53.5-53.6c-10.1-10.4-10.4-25.4-1.6-35.2c10.3-11.4,25.7-12.5,37.4-1.3c18.9,18,37.3,36.6,55.3,55.5
		C351.3,198.5,352.9,205.3,354.4,208.3z"/>
	<path class="st0" d="M714.2,131.1c11,0.5,18.8,5,23.1,14.5c4.2,9.1,3.3,17.8-2.6,26c-0.8,1.1-1.4,2.2-2.4,3.2
		c-18.5,18.5-36.6,37.4-55.6,55.3c-13.7,12.9-34.2,7.8-41.2-9.4c-4.2-10.4-1.4-20.1,6.2-27.9c17.8-18.2,35.9-36.2,54-54.1
		C701.1,133.6,707.4,130.8,714.2,131.1z"/>
	<path class="st0" d="M273.4,622.6c-10.4-0.2-18.1-4.8-22.6-14.2c-4.5-9.3-3.5-18.2,2.6-26.6c1.2-1.6,2.4-3.2,3.8-4.6
		c17.2-17.3,34.3-34.6,51.7-51.7c14.6-14.4,35.8-10.9,43.3,7.2c4.5,10.7,1.5,20.4-6.3,28.4c-17.7,18-35.6,35.8-53.6,53.6
		C287.2,619.9,280.9,622.8,273.4,622.6z"/>
	<path class="st0" d="M739.8,597.9c-0.5,10-4.8,17.6-14,22c-9,4.4-17.8,3.8-26-2c-2-1.4-3.9-2.9-5.6-4.6
		c-17.1-17-34.3-34.1-51.2-51.3c-10.9-11.1-12.1-25.8-3.1-36.1c10.3-11.7,26-12.9,37.9-1.6c18.7,17.9,37,36.3,54.8,55.1
		c4.3,4.6,6,11.6,8.9,17.5C740.9,597.3,740.3,597.6,739.8,597.9z"/>
</g>
</svg>
