<?xml version="1.0" encoding="utf-8"?>
<!-- Generator: Adobe Illustrator 19.0.1, SVG Export Plug-In . SVG Version: 6.00 Build 0)  -->
<svg version="1.1" id="Layer_1" xmlns="http://www.w3.org/2000/svg" xmlns:xlink="http://www.w3.org/1999/xlink" x="0px" y="0px"
	 viewBox="94 -4 800 800" style="enable-background:new 94 -4 800 800;" xml:space="preserve">
<style type="text/css">
	.st0{fill:#383838;}
	.st1{fill:#F26222;}
</style>
<g>
	<path class="st0" d="M224.3,489.3c-25.2-16.3-47.5-30.6-70.6-45.5c-18.9-124.6,52.1-312.9,260.2-369.6c0-16.2,0-32.9,0-53.3
		c51.8,25.8,101,50.4,154,76.8c-52.7,26.4-101.8,51-153,76.7c-0.7-12.1-1.2-21.8-1.8-31.6C306.3,165,175.6,299.6,224.3,489.3z"/>
	<path class="st1" d="M469.2,214.9c14.5,0,28.3,0,44.3,0c0.7,12.7,1.3,25.7,2,38.3c22.6,5.5,44.4,10.8,67.7,16.4
		c-5,19.5-9.3,36-13.3,51.9c-21-4.2-40.4-8.6-60-11.6c-8.4-1.3-18.3-1.8-25.8,1.4c-8.4,3.5-19.7,10.9-20.8,18
		c-1.2,8.1,5,21.8,12.2,26c21.2,12.5,44.4,21.6,67,31.8c34.3,15.5,54.7,40.2,53.1,79.5c-1.6,38.7-22.2,65.2-57.6,76.5
		c-22.1,7.1-30.5,17.1-26.6,39.2c0.9,5-0.4,10.4-0.8,16.7c-14.6,0-28.4,0-44.2,0c0-14.1,0-27.9,0-40.6c-27.9-7-53.6-13.5-81.6-20.6
		c5.2-20.8,9.7-38.7,13.3-53.3c27.4,5.3,53.3,11,79.5,14.9c8.1,1.2,17.5-1.1,25.4-4.1c23.1-8.7,26.6-31.7,7.3-47
		c-7.2-5.7-16.1-9.5-24.6-13.3c-17.1-7.7-35-13.7-51.6-22.2c-28.9-14.8-46.9-37.8-45.7-72c1.2-34.3,18.4-60.4,50-71
		c25.5-8.5,33.5-21.8,29.2-46.2C467.5,221,468.6,218.3,469.2,214.9z"/>
	<path class="st0" d="M243,639.3c-15.7,8.9-30.2,17.2-48,27.3c-3.5-57.7-6.9-112.7-10.6-172c49.1,32.4,95.1,62.7,143.2,94.5
		c-9.8,6.4-17.8,11.7-28.2,18.5c56.9,52.5,122.4,78.8,198.7,76.9c76.4-1.9,140.7-32.6,197.1-89.3c-1.3,29.5-1.8,54.6-4.1,79.6
		c-0.5,5-7.2,10.4-12.2,13.9c-129.2,88.4-306.9,73.8-420.1-34.3C254.1,649.7,249.3,645.2,243,639.3z"/>
	<path class="st0" d="M863.6,533.2c-48.1,31.8-93.8,62-143.7,95c3.4-58.5,6.7-113.1,10-170.8c11.2,5.4,19.8,9.6,28.5,13.9
		C794.8,362.5,735.8,186,552.7,135c24.8-12.9,47.5-25.1,70.6-36.2c3.7-1.8,10.1,0.5,14.6,2.5c117.3,52.2,200,188.8,191.4,316.6
		c-1.6,23.3-4.2,46.9-9.9,69.4c-3.9,15.3,0.6,21.9,13.1,27.9C842.5,520,851.8,526.3,863.6,533.2z"/>
</g>
</svg>
