<?xml version="1.0" encoding="utf-8"?>
<!-- Generator: Adobe Illustrator 19.0.1, SVG Export Plug-In . SVG Version: 6.00 Build 0)  -->
<svg version="1.1" id="Layer_1" xmlns="http://www.w3.org/2000/svg" xmlns:xlink="http://www.w3.org/1999/xlink" x="0px" y="0px"
	 viewBox="-60 306.5 490.5 181.5" style="enable-background:new -60 306.5 490.5 181.5;" xml:space="preserve">
<style type="text/css">
	.st0{fill:#060606;}
	.st1{fill:none;stroke:#000000;stroke-miterlimit:10;}
	.st2{fill:none;stroke:#FFFFFF;stroke-width:4;stroke-miterlimit:10;}
	.st3{fill:#FFFFFF;}
	.st4{fill:none;stroke:#FFFFFF;stroke-width:2;stroke-miterlimit:10;}
</style>
<circle class="st0" cx="31" cy="397.5" r="82.2"/>
<circle class="st1" cx="31" cy="397.5" r="88"/>
<g>
	<path d="M151.3,398.7v-49.9H163v49.9H151.3L151.3,398.7z"/>
	<path d="M169.6,381.8h10.7v1.5c0,2.7,0.3,4.7,1,5.8c0.6,1.1,1.7,1.7,3.3,1.7c1.2,0,2.2-0.4,2.9-1.3c0.7-0.9,1.1-2,1.1-3.5
		c0-2.4-1.7-4.7-5.2-7c-0.6-0.4-1-0.7-1.3-0.9l-0.6-0.4c-4.7-3.2-7.6-5.5-8.8-7.1c-0.8-1.2-1.4-2.6-1.9-4.1c-0.4-1.5-0.6-3.2-0.6-5
		c0-4.4,1.3-7.8,3.8-10.3s6-3.7,10.4-3.7c4.8,0,8.5,1.2,11,3.7c2.5,2.4,3.8,6,3.8,10.6c0,0.2,0,0.5,0,0.8c0,0.3,0,0.6,0,0.8h-10.5
		v-0.6c0-2.2-0.3-3.8-1-5c-0.7-1.1-1.7-1.7-3-1.7c-1.1,0-2,0.4-2.7,1.2s-1,1.8-1,3.1c0,2.1,1.9,4.4,5.7,6.7c0.7,0.5,1.2,0.8,1.6,1
		c0.3,0.2,0.7,0.4,1.3,0.8c4.1,2.6,6.7,4.8,7.8,6.6c0.7,1.1,1.3,2.4,1.6,3.9s0.6,3,0.6,4.8c0,5-1.3,8.8-3.9,11.5
		c-2.6,2.7-6.3,4.1-11.1,4.1c-5.1,0-8.9-1.3-11.4-3.9c-2.5-2.6-3.8-6.4-3.8-11.5c0-0.3,0-0.7,0-1
		C169.5,383.1,169.5,382.5,169.6,381.8z"/>
	<path d="M205,373.7c0-6,0.2-10.4,0.6-13.2c0.4-2.8,1.1-4.9,2.1-6.5c1.4-2.2,3.3-3.8,5.6-4.9c2.3-1.1,5.1-1.6,8.3-1.6
		c3.3,0,6,0.5,8.3,1.6s4.1,2.7,5.6,4.9c1,1.6,1.8,3.8,2.2,6.5c0.4,2.7,0.6,7.1,0.6,13.1s-0.2,10.3-0.6,13.1s-1.2,5-2.2,6.5
		c-1.4,2.2-3.3,3.8-5.6,4.9c-2.3,1.1-5.1,1.6-8.3,1.6s-6-0.5-8.3-1.6s-4.2-2.7-5.6-4.9c-1-1.6-1.7-3.7-2.1-6.5
		C205.2,384.1,205,379.7,205,373.7z M226.5,378.2v-9c0-5.5-0.4-9-1.1-10.3c-0.7-1.3-2-2-3.8-2s-3,0.7-3.7,2c-0.7,1.3-1,4.7-1,10.2v9
		c0,5.4,0.3,8.8,1,10.2s2,2.1,3.8,2.1s3.1-0.7,3.8-2C226.1,387.1,226.5,383.7,226.5,378.2z"/>
	<path d="M261.6,398.7v-0.8c0-1.9,0.2-3.8,0.6-5.6c0.4-1.8,1.1-3.7,2-5.6c1.8-3.9,4.6-7.8,8.5-11.7c0.6-0.6,1-1,1.2-1.2l0.3-0.3
		c4.2-4.4,6.3-8.3,6.3-11.6c0-1.5-0.3-2.7-0.9-3.5c-0.6-0.8-1.5-1.2-2.6-1.2c-1.6,0-2.8,0.7-3.5,2c-0.7,1.3-1.1,3.5-1.1,6.4v0.7H262
		V365c0-5.4,1.3-9.5,3.9-12.3c2.6-2.9,6.4-4.3,11.3-4.3c4.5,0,7.9,1.2,10.4,3.7s3.8,5.9,3.8,10.2c0,2.6-0.5,5-1.6,7.3
		c-1.1,2.3-2.8,4.7-5.1,7.1c-0.5,0.5-1.2,1.3-2.2,2.2c-4.1,4-6.7,7.3-7.7,9.9h16.5v9.8h-29.7L261.6,398.7L261.6,398.7z"/>
	<path d="M303.7,398.7c0.6-5.8,1.9-12.1,4.1-18.7c2.1-6.6,5-13.6,8.6-20.8h-18.6v-9.9H327v8.5c-3.1,5.5-5.6,11.7-7.6,18.6
		c-2,6.9-3.4,14.4-4.2,22.2h-11.5L303.7,398.7L303.7,398.7z"/>
	<path d="M333.2,374c0-6.2,0.2-10.7,0.6-13.4s1-4.8,1.9-6.2c1.3-1.9,3-3.4,5.2-4.5c2.2-1,4.7-1.6,7.5-1.6c2.9,0,5.4,0.5,7.6,1.6
		c2.2,1,3.9,2.6,5.1,4.5c0.9,1.4,1.5,3.4,1.9,6c0.4,2.6,0.6,6.4,0.6,11.4c0,5.4-0.1,9.5-0.3,12.2c-0.2,2.7-0.5,4.9-0.9,6.7
		c-0.6,2.7-2.3,4.8-4.8,6.5c-2.6,1.6-5.6,2.5-9.1,2.5c-2.9,0-5.5-0.5-7.7-1.6s-4-2.6-5.2-4.7c-0.8-1.3-1.4-3.4-1.8-6.2
		C333.4,384.4,333.2,380,333.2,374z M344.4,374v3.7c0,5.7,0.3,9.3,0.8,10.8c0.6,1.5,1.6,2.3,3.1,2.3s2.5-0.8,3.1-2.3
		s0.8-5.1,0.8-10.8V374v-4.4c0-5.3-0.3-8.7-0.8-10.2c-0.6-1.4-1.6-2.2-3.1-2.2s-2.5,0.8-3.1,2.3s-0.8,5.1-0.8,10.9V374z"/>
	<path d="M368.8,374c0-6.2,0.2-10.7,0.6-13.4s1-4.8,1.9-6.2c1.3-1.9,3-3.4,5.2-4.5c2.2-1,4.7-1.6,7.5-1.6c2.9,0,5.4,0.5,7.6,1.6
		c2.2,1,3.9,2.6,5.1,4.5c0.9,1.4,1.5,3.4,1.9,6c0.4,2.6,0.6,6.4,0.6,11.4c0,5.4-0.1,9.5-0.3,12.2c-0.2,2.7-0.5,4.9-0.9,6.7
		c-0.6,2.7-2.3,4.8-4.8,6.5c-2.6,1.6-5.6,2.5-9.1,2.5c-2.9,0-5.5-0.5-7.7-1.6s-4-2.6-5.2-4.7c-0.8-1.3-1.4-3.4-1.8-6.2
		C369,384.4,368.8,380,368.8,374z M380,374v3.7c0,5.7,0.3,9.3,0.8,10.8c0.6,1.5,1.6,2.3,3.1,2.3s2.5-0.8,3.1-2.3s0.8-5.1,0.8-10.8
		V374v-4.4c0-5.3-0.3-8.7-0.8-10.2c-0.6-1.4-1.6-2.2-3.1-2.2s-2.5,0.8-3.1,2.3s-0.8,5.1-0.8,10.9V374z"/>
	<path d="M416,398.7v-34.5h-10v-7.6h0.6c3.6,0,6.5-0.7,8.6-2c2.1-1.3,3.6-3.4,4.3-6.1h7.7v50.3L416,398.7L416,398.7z"/>
</g>
<g>
	<path d="M152.8,442.3v-27.5h7.2c2.4,0,4.1,0.1,5.2,0.3c1.1,0.2,1.9,0.6,2.6,1.1c0.8,0.6,1.4,1.4,1.8,2.4c0.4,0.9,0.6,2.1,0.6,3.4
		c0,1.6-0.3,2.9-0.8,4c-0.6,1.1-1.4,2-2.6,2.6c2,0.9,3,3,3.1,6.3v0.1c0,0.3,0,0.8,0,1.5c0,3.1,0.6,5,1.5,5.8h-7.5
		c-0.2-0.6-0.3-1.2-0.4-1.8s-0.1-1.3-0.1-2c0-0.4,0-1,0-1.6s0-1,0-1.2c0-1.7-0.2-2.8-0.7-3.4c-0.4-0.6-1.2-0.9-2.4-0.9H159v11h-6.2
		V442.3z M159.2,426.3c0.1,0,0.2,0,0.4,0c0.2,0,0.3,0,0.4,0c1.3,0,2.3-0.3,2.8-0.8c0.6-0.5,0.8-1.4,0.8-2.7c0-1.2-0.3-2-0.8-2.5
		c-0.6-0.5-1.5-0.7-2.8-0.7c-0.1,0-0.2,0-0.4,0c-0.2,0-0.3,0-0.4,0V426.3z"/>
	<path d="M174.2,442.3v-27.5h14.9v5.3h-8.6v5h7.9v5.5h-7.9v6h8.6v5.6L174.2,442.3L174.2,442.3z"/>
	<path d="M210,427.2v15.1h-4.4l-0.3-1.7c-0.6,0.7-1.4,1.3-2.1,1.6c-0.7,0.3-1.7,0.5-2.6,0.5c-1.1,0-2.2-0.2-3.1-0.6
		c-0.9-0.4-1.8-1-2.5-1.8c-0.9-1-1.5-2.3-1.8-3.9c-0.4-1.6-0.5-4.4-0.5-8.3c0-2.8,0.1-5,0.4-6.7c0.3-1.7,0.6-2.9,1.2-3.7
		c0.8-1.2,1.8-2.1,3-2.7c1.2-0.6,2.7-0.9,4.5-0.9c2.7,0,4.7,0.7,6.1,2.2s2.1,3.7,2.1,6.6c0,0.1,0,0.3,0,0.5c0,0.2,0,0.4,0,0.5h-6.1
		v-0.3c0-1.6-0.2-2.7-0.5-3.4c-0.3-0.7-0.9-1-1.6-1c-0.9,0-1.5,0.4-1.9,1.2c-0.4,0.8-0.5,2.8-0.5,5.8v2.7v1.9c0,3.1,0.2,5,0.5,5.8
		c0.3,0.8,0.9,1.2,1.8,1.2s1.5-0.4,1.9-1.1c0.4-0.7,0.6-1.8,0.6-3.4c0-0.4,0-0.6,0-0.8c0-0.2,0-0.4,0-0.6h-2.5v-4.8h8.3V427.2z"/>
	<path d="M214.2,442.3v-27.5h6.4v27.5H214.2z"/>
	<path d="M224.2,433h5.9v0.8c0,1.5,0.2,2.6,0.5,3.2c0.4,0.6,1,0.9,1.8,0.9c0.7,0,1.2-0.2,1.6-0.7s0.6-1.1,0.6-1.9
		c0-1.3-1-2.6-2.9-3.8c-0.3-0.2-0.5-0.4-0.7-0.5l-0.3-0.2c-2.6-1.7-4.2-3-4.8-3.9c-0.5-0.7-0.8-1.4-1-2.2c-0.2-0.8-0.4-1.7-0.4-2.7
		c0-2.4,0.7-4.3,2.1-5.7s3.3-2.1,5.7-2.1c2.7,0,4.7,0.7,6.1,2c1.4,1.3,2.1,3.3,2.1,5.8c0,0.1,0,0.3,0,0.4c0,0.2,0,0.3,0,0.4h-5.8
		v-0.3c0-1.2-0.2-2.1-0.6-2.7c-0.4-0.6-0.9-0.9-1.6-0.9c-0.6,0-1.1,0.2-1.5,0.7c-0.4,0.4-0.6,1-0.6,1.7c0,1.2,1,2.4,3.1,3.7
		c0.4,0.3,0.7,0.4,0.9,0.6c0.2,0.1,0.4,0.2,0.7,0.4c2.2,1.4,3.7,2.6,4.3,3.6c0.4,0.6,0.7,1.3,0.9,2.1c0.2,0.8,0.3,1.7,0.3,2.6
		c0,2.7-0.7,4.9-2.1,6.4s-3.5,2.2-6.1,2.2c-2.8,0-4.9-0.7-6.3-2.1s-2.1-3.5-2.1-6.3c0-0.2,0-0.4,0-0.6S224.2,433.4,224.2,433z"/>
	<path d="M247.6,442.3v-22.1h-5.1v-5.3h17v5.3H254v22.1H247.6z"/>
	<path d="M262.1,442.3v-27.5H277v5.3h-8.6v5h7.9v5.5h-7.9v6h8.6v5.6L262.1,442.3L262.1,442.3z"/>
	<path d="M281,442.3v-27.5h7.2c2.4,0,4.1,0.1,5.2,0.3c1.1,0.2,1.9,0.6,2.6,1.1c0.8,0.6,1.4,1.4,1.8,2.4s0.6,2.1,0.6,3.4
		c0,1.6-0.3,2.9-0.8,4c-0.6,1.1-1.4,2-2.6,2.6c2,0.9,3,3,3.1,6.3v0.1c0,0.3,0,0.8,0,1.5c0,3.1,0.6,5,1.5,5.8h-7.5
		c-0.2-0.6-0.3-1.2-0.4-1.8s-0.1-1.3-0.1-2c0-0.4,0-1,0-1.6s0-1,0-1.2c0-1.7-0.2-2.8-0.7-3.4c-0.4-0.6-1.2-0.9-2.4-0.9h-1.3v11H281
		V442.3z M287.3,426.3c0.1,0,0.2,0,0.4,0c0.2,0,0.3,0,0.4,0c1.3,0,2.3-0.3,2.8-0.8c0.6-0.5,0.8-1.4,0.8-2.7c0-1.2-0.3-2-0.8-2.5
		c-0.6-0.5-1.5-0.7-2.8-0.7c-0.1,0-0.2,0-0.4,0c-0.2,0-0.3,0-0.4,0V426.3z"/>
	<path d="M302.4,442.3v-27.5h14.9v5.3h-8.6v5h7.9v5.5h-7.9v6h8.6v5.6L302.4,442.3L302.4,442.3z"/>
	<path d="M321.3,442.3v-27.5h7.1c2.6,0,4.5,0.2,5.8,0.7c1.2,0.4,2.2,1.2,3,2.3c0.6,0.8,1,1.9,1.2,3.3c0.2,1.3,0.4,3.8,0.4,7.5
		c0,3.7-0.1,6.2-0.4,7.5c-0.2,1.3-0.6,2.4-1.2,3.3c-0.7,1.1-1.7,1.8-3,2.3s-3.2,0.7-5.8,0.7h-7.1V442.3z M327.8,419.9v17.4
		c0.1,0,0.3,0,0.4,0s0.3,0,0.6,0c0.7,0,1.3-0.1,1.7-0.3c0.5-0.2,0.8-0.5,1.1-0.9c0.2-0.3,0.4-1,0.5-1.9c0.1-1,0.1-2.8,0.1-5.6v-1.3
		c0-2.3,0-3.8-0.1-4.6c-0.1-0.8-0.2-1.4-0.5-1.6c-0.2-0.4-0.6-0.7-1.1-0.9c-0.5-0.2-1.1-0.3-1.8-0.3c-0.2,0-0.4,0-0.5,0
		S327.9,419.9,327.8,419.9z"/>
	<path d="M352.4,442.3v-27.5h15v5.3h-8.5v5h7.9v5.5h-7.9v11.7H352.4z"/>
	<path d="M371.2,442.3v-27.5h6.4v27.5H371.2z"/>
	<path d="M382,442.3v-27.5h7.2c2.4,0,4.1,0.1,5.2,0.3c1.1,0.2,1.9,0.6,2.6,1.1c0.8,0.6,1.4,1.4,1.8,2.4c0.4,1,0.6,2.1,0.6,3.4
		c0,1.6-0.3,2.9-0.8,4c-0.6,1.1-1.4,2-2.6,2.6c2,0.9,3,3,3.1,6.3v0.1c0,0.3,0,0.8,0,1.5c0,3.1,0.6,5,1.5,5.8h-7.5
		c-0.2-0.6-0.3-1.2-0.4-1.8c-0.1-0.6-0.1-1.3-0.1-2c0-0.4,0-1,0-1.6s0-1,0-1.2c0-1.7-0.2-2.8-0.7-3.4c-0.4-0.6-1.2-0.9-2.4-0.9h-1.3
		v11H382V442.3z M388.4,426.3c0.1,0,0.2,0,0.4,0s0.3,0,0.4,0c1.3,0,2.3-0.3,2.8-0.8c0.6-0.5,0.8-1.4,0.8-2.7c0-1.2-0.3-2-0.8-2.5
		c-0.6-0.5-1.5-0.7-2.8-0.7c-0.1,0-0.2,0-0.4,0s-0.3,0-0.4,0V426.3z"/>
	<path d="M403.5,442.3v-27.5h9l2.4,11.7c0,0.1,0.1,0.8,0.3,2.2s0.4,2.8,0.6,4.2c0.2-1.1,0.3-2.4,0.6-3.9c0.2-1.6,0.4-2.4,0.4-2.6
		l2.4-11.6h8.9v27.5H422l0.6-21.2l-4.4,21.2h-4.9l-4.4-21.2l0.6,21.2L403.5,442.3L403.5,442.3z"/>
</g>
<line class="st2" x1="-3.4" y1="351.1" x2="70.3" y2="351.1"/>
<line class="st2" x1="1.7" y1="366" x2="63.9" y2="366"/>
<line class="st2" x1="1.7" y1="381.3" x2="63.9" y2="381.3"/>
<line class="st2" x1="2.7" y1="396.2" x2="63.6" y2="396.2"/>
<line class="st2" x1="1.7" y1="412" x2="63.9" y2="412"/>
<line class="st2" x1="1.7" y1="426.4" x2="63.9" y2="426.4"/>
<line class="st2" x1="1.8" y1="440.1" x2="64.5" y2="440.1"/>
<line class="st2" x1="2.7" y1="351.1" x2="2.7" y2="446"/>
<line class="st2" x1="17.5" y1="351.1" x2="17.5" y2="446"/>
<line class="st2" x1="32" y1="351.1" x2="32" y2="446"/>
<line class="st2" x1="48.2" y1="351.1" x2="48.2" y2="446"/>
<line class="st2" x1="63.6" y1="351.7" x2="63.6" y2="446"/>
<rect x="78.3" y="411.1" transform="matrix(-0.8992 -0.4375 0.4375 -0.8992 -28.4847 819.9417)" class="st3" width="3.8" height="4.3"/>
<circle class="st4" cx="74.8" cy="350.9" r="5.6"/>
<circle class="st4" cx="81.6" cy="358.7" r="5.6"/>
<circle class="st4" cx="82.2" cy="373" r="5.6"/>
<circle class="st4" cx="81.8" cy="389.7" r="5.6"/>
<circle class="st4" cx="81.8" cy="405.8" r="5.6"/>
<circle class="st4" cx="77" cy="420.9" r="5.6"/>
<circle class="st4" cx="93" cy="433.6" r="5.6"/>
<circle class="st4" cx="82.6" cy="431.7" r="5.6"/>
<rect x="80.4" y="395.5" class="st3" width="3.8" height="4.4"/>
<rect x="80.3" y="379.4" class="st3" width="3.8" height="4.2"/>
<rect x="-16.3" y="411.1" transform="matrix(0.8992 -0.4375 0.4375 0.8992 -182.2307 35.3466)" class="st3" width="3.8" height="4.3"/>
<circle class="st4" cx="-9" cy="350.9" r="5.6"/>
<circle class="st4" cx="-15.9" cy="358.7" r="5.6"/>
<circle class="st4" cx="-16.5" cy="373" r="5.6"/>
<circle class="st4" cx="-16" cy="389.7" r="5.6"/>
<circle class="st4" cx="-16" cy="405.8" r="5.6"/>
<circle class="st4" cx="-11.3" cy="420.9" r="5.6"/>
<circle class="st4" cx="-27.2" cy="433.6" r="5.6"/>
<circle class="st4" cx="-16.9" cy="431.7" r="5.6"/>
<rect x="-18.4" y="395.5" class="st3" width="3.8" height="4.4"/>
<rect x="-18.4" y="379.4" class="st3" width="3.8" height="4.2"/>
</svg>
