<?xml version="1.0" encoding="utf-8"?>
<!-- Generator: Adobe Illustrator 19.0.1, SVG Export Plug-In . SVG Version: 6.00 Build 0)  -->
<svg version="1.1" id="Layer_1" xmlns="http://www.w3.org/2000/svg" xmlns:xlink="http://www.w3.org/1999/xlink" x="0px" y="0px"
	 viewBox="-70 309.3 470 174.7" style="enable-background:new -70 309.3 470 174.7;" xml:space="preserve">
<style type="text/css">
	.st0{fill:#060606;}
	.st1{fill:none;stroke:#000000;stroke-miterlimit:10;}
	.st2{fill:#FFFFFF;stroke:#FFFFFF;stroke-miterlimit:10;}
	.st3{fill:#0F0E0F;}
	.st4{fill:#FFFFFF;}
</style>
<circle class="st0" cx="17.4" cy="397.1" r="78.3"/>
<circle class="st1" cx="17.4" cy="397.1" r="83.9"/>
<polygon class="st2" points="-9.2,346.4 47.5,346.4 47.5,377.8 22.2,396.5 16.4,396.5 -9.2,378.9 "/>
<circle class="st2" cx="19.1" cy="430.2" r="32.3"/>
<rect x="33.2" y="354.7" class="st3" width="4.6" height="24.5"/>
<rect x="16.9" y="354.7" class="st3" width="4.6" height="24.5"/>
<rect x="0.5" y="354.7" class="st3" width="4.6" height="24.5"/>
<rect x="-10.6" y="326.6" class="st4" width="12.3" height="16.2"/>
<rect x="5" y="326.6" class="st4" width="12.3" height="16.2"/>
<rect x="20.6" y="326.6" class="st4" width="12.3" height="16.2"/>
<rect x="36.5" y="326.6" class="st4" width="12.3" height="16.2"/>
<g>
	<path d="M132.7,398.3v-54.8h12.8v54.7h-12.8V398.3z"/>
	<path d="M152.7,379.7h11.7v1.6c0,3,0.4,5.1,1.1,6.4c0.7,1.2,1.9,1.8,3.6,1.8c1.4,0,2.4-0.5,3.2-1.4c0.8-0.9,1.2-2.2,1.2-3.8
		c0-2.7-1.9-5.2-5.7-7.6c-0.6-0.4-1.1-0.7-1.4-1l-0.6-0.4c-5.1-3.5-8.3-6.1-9.6-7.8c-0.9-1.3-1.6-2.8-2.1-4.5
		c-0.5-1.7-0.7-3.5-0.7-5.4c0-4.8,1.4-8.5,4.2-11.3c2.8-2.7,6.6-4.1,11.4-4.1c5.3,0,9.3,1.3,12.1,4c2.8,2.7,4.2,6.6,4.2,11.6
		c0,0.2,0,0.5,0,0.9s0,0.7,0,0.9h-11.5v-0.7c0-2.4-0.4-4.2-1.1-5.4c-0.7-1.2-1.8-1.8-3.3-1.8c-1.2,0-2.2,0.4-2.9,1.3
		c-0.7,0.9-1.1,2-1.1,3.4c0,2.3,2.1,4.8,6.3,7.4c0.8,0.5,1.3,0.9,1.7,1.1c0.3,0.2,0.8,0.5,1.4,0.9c4.5,2.8,7.3,5.2,8.6,7.2
		c0.8,1.3,1.4,2.7,1.8,4.3c0.4,1.6,0.6,3.3,0.6,5.2c0,5.5-1.4,9.7-4.3,12.7c-2.8,3-6.9,4.4-12.2,4.4c-5.5,0-9.7-1.4-12.5-4.2
		c-2.8-2.8-4.2-7-4.2-12.6c0-0.4,0-0.7,0-1.1C152.6,381.2,152.6,380.6,152.7,379.7z"/>
	<path d="M191.5,370.9c0-6.6,0.2-11.4,0.7-14.4s1.3-5.4,2.3-7.1c1.6-2.4,3.6-4.2,6.2-5.4c2.5-1.2,5.6-1.8,9.1-1.8
		c3.6,0,6.6,0.6,9.1,1.8c2.5,1.2,4.5,3,6.1,5.4c1.1,1.7,1.9,4.1,2.4,7.1s0.7,7.8,0.7,14.4c0,6.5-0.2,11.3-0.7,14.4
		c-0.5,3-1.3,5.4-2.4,7.2c-1.5,2.4-3.6,4.2-6.1,5.4c-2.5,1.2-5.6,1.8-9.1,1.8c-3.6,0-6.6-0.6-9.1-1.8c-2.5-1.2-4.6-3-6.2-5.4
		c-1.1-1.7-1.9-4.1-2.3-7.1C191.7,382.3,191.5,377.5,191.5,370.9z M215.1,375.8v-9.9c0-6.1-0.4-9.8-1.2-11.3
		c-0.8-1.4-2.2-2.2-4.2-2.2s-3.3,0.7-4.1,2.2c-0.8,1.5-1.1,5.2-1.1,11.2v9.9c0,5.9,0.4,9.6,1.1,11.1s2.1,2.3,4.2,2.3
		c2,0,3.4-0.7,4.1-2.2C214.7,385.6,215.1,381.8,215.1,375.8z"/>
	<path d="M274,377.6c-1.4,0.9-2.7,1.5-4,1.9c-1.3,0.4-2.7,0.6-4.1,0.6c-4,0-7-1.4-9-4.2c-2-2.8-3-7.1-3-12.9c0-6.7,1.3-11.7,4-14.9
		c2.7-3.3,6.7-4.9,12.2-4.9c2.6,0,5,0.4,7,1.1c2,0.8,3.8,1.9,5.2,3.4c1.6,1.7,2.7,4.1,3.4,7.1c0.7,3,1,8.3,1,15.9
		c0,6.6-0.2,11.3-0.5,14.2c-0.3,2.8-0.9,5.1-1.7,6.9c-1.1,2.5-3,4.4-5.5,5.7c-2.5,1.3-5.6,2-9.2,2c-4.8,0-8.5-1.2-11.2-3.7
		c-2.6-2.5-4-6-4-10.5h11.7c0,1.7,0.4,3,1,3.9s1.5,1.3,2.7,1.3c1.5,0,2.5-0.7,3.2-2c0.6-1.3,0.9-3.6,0.9-6.9c0-1,0-1.8,0-2.3
		C274,378.6,274,378.1,274,377.6z M274.3,361.6c0-3.3-0.3-5.6-1-7c-0.7-1.4-1.8-2-3.3-2c-1.4,0-2.3,0.7-2.9,2
		c-0.6,1.3-0.9,3.8-0.9,7.2c0,3.3,0.3,5.7,0.9,7.1c0.6,1.4,1.7,2,3.2,2s2.5-0.6,3.1-1.9C274,367.7,274.3,365.3,274.3,361.6z"/>
	<path d="M293,371.2c0-6.8,0.2-11.7,0.6-14.7s1.1-5.2,2.1-6.8c1.4-2.1,3.3-3.8,5.7-4.9c2.4-1.1,5.1-1.7,8.2-1.7s5.9,0.6,8.3,1.7
		c2.4,1.1,4.3,2.8,5.6,5c1,1.6,1.7,3.8,2.1,6.6c0.4,2.8,0.6,7,0.6,12.5c0,6-0.1,10.4-0.3,13.4c-0.2,3-0.5,5.4-1,7.3
		c-0.7,2.9-2.5,5.3-5.3,7.1s-6.1,2.7-10,2.7c-3.2,0-6-0.6-8.4-1.8s-4.3-2.9-5.7-5.2c-0.9-1.4-1.5-3.7-1.9-6.8S293,377.8,293,371.2z
		 M305.3,371.2v4c0,6.3,0.3,10.2,0.9,11.9c0.6,1.6,1.7,2.5,3.4,2.5c1.6,0,2.8-0.8,3.4-2.5c0.6-1.6,0.9-5.6,0.9-11.9v-4v-4.9
		c0-5.9-0.3-9.6-0.9-11.2c-0.6-1.6-1.7-2.4-3.4-2.4c-1.7,0-2.8,0.8-3.4,2.5c-0.6,1.6-0.9,5.6-0.9,12V371.2z"/>
	<path d="M332,371.2c0-6.8,0.2-11.7,0.6-14.7s1.1-5.2,2.1-6.8c1.4-2.1,3.3-3.8,5.7-4.9c2.4-1.1,5.1-1.7,8.2-1.7
		c3.1,0,5.9,0.6,8.3,1.7c2.4,1.1,4.3,2.8,5.6,5c1,1.6,1.7,3.8,2.1,6.6c0.4,2.8,0.6,7,0.6,12.5c0,6-0.1,10.4-0.3,13.4s-0.5,5.4-1,7.3
		c-0.7,2.9-2.5,5.3-5.3,7.1s-6.1,2.7-10,2.7c-3.2,0-6-0.6-8.4-1.8s-4.3-2.9-5.7-5.2c-0.9-1.4-1.5-3.7-1.9-6.8S332,377.8,332,371.2z
		 M344.3,371.2v4c0,6.3,0.3,10.2,0.9,11.9c0.6,1.6,1.7,2.5,3.4,2.5c1.6,0,2.8-0.8,3.4-2.5c0.6-1.6,0.9-5.6,0.9-11.9v-4v-4.9
		c0-5.9-0.3-9.6-0.9-11.2c-0.6-1.6-1.7-2.4-3.4-2.4s-2.8,0.8-3.4,2.5c-0.6,1.6-0.9,5.6-0.9,12V371.2z"/>
	<path d="M383.8,398.3v-37.8h-10.9v-8.4h0.6c3.9,0,7.1-0.7,9.4-2.2c2.3-1.5,3.9-3.7,4.7-6.7h8.4v55.1H383.8z"/>
</g>
<g>
	<path d="M130.3,439.8v-26.2h6.9c2.3,0,3.9,0.1,4.9,0.3s1.8,0.6,2.5,1.1c0.7,0.6,1.3,1.4,1.7,2.3c0.4,0.9,0.6,2,0.6,3.2
		c0,1.5-0.3,2.8-0.8,3.8s-1.3,1.9-2.5,2.5c1.9,0.8,2.9,2.8,3,6v0.1c0,0.3,0,0.8,0,1.4c0,2.9,0.5,4.8,1.5,5.5h-7.2
		c-0.2-0.5-0.3-1.1-0.3-1.7c-0.1-0.6-0.1-1.2-0.1-1.9c0-0.4,0-0.9,0-1.5s0-1,0-1.2c0-1.6-0.2-2.7-0.6-3.3s-1.2-0.9-2.3-0.9h-1.3
		v10.5L130.3,439.8L130.3,439.8z M136.4,424.5c0.1,0,0.2,0,0.4,0s0.3,0,0.4,0c1.3,0,2.2-0.3,2.7-0.8s0.8-1.4,0.8-2.6
		c0-1.1-0.3-1.9-0.8-2.4s-1.4-0.7-2.7-0.7c-0.1,0-0.2,0-0.4,0s-0.3,0-0.4,0V424.5z"/>
	<path d="M150.7,439.8v-26.2h14.2v5.1h-8.1v4.8h7.5v5.3h-7.5v5.7h8.2v5.3H150.7L150.7,439.8z"/>
	<path d="M184.9,425.5v14.3h-4.2l-0.3-1.6c-0.6,0.7-1.3,1.2-2,1.6c-0.7,0.3-1.6,0.5-2.5,0.5c-1.1,0-2-0.2-2.9-0.6s-1.7-1-2.4-1.7
		c-0.8-0.9-1.4-2.2-1.8-3.7c-0.3-1.6-0.5-4.2-0.5-7.9c0-2.6,0.1-4.8,0.4-6.3c0.2-1.6,0.6-2.8,1.1-3.6c0.7-1.1,1.7-2,2.9-2.6
		c1.2-0.6,2.6-0.9,4.3-0.9c2.6,0,4.5,0.7,5.8,2.1c1.3,1.4,2,3.5,2,6.3c0,0.1,0,0.3,0,0.5s0,0.4,0,0.5h-6v-0.3c0-1.5-0.2-2.6-0.5-3.2
		s-0.8-1-1.6-1c-0.9,0-1.5,0.4-1.8,1.2c-0.3,0.8-0.5,2.6-0.5,5.6v2.6v1.8c0,2.9,0.2,4.7,0.5,5.5s0.9,1.1,1.7,1.1
		c0.8,0,1.4-0.3,1.8-1s0.6-1.8,0.6-3.2c0-0.3,0-0.6,0-0.8s0-0.4,0-0.5h-2.4v-4.6h8.3V425.5z"/>
	<path d="M188.8,439.8v-26.2h6.1v26.2H188.8z"/>
	<path d="M198.4,430.9h5.6v0.8c0,1.4,0.2,2.5,0.5,3c0.3,0.6,0.9,0.9,1.7,0.9c0.6,0,1.2-0.2,1.5-0.7s0.6-1.1,0.6-1.8
		c0-1.3-0.9-2.5-2.7-3.7c-0.3-0.2-0.5-0.4-0.7-0.5l-0.3-0.2c-2.5-1.7-4-2.9-4.6-3.7c-0.4-0.6-0.8-1.3-1-2.1
		c-0.2-0.8-0.3-1.7-0.3-2.6c0-2.3,0.7-4.1,2-5.4s3.2-2,5.5-2c2.5,0,4.5,0.6,5.8,1.9s2,3.1,2,5.6c0,0.1,0,0.2,0,0.4
		c0,0.2,0,0.3,0,0.4h-5.5v-0.3c0-1.1-0.2-2-0.5-2.6c-0.4-0.6-0.9-0.9-1.6-0.9c-0.6,0-1,0.2-1.4,0.6s-0.5,1-0.5,1.6
		c0,1.1,1,2.3,3,3.5c0.4,0.2,0.6,0.4,0.8,0.5c0.2,0.1,0.4,0.2,0.7,0.4c2.1,1.4,3.5,2.5,4.1,3.4c0.4,0.6,0.7,1.3,0.9,2
		c0.2,0.8,0.3,1.6,0.3,2.5c0,2.6-0.7,4.6-2,6.1s-3.3,2.1-5.8,2.1c-2.7,0-4.6-0.7-6-2c-1.3-1.4-2-3.4-2-6c0-0.2,0-0.3,0-0.5
		S198.4,431.3,198.4,430.9z"/>
	<path d="M220.7,439.8v-21.1h-4.9v-5.1H232v5.1h-5.2v21.1H220.7z"/>
	<path d="M234.5,439.8v-26.2h14.2v5.1h-8.2v4.8h7.5v5.3h-7.5v5.7h8.2v5.3H234.5L234.5,439.8z"/>
	<path d="M252.5,439.8v-26.2h6.9c2.3,0,3.9,0.1,4.9,0.3s1.8,0.6,2.5,1.1c0.7,0.6,1.3,1.4,1.7,2.3c0.4,0.9,0.6,2,0.6,3.2
		c0,1.5-0.3,2.8-0.8,3.8s-1.3,1.9-2.5,2.5c1.9,0.8,2.9,2.8,3,6v0.1c0,0.3,0,0.8,0,1.4c0,2.9,0.5,4.8,1.5,5.5h-7.2
		c-0.2-0.5-0.3-1.1-0.3-1.7c-0.1-0.6-0.1-1.2-0.1-1.9c0-0.4,0-0.9,0-1.5s0-1,0-1.2c0-1.6-0.2-2.7-0.6-3.3s-1.2-0.9-2.3-0.9h-1.3
		v10.5L252.5,439.8L252.5,439.8z M258.6,424.5c0.1,0,0.2,0,0.4,0s0.3,0,0.4,0c1.3,0,2.2-0.3,2.7-0.8s0.8-1.4,0.8-2.6
		c0-1.1-0.3-1.9-0.8-2.4s-1.4-0.7-2.7-0.7c-0.1,0-0.2,0-0.4,0s-0.3,0-0.4,0V424.5z"/>
	<path d="M272.9,439.8v-26.2h14.2v5.1h-8.2v4.8h7.5v5.3h-7.5v5.7h8.2v5.3H272.9L272.9,439.8z"/>
	<path d="M291,439.8v-26.2h6.8c2.5,0,4.3,0.2,5.5,0.6c1.2,0.4,2.1,1.2,2.8,2.2c0.5,0.8,0.9,1.8,1.2,3.1c0.2,1.3,0.3,3.7,0.3,7.1
		c0,3.5-0.1,5.9-0.3,7.1c-0.2,1.3-0.6,2.3-1.2,3.1c-0.7,1-1.6,1.8-2.8,2.2c-1.2,0.4-3,0.6-5.5,0.6H291V439.8z M297.1,418.5V435
		c0.1,0,0.2,0,0.4,0s0.3,0,0.5,0c0.7,0,1.2-0.1,1.6-0.3s0.8-0.5,1.1-0.9c0.2-0.3,0.4-0.9,0.5-1.8c0.1-0.9,0.1-2.7,0.1-5.3v-1.2
		c0-2.2,0-3.6-0.1-4.4s-0.2-1.3-0.4-1.6c-0.2-0.4-0.6-0.7-1-0.8s-1-0.3-1.8-0.3c-0.2,0-0.4,0-0.5,0S297.2,418.5,297.1,418.5z"/>
	<path d="M320.6,439.8v-26.2h14.3v5.1h-8.1v4.8h7.5v5.3h-7.5v11.1h-6.2V439.8z"/>
	<path d="M338.5,439.8v-26.2h6.1v26.2H338.5z"/>
	<path d="M348.8,439.8v-26.2h6.9c2.3,0,3.9,0.1,4.9,0.3s1.8,0.6,2.5,1.1c0.7,0.6,1.3,1.4,1.7,2.3c0.4,0.9,0.6,2,0.6,3.2
		c0,1.5-0.3,2.8-0.8,3.8s-1.3,1.9-2.5,2.5c1.9,0.8,2.9,2.8,3,6v0.1c0,0.3,0,0.8,0,1.4c0,2.9,0.5,4.8,1.5,5.5h-7.2
		c-0.2-0.5-0.3-1.1-0.3-1.7c-0.1-0.6-0.1-1.2-0.1-1.9c0-0.4,0-0.9,0-1.5s0-1,0-1.2c0-1.6-0.2-2.7-0.6-3.3c-0.4-0.6-1.2-0.9-2.3-0.9
		h-1.3v10.5L348.8,439.8L348.8,439.8z M354.9,424.5c0.1,0,0.2,0,0.4,0s0.3,0,0.4,0c1.3,0,2.2-0.3,2.7-0.8s0.8-1.4,0.8-2.6
		c0-1.1-0.3-1.9-0.8-2.4s-1.4-0.7-2.7-0.7c-0.1,0-0.2,0-0.4,0s-0.3,0-0.4,0V424.5L354.9,424.5z"/>
	<path d="M369.2,439.8v-26.2h8.6l2.3,11.1c0,0.1,0.1,0.8,0.3,2.1c0.2,1.3,0.4,2.7,0.6,4c0.1-1,0.3-2.3,0.6-3.7
		c0.2-1.5,0.3-2.3,0.4-2.5l2.3-11.1h8.5v26.2H387l0.5-20.2l-4.1,20.2h-4.7l-4.1-20.2l0.5,20.2L369.2,439.8L369.2,439.8z"/>
</g>
<polygon points="4.4,431.9 10.3,437.8 38,411.7 42,416.5 10.3,448.1 -0.8,437.4 "/>
</svg>
