<?xml version="1.0" encoding="utf-8"?>
<!-- Generator: Adobe Illustrator 19.0.1, SVG Export Plug-In . SVG Version: 6.00 Build 0)  -->
<svg version="1.1" id="Layer_1" xmlns="http://www.w3.org/2000/svg" xmlns:xlink="http://www.w3.org/1999/xlink" x="0px" y="0px"
	 viewBox="102 20.9 800 800" style="enable-background:new 102 20.9 800 800;" xml:space="preserve">
<style type="text/css">
	.st0{fill:#383838;}
	.st1{fill:#F26222;}
</style>
<g>
	<path class="st0" d="M338.2,674.3c-32,0-64.5,3.3-96-0.9c-33.1-4.4-66-14-97.7-25c-26.7-9.2-35.8-45.1-17.5-67.6
		c9.8-12.1,24.7-21.4,39.1-28c16.6-7.5,35.1-11.1,53-15.6c19.4-4.9,32.4-22.5,16.4-41.4c-6-7.1-7.7-17.7-11.9-26.5
		c-4.1-8.6-8.8-16.9-13.3-25.3c-5-9.3-12.4-17.7-3.3-29.3c2.7-3.4,1-10.8,0.2-16.3c-8-53,35.3-89.9,86.6-73.8
		c7.4,2.3,9.4,5.4,6.6,13.4c-25.9,72.7-17.7,141,26.3,204.9c2.3,3.3,2,11.2-0.5,14.4c-19.7,25.7-20.1,54.8-12.8,83.7
		C316.3,652.5,328.4,661.6,338.2,674.3z"/>
	<path class="st1" d="M809,772.6c-7.3-4.1-16-6.8-21.8-12.5c-46.8-46-93.8-92-139-139.6c-9.2-9.7-11.5-26.1-16.2-39.6
		c-0.6-1.7,2.6-5.2,4.6-7.4c4.5-4.9,9.1-9.8,14.1-14.2c7.2-6.3,15.7-18,22-17c14.7,2.3,31.6,7.5,42,17.4
		c45.9,43.3,89.8,88.6,134.4,133.3c18,18.1,18.1,33.3-0.6,51.5C837.4,755.4,828.8,770.6,809,772.6z"/>
	<path class="st0" d="M694.8,510.6c21.6-61.9,31.9-82.1,2.6-185.5c29-11.5,85.4,15,93.6,44.3c1.6,5.8,1.4,12.2,2.1,18.2
		c1.3,10.9,3.7,21.8,3.7,32.7c0,7.4-2.7,15-5.4,22c-4.4,11.6-9.7,22.9-14.8,34.2c-3.8,8.4-7.2,16.9-11.9,24.8
		c-7.5,12.6-6.3,23.1,6.7,29.5c11.4,5.5,23.9,8.6,36.1,12.4c9.8,3,20,4.8,29.5,8.2c38.6,13.8,51.2,35.6,45.1,75.9
		c-2.2,14.4-14.1,18.6-24.8,21.9c-4.6,1.4-12.9-3.1-17.2-7.3c-33-32.2-64.9-65.6-98.4-97.3C728.4,531.8,711.8,522.7,694.8,510.6z"/>
	<path class="st1" d="M685.5,417.5c-0.5,103.1-83,183-187.3,183.6c-85.4,0.5-182.1-67.4-183.1-183.6
		c-0.9-107.4,83.3-186.8,186.2-187C604.6,230.2,686.1,314.2,685.5,417.5z M334.1,416.3c0.6,91.5,76.8,167.1,167.2,166
		c92.1-1.1,166.9-76.8,165.6-167.5c-1.3-91.3-75.9-165.4-166.3-165.3C409.5,249.6,333.5,325.8,334.1,416.3z"/>
	<path class="st0" d="M531.7,202.8c1.3-11.3,3.6-19.1,2.7-26.5c-3.1-24.8-0.5-48,20.7-63.7c23.2-17.1,49.5-17.5,76-7.4
		c5.2,2,10.1,5,15.4,6.8c25.8,9,38.7,29.2,37.3,56.4c-0.5,9.2,2.9,18.6,2.9,27.9c0,6.9-1.7,14.1-4.2,20.6
		c-5.6,14.4-12.1,28.5-18.3,42.7c-1.2,2.8-2.5,5.5-4.9,10.8C623.3,232.7,579.9,210.8,531.7,202.8z"/>
	<path class="st0" d="M343.2,268.8c-3.3-7.8-5.6-13.9-8.5-19.7c-4.9-9.9-9.9-19.7-15.1-29.4c-4.9-9.1-10.2-17.7-2.1-28.3
		c2.1-2.8,0.6-8.7,0.1-13.2c-2.5-25.4-1.7-50.3,21.6-66.4c23.6-16.3,49.7-16.9,76.1-6.2c5.7,2.3,11.2,4.9,17,6.8
		c20.1,6.9,30.9,21.3,33.5,41.8c1.8,14.1,2.6,28.3,3,42.4c0.1,2.5-3.3,7-5.7,7.4C416.9,212.5,377.8,234.4,343.2,268.8z"/>
	<path class="st1" d="M353.4,574.3c77,64.3,161.4,72.8,250.7,31.8c9.4,15.5,18.5,30.6,29.5,48.8c-25,5.9-49.9,13.3-75.3,17.3
		c-67.3,10.7-132.7,3.4-195.2-24.6C334.8,635.1,329.7,597.4,353.4,574.3z"/>
	<path class="st1" d="M440.6,537.6c3.5-1.7,6.7-3.1,9.7-4.8c12.8-7.6,15.1-18,8.5-31.2c-6-11.8-10.6-24.4-16.2-36.4
		c-3.2-6.8-7.4-13-10.9-19.7c-5.1-9.7-15.3-18.1-4.5-31.2c3.2-3.9,0.6-12.9,0.2-19.5c-3.6-56.8,42.9-89.3,96.1-66.9
		c8,3.4,16.1,6.4,24.1,10c19.6,8.7,27.4,25.1,29.3,45.3c1.2,13.1,2.9,26.1,3,39.2c0.1,6.4-2.3,13.1-4.7,19.1
		c-4.8,12-10.5,23.7-15.7,35.6c-2.7,6.1-4.5,12.6-7.7,18.4c-12.6,22.7-11.7,27.1,9.9,40C543.3,555.9,472.3,559.5,440.6,537.6z"/>
</g>
</svg>
