<?xml version="1.0" encoding="utf-8"?>
<!-- Generator: Adobe Illustrator 19.0.1, SVG Export Plug-In . SVG Version: 6.00 Build 0)  -->
<svg version="1.1" id="Layer_1" xmlns="http://www.w3.org/2000/svg" xmlns:xlink="http://www.w3.org/1999/xlink" x="0px" y="0px"
	 viewBox="94 -4 800 800" style="enable-background:new 94 -4 800 800;" xml:space="preserve">
<style type="text/css">
	.st0{fill:#404040;}
	.st1{fill:#F26222;}
</style>
<g>
	<path class="st0" d="M430.5,658.2c0.1-0.4,0.2-0.8,0.2-1.3c0-4.1,0-8.3-0.1-12.4c0-1.6-0.3-3.2-0.7-4.7c-1.8-7.8-7-12.1-14.5-13.8
		c-5.7-1.3-11.5-1.2-17.3-0.7c-9.6,0.8-18.8,3.2-27.8,6.3c-0.3,0.1-0.6,0.2-1.1,0.3c-1.4-4.9-2.5-9.9-3.6-15c1-0.5,1.8-0.9,2.7-1.2
		c8.9-3.7,18.2-6.3,27.7-7.7c7.5-1.2,15.2-1.3,22.8-0.9c6,0.4,11.9,1.6,17.4,4.1c10.4,4.6,16.5,12.7,18.5,23.8
		c0.6,3.3,0.8,6.6,0.8,9.9c0.1,28,0,56,0,83.9c0,0.9-0.1,1.7-0.1,2.7c-0.8,0.1-1.4,0.2-2.1,0.2c-5,0-10,0-15,0
		c-2.2,0-2.2-0.1-2.5-2.3c-0.4-3.1-0.9-6.2-1.4-9.2c-0.1-0.5-0.3-0.9-0.6-1.6c-0.8,0.7-1.5,1.2-2.2,1.7c-6,4.9-12.5,9.1-20,11.5
		c-7.3,2.4-14.9,2.9-22.5,2.1c-3.5-0.4-6.9-1-10.1-2.2c-9.7-3.4-16.1-10.1-18.6-20.1c-2-7.7-1.9-15.5,0.3-23.2
		c2.8-9.5,9-16.2,17.5-20.9c6.3-3.5,13.2-5.5,20.2-6.9c9.5-1.9,19.1-1.9,28.8-1.9c0.9,0,1.7-0.1,2.6-0.1
		C430.1,658.4,430.3,658.3,430.5,658.2z M430.6,674.4c-0.5-0.1-0.8-0.2-1-0.2c-7.9,0-15.8-0.4-23.6,0.9c-4.8,0.8-9.5,2-13.7,4.6
		c-4.1,2.6-6.7,6.1-7.8,10.8c-1,4.4-1,8.9,0.3,13.3c1.8,6,5.7,9.8,11.7,11.5c4.2,1.2,8.4,1.1,12.7,0.2c7.8-1.8,14.4-5.9,20.5-10.8
		c0.9-0.7,1.1-1.6,1.1-2.7c0-8.6,0-17.1,0-25.7C430.7,675.7,430.6,675.1,430.6,674.4z"/>
	<path class="st0" d="M660.7,658.4c0-2.1,0-4,0-5.9c-0.1-3.5,0-7-0.4-10.4c-1.2-9.8-7.1-14.2-15-16.1c-5.7-1.3-11.5-1.2-17.3-0.7
		c-9.9,0.8-19.3,3.4-28.6,6.6c-0.8-1.5-3.4-12-3.7-15.1c1.4-0.6,2.9-1.3,4.5-1.9c8.4-3.3,17-5.6,25.9-7c7.5-1.1,15-1.3,22.5-0.9
		c6.1,0.4,12.2,1.6,17.8,4.2c10.6,4.8,16.5,13.1,18.3,24.4c0.5,2.9,0.6,5.9,0.6,8.9c0,28,0,56.1,0,84.1c0,0.9-0.1,1.7-0.1,2.8
		c-0.8,0.1-1.5,0.2-2.2,0.2c-4.9,0-9.9,0-14.8,0c-2.2,0-2.2,0-2.5-2.3c-0.4-2.9-0.9-5.9-1.3-8.8c-0.1-0.6-0.3-1.2-0.6-2.1
		c-0.9,0.7-1.6,1.2-2.2,1.7c-5.4,4.4-11.1,8.1-17.6,10.7c-8.1,3.1-16.4,3.9-24.9,3c-3.5-0.4-7-1.1-10.4-2.3
		c-10.6-3.8-16.8-11.4-19-22.3c-1.2-6-1.2-12.1,0.1-18.1c2-9.1,7-16.3,14.7-21.5c6-4.1,12.7-6.6,19.7-8.3c8.9-2.1,18-2.8,27.1-2.8
		c2.2,0,4.3,0,6.5,0C658.8,658.6,659.5,658.5,660.7,658.4z M660.7,674.5c-0.6-0.2-0.8-0.3-1-0.3c-8,0-16.1-0.4-24,0.9
		c-4.2,0.7-8.3,1.7-12.1,3.8c-5.1,2.8-8.4,6.8-9.3,12.6c-0.4,2.8-0.5,5.6-0.3,8.4c0.6,8,5.7,13.9,13.4,15.6c4.5,1,9,0.7,13.5-0.6
		c6.9-1.9,12.8-5.6,18.3-10c1.1-0.9,1.6-1.9,1.6-3.3c-0.1-8.3,0-16.6,0-25C660.7,676,660.7,675.3,660.7,674.5z"/>
	<path class="st0" d="M527.1,707c11.4-31.7,19.8-64.2,24.4-97.7c8.7,0,17.2,0,26,0c-0.1,0.8-0.1,1.5-0.2,2.2
		c-3.6,19.9-8.3,39.5-14.2,58.8c-6.1,20.1-13.3,39.8-22.1,58.9c-0.2,0.5-0.4,0.9-0.6,1.4c-0.3,0.7-0.8,1.2-1.7,1.1
		c-0.4,0-0.7,0-1.1,0c-8.8,0-17.7,0-26.5,0c-0.7,0-1.4,0-2.4,0c-12.5-40.8-25-81.5-37.6-122.2c1.8-0.5,23.4-0.6,26.8-0.2
		c0.2,0.6,0.5,1.2,0.8,1.9c7.5,24.1,15,48.1,22.3,72.2c1.8,6,2.9,12.2,4.4,18.4c0.4,1.7,0.8,3.5,1.3,5.2
		C526.7,707,526.9,707,527.1,707z"/>
	<path class="st0" d="M340.2,565.4c0,0.8,0.1,1.5,0.1,2.2c0,46.9,0,93.8,0,140.6c0,7.9-0.4,15.8-1.5,23.6
		c-1.9,14-8.8,24.9-19.8,33.5c-5.3,4.1-11.1,7.4-17.2,10c-2,0.8-2,0.8-3.3-0.7c-3.3-3.9-6.7-7.8-10-11.8c-0.2-0.3-0.4-0.6-0.8-1
		c0.6-0.4,1.1-0.7,1.7-1c5.8-3.3,10.8-7.5,15.2-12.5c4.7-5.4,7.3-11.8,8.2-18.8c1-7.7,1.3-15.4,1.3-23.2c0-45.9,0-91.9,0-137.8
		c0-1,0-2,0-3.1C322.9,565.4,331.4,565.4,340.2,565.4z"/>
	<g>
		<path class="st1" d="M547.6,24.5c12.1,20,12.4,38.8,5.5,58.1c-9.9,27.4-29.5,47.3-50.6,66.1c-12.7,11.3-26,22.1-37.1,34.8
			c-20.3,23.4-22,46.7-6.7,73.7c6.3,11.1,13.9,21.4,20.8,32.1c2.1,3.2,4.1,6.5,5.5,10.3c-22.1-20.2-44.9-39.7-56.9-68.2
			c-7.6-18.3-4.6-35.7,8.9-49.6c14.9-15.4,31.5-29.2,47.5-43.6c11.6-10.4,23.9-20.1,35.1-30.9C542.4,85.2,553.3,58.7,547.6,24.5z"/>
		<path class="st0" d="M660.8,478.1c3.1,4.8-0.3,9.2-4.8,11.3c-11.7,5.6-23.4,12.4-35.9,14.8c-30.4,6-61.2,11.5-92.1,14
			c-33,2.6-66.4,3.3-99.4,1.6c-37.5-2-74.8-7.5-112.1-11.7c-3.6-0.4-7.2-1.8-10.5-3.3c-9.4-4.2-10.3-10.2-1.8-16.4
			c15.2-11.1,32.8-16.4,51.1-19.5c4.9-0.8,9.9-1.3,15.2-0.3c-5.3,1.3-10.7,2.3-15.8,4c-6.4,2.1-12.9,4.3-18.9,7.5
			c-2.8,1.5-5.7,5.3-5.8,8.2c-0.1,2,4,5.5,6.8,6.2c14.2,3.7,28.4,8.6,42.9,9.6c39.5,2.7,79.2,5.3,118.8,4.9
			c43.8-0.5,87.7-3.1,130.7-13c5.8-1.3,11.8-2.7,16.8-5.6C651.2,487.5,655.4,482.7,660.8,478.1z"/>
		<path class="st1" d="M520.5,317.7c11.2-17.8,8.1-33.7-4.8-49.1c-5.9-7.1-11.1-15.1-15.2-23.4c-10.7-21.9-7-42.4,8.4-60.8
			c17-20.3,39.8-32.3,63.8-42.4c8.3-3.5,16.8-6.5,25.4-9.7c-17,12.3-33.9,24.3-50.6,36.5c-2.1,1.5-3.9,3.3-5.8,5
			c-23.6,22.4-25.4,38.7-7.4,65.7c3.6,5.4,7.5,10.7,11,16.2c8.5,13.3,8.7,27-0.5,39.7c-6.3,8.8-14.5,16.2-21.9,24.2
			C522,319,521.2,318.3,520.5,317.7z"/>
		<path class="st0" d="M570.1,454.8c-12.1,3.3-24,7.4-36.3,9.9c-34.8,7.2-69.7,7.7-104.4-0.7c-7.6-1.9-15.1-4.9-21.9-8.8
			c-3.6-2.1-7.9-7.2-7.7-10.7c0.2-3.6,5.4-7,8.8-10.1c1.6-1.4,4.1-1.7,6.8-2.8c0.3,8.8,6.4,10.7,13.1,11.9c34.9,6.3,70,7,104.5-1
			c15.5-3.6,24.8,5.9,36.8,9.9C569.9,453.1,570,454,570.1,454.8z"/>
		<path class="st0" d="M577.8,397.4c-54.5,13.7-109.5,19.5-165.3,8.7c-7.9-1.5-15.8-4.5-23-8.2c-9.1-4.7-9.2-10.6-0.8-16.7
			c4.1-2.9,8.8-4.9,13.7-7.6c-2,10.2,0.9,15,10.8,16.6c10.9,1.8,21.9,3.2,32.9,3.6c36.8,1.4,73.4-0.3,109.9-7.4
			c6.8-1.3,15.1,5,22.7,7.8C578.4,395.3,578.1,396.4,577.8,397.4z"/>
		<path class="st0" d="M417.1,311.9c-11.4,4.5-22.3,8.3-32.8,13.1c-3.2,1.5-5.3,5.3-8,8.1c3.3,2.3,6.3,6.1,9.9,6.6
			c13.6,2.2,27.4,4.3,41.2,4.6c55.3,1.2,110.3-2.4,166-11.8c-12.6,10.3-27,11.7-40.9,14c-40.9,6.8-82.1,9.9-123.5,8.3
			c-25-1-50-5-74.9-8.4c-4.6-0.6-8.7-5.1-13-7.8c4-3.2,7.5-7.4,12-9.6C373.2,319.4,394.3,313.6,417.1,311.9z"/>
		<path class="st0" d="M682.9,505.8c-5.1,8.8-13.5,15-23.1,17.7c-22.4,6.5-45,13.2-68,16.9c-44,7.1-88.6,6.8-133,5.1
			c-24.5-0.9-48.8-5.3-73.2-8.1c-1.9-0.2-3.7-1.1-5.4,0c41,1,82,3.4,122.9,2.6c48.9-0.9,97.7-5.7,144.8-20.2
			C659.9,516.2,671.3,510.5,682.9,505.8z"/>
		<path class="st0" d="M614.6,404.4c11.1-9.4,26.2-20.9,39.7-34c8.8-8.6,13.9-20.3,11.3-33.3c-3.8-18.7-19-27.9-42.1-26.4
			c12-7,31.6-6.3,44.4,2c11.4,7.4,18.4,17.7,17.6,31.8c-0.8,13.6-8.3,23.9-18.1,32.5C650.7,391.7,630.7,399.4,614.6,404.4z"/>
	</g>
</g>
</svg>
