<?xml version="1.0" encoding="utf-8"?>
<!-- Generator: Adobe Illustrator 19.0.1, SVG Export Plug-In . SVG Version: 6.00 Build 0)  -->
<svg version="1.1" id="Layer_1" xmlns="http://www.w3.org/2000/svg" xmlns:xlink="http://www.w3.org/1999/xlink" x="0px" y="0px"
	 viewBox="94 -4 800 800" style="enable-background:new 94 -4 800 800;" xml:space="preserve">
<style type="text/css">
	.st0{fill:#383838;}
	.st1{fill:#F26222;}
</style>
<g>
	<path class="st0" d="M108.6,217.5c8.1-16.1,14.3-33.6,24.8-48c12.8-17.7,32.6-27.7,54.5-28.4c40.5-1.3,81-0.4,123.1-0.4
		c0,10.5,0,20.6,0,32.7c-35.1,0-70,1.6-104.7-0.4c-44.2-2.6-64.2,22.6-64,63.3c0.7,126.6,0.2,253.3,0.2,379.9
		c0,37.3,20.8,57.3,59.9,57.4c168.3,0.1,336.6-0.1,504.9-0.1c20.6,0,41.1,0.3,61.7,0c35.7-0.6,56-20.4,56.1-55.9
		c0.3-130,0.3-260,0.1-389.9c-0.1-34.7-20.4-54-55.5-54.2c-37.1-0.2-74.3,0-113,0c0-11,0-21,0-33.3c33.1,0,65.7-0.2,98.3,0.1
		c11.6,0.1,23.7-0.6,34.8,2.3c34.4,9,56.7,31.1,65.7,66c0.8,3.1,2.4,6,3.6,9c0,136.7,0,273.5,0,410.2c-1.2,3.1-2.7,6-3.5,9.2
		c-10.7,41.9-44.8,69.8-88.1,69.9c-189.3,0.3-378.6,0.6-567.9-0.7c-18.1-0.1-37.2-9.5-53.8-18.3c-21.8-11.8-28.6-35.4-37.2-56.9
		C108.6,493.2,108.6,355.3,108.6,217.5z"/>
	<path class="st0" d="M483.7,204.7c-39.4,0-78.8,0.1-118.3-0.1c-22.6-0.1-26.9-4.7-26.9-27.7c0-23.9-0.1-47.8,0.1-71.6
		c0.2-16.5,6.5-22.9,23-23.9c3.9-0.3,7.8-0.4,11.7-0.2c20.8,1.4,35.3-1.4,48.9-23.8c30-49.4,105.1-41.5,130.9,11.3
		c4.8,9.8,9.6,13.2,19.8,12.5c10.5-0.7,21.1-0.2,31.6,0.2C623,82,628.9,88.2,629,107c0.1,24.4,0.1,48.9-0.1,73.3
		c-0.2,18.3-5.5,23.9-23.6,24.3c-20.5,0.4-41.1,0.1-61.6,0.1C523.7,204.7,503.7,204.7,483.7,204.7L483.7,204.7z M520,101.3
		c-0.1-20.4-16.7-37.1-36.8-36.8c-19.1,0.3-35.4,17-35.6,36.5c-0.2,21.3,16.7,39,36.9,38.6C504.4,139.2,520.1,122.3,520,101.3z"/>
	<path class="st1" d="M190.8,585.8c3.4-41.4-2.6-84.1,30-116.3c10.8-10.7,25.3-17.7,38.5-26.6c6.5,17.4,11.5,30.7,16.5,43.9
		c1.6-0.4,3.2-0.7,4.9-1.1c2-10.8,4-21.6,5.9-32.4c2.3,0,4.6,0.1,6.9,0.1c2.1,10.6,4.1,21.2,6.2,31.7c1.4,0.4,2.9,0.9,4.3,1.3
		c5.2-13.1,10.4-26.3,15.7-39.5c58.6,13.9,71.1,64.6,68.1,138.9C322.8,585.8,257.7,585.8,190.8,585.8z"/>
	<path class="st1" d="M456,329.6c0-10.7,0-20.1,0-30.6c106.1,0,211.8,0,318.6,0c0,9.9,0,19.6,0,30.6
		C669,329.6,563.3,329.6,456,329.6z"/>
	<path class="st1" d="M456.5,412.9c0-11.1,0-20.9,0-31.6c106.1,0,211.2,0,317.8,0c0,10.2,0,20.3,0,31.6
		C668.9,412.9,563.3,412.9,456.5,412.9z"/>
	<path class="st1" d="M456,496.6c0-10.9,0-20.3,0-30.8c106.1,0,211.9,0,318.7,0c0,10,0,19.7,0,30.8C669,496.6,563.3,496.6,456,496.6
		z"/>
	<path class="st1" d="M291.4,302c29.9,0.6,49.9,27.4,44.8,56.7c-4.1,23.9-14.6,43.8-32.4,59c-5.4,4.6-18.5,5.5-25.4,2.3
		c-24.3-11.1-42.1-66.4-31-90.7C254.6,313.3,273.4,301.6,291.4,302z"/>
	<path class="st0" d="M778.7,569.9c0,22.1-18.1,40.2-40.2,40.2c-21.8-0.1-39.6-18.4-39.5-40.7c0.1-22.6,17.5-39.9,40.1-39.8
		C761.5,529.8,778.7,547.3,778.7,569.9z"/>
	<path class="st1" d="M601.3,554.8c0,10.6,0,20.4,0,31.1c-48.4,0-95.9,0-144.5,0c0-10.1,0-19.8,0-31.1
		C504.4,554.8,552.2,554.8,601.3,554.8z"/>
</g>
</svg>
