<?xml version="1.0" encoding="utf-8"?>
<!-- Generator: Adobe Illustrator 20.1.0, SVG Export Plug-In . SVG Version: 6.00 Build 0)  -->
<svg version="1.1" id="Layer_1" xmlns="http://www.w3.org/2000/svg" xmlns:xlink="http://www.w3.org/1999/xlink" x="0px" y="0px"
	 viewBox="0 0 800 800" style="enable-background:new 0 0 800 800;" xml:space="preserve">
<style type="text/css">
	.st0{fill:#383838;}
	.st1{fill:#F26222;}
	.st2{fill:#FFFFFF;}
</style>
<g>
	<path class="st0" d="M338.1,590.7c0-36.6,0-70.6,0-105.8c25.2,0,49.7,0,75.3,0c0,34.5,0,68.9,0,105.8c6.4,0,11.7,0,17,0
		c50.3,0,100.7-0.1,151,0c27.1,0,43.9,14.6,44.1,37.7c0.2,23.3-16.6,38.3-43.4,38.3c-137.3,0.1-274.5,0.1-411.8,0
		c-26.8,0-43.8-14.9-43.7-38c0-23.1,17-37.9,43.9-37.9c49.8-0.1,99.6,0,149.5,0C325.4,590.7,330.9,590.7,338.1,590.7z"/>
</g>
<g>
	<g>
		<path class="st1" d="M421.4,540.4c-88.3,0-176.6-1.4-264.8,0.4C50.1,542.9,0.6,475.7,15.8,370c7.3-50.8,47.3-75.5,93.6-87
			c25.4-6.3,39.7-15.4,47.8-43.2c41.1-141.5,194.2-179,297-73.6c14.1,14.4,25.4,19,45.7,13c98.9-28.9,174.4,20.6,192.2,122.1
			c1.9,11,13.6,24.2,24.2,29.3c63.9,30.4,88.1,87.9,62.5,153.6c-14.5,37.1-42,56.2-81.9,56.2C605.1,540.5,513.2,540.4,421.4,540.4z"
			/>
	</g>
</g>
<g>
	<path class="st2" d="M535.2,223.7c-9.7,8.1-19.5,16-29,24.3c-5.7,5.1-11.9,8.3-19.7,8c-8-0.4-13.9,2.8-19.7,8.6
		c-28.4,29.1-57.3,57.6-86,86.3c-1.1,1.1-2,2-3.1,3.1c-3.7,3.7-7.9,5.4-12,1.3c-4.2-4.2-2.4-8.3,1.3-12
		c13.6-13.5,27.1-27.1,40.8-40.8c16.3-16.3,32.5-32.9,49.2-48.9c5.6-5.3,8.3-11,8.1-18.4c-0.3-8.3,2.9-14.9,8.4-21
		c8.3-9.2,16-18.8,23.8-28.3c1,0,1.9,0,2.9,0c0.6,8,1.5,15.9,2,23.8c0.4,5.9,3.4,8.7,9.2,9.2c8,0.6,16,1.4,23.8,2
		C535.2,221.8,535.2,222.8,535.2,223.7z"/>
	<path class="st2" d="M445.7,249.1c-61.3-43.5-137.3-24.6-174.9,26c-37.9,51-32.2,121.5,13.7,165.3c46,44.1,116.7,46.5,166.3,5.9
		c47.6-39.1,62.7-112.3,21.1-170.7c4.7-6.7,19.7-12.8,26.6-10.2c1.9,0.7,3.2,3.5,4.5,5.5c42.6,70.2,21.4,162.8-47.4,207.7
		c-94.3,61.6-220.3,5.1-236.9-106.3c-12.9-86.2,50-166.6,136.9-175.2c33.5-3.3,64.6,3.8,93.8,20.4c4.7,2.7,6.8,5.2,6,11.2
		C454,236.7,454.4,244.8,445.7,249.1z"/>
	<path class="st2" d="M424,270.8c-6.8,6.5-13.6,13-20.8,19.7c-37.9-14.6-70.7-6.2-89.3,23.6c-16.9,26.9-12.7,62.3,10,84.2
		c23.2,22.5,59,25.4,85.1,7.3c23.1-16,40.5-50,21.4-88.2c6.8-6.7,13.5-13.4,20.1-19.9c21.5,25.6,26,82-10.5,119.3
		c-36.6,37.6-96,39.1-134.8,3.2c-37.6-34.8-40.5-94.8-7-133.1C334.4,245.7,393.3,246.7,424,270.8z"/>
	<path class="st2" d="M407.4,339.9c5,16.6-1.8,34.2-16.7,43.1c-15.2,9.2-34.5,6.8-47-5.7c-12.6-12.6-14.9-31.7-5.7-47
		c8.9-14.9,26.3-21.7,44.2-16.5c-7.8,7.7-15.3,14.9-22.7,22.1c-8.5,8.5-9,18.7-1.6,26.5c7.7,8,18.2,7.6,27-1.1
		c7.3-7.1,14.5-14.4,21.8-21.5C406.9,339.8,407.2,339.9,407.4,339.9z"/>
</g>
</svg>
