<?xml version="1.0" encoding="utf-8"?>
<!-- Generator: Adobe Illustrator 19.0.1, SVG Export Plug-In . SVG Version: 6.00 Build 0)  -->
<svg version="1.1" id="Layer_1" xmlns="http://www.w3.org/2000/svg" xmlns:xlink="http://www.w3.org/1999/xlink" x="0px" y="0px"
	 viewBox="0 0 800 800" style="enable-background:new 0 0 800 800;" xml:space="preserve">
<style type="text/css">
	.st0{fill:#404040;}
	.st1{fill:#F26222;}
</style>
<g>
	<path class="st0" d="M213.2,123.9c2.4,0,4.1,0,5.8,0c53.6,0,107.3,0.1,160.9-0.1c4.8,0,6.2,1.3,6.2,6.1
		c-0.1,53.5-0.1,106.9,0,160.4c0,4.9-1.4,6.6-6.4,6.6c-53.5-0.2-106.9-0.1-160.4,0c-4.6,0-6.2-1-6.2-6c0.2-53.8,0.1-107.6,0.1-161.4
		C213.2,127.7,213.2,126.2,213.2,123.9z"/>
	<path class="st1" d="M491.1,296.3c-26.6,0-53.1-0.1-79.7,0.1c-5,0-6.4-1.4-6.4-6.4c0.2-53.3,0.2-106.6,0-159.9
		c0-4.8,1.2-6.2,6.1-6.2c53.5,0.2,106.9,0.2,160.4,0c4.5,0,6,1.2,6,5.8c-0.1,53.5-0.1,106.9,0,160.4c0,4.7-1.3,6.3-6.2,6.2
		C544.5,296.2,517.8,296.3,491.1,296.3z"/>
	<path class="st1" d="M213.2,310.5c2.4,0,4.1,0,5.8,0c53.6,0,107.3,0.1,160.9-0.1c4.8,0,6.2,1.3,6.2,6.1
		c-0.1,53.5-0.1,106.9,0,160.4c0,4.9-1.4,6.6-6.4,6.6c-53.5-0.2-106.9-0.1-160.4,0c-4.6,0-6.2-1-6.2-6c0.2-53.8,0.1-107.6,0.1-161.4
		C213.2,314.4,213.2,312.8,213.2,310.5z"/>
	<path class="st0" d="M491.1,482.9c-26.6,0-53.1-0.1-79.7,0.1c-5,0-6.4-1.4-6.4-6.4c0.2-53.3,0.2-106.6,0-159.9
		c0-4.8,1.2-6.2,6.1-6.2c53.5,0.2,106.9,0.2,160.4,0c4.5,0,6,1.2,6,5.8c-0.1,53.5-0.1,106.9,0,160.4c0,4.7-1.3,6.3-6.2,6.2
		C544.5,482.8,517.8,482.9,491.1,482.9z"/>
</g>
<g>
	<path class="st0" d="M150.9,626.6c-0.8,1.7-1.6,3.4-2.3,5.2c-12,30.1-24,60.2-35.8,90.4c-1.7,4.3-3.8,5.7-8.4,5.5
		c-11.5-0.6-8.5,1.8-12.9-9c-11.9-29.3-23.6-58.6-35.4-87.9c-0.6-1.4-1.4-2.8-2.1-4.2c-0.5,0.1-0.9,0.2-1.4,0.2c0,1.7,0,3.4,0,5.1
		c0,30-0.1,60,0.1,90c0,4.2-0.9,6.2-5.5,5.7c-4.7-0.5-11,1.1-13.8-1.4c-2.4-2.1-1-8.7-1-13.4c0-36.8,0.1-73.7-0.1-110.5
		c0-4.7,1.1-6.5,6.1-6.2c6.6,0.4,13.3,0.3,20,0c4.1-0.2,6.1,1.1,7.7,5.1c11.2,29,22.7,57.9,34.2,86.8c0.8,1.9,1.7,3.8,3.2,6.9
		c1.7-4.1,3-6.9,4.1-9.8c11.3-27.9,22.8-55.7,33.9-83.7c1.6-3.9,3.5-5.8,8-5.5c6.3,0.4,12.7,0.4,19,0c4.5-0.2,5.6,1.3,5.6,5.7
		c-0.2,37.7-0.1,75.3-0.1,113c0,12.7,0,12.8-12.9,12.7c-10.1-0.1-8.6,1.3-8.6-8.8c-0.1-28.8,0-57.7,0-86.5c0-1.8,0-3.6,0-5.4
		C152,626.8,151.4,626.7,150.9,626.6z"/>
	<path class="st0" d="M755.6,606.1c0,7.9,0.3,15-0.1,22.1c-0.3,4.8,1.3,6.6,6.1,6.1c4.1-0.4,8.3,0,12.5-0.1c2.9-0.1,3.8,1.1,3.7,3.8
		c-0.4,15.7,2.3,12.6-12.3,12.8c-12.1,0.2-9.9-0.8-10,10.2c-0.1,12.5-0.1,25,0.1,37.5c0.2,11.7,6.9,16.4,18.2,13.1
		c1.1-0.3,2.2-0.6,3.8-1c0,4.9,0.2,9.4-0.2,13.8c-0.1,1.3-1.9,3.1-3.2,3.5c-7.9,2.4-16.1,2.7-24.1,0.4c-9.5-2.8-15.7-12-15.9-23.6
		c-0.2-16-0.3-32,0-48c0.1-4.8-1.6-6.1-6.1-5.9c-7.5,0.2-15,0.3-22.5,0c-4.6-0.2-6.3,1.1-6.3,6.1c0.3,21.8,0,43.6,0.2,65.5
		c0,4.1-1.1,5.7-5.3,5.3c-3.8-0.3-7.7-0.3-11.5,0c-3.8,0.3-4.8-1.2-4.8-4.9c0.1-20.5,0.1-41,0-61.5c0-11.3,1.6-10.6-10.4-10.4
		c-4.5,0.1-5.7-1.4-5.6-5.7c0.2-10.8,0-11,11-11c4.2,0,5-1.7,5.1-5.4c0.1-6.1-0.1-12.4,1.2-18.3c2.8-13.1,14.5-22.9,27.8-23.3
		c20.7-0.5,16-1,16.6,16.1c0,0.6-0.2,1.3-0.4,2c-3.3-0.3-6.4-0.9-9.4-1c-8.5-0.1-13.7,4.7-14.3,13.3c-0.3,4.3,0,8.7-0.1,13
		c-0.1,2.7,1.1,3.5,3.6,3.5c9-0.1,18-0.1,27,0c3.1,0,4.1-1.3,4.1-4.2c-0.1-4.7-0.3-9.4,0.1-14c0.2-1.6,1.8-3.9,3.3-4.5
		C743.2,609.5,748.8,608.1,755.6,606.1z"/>
	<path class="st0" d="M563,678c-0.1-12.1,4.2-26,17-36.2c15.4-12.4,44.5-13.4,60.7-2.1c11.4,7.9,16.6,19.4,17.9,32.6
		c0.9,9.3,0.5,18.6-2.7,27.6c-6.1,17.4-22,29.5-40.5,29.6c-7.7,0.1-15.8-0.3-23.1-2.4C573.4,721.5,562.8,704.3,563,678z
		 M584.4,680.9c0.5,3.8,0.8,7.2,1.4,10.7c2.5,13.1,11.6,20.8,25.1,21.2c13,0.4,22.1-6.3,24.7-19.8c1.4-7.3,1.5-15.3,0.4-22.7
		c-2-13.4-11.4-20.9-24.4-21.1c-12.9-0.2-22.4,7.3-25.5,20.2C585.2,673.2,585,677.2,584.4,680.9z"/>
	<path class="st0" d="M479.4,680.6c-1.9,7.8-2.9,16.1-6,23.4c-6.1,14.4-17.7,22.7-33.2,25c-16,2.4-31.3,0.8-44-10.7
		c-7.7-7-12.1-16-13.3-26.2c-2.2-18.7,0-36.4,15.6-49.6c6.1-5.2,13.3-8.8,21.2-9.2c9-0.5,18.4-1,27.2,0.8
		c17.8,3.7,29.8,19.4,30.9,37.8c0.2,2.8,0,5.7,0,8.5C478.3,680.4,478.8,680.5,479.4,680.6z M456.8,681.5c-0.5-4.1-0.7-8-1.5-11.7
		c-2.4-12.4-10.8-19.7-23.4-20.6c-12.2-0.8-22.1,5.8-25.8,17.6c-2.5,7.9-2.8,16-1.2,24.1c2.5,13.3,11.7,21.3,25.3,21.7
		c13,0.4,21.7-6.2,24.8-19.2C455.9,689.5,456.2,685.3,456.8,681.5z"/>
	<path class="st0" d="M546.8,652.7c-8.2-1.4-15.7-3.2-23.3-3.9c-5.8-0.5-10.6,3.2-11.6,7.6c-1.2,5.3,0.9,9.6,6.7,12.6
		c6.5,3.3,13.4,5.9,19.7,9.5c12.1,6.9,16.6,18.9,12.2,31.5c-3.5,10.2-11.5,15.8-21.5,18.3c-11.9,3-23.8,2-35.3-2.1
		c-1.4-0.5-3.1-2.4-3.1-3.7c-0.4-5.4-0.1-10.9-0.1-16.7c5.2,2.1,9.8,4.9,14.7,5.8c6.1,1.1,12.5,1.3,18.6,0.4c2.5-0.4,5.4-4.1,6.6-7
		c1.4-3.5,0-7.4-3.5-9.6c-4.1-2.5-8.5-4.6-12.7-6.8c-3.6-1.8-7.2-3.4-10.7-5.3c-17.2-9-17.4-35.5-0.3-45.5
		c13.4-7.9,27.3-6.9,41.5-2.9c1,0.3,2.3,2,2.4,3.1C546.9,643.3,546.8,648.4,546.8,652.7z"/>
	<path class="st0" d="M307.7,656c-22.1-9.8-35.2-8.5-44.8,4.1c-8.5,11-8.6,31.5-0.3,42.3c9.3,12,22.9,13.1,45.1,3.1
		c0,5.7,0.1,11.1-0.1,16.5c0,1-1.2,2.4-2.2,2.9c-21.2,10-59.5,7.8-69.1-27.8c-6.4-23.7,3.1-48.8,22.8-59.1
		c14.3-7.5,29.3-7.5,44.5-3.1c2.9,0.9,4.4,2.4,4.2,5.7C307.5,645.5,307.7,650.5,307.7,656z"/>
	<path class="st0" d="M379.7,654.3c-3-0.9-5.2-1.6-7.4-2.2c-8.3-2-16.2,0.6-20.2,8.1c-2.8,5.3-4.8,11.5-5.1,17.4
		c-0.7,15.1-0.3,30.3-0.2,45.5c0,3.4-0.8,4.9-4.4,4.6c-4.3-0.3-8.7-0.2-13,0c-3.1,0.1-4-1.1-4-4.1c0.1-28.5,0.1-57,0-85.5
		c0-2.7,0.7-4,3.6-3.9c4.8,0.2,9.7-0.2,14.5,0.2c1.1,0.1,2.9,1.9,3.1,3.1c0.4,3.8,0.1,7.6,1.2,11.9c1-1.7,2-3.4,3-5
		c5.7-9.4,15.9-14,25.4-11.2c1.4,0.4,3.1,2.5,3.2,3.8C379.9,642.5,379.7,648,379.7,654.3z"/>
	<path class="st0" d="M217.8,681.2c0,14-0.1,28,0.1,41.9c0,3.5-1,4.9-4.5,4.6c-3.1-0.3-6.3,0-9.5-0.1c-6.9,0-7,0-7-6.7
		c0-26.8,0.1-53.6-0.1-80.4c0-5.1,1.5-6.9,6.5-6.3c3.3,0.4,6.7,0.3,10,0c3.5-0.3,4.6,1,4.6,4.5C217.7,652.9,217.8,667,217.8,681.2z"
		/>
	<path class="st0" d="M208.1,594.1c7,0.2,12.6,5.6,12.6,12.1c0,6.6-6.3,12.4-13.2,12.3c-7.1-0.1-13.1-6-12.8-12.6
		C194.9,599,200.7,593.9,208.1,594.1z"/>
</g>
</svg>
