<?xml version="1.0" encoding="utf-8"?>
<!-- Generator: Adobe Illustrator 19.0.1, SVG Export Plug-In . SVG Version: 6.00 Build 0)  -->
<svg version="1.1" id="Layer_1" xmlns="http://www.w3.org/2000/svg" xmlns:xlink="http://www.w3.org/1999/xlink" x="0px" y="0px"
	 viewBox="0 0 800 800" style="enable-background:new 0 0 800 800;" xml:space="preserve">
<style type="text/css">
	.st0{fill:#F26222;}
	.st1{fill:#383838;}
</style>
<g>
	<path class="st0" d="M652.7,751c-112,0-224,0-336,0c-28.3-11.7-38.4-33.7-36.2-63.1c0.9-12.1,0.2-24.3,0.2-37.8
		c-18.3,0-34.9,0.2-51.6,0c-73.6-0.8-134-44.7-154.9-113.2c-4-13-5.9-26.5-8.8-39.8c0-15.9,0-31.7,0-47.6
		c1.8-10.8,3.4-21.6,5.5-32.4c9.2-46.1,28.3-86.3,70.7-110.9c42.6-24.8,85.6-48.8,128.8-72.5c8.3-4.6,10.6-10,10.5-18.8
		c-0.4-33.9,0.9-67.9-0.5-101.7c-1.2-29.5,8.1-51.4,36.3-63.1c112,0,224,0,336,0c28.3,11.7,37.1,33.5,36.4,63
		c-1.3,50.1-0.4,100.3-0.4,150.4c0,4.7,0,9.4,0,15.3c25.3-2.4,44.2,4.7,53.9,28c0,7.9,0,15.9,0,23.8c-10.1,21.4-27.2,28.8-50.3,27.3
		c-20.6-1.3-41.4-0.1-62.1-0.3c-25.7-0.2-41-14.2-41.5-37.7c-0.6-24.6,14.1-39.8,39.9-41c8.6-0.4,17.3-0.1,26.3-0.1
		c0-52,0-102,0-152.8c-113.7,0-226.8,0-340.1,0c0,27.5,0,54.1,0,82.1c5.8-2.9,10.4-5.2,15-7.6c23.4-12.3,46.3-25.5,70.2-36.7
		c18.7-8.7,27,0.2,36.6,12.7c9.8,12.8,5.5,11.7-6.4,26.3c-8.8,10.9-15,25.3-26.1,33.8c-29.3,22.6-51.7,51.6-81.9,73
		c-7.3,5.2-8.4,17-8.3,26c0.3,104.9,0.2,209.9,0.2,314.8c0,4.2,0.4,8.4,0.7,12.8c114,0,226.7,0,340.1,0c0-8.3,0-15.9,0-25
		c-8.5,0-16.3,0.3-24.1-0.1c-5.7-0.2-11.6-0.4-16.9-2.1c-17.8-5.7-26.8-21.9-24.7-43.1c1.6-17.1,13.7-31.2,31.2-32.4
		c24.1-1.6,48.5-0.2,72.7-1.5c23.1-1.2,40.3,6.3,49.8,28.3c0,7.9,0,15.9,0,23.8c-10.4,22.5-29.1,29.8-53.9,26.9
		c0,17.9-0.9,34.1,0.2,50.2C691,717.5,681.1,739.3,652.7,751z M507.9,703.5c-0.1-12.9-11-23.7-23.7-23.4
		c-12.1,0.4-22.4,10.8-22.6,23.2c-0.2,13.1,10.1,23.8,23,23.8C497.6,727.2,508,716.6,507.9,703.5z M484.1,95.4
		c15,0,29.9,0.3,44.9-0.2c3.5-0.1,6.9-3.2,10.4-5c-3.3-2-6.5-5.6-9.8-5.7c-29.9-0.4-59.8-0.4-89.7,0c-3.3,0-6.5,3.7-9.8,5.7
		c3.5,1.7,6.9,4.8,10.5,4.9C455.1,95.7,469.6,95.4,484.1,95.4z"/>
	<path class="st0" d="M742.7,515.6c-8.5,21.7-24.5,30.3-47.5,29.3c-22-1-44,0-66-0.3c-24.8-0.2-40.3-15.3-40.6-38.8
		c-0.3-24.3,15.3-40,40.5-40.3c22-0.3,44,0.7,66-0.3c23-1,39,7.5,47.6,29.2C742.7,501.5,742.7,508.5,742.7,515.6z"/>
	<path class="st0" d="M742.7,423c-9.4,22-26.5,29.6-49.6,28.5c-21.5-1-43.2,0.3-64.7-0.4c-28.2-0.9-44.1-21.3-39-49
		c3.1-16.8,17.4-29.2,35.6-29.6c26.9-0.5,53.7-0.1,80.6-0.2c18.8,0,28.9,12.2,37.1,26.8C742.7,407.1,742.7,415,742.7,423z"/>
</g>
<path class="st1" d="M274.4,222.2l116.2-64.8c0,0,41.2-16.9,56.1,12.2c0,0,8.1,18.9,0,37.1c0,0-57.4,58.8-88.5,78.3l-48,32.4
	l-35.8,20.9v314.1h-66.9c0,0-131.7-15.5-147.9-137.1c0,0-8.8-65.5,0-85.8c0,0,9.5-65.5,37.8-97.9c0,0,33.8-34.4,47.3-36.5
	L274.4,222.2z"/>
<path class="st1" d="M630.2,357.3c0,0,65.9-0.6,70.6,0.5c0,0,20.2-1.5,27.8-9.1c0,0,14.1-12.7,14.1-18.2v-23.8
	c0,0-7.4-17.2-21.2-23.7c0,0-9.8-4.1-16.8-4.4c0,0-12.8-0.8-15.9,0.1l-35-0.1l-28.2,0.3c0,0-23,3.5-28.7,13.5
	c0,0-11.1,11.4-7.5,34.9c0,0,1.7,16.8,16.4,24.2C605.8,351.4,619,358.5,630.2,357.3z"/>
<path class="st1" d="M629.9,451.1c0,0,65.9-0.6,70.6,0.5c0,0,20.2-1.5,27.8-9.3c0,0,14.1-12.9,14.1-18.5v-24.2
	c0,0-7.4-17.5-21.2-24.1c0,0-9.8-4.2-16.8-4.5c0,0-12.8-0.9-15.9,0.1l-35-0.1l-28.2,0.3c0,0-23,3.6-28.7,13.8
	c0,0-11.1,11.6-7.5,35.5c0,0,1.7,17.1,16.4,24.6C605.5,445.2,618.7,452.3,629.9,451.1z"/>
<path class="st1" d="M630.2,545c0,0,65.9-0.6,70.6,0.5c0,0,20.2-1.5,27.8-9.3c0,0,14.1-12.9,14.1-18.5v-24.2c0,0-7.4-17.5-21.2-24.1
	c0,0-9.8-4.2-16.8-4.5c0,0-12.8-0.9-15.9,0.1l-35-0.1l-28.2,0.3c0,0-23,3.6-28.7,13.8c0,0-11.1,11.6-7.5,35.5
	c0,0,1.7,17.1,16.4,24.6C605.7,539,619,546.2,630.2,545z"/>
<path class="st1" d="M630.2,638c0,0,65.9-0.6,70.6,0.5c0,0,20.2-1.5,27.8-9.3c0,0,14.1-12.9,14.1-18.5v-24.2c0,0-7.4-17.5-21.2-24.1
	c0,0-9.8-4.2-16.8-4.5c0,0-12.8-0.9-15.9,0.1l-35-0.1l-28.2,0.3c0,0-23,3.6-28.7,13.8c0,0-11.1,11.6-7.5,35.5
	c0,0,1.7,17.1,16.4,24.6C605.7,632,619,639.2,630.2,638z"/>
</svg>
