<?xml version="1.0" encoding="utf-8"?>
<!-- Generator: Adobe Illustrator 19.0.1, SVG Export Plug-In . SVG Version: 6.00 Build 0)  -->
<svg version="1.1" id="Layer_1" xmlns="http://www.w3.org/2000/svg" xmlns:xlink="http://www.w3.org/1999/xlink" x="0px" y="0px"
	 viewBox="0 0 800 800" style="enable-background:new 0 0 800 800;" xml:space="preserve">
<style type="text/css">
	.st0{fill:#3F403F;}
	.st1{fill:#FFFFFF;}
	.st2{fill:#F26222;}
</style>
<g>
	<path class="st0" d="M310.6,432.6c18-1.2,33.9-2.2,46.3-3c-1.1-19.5-2-34.6-3-50.9c15.8,0,29.1,0,43.4,0c1.2,3.7,2.5,7.7,4.4,13.7
		c31.9-26,62.4-50.8,92.9-75.6c15.7-12.8,31.7-25.3,47.1-38.5c18.7-16,39.3-21.3,63.5-14.9c49.6,13.2,99.5,25.3,149.1,38.5
		c6.3,1.7,15.9,6.8,16.2,10.9c0.4,6.2-4.5,14.5-9.7,19c-95.3,82.9-190.9,165.5-286.5,248.1c-66,57.1-132.1,114.3-198.1,171.3
		c-18.8,16.2-34.9,18.2-57.1,6c-44-24.2-87.8-48.9-133.8-70.7c4.3,3.4,8.2,7.5,12.9,10.2c41.9,24.1,83.9,47.9,125.9,71.8
		c16.3,9.3,31.7,8.3,46.1-4.1c79.5-68.6,158.9-137.4,238.5-205.9c53.2-45.8,106.9-91,160.1-136.8c35.4-30.4,70.4-61.2,107.3-90.9
		c-7.1,8.2-13.2,17.5-21.4,24.5c-77.5,66.9-155.5,133.4-233.1,200.2c-82,70.5-163.8,141.3-245.7,211.9
		c-22.5,19.4-32.6,20.3-58.7,5.4c-36.6-20.8-73.2-41.5-109.7-62.5c-6.7-3.9-13.7-7.7-19.5-12.8C68.9,680.5,69.1,664,88.8,648
		c67.9-55.7,135.8-111.5,204.4-166.3c12.7-10.1,19.8-20.2,17.1-36.5C309.5,441.3,310.4,437.1,310.6,432.6z M158.2,617
		c51.1,28.5,100,55.8,149.6,83.4c128.2-110.9,256.1-221.4,384.9-332.8c-4.3-2.1-6.1-3.3-8-3.8c-52.3-14.8-104.6-29.8-157.1-43.9
		c-4.6-1.2-11.8,2.2-16.1,5.6c-42.7,34.5-85.6,68.8-127.2,104.7c-14.2,12.3-37.7,19.6-31.7,45.9c-27.2,3.2-27.3,3.2-49,21
		c-14.1,11.5-28.1,23.1-42.1,34.6C228,559.4,194.4,587.2,158.2,617z M197,664.8c-19.6-0.2-38,15.2-36.7,28.7
		c0.5,5.5,8.1,13.7,13.5,14.7c13.4,2.4,33.8-16.4,32.4-29.4C205.6,672.9,199.1,667.7,197,664.8z M604.8,305.2
		c-2.3,1.5-4.6,3.1-7,4.6c1.9,2.6,3.2,6.8,5.7,7.6c14.2,4.7,28.5,8.9,43,12.6c2.5,0.6,5.8-2.5,8.8-3.8c-1.2-2.5-1.9-6.7-3.8-7.3
		C636.4,314,621,309.8,604.8,305.2z"/>
	<polygon class="st1" points="271.2,499.2 439.7,361.5 338,378.9 280,467.4 	"/>
	<path class="st1" d="M158.2,617l149.6,83.4l384.9-332.8l-8-3.8L527.7,320c0,0-8.6,0.5-12.4,3.1L158.2,617z"/>
	<path class="st2" d="M17.9,236.1c0-38.1,0-75.2,0-113.2c38,0,75.1,0,113.2,0c0,37.9,0,75,0,113.2C93.8,236.1,56.7,236.1,17.9,236.1
		z"/>
	<path class="st2" d="M76.4,389.7c0-30.3,0-59.7,0-90.4c30,0,59.8,0,90.8,0c0,30,0,59.7,0,90.4C136.8,389.7,107,389.7,76.4,389.7z"
		/>
	<path class="st2" d="M150.9,205.1c24.5,0,48.2,0,73.3,0c0,24.7,0,49.2,0,74.8c-24,0-48,0-73.3,0
		C150.9,255.1,150.9,230.5,150.9,205.1z"/>
	<path class="st2" d="M160.8,181.5c0-17.9,0-34.3,0-51.3c17.3,0,33.5,0,50.8,0c0,17.2,0,33.5,0,51.3
		C194.9,181.5,178.3,181.5,160.8,181.5z"/>
	<path class="st2" d="M288.2,348.6c-17,0-33,0-50.5,0c0-16.8,0-33.5,0-51.2c16.6,0,32.9,0,50.5,0
		C288.2,314.5,288.2,331.2,288.2,348.6z"/>
	<path class="st2" d="M238.7,408.6c-16.9,0-33.2,0-50.9,0c0-16.7,0-33.3,0-51c17,0,33.3,0,50.9,0
		C238.7,374.3,238.7,390.9,238.7,408.6z"/>
	<path class="st2" d="M309.8,280.5c-17.8,0-33.7,0-50.9,0c0-17.2,0-34,0-51.4c17.2,0,33.5,0,50.9,0
		C309.8,246.3,309.8,262.6,309.8,280.5z"/>
	<path class="st2" d="M327.1,316.1c14.1,0,27.8,0,42.5,0c0,14.4,0,28.1,0,42.5c-14.5,0-27.9,0-42.5,0
		C327.1,344.5,327.1,330.9,327.1,316.1z"/>
	<path class="st2" d="M282,415.5c0-14.6,0-27.8,0-42.2c14,0,27.6,0,42.2,0c0,13.9,0,27.5,0,42.2C310.3,415.5,297.1,415.5,282,415.5z
		"/>
	<path class="st2" d="M309.8,467.9c0-14.6,0-27.8,0-42.2c14,0,27.6,0,42.2,0c0,13.9,0,27.5,0,42.2
		C338.1,467.9,324.9,467.9,309.8,467.9z"/>
	<path class="st2" d="M352,421.1c0-14.6,0-27.8,0-42.2c14,0,27.6,0,42.2,0c0,13.9,0,27.5,0,42.2C380.3,421.1,367.1,421.1,352,421.1z
		"/>
	<path class="st2" d="M280,467.4c-12.6,0-24.7,0-37.8,0c0-13.8,0-26.9,0-41.1c12.3,0,24.4,0,37.8,0C280,439.2,280,452.4,280,467.4z"
		/>
	<path class="st2" d="M426.3,366.1c-11.7,0-22.3,0-33.7,0c0-11.6,0-22.2,0-33.7c11.3,0,22,0,33.7,0
		C426.3,343.4,426.3,353.9,426.3,366.1z"/>
	<path class="st2" d="M386.4,452.8c11.7,0,22.3,0,33.8,0c0,11.2,0,21.4,0,33c-11,0-21.9,0-33.8,0
		C386.4,475.3,386.4,465.2,386.4,452.8z"/>
	<path class="st2" d="M445.3,489.7c0-11.2,0-21.3,0-32.4c11.3,0,21.9,0,32.4,0C483.7,496.5,481.2,493.4,445.3,489.7z"/>
	<path class="st2" d="M456.3,406.9c0,11.5,0,21.3,0,32.6c-10.9,0-21.4,0-33.2,0c0-10.2,0-20.8,0-32.6
		C433.7,406.9,444.2,406.9,456.3,406.9z"/>
</g>
</svg>
