<?xml version="1.0" encoding="utf-8"?>
<!-- Generator: Adobe Illustrator 19.0.1, SVG Export Plug-In . SVG Version: 6.00 Build 0)  -->
<svg version="1.1" id="Layer_1" xmlns="http://www.w3.org/2000/svg" xmlns:xlink="http://www.w3.org/1999/xlink" x="0px" y="0px"
	 viewBox="94 -4 800 800" style="enable-background:new 94 -4 800 800;" xml:space="preserve">
<style type="text/css">
	.st0{fill:#383838;}
	.st1{fill:#FFFFFF;}
	.st2{fill:#F26222;}
</style>
<g>
	<path class="st0" d="M806.5,263.2c0,17.3,0,33.4,0,49.5c0,128.7,0.1,257.4-0.1,386.1c-0.1,48.7-22.2,70.4-71.3,70.5
		c-172.6,0.1-345.2,0.1-517.9,0c-47.6,0-69.2-21.6-69.3-69.1c-0.2-136.9-0.1-273.7,0-410.6c0-8,0.7-16.1,1.2-26.3
		C367.9,263.2,585.7,263.2,806.5,263.2z M459.3,460.2c-37.8,0-73.9,0-111.2,0c0,38,0,74.2,0,111.8c37.8,0,73.9,0,111.2,0
		C459.3,533.9,459.3,497.7,459.3,460.2z M495.1,460c0,39.4,0,75.6,0,111.8c38.2,0,74.4,0,111.4,0c0-38,0-74.1,0-111.8
		C568.8,460,532.6,460,495.1,460z M348.5,607.5c0,37.7,0,73.8,0,110.1c38.2,0,74.3,0,109.8,0c0-38.4,0-74.5,0-110.1
		C420.3,607.5,384.9,607.5,348.5,607.5z M494.9,607.4c0,39.1,0,74.3,0,110.8c38,0,74,0,111.4,0c0-37.7,0-73.7,0-110.8
		C568.6,607.4,532.5,607.4,494.9,607.4z M459.3,312c-37.6,0-73.6,0-111.1,0c0,36.7,0,71.7,0,108.6c37.7,0,73.6,0,111.1,0
		C459.3,383.7,459.3,348.7,459.3,312z M494.2,420.3c39,0,75.2,0,111.8,0c0-37.5,0-72.6,0-108c-38.3,0-74.5,0-111.8,0
		C494.2,348.8,494.2,383.2,494.2,420.3z M198.3,571.9c38.2,0,73.3,0,109.9,0c0-37.8,0-73.9,0-111.2c-37.5,0-73.3,0-109.9,0
		C198.3,498.4,198.3,533.7,198.3,571.9z M646.7,459.8c0,39.4,0,75.4,0,112.1c37.2,0,72.1,0,107.4,0c0-38.5,0-75.2,0-112.1
		C717.1,459.8,682.9,459.8,646.7,459.8z M308.4,607.9c-39,0-74,0-108.5,0c0,38.1,0,74.1,0,109.6c37.5,0,72.4,0,108.5,0
		C308.4,680,308.4,644.8,308.4,607.9z M754.4,718.7c0-39,0-74.9,0-110.9c-37.4,0-72.4,0-107.6,0c0,37.9,0,73.8,0,110.9
		C683.4,718.7,717.5,718.7,754.4,718.7z M308.1,312.8c-36,0-71.8,0-108.8,0c0,36.3,0,71.4,0,107.6c37,0,72,0,108.8,0
		C308.1,384,308.1,349.7,308.1,312.8z M646.7,311.6c0,38,0,73,0,108.6c37.2,0,72.2,0,107.8,0c0-37.4,0-72.3,0-108.6
		C718,311.6,683.7,311.6,646.7,311.6z"/>
	<path class="st0" d="M651.8,111.3c29.5,0,56.9-0.2,84.2,0.1c48.7,0.5,70.2,22.5,70.5,71.7c0.1,16.1,0,32.2,0,50.3
		c-220.3,0-437.4,0-658.1,0c0-25.5-1.9-49.8,0.5-73.7c2.8-27.7,29.5-47.2,62.1-48.2c27.5-0.9,55.1-0.8,82.7-1.3
		c1.9,0,3.7-1.6,8.5-3.8c0-15.8-0.1-32.9,0-50.1c0.1-18.2,5.2-33.6,26.8-33.3c21,0.3,22.9,15.9,22.5,32.6
		c-0.4,17.2-0.1,34.5-0.1,53.5c83.3,0,164.4,0,248.9,0c0-20.3-3.3-39.3,1.2-56.2c3.1-11.6,17.1-20.2,26.2-30.2
		c8,10,20.5,18.9,23,30.1C654.7,70.2,651.8,89.1,651.8,111.3z M598,139.6c-17.7,27.6-19.3,48.2,1.8,64.8
		c17.7,13.9,38.5,14.8,55.2-2.4c16.8-17.4,19.2-36.6-1.3-57.9c-4,23,4,53.9-28.2,53.4C594.8,197,602.3,167.5,598,139.6z
		 M292.5,154.1c-9.1,16.2-9.7,37.3,12.6,52.5c18.8,12.8,40.4,11.1,54.8-7.3c14.3-18.2,15.7-38.4-6.1-56.4c-7,21,9.1,54.8-25.6,53.4
		C315.7,195.8,304.4,169.1,292.5,154.1z"/>
	<path class="st1" d="M459.3,460.2c0,37.6,0,73.8,0,111.8c-37.3,0-73.5,0-111.2,0c0-37.6,0-73.8,0-111.8
		C385.4,460.2,421.5,460.2,459.3,460.2z"/>
	<path class="st2" d="M495.1,460c37.6,0,73.7,0,111.4,0c0,37.7,0,73.8,0,111.8c-37.1,0-73.2,0-111.4,0
		C495.1,535.5,495.1,499.4,495.1,460z"/>
	<path class="st1" d="M348.5,607.5c36.4,0,71.8,0,109.8,0c0,35.6,0,71.7,0,110.1c-35.4,0-71.5,0-109.8,0
		C348.5,681.3,348.5,645.3,348.5,607.5z"/>
	<path class="st2" d="M494.9,607.4c37.6,0,73.7,0,111.4,0c0,37.1,0,73.1,0,110.8c-37.4,0-73.5,0-111.4,0
		C494.9,681.7,494.9,646.5,494.9,607.4z"/>
	<path class="st1" d="M459.3,312c0,36.7,0,71.8,0,108.6c-37.5,0-73.5,0-111.1,0c0-37,0-72,0-108.6C385.7,312,421.7,312,459.3,312z"
		/>
	<path class="st2" d="M494.2,420.3c0-37.1,0-71.5,0-108c37.3,0,73.5,0,111.8,0c0,35.4,0,70.5,0,108
		C569.3,420.3,533.2,420.3,494.2,420.3z"/>
	<path class="st2" d="M198.3,571.9c0-38.2,0-73.5,0-111.2c36.7,0,72.5,0,109.9,0c0,37.3,0,73.4,0,111.2
		C271.5,571.9,236.5,571.9,198.3,571.9z"/>
	<path class="st1" d="M646.7,459.8c36.2,0,70.4,0,107.4,0c0,36.9,0,73.6,0,112.1c-35.3,0-70.3,0-107.4,0
		C646.7,535.2,646.7,499.1,646.7,459.8z"/>
	<path class="st2" d="M308.4,607.9c0,36.8,0,72.1,0,109.6c-36.1,0-71.1,0-108.5,0c0-35.6,0-71.5,0-109.6
		C234.3,607.9,269.3,607.9,308.4,607.9z"/>
	<path class="st2" d="M754.4,718.7c-36.9,0-71,0-107.6,0c0-37.1,0-73,0-110.9c35.1,0,70.1,0,107.6,0
		C754.4,643.8,754.4,679.7,754.4,718.7z"/>
	<path class="st1" d="M308.1,312.8c0,36.9,0,71.2,0,107.6c-36.8,0-71.8,0-108.8,0c0-36.2,0-71.3,0-107.6
		C236.3,312.8,272.1,312.8,308.1,312.8z"/>
	<path class="st2" d="M646.7,311.6c37,0,71.2,0,107.8,0c0,36.3,0,71.2,0,108.6c-35.6,0-70.6,0-107.8,0
		C646.7,384.6,646.7,349.6,646.7,311.6z"/>
</g>
</svg>
