<?xml version="1.0" encoding="utf-8"?>
<!-- Generator: Adobe Illustrator 19.0.1, SVG Export Plug-In . SVG Version: 6.00 Build 0)  -->
<svg version="1.1" id="Layer_1" xmlns="http://www.w3.org/2000/svg" xmlns:xlink="http://www.w3.org/1999/xlink" x="0px" y="0px"
	 viewBox="94 -4 800 800" style="enable-background:new 94 -4 800 800;" xml:space="preserve">
<style type="text/css">
	.st0{fill:#383838;}
	.st1{fill:#FFFFFF;}
	.st2{fill:#F26222;}
</style>
<g>
	<path class="st0" d="M756.9,466.8c-23.7,0-46.4,0-69.8,0c0-24.5,0-48.3,0-72.6c-2.9-0.3-5-0.7-7.2-0.7c-11.4-0.1-22.9,1.2-34.1-0.3
		c-22.5-3-38.9,4.7-54,21.8c-20.5,23.2-43.8,43.9-65.4,66c-3.1,3.2-5.5,8.6-5.6,13.1c-0.5,25-0.3,50-0.2,75.1c0,2.8,0.2,5.5,0.4,9.1
		c23.1,0,45.7,0,69,0c0,56.9,0,113,0,169.6c-56.1,0-112,0-169,0c0-20.4,0-41,0-62.1c-3.8-0.2-6.5-0.5-9.3-0.5
		c-34.1,0-68.3,0.1-102.4-0.2c-5.8,0-9,1.8-11.9,6.9c-19.8,34.2-58.6,49.9-96.6,39.3c-36.4-10.1-62.1-44.6-61.6-82.7
		c0.5-44.1,35.2-80.4,79.8-83.7c42.9-3.1,82.2,28.6,88.7,71.8c1.1,7.5,1.3,15.1,1.9,23.1c36.6,0,73.1,0,110.8,0
		c0-26.8,0-53.6,0-81.2c24.3,0,47.4,0,71.2,0c0.3-2.9,0.8-5,0.8-7.2c0-25.6,0.2-51.2-0.2-76.8c0-3.5-1.9-7.8-4.3-10.3
		c-27.6-28.3-55.5-56.3-83.5-84.2c-2.4-2.4-6-5-9.1-5c-28.7-0.4-57.4-0.2-86.6-0.2c-1,3.2-1.9,6.1-2.7,9
		c-10.4,38.4-46.8,64.9-86.2,62.6c-40.4-2.4-73.2-32.1-79.2-72c-7-45.8,22.8-87.7,68.8-96.1c5.5-1,6.8-3.3,6.7-8.4
		c-0.2-29.6,1.6-59.3-0.4-88.7c-4.5-65.6,39-108,102.4-102.6c3.6,0.3,7.3,0,12,0c0-20,0-39.4,0-59.3c121.3,0,241.4,0,362.7,0
		c0,19.4,0,38.9,0,57.8c10.8,2.1,20.7,3,30,6c35.8,11.5,58.7,43.3,58.9,81.2c0.2,33.8,0,67.7,0,101.5c0,3.1,0,6.2,0,10.4
		c25,0,49.5,0,74.6,0c0,57,0,112.9,0,169.9c-24.3,0-48.8,0-74.6,0c0,4.9,0,8.8,0,12.7c0,26.2,0.2,52.3-0.1,78.5
		c-0.1,5.9,1.4,8,7.6,9.3c41.7,8.7,71.2,48.1,67.3,89c-4.2,44.7-40,78.3-83.8,78.7c-43.6,0.5-78.6-30.8-85.3-76.1
		c-5.7-38.6,21.4-79.1,61.1-90.2c6.4-1.8,8.5-4.1,8.5-10.8C756.7,527.8,756.9,498,756.9,466.8z M756.7,296.9
		c0-40.9,0.4-80.4-0.2-119.9c-0.2-13.1-6.5-24.7-15.7-34.2C728,129.5,712.5,122.7,693,124c0,16.7,0,32.5,0,48.6
		c-121.2,0-241.6,0-363,0c0-16.5,0-32.5,0-48.9c-10.7,0-20.4-0.1-30,0c-32.5,0.4-58.9,26.8-59,59.5c-0.2,35.8,0.1,71.7-0.2,107.5
		c0,5.9,1.7,8.1,7.4,9.9c30.5,9.7,50.1,30.1,58.4,61.2c0.7,2.7,1.5,5.3,2.3,8.4c27.1,0,53.8,0.3,80.5-0.3c4.5-0.1,9.9-2.4,13.1-5.6
		c32.6-31.8,64.8-63.9,97.1-96c2.1-2.1,4.3-4.1,7.6-7.2c2.6,3.2,4.3,5.9,6.5,8.1c31,31.3,62,62.7,93.3,93.7c3,3,8.2,5.1,12.4,5.2
		c19.6,0.5,39.2,0.3,58.9,0.2c2.7,0,5.5-0.3,8.9-0.5c0-24,0-47.2,0-71.1C710.5,296.9,733.1,296.9,756.7,296.9z M355.6,147.9
		c104.5,0,208.1,0,311.9,0c0-28.1,0-55.7,0-83.4c-104.3,0-207.8,0-311.9,0C355.6,92.5,355.6,119.9,355.6,147.9z M506.7,464.6
		c26.7-27.2,54.3-55.5,82.3-84.1c-27.4-26.8-55.6-54.2-83.7-81.7c-26.9,27.4-54.6,55.7-82.5,84.1
		C449.9,409.3,478.1,436.8,506.7,464.6z M831.2,441.4c0-40.4,0-79.7,0-118.9c-40.1,0-79.4,0-118.6,0c0,40.1,0,79.4,0,118.9
		C752.4,441.4,791.6,441.4,831.2,441.4z M564.8,722.5c0-39.6,0-78.6,0-118.2c-39.6,0-78.6,0-118.2,0c0,39.6,0,78.6,0,118.2
		C486.1,722.5,525.2,722.5,564.8,722.5z M284.1,649.9c0-33.3-26.8-60.2-60.1-60.1c-32.9,0-59.8,26.7-59.9,59.4
		c-0.1,33.5,26.5,60.5,59.6,60.6C257.2,709.8,284,683.1,284.1,649.9z M224,322c-32.8,0.1-59.7,26.9-59.7,59.6
		c0,33.3,26.9,60.3,60,60.1c32.9-0.2,59.6-26.8,59.7-59.6C284.1,348.9,257.1,321.9,224,322z"/>
	<path class="st1" d="M444.8,116.2c6.9,0,13.7,0,20.6,0c0-7,0-13.6,0-20c-7.2,0-13.9,0-20.6,0C444.8,103.1,444.8,109.3,444.8,116.2z
		 M516.8,116.6c0-7.4,0-13.8,0-20.6c-7.1,0-13.7,0-20.4,0c0,7.1,0,13.8,0,20.6C503.4,116.6,509.8,116.6,516.8,116.6z M566.3,96.1
		c-7.3,0-13.9,0-20.3,0c0,7.2,0,13.9,0,20.4c7.1,0,13.5,0,20.3,0C566.3,109.6,566.3,103.2,566.3,96.1z"/>
	<path class="st2" d="M506.7,464.6c-28.6-27.8-56.8-55.3-83.9-81.6c27.9-28.4,55.6-56.7,82.5-84.1c28.1,27.4,56.3,54.9,83.7,81.7
		C561,409.1,533.4,437.4,506.7,464.6z"/>
	<path class="st2" d="M831.2,441.4c-39.6,0-78.8,0-118.6,0c0-39.5,0-78.9,0-118.9c39.2,0,78.6,0,118.6,0
		C831.2,361.7,831.2,401.1,831.2,441.4z"/>
	<path class="st2" d="M564.8,722.5c-39.6,0-78.6,0-118.2,0c0-39.6,0-78.6,0-118.2c39.6,0,78.6,0,118.2,0
		C564.8,643.9,564.8,682.9,564.8,722.5z"/>
	<path class="st2" d="M284.1,649.9c0,33.2-26.9,59.9-60.4,59.8c-33.1,0-59.8-27.1-59.6-60.6c0.1-32.7,27-59.4,59.9-59.4
		C257.3,589.7,284.1,616.6,284.1,649.9z"/>
	<path class="st2" d="M224,322c33.2-0.1,60.1,26.9,60,60.1c-0.1,32.8-26.8,59.4-59.7,59.6c-33.1,0.2-60-26.8-60-60.1
		C164.3,348.9,191.2,322,224,322z"/>
	<path class="st2" d="M444.8,116.2c0-6.9,0-13.2,0-20c6.8,0,13.4,0,20.6,0c0,6.5,0,13.1,0,20C458.5,116.2,451.7,116.2,444.8,116.2z"
		/>
	<path class="st2" d="M516.8,116.6c-7,0-13.4,0-20.4,0c0-6.8,0-13.4,0-20.6c6.7,0,13.4,0,20.4,0
		C516.8,102.8,516.8,109.2,516.8,116.6z"/>
	<path class="st2" d="M566.3,96.1c0,7.1,0,13.5,0,20.4c-6.8,0-13.2,0-20.3,0c0-6.5,0-13.1,0-20.4C552.4,96.1,559,96.1,566.3,96.1z"
		/>
</g>
</svg>
