<?xml version="1.0" encoding="utf-8"?>
<!-- Generator: Adobe Illustrator 19.0.1, SVG Export Plug-In . SVG Version: 6.00 Build 0)  -->
<svg version="1.1" id="Layer_1" xmlns="http://www.w3.org/2000/svg" xmlns:xlink="http://www.w3.org/1999/xlink" x="0px" y="0px"
	 viewBox="94 -4 800 800" style="enable-background:new 94 -4 800 800;" xml:space="preserve">
<style type="text/css">
	.st0{fill:#F26222;}
	.st1{fill:#383838;}
	.st2{fill:#FFFFFF;}
</style>
<g>
	<path class="st0" d="M211.8,736.5c-21.9,0-43.8,0-65.6,0c-4.4,0-9.5,1-13.3-0.7c-7.4-3.3-17.4-6.6-20.2-12.7
		c-2.2-4.9,2.5-15.9,7.5-20.8c31-30.3,62.5-59.8,94.5-89c61-55.6,122.5-110.8,183.6-166.3c34.6-31.4,34.5-64.9-1-95.5
		C308.3,274.4,219,197.7,130,120.4c-9.7-8.4-18.6-18.1-26.1-28.4c-7.1-9.8-3.4-18.1,8.2-21.4c6.4-1.7,13.2-2.8,19.7-3
		c39.3-0.1,78.7-1.1,117.9,0.7c28.3,1.4,56.9,2.6,83.7,14.5c29.4,13,55,30.5,78.2,53.2c27.8,27.2,57.7,52.1,87,77.8
		c58.2,51.1,116.7,101.8,174.9,153c14.2,12.4,14,21.5,0.6,35c-96,95.8-191.4,191.5-288,286.2c-32.6,31.9-72.4,49.8-119.4,48.7
		C248.4,736.2,230.2,736.5,211.8,736.5z"/>
</g>
<g>
	<path class="st1" d="M524,185.4c2.9-0.6,2.9-0.6,2.9-3.5c0.1-31.6,0.2-63.2,0.5-94.8c0-3.4,0.6-6.8,1.4-10.2
		c1.7-7.7,6.9-12.3,13.8-15.3c6.2-2.7,12.9-3.7,19.5-4.7c20.1-3.1,40.4-4.8,60.7-6.1c40.9-2.6,81.8-2.8,122.7-1.9
		c17.4,0.4,34.7,1.1,52.1,2.1c19.1,1.1,38.2,2.9,57,6.8c4,0.8,8,2,11.6,3.7c8.8,4.2,13.7,11.4,14.1,21.1c0.6,11.3,0.5,22.6,0.6,33.9
		c0.1,6.8,0.1,13.5,0,20.3c0,1.3,0.2,2.1,1.7,1.9c1.4-0.2,1.2,0.9,1.2,1.7c0,11.9,0.1,23.9,0.1,35.8c0,2.2,0.1,4.5,0,6.7
		c0,0.4-0.6,1.1-0.9,1.1c-1.9-0.1-2.1,0.9-2.1,2.5c0.1,24.5,0.1,49,0.1,73.5c0.1,48.1,0.2,96.3,0.2,144.4
		c0.1,40.2,0.1,80.4,0.1,120.6c0,43.4-0.1,86.9-0.2,130.3c-0.1,20.3-0.3,40.5-0.5,60.8c-0.1,4.7-0.5,9.5-2.4,13.9
		c-3.4,7.9-9.5,12.7-17.6,15c-10.5,3-21.4,4.4-32.2,5.7c-22.2,2.8-44.6,4.1-67,4.9c-28.4,0.9-56.7,1.3-85.1,0.7
		c-15.6-0.3-31.2-0.8-46.9-1.4c-26.1-1.1-52.1-3.6-77.8-8.6c-5.2-1-10-3-14.3-6.2c-6.8-5-9.5-12-9.6-20.1c-0.3-14.7-0.5-29.4-0.6-44
		c-0.2-38.1-0.4-76.1-0.5-114.2c-0.1-45.9,0-91.9,0-137.8c0-41.2,0-82.4,0-123.6c0-0.6,0-1.3,0-1.9c0-0.8-0.4-1.2-1.2-1.2
		c-1.5,0.1-1.6-0.7-1.6-1.8c0-13.6,0-27.2,0-40.8c0-22.5,0-45,0-67.5C524,186.6,524,186,524,185.4z M541.9,105.5
		c0,191.2,0,382.2,0,573.2c107.5,0,214.9,0,322.4,0c0-0.6,0-1.1,0-1.6c0-15.6,0-31.2,0-46.8c0-52.1,0-104.2,0-156.3
		c0-92,0-184,0-276c0-3,0.3-6,0.3-9c0-2.3-0.3-4.7-0.3-7c0-24.9,0-49.9,0-74.8c0-0.5,0-1.1,0-1.6
		C756.8,105.5,649.4,105.5,541.9,105.5z M879.4,105.3c0.1,0,0.1,0,0.2,0c0-4.8,0-9.6,0-14.3c-0.1,0-0.1,0-0.2,0
		C879.4,95.7,879.4,100.5,879.4,105.3z M588.5,85.6c-1.4,1.7-3.2,1.9-5.1,1.9c1.4,1.2,3.2,1.3,4.5,0.2
		C588.4,87.3,589.3,86.8,588.5,85.6z M879.5,130.9c0.1,0,0.2,0.1,0.3,0.1c0-2.6,0-5.2,0-7.8c-0.1,0-0.2,0-0.3,0
		C879.5,125.7,879.5,128.3,879.5,130.9z M879.8,132.5c-0.3,0.3-0.4,0.4-0.4,0.4c0,2.1,0,4.1,0,6.2c0.1,0,0.3,0,0.4,0
		C879.8,136.9,879.8,134.9,879.8,132.5z M879.4,113.8c0.1,0,0.2,0,0.3,0c0-1.5,0-3,0-4.6c-0.1,0-0.2,0-0.3,0
		C879.4,110.8,879.4,112.3,879.4,113.8z M587.6,85.1c-1,0.5-1.8,0.8-2.8,1.3C586.3,86.8,587.1,86.7,587.6,85.1z M879.4,122.1
		c0.1,0,0.2,0,0.3,0c0-0.9,0-1.9,0-2.8c-0.1,0-0.2,0-0.3,0C879.4,120.2,879.4,121.2,879.4,122.1z"/>
	<path class="st2" d="M541.9,105.5c107.5,0,214.9,0,322.4,0c0,0.6,0,1.1,0,1.6c0,24.9,0,49.9,0,74.8c0,2.3,0.4,4.7,0.3,7
		c0,3-0.3,6-0.3,9c0,92,0,184,0,276c0,52.1,0,104.2,0,156.3c0,15.6,0,31.2,0,46.8c0,0.5,0,1,0,1.6c-107.5,0-214.9,0-322.4,0
		C541.9,487.7,541.9,296.7,541.9,105.5z"/>
	<path class="st2" d="M879.4,105.3c0-4.8,0-9.6,0-14.3c0.1,0,0.1,0,0.2,0c0,4.8,0,9.6,0,14.3C879.6,105.3,879.5,105.3,879.4,105.3z"
		/>
	<path class="st2" d="M588.5,85.6c0.8,1.2-0.1,1.6-0.6,2.1c-1.4,1.1-3.2,1-4.5-0.2C585.3,87.6,587.1,87.4,588.5,85.6z"/>
	<path class="st2" d="M879.5,130.9c0-2.6,0-5.2,0-7.7c0.1,0,0.2,0,0.3,0c0,2.6,0,5.2,0,7.8C879.7,131,879.6,130.9,879.5,130.9z"/>
	<path class="st2" d="M879.8,132.5c0,2.4,0,4.5,0,6.5c-0.1,0-0.3,0-0.4,0c0-2.1,0-4.1,0-6.2C879.4,132.8,879.5,132.8,879.8,132.5z"
		/>
	<path class="st2" d="M879.4,113.8c0-1.5,0-3,0-4.6c0.1,0,0.2,0,0.3,0c0,1.5,0,3,0,4.6C879.6,113.8,879.5,113.8,879.4,113.8z"/>
	<path class="st2" d="M587.6,85.1c-0.5,1.5-1.3,1.7-2.8,1.3C585.8,85.9,586.5,85.6,587.6,85.1z"/>
	<path class="st2" d="M879.4,122.1c0-0.9,0-1.9,0-2.8c0.1,0,0.2,0,0.3,0c0,0.9,0,1.9,0,2.8C879.7,122.1,879.6,122.1,879.4,122.1z"/>
</g>
<g>
	<path class="st1" d="M554.4,191.4c0-4,0-7.2,0-11c3.7,0,7,0,10.2,0c92.2,0,184.5,0,276.6,0c9.5,0,15.3,5.3,10.1,9.6
		c-1.2,1-5.8,1.2-8.8,1.3c-42.1,0.1-84.3,0-126.4,0c-50.1,0-100.1,0-150.2,0C562.3,191.4,558.7,191.4,554.4,191.4z"/>
	<path class="st1" d="M554.4,279.4c0-3.8,0-7,0-11c3.3,0,6.6,0,9.8,0c92.5,0,185.1,0,277.6,0c3.3,0,9.2,0.5,9.5,1.3
		c1.1,2.7,0.5,5.7,0.2,8.6c-0.1,0.4-2.4,0.9-3.7,1c-2.4,0.2-4.9,0.1-7.4,0.1c-91.6,0-183.2,0-274.8,0
		C562.2,279.4,558.8,279.4,554.4,279.4z"/>
	<path class="st1" d="M554.5,146.8c0-3.5,0-6.6,0-10c99.1,0,197.9,0,297,0c0,3.4,0,6.5,0,10C752.6,146.8,654,146.8,554.5,146.8z"/>
	<path class="st1" d="M554.5,169c0-3.5,0-6.7,0-10.1c99.1,0,197.9,0,297,0c0,3.5,0,6.6,0,10.1C752.6,169,653.9,169,554.5,169z"/>
	<path class="st1" d="M851.6,290.9c0,3.4,0,6.5,0,10c-99.1,0-197.8,0-297,0c0-3.3,0-6.5,0-10C653.2,290.9,751.9,290.9,851.6,290.9z"
		/>
	<path class="st1" d="M554.2,323c0-3.5,0-6.5,0-9.9c98.9,0,197.6,0,297,0c0,3.1,0,6.4,0,9.9C752.4,323,653.8,323,554.2,323z"/>
	<path class="st1" d="M554.7,202.6c49.1,0,97.6,0,146.9,0c0,3.3,0,6.6,0,10.2c-48.7,0-97.4,0-146.9,0
		C554.7,209.6,554.7,206.4,554.7,202.6z"/>
	<path class="st1" d="M554.4,345.1c0-3.4,0-6.5,0-10.1c49,0,97.7,0,147.2,0c0,3.2,0,6.5,0,10.1C652.9,345.1,604.2,345.1,554.4,345.1
		z"/>
	<path class="st1" d="M654.1,247c0,3.4,0,6.6,0,10.1c-33,0-65.8,0-99.3,0c0-3.1,0-6.4,0-10.1C587.5,247,620.2,247,654.1,247z"/>
</g>
<path class="st1" d="M557.4,382.4c0-3.8,0-7,0-11c3.3,0,6.6,0,9.8,0c92.5,0,185.1,0,277.6,0c3.3,0,9.2,0.5,9.5,1.3
	c1.1,2.7,0.5,5.7,0.2,8.6c-0.1,0.4-2.4,0.9-3.7,1c-2.4,0.2-4.9,0.1-7.4,0.1c-91.6,0-183.2,0-274.8,0
	C565.2,382.4,561.8,382.4,557.4,382.4z"/>
<path class="st1" d="M854.6,393.9c0,3.4,0,6.5,0,10c-99.1,0-197.8,0-297,0c0-3.3,0-6.5,0-10C656.2,393.9,754.9,393.9,854.6,393.9z"
	/>
<path class="st1" d="M557.2,426c0-3.5,0-6.5,0-9.9c98.9,0,197.6,0,297,0c0,3.1,0,6.4,0,9.9C755.4,426,656.8,426,557.2,426z"/>
<path class="st1" d="M557.4,447.4c0-3.8,0-7,0-11c3.3,0,6.6,0,9.8,0c92.5,0,185.1,0,277.6,0c3.3,0,9.2,0.5,9.5,1.3
	c1.1,2.7,0.5,5.7,0.2,8.6c-0.1,0.4-2.4,0.9-3.7,1c-2.4,0.2-4.9,0.1-7.4,0.1c-91.6,0-183.2,0-274.8,0
	C565.2,447.4,561.8,447.4,557.4,447.4z"/>
<path class="st1" d="M854.6,458.9c0,3.4,0,6.5,0,10c-99.1,0-197.8,0-297,0c0-3.3,0-6.5,0-10C656.2,458.9,754.9,458.9,854.6,458.9z"
	/>
<path class="st1" d="M557.2,491c0-3.5,0-6.5,0-9.9c98.9,0,197.6,0,297,0c0,3.1,0,6.4,0,9.9C755.4,491,656.8,491,557.2,491z"/>
<path class="st1" d="M557.4,514.4c0-3.8,0-7,0-11c3.3,0,6.6,0,9.8,0c92.5,0,185.1,0,277.6,0c3.3,0,9.2,0.5,9.5,1.3
	c1.1,2.7,0.5,5.7,0.2,8.6c-0.1,0.4-2.4,0.9-3.7,1c-2.4,0.2-4.9,0.1-7.4,0.1c-91.6,0-183.2,0-274.8,0
	C565.2,514.4,561.8,514.4,557.4,514.4z"/>
<path class="st1" d="M854.6,525.9c0,3.4,0,6.5,0,10c-99.1,0-197.8,0-297,0c0-3.3,0-6.5,0-10C656.2,525.9,754.9,525.9,854.6,525.9z"
	/>
<path class="st1" d="M557.2,558c0-3.5,0-6.5,0-9.9c98.9,0,197.6,0,297,0c0,3.1,0,6.4,0,9.9C755.4,558,656.8,558,557.2,558z"/>
<path class="st1" d="M557.4,581.4c0-3.8,0-7,0-11c3.3,0,6.6,0,9.8,0c92.5,0,185.1,0,277.6,0c3.3,0,9.2,0.5,9.5,1.3
	c1.1,2.7,0.5,5.7,0.2,8.6c-0.1,0.4-2.4,0.9-3.7,1c-2.4,0.2-4.9,0.1-7.4,0.1c-91.6,0-183.2,0-274.8,0
	C565.2,581.4,561.8,581.4,557.4,581.4z"/>
<path class="st1" d="M854.6,592.9c0,3.4,0,6.5,0,10c-99.1,0-197.8,0-297,0c0-3.3,0-6.5,0-10C656.2,592.9,754.9,592.9,854.6,592.9z"
	/>
<path class="st1" d="M557.2,625c0-3.5,0-6.5,0-9.9c98.9,0,197.6,0,297,0c0,3.1,0,6.4,0,9.9C755.4,625,656.8,625,557.2,625z"/>
<path class="st1" d="M854.6,635.9c0,3.4,0,6.5,0,10c-99.1,0-197.8,0-297,0c0-3.3,0-6.5,0-10C656.2,635.9,754.9,635.9,854.6,635.9z"
	/>
<path class="st1" d="M557.2,668c0-3.5,0-6.5,0-9.9c98.9,0,197.6,0,297,0c0,3.1,0,6.4,0,9.9C755.4,668,656.8,668,557.2,668z"/>
</svg>
