<?xml version="1.0" encoding="utf-8"?>
<!-- Generator: Adobe Illustrator 19.0.1, SVG Export Plug-In . SVG Version: 6.00 Build 0)  -->
<svg version="1.1" id="Layer_1" xmlns="http://www.w3.org/2000/svg" xmlns:xlink="http://www.w3.org/1999/xlink" x="0px" y="0px"
	 viewBox="94 -4 800 800" style="enable-background:new 94 -4 800 800;" xml:space="preserve">
<style type="text/css">
	.st0{fill:#383838;}
	.st1{fill:#FFFFFF;}
	.st2{fill:#F26222;}
</style>
<g>
	<path class="st0" d="M328.8,738.3c0-15.3,0-29.5,0-44.7c-15.2,0-29.7,0-45.5,0c0-15.7,0-30.5,0-46.2c-15.8,0-30.3,0-46,0
		c0-15.4,0-29.9,0-45.4c-15.7,0-30.2,0-45.5,0c0-186.7,0-372.3,0-558.7c152.8,0,305.6,0,459.8,0c0,8.6-0.1,16.8,0,25.1
		c0.3,22.8-3.2,19.3,20.2,19.6c8,0.1,16,0,25.8,0c0,12.1,0.5,23.5-0.2,34.8c-0.5,8.5,2,12,11,11.4c11.1-0.7,22.2-0.2,34.9-0.2
		c0,15.2,0,29.6,0,45.2c16.1,0,30.6,0,45.6,0c0,186.9,0,372.6,0,559C635.8,738.3,483,738.3,328.8,738.3z M765.4,715.8
		c0-171.7,0-341.6,0-512c-137.8,0-274.9,0-413.1,0c0,4.9,0,9,0,13.1c0,161.8,0,323.5,0,485.3c0,13.5,0,13.6,13.7,13.6
		c128.6,0,257.3,0,385.9,0C756.1,715.8,760.2,715.8,765.4,715.8z M627.5,65.6c-4.7,0-8.2,0-11.6,0c-129.7,0-259.4,0.1-389.1-0.2
		c-10.2,0-12.7,2.9-12.7,12.8c0.3,162.8,0.2,325.6,0.2,488.5c0,3.7,0.3,7.4,0.5,11.1c7.9,0,14.7,0,22.5,0c0-163.4,0-326,0-489.9
		c130.6,0,260.1,0,390.1,0C627.5,80,627.5,73.6,627.5,65.6z M283.3,134.1c5.3,0,9.7,0,14.1,0c119.2,0,238.5,0,357.7,0
		c19.7,0,19.7,0,18.5-19.8c0-0.6-0.6-1.2-1.1-2.3c-136.9,0-274,0-411.4,0c0,170.9,0,341.2,0,511.3c7.7,0,14.5,0,22.1,0
		C283.3,460.1,283.3,297.7,283.3,134.1z M719.5,179.1c0-7.6,0-14.1,0-21c-137.7,0-274.8,0-412.2,0c0,170.9,0,341.2,0,511.3
		c7.8,0,14.5,0,22.1,0c0-163.6,0-326.3,0-490.2C459.9,179.1,589.4,179.1,719.5,179.1z"/>
	<path class="st1" d="M765.4,715.8c-5.2,0-9.3,0-13.4,0c-128.6,0-257.3,0-385.9,0c-13.7,0-13.7,0-13.7-13.6c0-161.8,0-323.5,0-485.3
		c0-4.1,0-8.2,0-13.1c138.2,0,275.3,0,413.1,0C765.4,374.1,765.4,544.1,765.4,715.8z M390,351.5c4.9,0,9,0,13.1,0
		c57.2,0,114.3,0,171.5,0c48.1,0,96.2,0.1,144.3-0.1c3.5,0,8.7-0.6,10.1-2.8c6-9.5-0.6-20.8-11.5-20.8c-105.3,0-210.6,0-315.8,0
		c-3.7,0-7.5,0-11.7,0C390,336,390,342.8,390,351.5z M390,541.9c5.1,0,8.9,0,12.7,0c104.6,0,209.2,0,313.7,0c2.8,0,5.6,0.2,8.4-0.2
		c1.5-0.2,4.2-1.3,4.2-2.1c0.4-6.2,1.1-12.6-0.2-18.6c-0.4-1.7-7-2.8-10.8-2.8c-105.6-0.1-211.3-0.1-316.9-0.1c-3.7,0-7.3,0-11.2,0
		C390,526.8,390,533.7,390,541.9z M390.1,255.2c113.6,0,226.2,0,339.1,0c0-7.6,0-14.3,0-21.7c-113.3,0-225.9,0-339.1,0
		C390.1,240.9,390.1,247.7,390.1,255.2z M390.1,303.1c113.5,0,226.2,0,339.1,0c0-7.5,0-14.3,0-21.8c-113.2,0-225.9,0-339.1,0
		C390.1,288.7,390.1,295.5,390.1,303.1z M729.3,566.7c-113.8,0-226.5,0-339.1,0c0,7.6,0,14.5,0,21.7c113.3,0,225.9,0,339.1,0
		C729.3,580.8,729.3,574,729.3,566.7z M389.8,636.1c113.7,0,226.3,0,339.1,0c0-7.7,0-14.7,0-21.5c-113.5,0-226.2,0-339.1,0
		C389.8,622,389.8,628.5,389.8,636.1z M390.4,375.8c0,8.1,0,15.2,0,22.1c56.5,0,112.1,0,167.7,0c0-7.9,0-14.9,0-22.1
		C501.8,375.8,446.5,375.8,390.4,375.8z M390,684c56.9,0,112.5,0,168.1,0c0-7.8,0-14.8,0-21.8c-56.5,0-112.1,0-168.1,0
		C390,669.8,390,676.6,390,684z M503.8,471.8c-38.6,0-76,0-113.4,0c0,7.9,0,14.9,0,21.8c38.3,0,75.8,0,113.4,0
		C503.8,486.1,503.8,479.2,503.8,471.8z"/>
	<path class="st1" d="M627.5,65.6c0,8,0,14.4,0,22.2c-130,0-259.6,0-390.1,0c0,163.9,0,326.6,0,489.9c-7.8,0-14.6,0-22.5,0
		c-0.2-3.6-0.5-7.4-0.5-11.1c0-162.8,0.1-325.6-0.2-488.5c0-10,2.5-12.9,12.7-12.8c129.7,0.3,259.4,0.2,389.1,0.2
		C619.3,65.6,622.7,65.6,627.5,65.6z"/>
	<path class="st1" d="M283.3,134.1c0,163.6,0,326,0,489.2c-7.6,0-14.3,0-22.1,0c0-170.1,0-340.3,0-511.3c137.3,0,274.4,0,411.4,0
		c0.5,1.1,1.1,1.6,1.1,2.3c1.2,19.8,1.2,19.8-18.5,19.8c-119.2,0-238.5,0-357.7,0C293,134.1,288.6,134.1,283.3,134.1z"/>
	<path class="st1" d="M719.5,179.1c-130.1,0-259.6,0-390,0c0,163.9,0,326.6,0,490.2c-7.6,0-14.4,0-22.1,0c0-170.1,0-340.3,0-511.3
		c137.3,0,274.4,0,412.2,0C719.5,165.1,719.5,171.5,719.5,179.1z"/>
	<path class="st2" d="M390,351.5c0-8.7,0-15.6,0-23.7c4.2,0,8,0,11.7,0c105.3,0,210.6,0,315.8,0c10.8,0,17.5,11.4,11.5,20.8
		c-1.4,2.2-6.6,2.7-10.1,2.8c-48.1,0.2-96.2,0.1-144.3,0.1c-57.2,0-114.3,0-171.5,0C399,351.5,394.9,351.5,390,351.5z"/>
	<path class="st2" d="M390,541.9c0-8.2,0-15.1,0-23.7c3.8,0,7.5,0,11.2,0c105.6,0,211.3,0,316.9,0.1c3.8,0,10.5,1.1,10.8,2.8
		c1.3,5.9,0.6,12.4,0.2,18.6c-0.1,0.8-2.7,1.9-4.2,2.1c-2.7,0.4-5.6,0.2-8.4,0.2c-104.6,0-209.2,0-313.7,0
		C398.9,541.9,395.1,541.9,390,541.9z"/>
	<path class="st2" d="M390.1,255.2c0-7.5,0-14.3,0-21.7c113.2,0,225.9,0,339.1,0c0,7.3,0,14.1,0,21.7
		C616.3,255.2,503.7,255.2,390.1,255.2z"/>
	<path class="st2" d="M390.1,303.1c0-7.6,0-14.4,0-21.8c113.2,0,225.9,0,339.1,0c0,7.5,0,14.3,0,21.8
		C616.3,303.1,503.6,303.1,390.1,303.1z"/>
	<path class="st2" d="M729.3,566.7c0,7.3,0,14.1,0,21.7c-113.2,0-225.8,0-339.1,0c0-7.2,0-14.1,0-21.7
		C502.8,566.7,615.5,566.7,729.3,566.7z"/>
	<path class="st2" d="M389.8,636.1c0-7.6,0-14.1,0-21.5c112.9,0,225.6,0,339.1,0c0,6.8,0,13.8,0,21.5
		C616.1,636.1,503.5,636.1,389.8,636.1z"/>
	<path class="st2" d="M390.4,375.8c56.1,0,111.4,0,167.7,0c0,7.2,0,14.2,0,22.1c-55.6,0-111.2,0-167.7,0
		C390.4,391,390.4,384,390.4,375.8z"/>
	<path class="st2" d="M390,684c0-7.3,0-14.1,0-21.8c56,0,111.6,0,168.1,0c0,6.9,0,14,0,21.8C502.5,684,446.9,684,390,684z"/>
	<path class="st2" d="M503.8,471.8c0,7.4,0,14.3,0,21.8c-37.7,0-75.1,0-113.4,0c0-6.8,0-13.9,0-21.8
		C427.8,471.8,465.2,471.8,503.8,471.8z"/>
</g>
</svg>
