<?xml version="1.0" encoding="utf-8"?>
<!-- Generator: Adobe Illustrator 19.0.1, SVG Export Plug-In . SVG Version: 6.00 Build 0)  -->
<svg version="1.1" id="Layer_1" xmlns="http://www.w3.org/2000/svg" xmlns:xlink="http://www.w3.org/1999/xlink" x="0px" y="0px"
	 viewBox="94 -4 800 800" style="enable-background:new 94 -4 800 800;" xml:space="preserve">
<style type="text/css">
	.st0{fill:#FFFFFF;}
	.st1{fill:#383838;}
	.st2{fill:#F26222;}
</style>
<g>
	<path class="st0" d="M777.1,518.7c61.7-113.8,47.9-288.7-85-394.9C568.3,25,384.8,34.1,271.5,145c-116.4,114-129.6,295-29.9,424.4
		c100,129.7,270,151.6,388.8,92.1c-8.2-21.4-16.4-42.9-24.6-64.5c-130.7,61.6-255.9,5.4-315.1-79.3
		c-66.6-95.2-60.3-219.8,15.6-307.1c75.6-86.9,199.1-110.6,301.9-57.5c50.2,25.9,87.6,64.8,111.2,116c33.1,71.8,30.5,144-2.3,216.2
		C737.6,496.7,757,507.5,777.1,518.7z M606.7,423.6c26.6-50.1,6.3-120.1-43.5-153.2c-53-35.2-125.1-24.7-165.4,24.2
		c-40.9,49.5-37.4,122.4,8,168C447,504,519.4,511,561.6,477.1c-4.4-18.8-21.1-38.5,0.2-57C576.9,407.2,591.7,414.6,606.7,423.6z
		 M834,714c-28.4-30.5-55.5-59.4-82.2-88.7c-4.2-4.6-6.2-11.3-9.2-17.1c5.9-3.1,11.5-7.5,17.8-8.9c23-5,46.3-9,69.5-13.4
		c0.3-1,0.7-2.1,1-3.1c-82.3-45.9-164.5-91.8-249.4-139.2c31.1,84.5,61.2,166.4,92.4,251.3c12.7-21.5,23.6-40.3,34.7-58.8
		c10.5-17.5,14.2-17.7,28-2.1c8.2,9.3,16.3,18.7,24.5,28c18.6,21.1,37.2,42.1,56.1,63.5C823.3,721.2,828.2,718,834,714z"/>
	<path class="st1" d="M777.1,518.7c-20.1-11.2-39.5-21.9-59.9-33.3c32.8-72.2,35.4-144.4,2.3-216.2c-23.6-51.2-61.1-90.1-111.2-116
		c-102.8-53.1-226.3-29.4-301.9,57.5c-75.9,87.3-82.2,211.9-15.6,307.1c59.2,84.7,184.5,140.9,315.1,79.3
		c8.3,21.6,16.5,43.1,24.6,64.5c-118.8,59.4-288.9,37.5-388.9-92.2C141.9,440,155.1,259,271.5,145C384.8,34.1,568.3,25,692,123.8
		C825,230,838.7,404.8,777.1,518.7z"/>
	<path class="st2" d="M606.7,423.6c-15.1-9-29.8-16.5-44.7-3.6c-21.4,18.4-4.6,38.2-0.2,57c-42.2,33.9-114.6,26.9-155.8-14.5
		c-45.4-45.6-48.9-118.4-8-168c40.3-48.9,112.4-59.4,165.4-24.2C613,303.5,633.3,373.5,606.7,423.6z"/>
	<path class="st2" d="M834,714c-5.8,4-10.7,7.2-16.9,11.5C798.2,704,779.5,683,761,662c-8.2-9.3-16.3-18.7-24.5-28
		c-13.7-15.6-17.5-15.4-28,2.1c-11.1,18.6-22,37.3-34.7,58.8c-31.1-84.9-61.2-166.8-92.3-251.3c84.9,47.4,167.1,93.3,249.4,139.2
		c-0.3,1-0.7,2.1-1,3.1c-23.2,4.4-46.4,8.4-69.5,13.4c-6.3,1.4-11.9,5.9-17.8,8.9c3,5.7,5,12.4,9.2,17.1
		C778.5,654.6,805.6,683.5,834,714z"/>
</g>
</svg>
