<?xml version="1.0" encoding="utf-8"?>
<!-- Generator: Adobe Illustrator 19.0.1, SVG Export Plug-In . SVG Version: 6.00 Build 0)  -->
<svg version="1.1" id="Layer_1" xmlns="http://www.w3.org/2000/svg" xmlns:xlink="http://www.w3.org/1999/xlink" x="0px" y="0px"
	 viewBox="0 0 309 125" style="enable-background:new 0 0 309 125;" xml:space="preserve">
<style type="text/css">
	.st0{fill:#F26424;}
	.st1{fill:#383938;}
</style>
<g>
	<path class="st0" d="M25.1,45.1c1.6-0.6,3.3-1.1,4.9-1.7c8.6-3.2,17.1-6.4,25.7-9.6c0.4-0.1,0.8-0.2,1.2,0c5.3,1.5,10.5,3,15.8,4.5
		c0.7,0.2,0.9,0.5,0.9,1.3c0,15.5,0,30.9,0,46.4c0,0.7-0.2,1-0.9,1.2c-5.3,1.4-10.6,2.9-15.9,4.4c-0.3,0.1-0.7,0.1-1,0
		c-9.7-3.6-19.4-7.1-29-10.7c-0.2-0.1-0.4-0.2-0.6-0.4c10,1.4,20,2.7,30.1,4.1c0-13.9,0-27.8,0-41.7c-0.3,0-0.6,0-0.9,0.1
		c-6.2,1.5-12.5,3-18.7,4.5c-0.7,0.2-0.9,0.5-0.9,1.2c0,8.8,0,17.6,0,26.4c0,0.8-0.2,1.1-0.9,1.4c-3.2,1.2-6.3,2.5-9.4,3.7
		c-0.1,0-0.2,0-0.3,0C25.1,68.4,25.1,56.8,25.1,45.1z"/>
	<path class="st1" d="M289.5,71c-0.2,0.6-0.3,1.3-0.5,1.9c-1.1,3.6-3.6,6-7.2,7c-3.4,1-6.9,0.9-10.3,0c-1.6-0.4-1.6-0.5-1.6-2.2
		c0-0.8,0-1.7,0-2.7c0.6,0.3,1.1,0.6,1.6,0.8c3.1,1.5,6.2,1.9,9.5,0.6c3.2-1.2,4.7-4.2,4.3-8c-0.3-3-2.5-5.2-5.7-5.9
		c-2.7-0.5-5.4-0.3-8.1-0.1c-0.3,0-0.5,0-0.9,0c0.4-5.8,0.8-11.5,1.2-17.3c0.4,0,0.7-0.1,1-0.1c4.7,0,9.4,0,14,0
		c0.8,0,1.1,0.3,1.1,1.1c0,2.4,0,2.4-2.5,2.4c-3,0-6.1,0-9.1,0c-0.7,0-1.1,0.1-1.2,1c-0.1,2.8-0.4,5.7-0.6,8.5
		c-0.1,0.9,0.4,0.8,1,0.8c2.1,0.1,4.2,0,6.2,0.4c4.2,0.9,6.9,3.5,7.6,7.8c0,0.2,0.1,0.3,0.2,0.5C289.5,68.8,289.5,69.9,289.5,71z"/>
	<path class="st1" d="M124.2,62.3c-0.1,3.7-0.7,7.3-2.6,10.5c-3.2,5.5-8.2,7.8-14.4,7.7c-5.9-0.1-10.5-2.4-13.5-7.6
		c-2.1-3.6-2.7-7.6-2.4-11.8c0.2-3.3,1-6.5,2.8-9.3c3-4.7,7.4-6.9,12.8-7.2c7.5-0.5,13.6,3.4,16.1,10.2c0.4,1.1,0.7,2.3,0.9,3.5
		C124.1,59.7,124.1,61,124.2,62.3z M95.5,62.7c-0.1,0-0.2,0-0.2,0c0.4,2,0.6,4.1,1.2,6c1.6,5.2,6,8.3,11.3,8.3
		c5.7-0.1,9.9-3.1,11.4-8.4c1.1-3.8,1.1-7.7,0.1-11.5c-1.3-4.7-4.2-7.8-9.2-8.6c-5.1-0.8-9.6,1.2-12.2,5.4
		C96.1,56.5,95.5,59.5,95.5,62.7z"/>
	<path class="st1" d="M141.7,46.3c-1.2-0.1-2.4-0.3-3.5-0.2c-1.7,0.1-2.8,1.2-3,2.8c-0.3,1.9-0.2,3.8-0.3,5.8c0,0.2,0.4,0.5,0.6,0.5
		c2.9,0,5.7,0,8.6,0c0.6,0,0.6-0.4,0.6-0.8c0-1.6,0-3.1,0.1-4.7c0.3-3.1,1.9-5.3,4.8-6.5c1.6-0.7,3.4-0.6,5.1-0.3
		c0.6,0.1,0.8,0.4,0.8,1c0,0.9,0,1.7,0,2.7c-0.7-0.2-1.2-0.3-1.8-0.4c-2.7-0.5-4.7,0.9-4.9,3.7c-0.2,1.6-0.1,3.1-0.2,4.7
		c0,0.6,0.2,0.7,0.8,0.7c1.4,0,2.8,0,4.2,0c0.7,0,1,0.2,1,0.9c0,2.4,0,2.4-2.3,2.4c-0.9,0-1.8,0-2.7,0c-0.6,0-0.9,0.2-0.8,0.8
		c0,1.4,0,2.8,0,4.3c0,5.2,0,10.3,0,15.5c0,0.7-0.2,1-1,1c-1-0.1-1.9,0-3,0c0-0.5,0-0.8,0-1.2c0-6.4,0-12.9,0-19.3
		c0-0.9-0.3-1.1-1.1-1.1c-2.5,0.1-4.9,0-7.4,0c-1.2,0-1.2,0-1.2,1.2c0,6.4,0,12.7,0,19.1c0,0.4,0,0.7,0,1.2c-1.2,0-2.3,0-3.4,0
		c-0.2,0-0.4-0.3-0.5-0.5c-0.1-0.2,0-0.5,0-0.8c0-6.3,0-12.7,0-19c0-1.2,0-1.2-1.2-1.2c-0.8,0-1.6,0-2.4,0c-0.5,0-0.7-0.1-0.7-0.7
		c-0.1-2.6-0.2-2.6,2.5-2.6c1.8,0,1.8,0,1.8-1.8c0-1.6,0-3.3,0.3-4.9c1-4.1,4.7-6.6,9.8-5.6c0.5,0.1,0.7,0.3,0.6,0.8
		C141.7,44.6,141.7,45.5,141.7,46.3z"/>
	<path class="st1" d="M248.1,63c0.4-0.6,0.7-1.1,1-1.5c2.3-2.9,5.4-3.5,8.8-3c3.7,0.5,6.2,2.7,7.4,6.2c1.4,4.4,1,8.6-2,12.3
		c-3.9,4.9-13.3,5.7-17.2-1.7c-1.6-3-2.1-6.3-2.2-9.7c-0.1-4.8,0.5-9.5,2.8-13.8c3.5-6.4,9.4-8.4,16.3-6.5c0.6,0.2,0.9,0.5,0.8,1.2
		c0,0.9,0,1.8,0,2.7c-1.4-0.4-2.6-0.8-3.8-1c-4.2-0.7-7.4,0.9-9.6,4.5c-1.8,3-2.4,6.3-2.4,9.8C248,62.6,248,62.7,248.1,63z
		 M262,69.5c-0.1-0.7-0.1-1.5-0.3-2.2c-0.5-2.9-2.4-4.9-4.9-5.5c-3.1-0.7-5.9,0.4-7.6,3c-2,3-1.3,8,1.5,10.7
		c2.8,2.7,7.2,2.4,9.6-0.7C261.5,73.2,261.9,71.4,262,69.5z"/>
	<path class="st1" d="M207.6,74.7c0,1.2,0,2.2,0,3.2c0,0.3-0.4,0.6-0.7,0.7c-2.5,1.6-5.3,2-8.2,1.9c-5.8-0.1-9.7-3.4-10.7-9.1
		c-0.8-4.6-0.4-9,2.6-12.8c3.6-4.7,11.1-5.6,15.3-1.7c2.4,2.2,3.2,5.2,3.4,8.3c0,0.7,0,1.5,0,2.2c0.1,0.8-0.2,1.1-1.1,1.1
		c-4.6,0-9.1,0-13.7,0c-0.7,0-1.4,0-2.2,0c-0.5,0-0.7,0.2-0.7,0.7c0.3,4.8,3.1,8.2,8.5,8c2.4-0.1,4.6-0.8,6.6-2.2
		C207.1,75,207.3,74.9,207.6,74.7z M192,65.1c0.1,0,0.1,0.1,0.2,0.1c4.2,0,8.4,0,12.7,0c0.2,0,0.4-0.3,0.5-0.5c0.1-0.3,0-0.6,0-0.9
		c-0.4-2.4-1.2-4.4-3.6-5.4C197.2,56.6,192,60.3,192,65.1z"/>
	<path class="st1" d="M220.9,50.4c0-1.3,0-2.3,0-3.4c0-0.2,0.2-0.5,0.4-0.6c3.3-2,10.2-2.7,13.8-0.1c2.8,2,3.6,4.8,3.2,8
		c-0.3,3.2-2,5.3-4.9,6.7c-0.5,0.2-1,0.5-1.6,0.7c0,0,0,0.1,0,0.1c1,0.3,2.1,0.6,3.1,1c3.2,1.4,5,4.4,4.7,7.9
		c-0.3,4.7-3.2,8.2-7.8,9.3c-3.8,0.9-7.5,0.8-11.2-0.7c-0.8-0.3-1.3-0.8-1.2-1.8c0.1-0.9,0-1.9,0-3c0.4,0.2,0.7,0.4,0.9,0.5
		c3.2,2.1,6.7,2.6,10.3,1.7c4.1-1.1,6-5.2,4.3-9.1c-0.9-2.2-2.8-3.2-5-3.6c-1.3-0.3-2.6-0.3-3.9-0.4c-1-0.1-2,0-3.2,0c0-1,0-2,0-2.9
		c0-0.2,0.5-0.4,0.8-0.4c1.5-0.1,3.1-0.1,4.6-0.2c0.4,0,0.7-0.1,1.1-0.2c4-1.1,5.8-4.4,4.5-8.4c-0.6-2-2.1-3-4.1-3.4
		c-3-0.6-5.7,0-8.2,1.7C221.6,50,221.3,50.1,220.9,50.4z"/>
	<path class="st1" d="M184.9,59.7c-1.2-0.5-2.2-1.1-3.4-1.4c-5.4-1.4-9.9,1.4-11,6.9c-0.6,2.8-0.4,5.5,1,8c2.2,3.9,7.2,5.2,11.5,3.1
		c0.6-0.3,1.2-0.7,1.9-1.1c0,1.2,0,2.2,0,3.3c0,0.2-0.3,0.6-0.6,0.7c-7.8,4.4-17.4-0.7-18-9.6c-0.2-3,0.1-6,1.6-8.7
		c2.6-4.7,6.8-6.5,12-6.3c1.4,0.1,2.8,0.5,4.1,0.8c0.6,0.1,0.9,0.5,0.9,1.2C184.9,57.6,184.9,58.6,184.9,59.7z"/>
	<path class="st1" d="M162,80c-1.3,0-2.5,0-3.8,0c0-0.4-0.1-0.7-0.1-1c0-7.5,0-15.1,0-22.6c0-0.9,0.3-1.2,1.2-1.2
		c0.7,0.1,1.4,0,2.2,0c0.4,0,0.6,0.1,0.6,0.6c0,8,0,15.9,0,23.9C162.1,79.8,162.1,79.9,162,80z"/>
	<path class="st1" d="M160.1,48.8c-1.5,0-2.5-1-2.5-2.6c0-1.4,1.2-2.6,2.6-2.5c1.4,0,2.6,1.2,2.6,2.6
		C162.8,47.8,161.7,48.8,160.1,48.8z"/>
</g>
</svg>
