<?xml version="1.0" encoding="utf-8"?>
<!-- Generator: Adobe Illustrator 19.0.1, SVG Export Plug-In . SVG Version: 6.00 Build 0)  -->
<svg version="1.1" id="Layer_1" xmlns="http://www.w3.org/2000/svg" xmlns:xlink="http://www.w3.org/1999/xlink" x="0px" y="0px"
	 viewBox="102 20.9 800 800" style="enable-background:new 102 20.9 800 800;" xml:space="preserve">
<style type="text/css">
	.st0{fill:#FFFFFF;}
</style>
<g>
	<path class="st0" d="M590,58.5c42.7,12.9,85.4,25.9,128.1,38.7c25.3,7.5,50.5,15.2,76.1,21.6c13.5,3.3,17.9,9.6,17.8,23.7
		c-0.6,123.4-0.3,246.9-0.3,370.3c0,74.6-0.3,149.3,0.3,223.9c0.1,13.3-4.1,18.7-17.2,22.2c-64.8,17.2-129.3,35.5-193.9,53.6
		c-3.8,1-7.3,3-10.9,4.5c-2.3,0-4.6,0-6.9,0c-5-2.5-9.7-5.6-14.9-7.6c-80.7-30-161.5-59.7-242.2-89.6c-43.3-16-86.7-32.1-130-48.2
		c0.2-0.6,0.4-1.2,0.6-1.8c129.8,17.8,259.6,35.6,389.9,53.5c0-183.5,0-363.7,0-545.5c-6.3,1.2-11.3,2-16.2,3.2
		c-77,18.3-153.9,37.4-231.2,54.6c-17.6,3.9-22.5,10.6-22.3,28.3c0.9,110.9,0.4,221.8,0.5,332.7c0,8.7,0.7,16-10.6,20.1
		c-42.5,15.5-84.6,32.3-126.9,48.6c0-151.7,0-303.4,0-455.1c6-1.6,12.1-2.8,17.9-5c94.5-35.3,189.1-70.6,283.5-106.3
		c34.2-12.9,68-26.9,101.9-40.3C585.4,58.5,587.7,58.5,590,58.5z"/>
</g>
</svg>
