<?xml version="1.0" encoding="utf-8"?>
<!-- Generator: Adobe Illustrator 19.0.1, SVG Export Plug-In . SVG Version: 6.00 Build 0)  -->
<svg version="1.1" id="Layer_1" xmlns="http://www.w3.org/2000/svg" xmlns:xlink="http://www.w3.org/1999/xlink" x="0px" y="0px"
	 viewBox="-579 -100 800 800" style="enable-background:new -579 -100 800 800;" xml:space="preserve">
<style type="text/css">
	.st0{fill:#F26222;}
	.st1{fill:#383838;}
</style>
<g>
	<path class="st0" d="M-401.5,236.5c-17.3,1.6-34.8,0.8-51,5c-76.5,19.8-126.1,97.4-115.5,178.3c8.6,65.8,81.7,125.4,154.8,125.5
		c114.4,0.3,228.8,0.1,343.2,0c5.7,0,11.5-0.7,19.2-1.2c-107.4-128.8-22.7-322.9,155.1-322.3c7.8-47.3-20.8-103.1-60.6-126.8
		c-70.7-42-136.4-37-191,29.3C-207,71.3-262.4,54.7-314.2,79.2C-379.6,110.1-404.3,166.4-401.5,236.5z"/>
	<path class="st0" d="M-401.5,236.5c-2.8-70.2,21.9-126.4,87.3-157.3c51.8-24.5,107.2-7.9,166.9,45.3C-92.7,58.1-27,53.2,43.7,95.2
		c39.8,23.6,68.4,79.5,60.6,126.8c-177.8-0.7-262.5,193.4-155.1,322.3c-7.7,0.5-13.5,1.2-19.2,1.2c-114.4,0.1-228.8,0.2-343.2,0
		c-73.1-0.2-146.2-59.8-154.8-125.5c-10.6-81,39-158.5,115.5-178.3C-436.3,237.3-418.8,238.1-401.5,236.5z"/>
</g>
<g>
	<path class="st1" d="M-22.5,530c-11.5-11.8-23-23.5-34.7-35.5c3.1-5.8,6.4-12.1,9.8-18.4c2.1-3.9,4.2-7.7,6.2-11.6
		c0.2-0.5,0.3-1.2,0.1-1.7c-3.3-6.3-6.7-12.7-9-19.5c-0.1-0.4-0.7-0.8-1.2-0.9c-11-3.1-22.1-6.1-33.1-9.2c-0.6-0.2-1.3-0.4-2-0.6
		c0-16.4,0-32.8,0-49.4c2.8-0.8,5.7-1.6,8.6-2.4c8.8-2.4,17.7-4.9,26.5-7.4c0.4-0.1,1-0.5,1.2-0.9c2-6,5.2-11.4,8.5-16.7
		c1.6-2.5,1.6-4.4,0.1-7c-5.2-9-10-18.1-15-27.2c-0.1-0.2-0.2-0.5-0.3-0.6c11.7-11.7,23.3-23.3,34.9-35c5.1,2.8,10.3,5.7,15.4,8.5
		c5,2.8,10,5.5,15.1,8.3c0.4,0.2,1.1,0.2,1.5,0c6.1-3.1,12.4-5.6,18.9-7.6c0.9-0.3,1.3-0.7,1.6-1.6c3.1-10.5,6.2-21,9.3-31.5
		c0.1-0.4,0.3-0.8,0.4-1.3c0.4,0,0.8,0,1.2,0c15.6,0,31.2,0,46.8,0c1,0,1.4,0.3,1.7,1.3c3.1,10.5,6.2,21,9.3,31.6
		c0.3,0.9,0.6,1.3,1.5,1.6c6.5,2,12.9,4.4,19,7.5c0.5,0.2,1.3,0.1,1.8-0.2c9.8-5.3,19.5-10.6,29.2-16c0.8-0.4,1.3-0.5,1.9,0.2
		c11.1,11.2,22.3,22.4,33.4,33.5c0.2,0.2,0.4,0.4,0.6,0.6c-2.8,5.1-5.6,10.1-8.4,15.2c-2.8,5.1-5.6,10.2-8.4,15.3
		c-0.3,0.5-0.3,1.3-0.1,1.8c3.1,6,5.5,12.3,7.5,18.8c0.3,0.9,0.7,1.3,1.6,1.5c10.6,3.1,21.1,6.3,31.7,9.4c0.3,0.1,0.6,0.2,0.9,0.3
		c0,16.4,0,32.8,0,49.3c-4.9,1.5-9.8,2.9-14.6,4.4c-6,1.8-12,3.6-18,5.4c-0.8,0.2-1.2,0.6-1.4,1.4c-2,6.6-4.2,13.1-7.3,19.3
		c-0.2,0.4,0,1.2,0.2,1.7c5.3,9.7,10.5,19.4,15.8,29c0.6,1.1,0.6,1.7-0.3,2.6c-11.1,11.1-22.1,22.2-33.2,33.3
		c-0.2,0.2-0.4,0.4-0.7,0.6c-3.6-1.9-7.2-3.8-10.7-5.8c-6.5-3.5-13-6.9-19.4-10.4c-0.9-0.5-1.6-0.5-2.5,0
		c-6.1,3.3-12.3,6.4-18.9,8.6c-0.5,0.2-0.9,0.9-1.1,1.5c-3.2,11.2-6.3,22.3-9.4,33.5c-0.1,0.4-0.2,0.8-0.4,1.2
		c-16.4,0-32.8,0-49.4,0c-1-3.5-2-7.1-3-10.7c-2.3-8.1-4.5-16.1-6.8-24.2c-0.1-0.5-0.5-1.1-1-1.3c-5.5-1.8-10.5-4.7-15.6-7.4
		c-1.6-0.9-3.2-2.3-4.8-2.3c-1.5,0-3.1,1.4-4.6,2.3c-8.6,4.7-17.3,9.4-25.9,14.1C-21.7,529.6-22,529.7-22.5,530z M156.8,407.9
		c0-51-41.6-92.2-92.7-91.8c-50.4,0.4-91.1,41.6-91,91.8c0.1,50.8,41.2,91.8,92,91.8C115.8,499.7,156.9,458.5,156.8,407.9z"/>
	<path class="st1" d="M92.3,441c0-1.9,0.9-3.4,2.2-4.7c7.2-7.1,14.3-14.3,21.5-21.5c3.3-3.3,3.3-6.6,0-9.9
		c-7.3-7.3-14.5-14.5-21.8-21.8c-1.8-1.8-2.4-3.9-1.6-6.3c0.7-2.4,2.5-3.8,4.9-4.2c2.1-0.4,3.9,0.3,5.4,1.8c3.3,3.3,6.5,6.5,9.8,9.8
		c6.9,6.9,13.8,13.7,20.6,20.6c3.4,3.4,3.4,6.6,0,10c-10.1,10.1-20.1,20.2-30.2,30.2c-2.1,2.1-4.6,2.7-7,1.6
		C93.8,445.7,92.3,443.5,92.3,441z"/>
	<path class="st1" d="M33,378.6c-0.3,2-1.1,3.4-2.4,4.7c-7.2,7.1-14.3,14.3-21.5,21.5c-3.4,3.4-3.4,6.7,0,10
		c7.2,7.2,14.5,14.4,21.7,21.7c3,3,2.6,7.5-0.9,9.7c-2.5,1.6-5.5,1.3-7.7-1c-3.2-3.2-6.3-6.3-9.5-9.5c-7.1-7.1-14.2-14.2-21.3-21.3
		c-2.8-2.8-2.9-6.3-0.1-9.2c10.3-10.3,20.5-20.5,30.8-30.8c2.9-2.9,7.1-2.7,9.4,0.5C32.2,376.1,32.5,377.4,33,378.6z"/>
	<path class="st1" d="M52.7,447.9c-4.2,0-7-3.7-5.9-7.9c1.4-5.2,2.8-10.5,4.2-15.7c4.3-15.8,8.6-31.6,12.9-47.4
		c0.7-2.4,2-4.2,4.5-4.9c2.3-0.6,4.5,0,6.1,1.8c1.6,1.8,1.9,3.9,1.3,6.1c-4.6,16.7-9.1,33.5-13.6,50.3c-1.2,4.4-2.4,8.8-3.6,13.2
		C57.7,446.2,55.5,447.9,52.7,447.9z"/>
</g>
</svg>
