<?xml version="1.0" encoding="utf-8"?>
<!-- Generator: Adobe Illustrator 19.0.1, SVG Export Plug-In . SVG Version: 6.00 Build 0)  -->
<svg version="1.1" id="Layer_1" xmlns="http://www.w3.org/2000/svg" xmlns:xlink="http://www.w3.org/1999/xlink" x="0px" y="0px"
	 viewBox="154 306 920 181" style="enable-background:new 154 306 920 181;" xml:space="preserve">
<style type="text/css">
	.st0{fill:#ED1B24;}
	.st1{fill:#FFFFFF;}
</style>
<g>
	<path class="st0" d="M776.8,464.1c-204.1,0-408,0-612.3,0c0-45.6,0-91,0-136.7c204.2,0,408.1,0,612.3,0
		C776.8,373,776.8,418.3,776.8,464.1z M252.6,361.1c0-0.1,0-0.1,0-0.2c-1.5,0-3-0.1-4.5,0c-9.2,0.7-18.7,0.1-27.4,2.5
		c-14.9,4.1-24.6,20.4-22.9,35.3c1.9,17.2,14.4,30.7,30.9,31.5c16.1,0.9,32.4,1,48.5,0c17.8-1.1,31.3-17.5,30.7-35.3
		c-0.6-18.5-14.9-33.2-32.9-33.8C267.4,361,260,361.1,252.6,361.1z M367.8,408.5c2.7-0.1,4.1-0.3,5.6-0.3
		c8.7-0.1,15.2-4.2,19.5-11.5c9.2-15.6-1.2-35.1-19.4-35.6c-18.2-0.5-36.4-0.1-54.6-0.3c-4-0.1-5.2,1.1-5.1,5.1
		c0.2,18.7,0,37.4,0.1,56.1c0.1,9.2-2.1,8.7,8.9,9c4.1,0.1,5.6-1.1,5.5-5.4c-0.2-15.2-0.1-30.3-0.1-45.5c0-1.9,0.2-3.9,0.3-6.2
		c15,0,29.5-0.2,43.9,0.1c5.7,0.1,10.1,5.6,9.9,10.9c-0.2,5.7-4.8,10.3-10.9,10.5c-4.9,0.2-9.8,0-14.7,0c-7.3,0-14.7,0-22,0
		c-0.4,0.6-0.7,1.2-1.1,1.8c1,0.5,2.3,0.8,3.1,1.5c10.4,9,21.2,17.7,31.1,27.3c7.6,7.4,16,4,24.7,3.3
		C384.7,422.9,376.7,416,367.8,408.5z M735.1,417.9c-3.2,0-5,0-6.8,0c-14,0-28,0.1-41.9-0.1c-10-0.1-18.9-7.2-19.7-15.6
		c1.9,0,3.7,0,5.5,0c15.3,0,30.7,0,46-0.1c1.7,0,4-0.4,4.9-1.5c2.6-3.2,4.5-6.9,7.3-11.3c-22.2,0-43.1,0-64.1,0
		c2.3-9.5,10.6-15.4,21.4-15.5c11.3-0.1,22.6,0,33.9-0.1c1.6,0,3.9,0,4.7-0.9c2.7-3.5,4.9-7.3,7.8-11.8c-17.6,0-33.9-0.3-50.2,0.1
		c-17.9,0.4-32.7,15.5-33.1,33.1c-0.5,18.9,12.7,34.8,30.9,36.1c14.1,1,28.3,0.5,42.4,0.6c1.2,0,2.9-0.5,3.5-1.4
		C730.1,426.1,732.2,422.5,735.1,417.9z M446.4,376.8c6.2,10,11.9,19.1,18.1,29.2c-12.3,0-23.4,0-35.3,0c1.8,3,3.5,5.1,4.6,7.4
		c1.9,4,4.7,5.4,9.2,5.2c7.9-0.4,15.8,0.2,23.8-0.2c4.6-0.2,7.5,1.1,9.6,5.4c1.2,2.6,3.1,6.3,5.4,6.8c4.5,1.1,9.5,0.3,14.9,0.3
		c-0.7-1.6-0.9-2.4-1.3-3c-13.2-20.7-26.4-41.5-39.8-62.1c-5-7.7-13.6-7.3-18.8,0.8c-12.9,20.1-25.7,40.3-38.5,60.5
		c-0.6,1-1,2.2-1.8,4c3.6,0,6.3-0.3,8.9,0.1c5.2,0.6,8.2-1.4,10.9-5.9C425.7,409.1,435.8,393.5,446.4,376.8z M573.6,417.9
		c-16,0-30.6,0-45.2,0c-2.7,0-5.4,0-8-0.6c-11.4-2.6-18.2-12.4-17-24.5c1-10.3,10.7-18.7,22.2-18.9c11.6-0.2,23.3,0,34.9-0.1
		c1.6,0,3.8-0.2,4.5-1.3c2.6-3.4,4.7-7.1,7.4-11.4c-17.6,0-34-0.3-50.5,0.1c-17.8,0.4-32.3,15.8-32.8,34.1
		c-0.5,17.5,13.3,33.9,30.6,35c14.3,0.9,28.6,0.5,42.9,0.6c1.3,0,3-0.8,3.8-1.8C568.7,425.9,570.7,422.4,573.6,417.9z M654.8,418
		c-21.3,0-41.4,0-62.2,0c0-19.3,0-38,0-56.6c-5.1,0-9.3,0-13.9,0c0,21.2-0.1,41.8,0.1,62.5c0,4.8,3,6.9,8.7,7
		c18.5,0.1,37,0.1,55.6,0c1.4,0,3.4-0.3,4.1-1.2C649.7,426.3,651.8,422.5,654.8,418z"/>
	<path class="st1" d="M252.6,361.1c7.4,0,14.8-0.2,22.2,0c18,0.6,32.3,15.4,32.9,33.8c0.6,17.8-12.9,34.2-30.7,35.3
		c-16.1,1-32.3,0.9-48.5,0c-16.5-0.9-28.9-14.4-30.9-31.5c-1.7-15,8-31.2,22.9-35.3c8.7-2.4,18.3-1.8,27.4-2.5c1.5-0.1,3,0,4.5,0
		C252.6,361,252.6,361,252.6,361.1z M252.3,417.9c6.4,0,12.8,0.1,19.2,0c12.5-0.2,22.1-9.5,22.2-21.4c0.2-12.3-9.1-22.2-21.7-22.5
		c-12.9-0.3-25.9-0.3-38.9,0c-12.5,0.3-21.6,10-21.4,22.2c0.1,12.1,9.4,21.4,21.9,21.7C239.9,418,246.1,417.9,252.3,417.9z"/>
	<path class="st1" d="M367.8,408.5c8.9,7.5,16.9,14.2,24.9,21c-8.6,0.6-17,4.1-24.7-3.3c-9.9-9.6-20.7-18.3-31.1-27.3
		c-0.8-0.7-2.1-1-3.1-1.5c0.4-0.6,0.7-1.2,1.1-1.8c7.3,0,14.7,0,22,0c4.9,0,9.8,0.1,14.7,0c6.1-0.2,10.7-4.9,10.9-10.5
		c0.1-5.3-4.2-10.7-9.9-10.9c-14.5-0.3-28.9-0.1-43.9-0.1c-0.1,2.3-0.3,4.3-0.3,6.2c0,15.2-0.2,30.3,0.1,45.5
		c0.1,4.3-1.4,5.5-5.5,5.4c-11-0.2-8.8,0.2-8.9-9c-0.1-18.7,0.1-37.4-0.1-56.1c0-4,1.2-5.2,5.1-5.1c18.2,0.2,36.4-0.2,54.6,0.3
		s28.6,20,19.4,35.6c-4.3,7.3-10.9,11.3-19.5,11.5C371.9,408.4,370.5,408.5,367.8,408.5z"/>
	<path class="st1" d="M735.1,417.9c-3,4.7-5,8.3-7.5,11.6c-0.6,0.9-2.3,1.4-3.5,1.4c-14.1-0.1-28.3,0.4-42.4-0.6
		c-18.3-1.3-31.4-17.2-30.9-36.1c0.4-17.6,15.2-32.6,33.1-33.1c16.3-0.4,32.6-0.1,50.2-0.1c-2.9,4.5-5.1,8.3-7.8,11.8
		c-0.8,1-3.1,0.9-4.7,0.9c-11.3,0.1-22.6,0-33.9,0.1c-10.8,0.1-19.1,6-21.4,15.5c21,0,42,0,64.1,0c-2.8,4.4-4.8,8.1-7.3,11.3
		c-0.9,1.1-3.2,1.5-4.9,1.5c-15.3,0.1-30.7,0.1-46,0.1c-1.8,0-3.6,0-5.5,0c0.8,8.4,9.7,15.5,19.7,15.6c14,0.2,28,0.1,41.9,0.1
		C730.1,417.9,731.9,417.9,735.1,417.9z"/>
	<path class="st1" d="M446.4,376.8c-10.6,16.7-20.7,32.4-30.4,48.4c-2.7,4.5-5.7,6.6-10.9,5.9c-2.6-0.3-5.3-0.1-8.9-0.1
		c0.8-1.8,1.2-3,1.8-4c12.8-20.2,25.7-40.4,38.5-60.5c5.2-8.1,13.8-8.6,18.8-0.8c13.4,20.6,26.5,41.4,39.8,62.1
		c0.4,0.7,0.6,1.5,1.3,3c-5.4,0-10.3,0.7-14.9-0.3c-2.2-0.5-4.1-4.2-5.4-6.8c-2-4.3-4.9-5.6-9.6-5.4c-7.9,0.4-15.9-0.2-23.8,0.2
		c-4.5,0.2-7.3-1.2-9.2-5.2c-1.1-2.4-2.7-4.5-4.6-7.4c11.9,0,23,0,35.3,0C458.3,395.9,452.6,386.8,446.4,376.8z"/>
	<path class="st1" d="M573.6,417.9c-2.9,4.5-4.9,8-7.3,11.2c-0.8,1-2.5,1.8-3.8,1.8c-14.3,0-28.7,0.4-42.9-0.6
		c-17.2-1.1-31-17.5-30.6-35c0.5-18.3,14.9-33.6,32.8-34.1c16.5-0.4,33-0.1,50.5-0.1c-2.7,4.3-4.8,8.1-7.4,11.4
		c-0.8,1-3,1.2-4.5,1.3c-11.6,0.1-23.3-0.1-34.9,0.1c-11.5,0.2-21.2,8.6-22.2,18.9c-1.1,12.1,5.6,21.9,17,24.5
		c2.6,0.6,5.3,0.6,8,0.6C543,418,557.7,417.9,573.6,417.9z"/>
	<path class="st1" d="M654.8,418c-2.9,4.5-5.1,8.3-7.7,11.7c-0.7,0.9-2.7,1.2-4.1,1.2c-18.5,0.1-37,0.1-55.6,0c-5.7,0-8.7-2.2-8.7-7
		c-0.2-20.7-0.1-41.4-0.1-62.5c4.6,0,8.8,0,13.9,0c0,18.6,0,37.3,0,56.6C613.4,418,633.5,418,654.8,418z"/>
	<path class="st0" d="M252.3,417.9c-6.2,0-12.5,0.1-18.7,0c-12.5-0.3-21.8-9.6-21.9-21.7c-0.1-12.1,9-21.8,21.4-22.2
		c12.9-0.4,25.9-0.3,38.9,0c12.6,0.3,21.9,10.1,21.7,22.5c-0.2,11.9-9.7,21.2-22.2,21.4C265.1,418,258.7,417.9,252.3,417.9z"/>
	<g>
		<path d="M903.9,390c-4,1.4-11.7,3.3-19.4,3.3c-10.6,0-18.2-2.7-23.6-7.8c-5.3-5-8.3-12.6-8.2-21.1c0.1-19.3,14.1-30.3,33.1-30.3
			c7.5,0,13.2,1.5,16.1,2.8l-2.8,10.5c-3.2-1.4-7.1-2.5-13.5-2.5c-10.9,0-19.2,6.2-19.2,18.7c0,12,7.5,19,18.2,19
			c3,0,5.4-0.3,6.4-0.9v-12h-8.9v-10.2h21.6V390H903.9z"/>
		<path d="M955.7,371.3c0,15.4-10.9,22.4-22.2,22.4c-12.3,0-21.8-8.1-21.8-21.7s8.9-22.3,22.4-22.3
			C947.1,349.8,955.7,358.6,955.7,371.3z M925.3,371.6c0,7.2,3,12.6,8.6,12.6c5.1,0,8.3-5.1,8.3-12.6c0-6.3-2.4-12.6-8.3-12.6
			C927.6,359,925.3,365.5,925.3,371.6z"/>
		<path d="M963.8,331.6h13.1v61.1h-13.1V331.6z"/>
		<path d="M1028.2,331.6v48.5c0,4.7,0.2,9.7,0.3,12.6h-11.6l-0.6-6.2h-0.2c-2.7,4.7-7.7,7.1-13.2,7.1c-10,0-18-8.5-18-21.6
			c-0.1-14.2,8.8-22.4,18.8-22.4c5.2,0,9.2,1.8,11.1,4.7h0.2v-22.7H1028.2z M1015.2,368.5c0-0.7-0.1-1.6-0.2-2.3
			c-0.8-3.5-3.6-6.4-7.7-6.4c-5.9,0-9,5.3-9,12c0,7.1,3.5,11.6,8.9,11.6c3.8,0,6.8-2.6,7.6-6.3c0.3-0.9,0.3-1.9,0.3-3L1015.2,368.5
			L1015.2,368.5z"/>
	</g>
	<g>
		<path d="M820.7,414.9c3.5-0.6,8.5-1,15.5-1s12.1,1.4,15.4,4c3.2,2.5,5.4,6.8,5.4,11.7c0,5-1.6,9.2-4.6,12
			c-3.9,3.7-9.7,5.3-16.4,5.3c-1.5,0-2.8-0.1-3.9-0.2v18.1h-11.3L820.7,414.9L820.7,414.9z M832.1,437.9c1,0.2,2.2,0.3,3.8,0.3
			c6.1,0,9.8-3.1,9.8-8.2c0-4.7-3.2-7.4-8.9-7.4c-2.3,0-3.9,0.2-4.7,0.5L832.1,437.9L832.1,437.9z"/>
		<path d="M883.4,464.8l-0.7-3.7h-0.2c-2.4,2.9-6.2,4.5-10.5,4.5c-7.4,0-11.8-5.4-11.8-11.3c0-9.5,8.5-14.1,21.5-14v-0.5
			c0-1.9-1-4.7-6.7-4.7c-3.8,0-7.7,1.3-10.1,2.8l-2.1-7.3c2.5-1.4,7.6-3.2,14.3-3.2c12.2,0,16.1,7.2,16.1,15.8v12.7
			c0,3.5,0.2,6.9,0.5,8.9L883.4,464.8L883.4,464.8z M882.1,447.5c-6-0.1-10.6,1.3-10.6,5.8c0,2.9,2,4.3,4.5,4.3
			c2.8,0,5.2-1.9,5.9-4.2c0.1-0.6,0.2-1.3,0.2-2L882.1,447.5L882.1,447.5z"/>
		<path d="M902.2,440.1c0-5.4-0.1-8.9-0.3-12.1h9.8l0.4,6.8h0.3c1.9-5.3,6.4-7.6,9.9-7.6c1,0,1.6,0,2.4,0.1V438
			c-0.8-0.1-1.8-0.3-3.1-0.3c-4.2,0-7,2.3-7.8,5.8c-0.2,0.7-0.2,1.6-0.2,2.5v18.7h-11.4L902.2,440.1L902.2,440.1z"/>
		<path d="M945,417.5V428h8.2v8.4H945v13.3c0,4.4,1,6.5,4.5,6.5c1.4,0,2.5-0.1,3.4-0.3l0.1,8.6c-1.5,0.6-4.2,1-7.4,1
			c-3.7,0-6.7-1.3-8.5-3.2c-2.1-2.2-3.2-5.7-3.2-10.9v-15H929v-8.4h4.9v-7.9L945,417.5z"/>
		<path d="M959.8,439.8c0-4.6-0.2-8.5-0.3-11.7h9.9l0.5,5h0.2c1.5-2.3,5.3-5.8,11.3-5.8c7.5,0,13.1,4.9,13.1,15.7v21.8h-11.4v-20.3
			c0-4.7-1.6-7.9-5.8-7.9c-3.1,0-5,2.2-5.8,4.3c-0.3,0.7-0.5,1.8-0.5,2.9v21h-11.4v-25H959.8z"/>
		<path d="M1012.5,450c0.4,4.7,5,7,10.3,7c3.9,0,7-0.5,10.1-1.5l1.5,7.7c-3.8,1.5-8.3,2.3-13.3,2.3c-12.4,0-19.6-7.2-19.6-18.7
			c0-9.3,5.8-19.6,18.5-19.6c11.8,0,16.3,9.2,16.3,18.3c0,1.9-0.2,3.7-0.4,4.5L1012.5,450L1012.5,450z M1025.9,442.3
			c0-2.8-1.2-7.4-6.4-7.4c-4.8,0-6.8,4.3-7,7.4H1025.9z"/>
		<path d="M1043.3,440.1c0-5.4-0.2-8.9-0.3-12.1h9.8l0.4,6.8h0.3c1.9-5.3,6.4-7.6,9.9-7.6c1.1,0,1.6,0,2.4,0.1V438
			c-0.8-0.1-1.8-0.3-3.1-0.3c-4.2,0-7,2.3-7.8,5.8c-0.1,0.7-0.2,1.6-0.2,2.5v18.7h-11.4L1043.3,440.1L1043.3,440.1z"/>
	</g>
</g>
</svg>
