<?xml version="1.0" encoding="utf-8"?>
<!-- Generator: Adobe Illustrator 19.0.1, SVG Export Plug-In . SVG Version: 6.00 Build 0)  -->
<svg version="1.1" id="Layer_1" xmlns="http://www.w3.org/2000/svg" xmlns:xlink="http://www.w3.org/1999/xlink" x="0px" y="0px"
	 viewBox="191 -340 800 800" style="enable-background:new 191 -340 800 800;" xml:space="preserve">
<style type="text/css">
	.st0{fill:#383838;}
	.st1{fill:#F26222;}
</style>
<g>
	<path class="st0" d="M325.8,358c-10.8,0-21.6,0.8-32.3-0.2c-22.1-2.1-38.3-20.6-38.8-42.9c-0.5-22.6,15.8-43,38.3-44.6
		c21.4-1.5,43.1-1.5,64.5-0.1c22.7,1.5,38.9,21.3,38.7,44.1c-0.2,23-16.5,41.5-39.4,43.6C346.6,358.9,336.2,358.1,325.8,358
		C325.8,358.1,325.8,358.1,325.8,358z M324.9,344.2L324.9,344.2c9.5-0.1,19.1,0.6,28.6-0.3c15.6-1.4,26.8-13.8,27.3-28.9
		c0.4-15.6-10.7-29.6-26.6-30.6c-18.6-1.2-37.3-1.2-55.9-0.2c-16.9,0.9-28.4,14.7-27.9,30.8c0.4,15.5,12.1,27.8,28.4,29.1
		C307.5,344.7,316.2,344.2,324.9,344.2z"/>
	<path class="st0" d="M423.1,357.9c-6,0-10,0-14.7,0c0-29.1,0-57.6,0-87.6c4.1-0.3,8.5-0.7,12.8-0.8c18.7-0.1,37.3-0.1,56,0
		c21.3,0.2,33.8,9.9,35.1,27.2c1.4,17.8-8.8,29-29.7,32.8c-1.5,0.3-2.9,0.9-6.5,2c10.1,8.8,18.9,16.6,27.7,24.4
		c-0.1,1-0.2,2-0.4,3.1c-7.1-0.9-16,0.7-21-3c-15.8-11.7-30.1-25.4-43.9-41c12.6,0,25.3,0.1,37.9,0c12.9-0.1,20.2-5.6,20.4-15
		c0.3-9.5-7.2-15.8-19.6-16.1c-14.5-0.3-29,0.2-43.5-0.2c-8.1-0.2-11,2.9-10.8,10.9C423.3,315.1,423.1,335.8,423.1,357.9z"/>
	<path class="st0" d="M867.7,306.5c26.6,0,52.8,0,80,0c-2,10.9-6.8,15-16.4,14.7c-21-0.4-41.9-0.1-63.2-0.1
		c2.7,15.1,11.8,22.6,27.5,23.1c15.3,0.5,30.6,0.1,46,0.2c4,0,7.9,0.4,12.4,0.7c-2.4,9.9-7.3,14.2-16.8,13.8
		c-14.9-0.6-29.8,0.2-44.7-0.6c-25.2-1.3-43.2-20.1-43.2-44c-0.1-24.5,18.5-43.8,43.9-44.7c17.8-0.6,35.6-0.1,53.4,0
		c1.6,0,3.2,0.7,5.2,1.2c-1.2,9.8-6.6,13.3-16,13c-13.2-0.4-26.5-0.5-39.8,0C880.4,284.4,871.6,291.3,867.7,306.5z"/>
	<path class="st0" d="M605.9,328.7c-9.7-15.6-17.2-27.7-26.1-41.9c-9.8,15.4-18.3,28.9-26.8,42.3c-4,6.3-8.3,12.4-11.7,19
		c-4.9,9.7-12,12.9-23.2,9.4c0.5-1.7,0.7-3.7,1.6-5.1c15.9-25.2,31.8-50.4,48-75.4c6.6-10.2,16.1-11.7,22-2.8
		c18.1,27.1,35.3,54.7,53.4,83c-10.6,2.7-17.8,2.6-23.5-7c-2.3-3.9-8.8-6.6-13.8-7.2c-8.5-1.2-17.4-0.9-26-0.2
		c-9.9,0.8-15.5-3.1-18.5-14.1C575.2,328.7,588.6,328.7,605.9,328.7z"/>
	<path class="st0" d="M742.3,344.3c-2.9,11.3-8.3,15-17.7,14.6c-14.9-0.7-29.8,0.2-44.7-0.6c-25-1.4-42.8-20.3-42.7-44.4
		c0.1-24,18.2-43.2,43-44.2c19.8-0.8,39.6-0.2,60.1-0.2c-1.8,10.7-6.9,14.6-16.4,14.3c-12.8-0.5-25.7-0.5-38.5-0.1
		c-19.5,0.6-32.4,12.9-32.4,30.3c0,17.6,12.9,29.8,32.4,30.2C704,344.6,722.6,344.3,742.3,344.3z"/>
	<path class="st0" d="M770.4,344.3c26.9,0,52.2,0,78.3,0c-2.5,10.9-7.5,14.9-17.1,14.6c-21.1-0.5-42.3-0.5-63.4-0.2
		c-10,0.1-14.1-3.8-13.9-14.1c0.5-21.1,0.6-42.3,0-63.4c-0.3-11.9,5-13.4,16.1-9.9C770.4,294.8,770.4,318.6,770.4,344.3z"/>
</g>
<g>
	<path class="st1" d="M604.7-284.1c36.6,0,73.3,0,109.9,0c50.6,0.1,94.7,16.9,131.8,51.3c33.4,31,53.5,69.3,59.5,114.6
		C918-26.3,865.5,58.7,778,89.4c-19.4,6.8-39.4,10.2-60,10.2c-74.3,0.1-148.5,0-222.8,0c-29.7,0-58.3-5.6-85-18.9
		c-55.8-27.8-91.8-72-104.5-133c-13.5-64.4,2.7-122,47.3-170.7c30.5-33.3,68.8-52.9,113.6-59.1c9.4-1.3,19-1.8,28.5-1.9
		C531.6-284.2,568.1-284.1,604.7-284.1z M604.5-216L604.5-216c-35.5-0.1-71.1-0.3-106.6,0c-8.5,0.1-17.1,0.9-25.4,2.7
		c-67.1,14.5-108.7,78.1-95.8,145.8c10.7,56.1,62.6,99.1,119.7,99.1c71.1,0,142.2,0,213.3,0c4.4,0,8.8-0.2,13.2-0.6
		c29.9-2.8,55.5-15,76.3-36.4c38.3-39.3,47-96,21.2-144.4c-22.3-41.7-58.2-64.3-105.5-65.9C678.1-217,641.3-216,604.5-216z"/>
</g>
</svg>
