<?xml version="1.0" encoding="utf-8"?>
<!-- Generator: Adobe Illustrator 19.0.1, SVG Export Plug-In . SVG Version: 6.00 Build 0)  -->
<svg version="1.1" id="Layer_1" xmlns="http://www.w3.org/2000/svg" xmlns:xlink="http://www.w3.org/1999/xlink" x="0px" y="0px"
	 viewBox="94 -4 800 800" style="enable-background:new 94 -4 800 800;" xml:space="preserve">
<style type="text/css">
	.st0{fill:#FFFFFF;}
</style>
<g>
	<path class="st0" d="M783,407.1c-24.1,29.6-55.5,44.1-91.9,49.7c0.8,6.4,1.9,12.6,2.1,18.8c0.7,18.5-1.8,36.2-15.9,49.7
		c-4.4,4.2-10.2,7.1-15.7,9.9c-2.9,1.5-4.8,2.5-5.5,6.1c-3.1,15.2-9.3,29-22.6,37.8c-6.6,4.3-14.4,6.8-21.6,10.3
		c-1.5,0.7-3.4,1.9-3.9,3.3c-4.5,14-14,23.7-26.4,30.7c-16,9.1-32.8,11.5-50.4,4.3c-1.2-0.5-3.6,0.4-4.6,1.5
		c-9.4,9.8-19.9,17.6-33.7,20.1c-15.6,2.8-29.4-1.5-41.8-10.5c-11.3-8.2-21.9-17.4-32.3-25.7c-5.5,5.8-10.7,12.2-16.8,17.5
		c-9.6,8.4-20.9,12.6-33.9,9.7c-8.4-1.8-15.2-6.7-21.6-12.1c-31.3-26.7-61.3-54.9-90.1-84.2c-8.9-9-18.4-17.5-27.3-26.5
		c-6.4-6.4-11.7-13.6-14.8-22.3c-5.5-15.2-2.4-28.7,7.6-41c1.6-2,3.2-4,5-6.3c-6.4-6-12.8-11.9-19.6-18.2
		c-2.5,7.3-4.8,14.2-7.1,21.1c-2.7,8.2-9.5,11.5-17.3,8.2c-23.7-9.8-47.4-19.7-71.1-29.5c-6.8-2.8-9.2-7.6-6.9-14.6
		c7.4-22.9,15-45.7,22.6-68.6c14.8-44.8,29.6-89.6,44.4-134.3c3.8-11.6,7.6-23.1,11.4-34.7c2.3-6.9,8.8-9.9,15.2-6.6
		c15.2,7.7,30.3,15.5,45.5,23.2c11.1,5.7,22.1,11.8,33.5,17c4.7,2.1,10.3,2.2,15.5,2.9c44,5.5,88,10.9,132,16.4
		c6.5,0.8,13,2.2,19.5,2.9c3.1,0.3,6.5,0.2,9.3-0.8c14.9-5.3,29.8-5,45-1.3c23.7,5.9,47.5,11.1,71.3,16.5c6.2,1.4,12.4,3.1,18.7,4.3
		c2,0.4,4.5,0.2,6.4-0.7c18.4-7.9,36.7-16.1,55.1-24.1c2.9-1.3,4.5-2.5,4.6-6.2c0-2.3,1.7-5.3,3.6-6.8c6.8-5.4,13.8-10.6,21.1-15.2
		c18.3-11.7,36.7-23.1,55.2-34.5c9.3-5.7,13.2-4.6,19.3,4.2c28.3,40.7,56.7,81.5,85.1,122.2c14.9,21.3,30.1,42.5,44.7,64
		c2.5,3.6,3.7,8.5,4.3,12.9c0.7,4.7-1.7,8.3-6,11.1c-23.3,15.4-46.4,31.1-69.6,46.7c-6.6,4.4-12.2,4.5-17.8-1.1
		c-3.1-3.1-5.4-7.1-7.9-10.7C785.3,411.9,784.5,409.8,783,407.1z M242,428c18.2-14.8,45.2-15,61.1,3.5c0.8,1,3.1,1.5,4.4,1.1
		c26.4-7.4,54.3,11.3,57.4,38.6c0.3,2.6,1.1,3.7,3.9,4.3c18.1,4.2,29.4,15.7,34.1,33.5c1.4,5.2,1.3,10.7,2,16.2
		c30.2,5.3,45.4,40.2,28.7,66c4.7,4,9.3,8,13.9,11.9c6.4,5.4,12.5,11.1,19.3,16c14.6,10.5,32.6,3.6,41.8-10.2
		c1.4-2.1,1.4-3.5-0.8-5.2c-9.5-7.4-18.8-15-28.4-22.4c-10.1-7.7-20.5-15-30.4-22.9c-2.8-2.2-5.4-5.3-6.7-8.5
		c-1.6-4,0.3-7.9,3.8-10.6c3.8-3,8-3,11.7-0.4c7.2,5.1,14.1,10.6,21,16c18.2,14.1,36.3,28.2,54.5,42.2c3.2,2.4,6.4,5,10,6.6
		c17.9,7.8,36.4-6.9,39.8-22c0.3-1.3-1-3.6-2.2-4.5c-31.4-24.5-62.9-48.9-94.4-73.3c-6.2-4.8-12.7-9.3-18.9-14.1
		c-5.1-4-6.3-9.5-3.5-14.5c2.6-4.5,8.2-6.3,13.9-3.8c3.5,1.5,6.9,3.5,9.9,5.8c5.8,4.5,11.2,9.7,17,14.2c21.8,16.8,43.7,33.3,65.5,50
		c8.3,6.3,16.7,12.6,24.8,19.1c6,4.8,12,4.6,18.2,0.8c7.3-4.5,12.9-10.6,15.8-18.8c2.5-6.9,1.5-10.7-4.3-15.2
		c-5.4-4.2-11.2-8.1-16.7-12.3c-30-22.8-60.1-45.8-90.1-68.6c-7.4-5.6-15.1-10.9-22.3-16.8c-5.1-4.2-5.3-10.3-1.5-15.1
		c3.5-4.4,9.4-5.1,14.7-1.4c4.9,3.4,9.5,7.1,14.2,10.7c22.6,17.2,45.2,34.5,67.8,51.7c14.6,11.1,29.1,22.3,43.7,33.3
		c7.9,6,15.2,5.9,21.9-0.7c3.2-3.2,6.2-7.2,7.8-11.4c4.8-12.5,3.8-25.2-0.9-37.7c-0.4-1-1-2.2-1.8-2.7c-9.9-5.7-16-15.2-23.5-23.3
		c-4.2-4.6-8.2-9.8-13.3-13.1c-14.6-9.6-29.6-18.7-44.7-27.5c-31.1-18.1-62.4-35.8-93.5-53.8c-2.4-1.4-4.1-1.4-6.6-0.3
		c-21.5,9.7-43.1,19.2-66.7,22.8c-27.1,4.1-51.4-1.5-71.7-20.9c-6-5.8-10.6-12.5-12.8-20.6c-3.7-13.9,3.3-26.4,18.8-33.9
		c14.6-7.1,29.1-14.2,43.6-21.5c5.5-2.8,10.7-6.2,16.9-9.8c-2.1-0.4-3.2-0.7-4.2-0.8c-13.7-1.4-27.5-2.8-41.2-4
		c-29.9-2.6-59.9-5-89.8-7.6c-2.8-0.2-3.9,0.5-4.8,3.1c-16.2,49-32.4,98.1-48.9,147c-2,5.9-0.9,10.2,3,14.5
		C228.9,413.7,235.5,421,242,428z M769.7,388.5c-9.1-12.6-18.2-25.1-27.3-37.8c-23.8-33.3-47.5-66.7-71.4-100
		c-0.8-1.1-3.3-2-4.5-1.5c-21,8.4-41.8,17.3-62.8,25.6c-4.9,1.9-10.6,2.8-15.8,2.5c-5.7-0.3-11.3-2.3-16.9-3.6
		c-26.1-6-52.2-12-78.3-18c-9.2-2.1-18.3-3.8-27.5-0.4c-6.5,2.4-13,4.7-19.1,7.8c-17,8.8-33.6,18.2-50.5,27.1
		c-12.5,6.6-25.2,12.7-37.9,18.9c-4,1.9-4.8,3.9-2.1,7.7c6.2,8.7,14.6,14.5,24.7,17.6c15.8,4.8,31.7,2.8,46.9-2.6
		c18.5-6.6,36.6-14.6,54.8-22.2c3.1-1.3,5.2-1,8,0.7c12.8,8,25.6,16,38.7,23.6c33.3,19.4,66.6,38.8,100,57.9
		c12.2,7,22.1,16.1,31.2,26.7c15.1,17.8,9.1,16.6,33.3,12.3c18.4-3.2,35.8-9.3,50.8-20.8C752.4,403.2,760.8,395.9,769.7,388.5z
		 M679.1,224.3c42.2,61.8,88.1,120.3,126.6,184.6c19.9-13.4,39.5-26.7,59.4-40.1c-42.9-60.7-85.4-121-128.1-181.5
		C717.3,199.8,698.1,212.1,679.1,224.3z M181.9,436.6c0.5-1,0.9-1.6,1.1-2.2c10.6-32.8,21.2-65.6,31.8-98.4
		c11.7-36.1,23.4-72.3,35.2-108.4c0.8-2.6,1.7-4.5-1.8-6.2c-12.2-5.8-24.2-12-36.2-18c-4.4-2.2-8.8-4.3-13.7-6.6
		c-23.1,72.5-46,144.4-68.9,216.6C147.1,421.2,164.3,428.8,181.9,436.6z M291,542.2c0.6-0.6,1.4-1.1,1.9-1.9
		c10.5-13,21-25.9,31.3-39c4.8-6.2,9.8-12.4,13.7-19.1c3.8-6.5,2.1-13.3-3.4-18.9c-6-6.1-14.7-8.7-21-5.9c-2,0.9-4,2.2-5.4,3.9
		c-7.2,8.7-14.1,17.5-21.1,26.2c-7.6,9.5-15.2,19-22.7,28.2C273.5,524.7,282.2,533.3,291,542.2z M332.6,582.4
		c1.5-1.5,2.8-2.7,3.9-4.1c10.9-13.5,21.7-27,32.5-40.6c3.2-4,7.1-7.8,9.1-12.3c3.5-7.7-1.5-18.9-9.1-23.2
		c-7.7-4.3-16.7-2.1-22.6,5.3c-8,10-16.1,20-24.1,30c-5.3,6.6-10.5,13.3-16,20.1C315.1,566.1,323.7,574.1,332.6,582.4z M348.8,596.6
		c6.4,5.5,12.3,10.4,18.1,15.4c8.3,7.1,19.1,2.7,23.8-4.3c6.9-10.3,14.2-20.2,21.2-30.4c6.5-9.5,2.4-22.1-8.5-26.1
		c-8.5-3.1-17.6-0.6-23.2,6.3C369.9,570.5,359.5,583.4,348.8,596.6z M247.9,502.3c13.7-17.1,26.6-33,39.4-48.9
		c-7.3-13.2-21.8-15-30.5-3.9c-5.9,7.6-11.5,15.5-17.2,23.2c-3,4.1-4,8.7-1.8,13.2C240.6,491.3,244.2,496.4,247.9,502.3z"/>
</g>
</svg>
