<?xml version="1.0" encoding="utf-8"?>
<!-- Generator: Adobe Illustrator 19.0.1, SVG Export Plug-In . SVG Version: 6.00 Build 0)  -->
<svg version="1.1" id="Layer_1" xmlns="http://www.w3.org/2000/svg" xmlns:xlink="http://www.w3.org/1999/xlink" x="0px" y="0px"
	 viewBox="94 -4 800 800" style="enable-background:new 94 -4 800 800;" xml:space="preserve">
<style type="text/css">
	.st0{fill:#383838;}
	.st1{fill:#F26222;}
</style>
<g>
	<path class="st0" d="M449.5,585.6c0,15.7,0,29.5,0,44.6c-6.2,0.3-11.9,0.9-17.6,0.9c-83.1,0.1-166.2,0.1-249.3,0
		c-38.5,0-57.4-19.5-57.5-58.8c0-130.5,0-261,0-391.5c0-43.8,22.9-64,69.3-58.8c0,7.1-0.3,14.4,0,21.8c1.1,26.1,20.4,45.7,45.6,46.3
		c26,0.7,46.3-18.5,48-45.6c0.4-7,0.1-14,0.1-22.5c92.8,0,184.8,0,278.3,0c0,21.3-2,43.9,18.1,57.4c8.7,5.8,20.3,10,30.7,10.2
		c29.3,0.6,41.2-17.5,46.7-66.8c40.1-8.3,67.1,12.9,67.2,53.1c0.2,57.9,0,115.8,0,175.1c-15.2,0-29.4,0-45.1,0c0-30,0-59.6,0-90.7
		c-171.4,0-341.2,0-512.5,0c-0.3,6.1-0.8,11.8-0.8,17.4c-0.1,96,0.4,192-0.4,287.9c-0.1,16.8,5.1,20.5,20.8,20.3
		c79.6-0.7,159.2-0.3,238.8-0.3C436.1,585.6,442.4,585.6,449.5,585.6z"/>
	<path class="st0" d="M868.9,585.8c-0.1,102.6-82.4,185-185,185.1C580.8,771,497.2,687.7,497.4,585
		c0.2-101.7,83.8-185.3,185.5-185.6C785.6,399.1,869,482.7,868.9,585.8z M823.5,585.5c0.1-76.5-62.4-139.8-139-140.6
		c-76.2-0.8-141.4,63.9-141.5,140.4c-0.1,76.3,63,139.7,139.5,140.2C760.1,725.9,823.4,663.1,823.5,585.5z"/>
	<path class="st1" d="M358.5,446.8c30.6,0,60.1,0,90.7,0c0,30.1,0,59.6,0,90.4c-30,0-59.9,0-90.7,0
		C358.5,507.1,358.5,478.1,358.5,446.8z"/>
	<path class="st1" d="M449.9,308.3c0,30.3,0,58.8,0,88.9c-30.4,0-60.3,0-91.2,0c0-29.2,0-58.2,0-88.9
		C388.6,308.3,418.5,308.3,449.9,308.3z"/>
	<path class="st1" d="M220,446.7c29.9,0,58.9,0,89.2,0c0,29.8,0,59.3,0,90.3c-28.9,0-58.3,0-89.2,0C220,507.7,220,478.3,220,446.7z"
		/>
	<path class="st1" d="M498.4,397.7c0-30.3,0-59.7,0-90.1c30.4,0,59.9,0,90.1,0c0,30.3,0,59.7,0,90.1
		C558,397.7,528.6,397.7,498.4,397.7z"/>
	<path class="st1" d="M309.6,308.4c0,29.7,0,59.1,0,89.4c-30.2,0-59.6,0-90.1,0c0-29.8,0-58.8,0-89.4
		C249.1,308.4,278.9,308.4,309.6,308.4z"/>
	<path class="st0" d="M264.2,97c0,14.6,0.3,29.2-0.1,43.7c-0.5,15.7-9.6,25.4-23,25.3c-13.2-0.1-22.3-9.9-22.5-25.8
		c-0.4-29.1-0.4-58.3,0-87.4c0.2-15.4,10.1-25.7,22.9-25.6c12.8,0.1,22.1,10.5,22.5,26C264.5,67.8,264.2,82.4,264.2,97z"/>
	<path class="st0" d="M636.5,97.3c0,14.6,0.4,29.2-0.1,43.7c-0.5,15.6-10,25.8-23.3,24.8c-14.5-1.1-22-9.9-22.2-24.2
		c-0.3-29.7-0.4-59.5,0.1-89.2c0.2-15.3,10.6-26.3,23.3-25c15.1,1.5,22.3,11.1,22.3,26.2C636.5,68.2,636.5,82.8,636.5,97.3z"/>
	<path class="st1" d="M682.9,585.6c23.4,0,43.8-0.2,64.2,0.1c18.8,0.2,28.6,8.6,28.4,23.5c-0.2,14.3-9.4,21.9-27.6,22
		c-27.5,0.2-54.9,0.2-82.4,0c-20.3-0.2-27.9-7.3-28.2-27c-0.3-28.1-0.3-56.1,0-84.2c0.2-17.1,9.2-27.1,23.2-26.9
		c13.9,0.3,22.1,10.2,22.2,27.8C683.1,541.7,682.9,562.6,682.9,585.6z"/>
</g>
</svg>
