<?xml version="1.0" encoding="utf-8"?>
<!-- Generator: Adobe Illustrator 19.0.1, SVG Export Plug-In . SVG Version: 6.00 Build 0)  -->
<svg version="1.1" id="Layer_1" xmlns="http://www.w3.org/2000/svg" xmlns:xlink="http://www.w3.org/1999/xlink" x="0px" y="0px"
	 viewBox="94 -4 800 800" style="enable-background:new 94 -4 800 800;" xml:space="preserve">
<style type="text/css">
	.st0{fill:#FFFFFF;stroke:#FFFFFF;stroke-width:5;stroke-miterlimit:10;}
	.st1{fill:#FFFFFF;stroke:#FFFFFF;stroke-width:10;stroke-miterlimit:10;}
</style>
<g>
	<path class="st0" d="M354.8,173.1c1.1-2.4,2.4-4.8,3.3-7.3c0.4-0.8,0.3-1.9,0.1-2.8c-1.2-5.9-0.1-11.1,4.4-15.5
		c0.8-0.8,1.5-2.2,1.7-3.5c0.8-7.2,4.3-12.4,10.8-15.6c1.3-0.7,2.4-1.8,3.3-3.1c3.2-5.1,8.1-7.1,13.6-8.2c0.7-0.1,1.3-0.3,2-0.3
		c2.4,0,3.7-1.1,4.9-3.2c3.3-5.4,9.8-7.5,16.4-5.7c5.6,1.6,9.6,7.1,9.6,13.2c0,30.2,0.1,60.4,0,90.5c0,6.8-2.4,12.8-8.2,16.7
		c-5.1,3.4-11.2,3.5-17.3,3c-5.4-0.5-9.8-2.9-13.2-7.2c-0.6-0.7-1.6-1.1-2.4-1.3c-8.1-1.7-13.5-6.3-16.8-13.9
		c-1.4-3.1-3.6-5.7-5.9-8.3c1.4,7.4,5,13.7,10,19.1c4.1,4.4,8.4,8.5,12.7,12.5c9.5,9,15.4,19.7,16.3,33.3c-0.9,0.2-1.9,0.3-2.7,0.6
		c-2.1,0.7-3.4,2.1-3.5,4.5c0,2.3,1.1,3.9,3.3,4.6c0.9,0.3,2,0.4,2.9,0.4c17.5-0.1,34.9-0.2,52.4-0.3c2.9,0,4.8-1.6,4.9-4.3
		c0.1-2.6-1.3-4.5-3.7-4.8c-2.5-0.4-2.7-1.5-2.4-3.5c1.7-12,7.3-21.8,16.2-30c5.2-4.8,10.5-9.7,15.1-15c3.3-3.8,5.3-8.5,7.8-13
		c0.4-0.7,0.5-1.6,0.7-2.4c-0.3-0.2-0.6-0.4-0.9-0.6c-1.5,2-3.6,3.9-4.5,6.2c-3.3,8.1-8.6,13.3-17.3,15c-1,0.2-2.1,1-2.8,1.9
		c-5.4,6.3-12.4,7.4-20.2,6.7c-1.5-0.2-2.9-0.4-4.4-0.7c-7.9-1.7-13.7-9.3-13.7-18.4c-0.1-25.3,0-50.5,0-75.9c0-4.9,0-9.8,0-14.7
		c0-6.7,3.9-12.3,9.6-13.9c7.3-2,13.7,0.5,17.5,6.6c0.6,0.9,2,1.9,3.1,2c7.2,1,13.7,3.1,17.4,10.2c0.3,0.6,0.9,1,1.5,1.3
		c7.5,3.1,11,8.9,12.1,16.6c0.2,1.1,0.9,2.3,1.8,3.2c4,4.4,5.7,9.2,4.2,15c-0.3,1.1-0.3,2.6,0.4,3.5c3.7,5.8,3.2,11.4,0.3,17.2
		c-0.6,1.2-1.2,2.5-1.1,3.8c0.7,16.1-5.6,29.2-16.8,40.3c-5.2,5.2-10.1,10.8-14.8,16.6c-3.7,4.6-5.1,10.4-6.4,16.2
		c-0.5,2,0.8,2.5,2,3.3c3.1,2,4.2,5,3.7,8.6c-0.5,3.2-2.3,5.3-5.2,6.6c-1,0.5-2.2,0.7-3.4,0.7c-17.9,0.1-35.9,0.1-53.9,0.1
		c-4.2,0-7.5-2.5-8.6-6.2c-1.1-4,0.2-7.7,4-10c1.4-0.8,1.8-1.6,1.5-3.3c-1.7-9.9-6.5-18-13.3-25.3c-3.9-4.1-7.9-8.2-11.6-12.4
		c-7.2-8.3-11.4-17.9-11.7-29c-0.1-6.2-2-11.9-4.3-17.6C354.8,175,354.8,174,354.8,173.1z M395.8,171.3c0.1-0.3,0.1-0.6,0.2-0.8
		c-2.6-1-3.6-4.4-7.3-4c-10.5,1.1-18.3-3.6-22.7-13.4c-0.5-1-0.9-2-1.6-3.3c-4.6,3.7-4.7,8.3-3.5,13c0.6,2.1,0.3,3.8-0.7,5.8
		c-5.2,9.8-0.7,18.5,10.1,20.5c5.5,1,10.1-0.7,14.6-3.8c0.7,0.7,1.5,1.3,2.2,2c3.2,2.5,6.7,3.5,10.7,2.9c2.9-0.5,5.5-1.3,4.7-5.1
		c-0.1-0.3,0.4-0.7,0.7-1c0.4,3.3,1.1,6.3,4.9,8.1c-2.5-0.2-4.4-0.9-5.8-0.4c-5.9,2.1-11.5,1.9-16.6-1.9c-1.2-0.8-2-0.9-3.3-0.2
		c-5,3-10.3,3.4-15.7,1.3c-1.9-0.7-3.7-1.5-6-2.4c0.1,1.8,0,3.1,0.3,4.2c0.9,4.6,11.3,21.2,15.1,23.9c1.9,1.3,4.1,2.1,6.2,3.3
		c0.2-0.2,0.4-0.5,0.6-0.7c-0.4-1.5-0.7-3-1-4.5c-1.2-7,0-13.4,4.8-18.8c0.6-0.6,1.9-0.5,2.8-0.7c-0.2,0.9-0.1,2-0.6,2.7
		c-1,1.9-2.6,3.4-3.4,5.4c-2.8,6.8-1.3,15.3,4,20.1c6.2,5.6,13.7,7.6,21.6,4.6c6.6-2.4,11.1-9.8,11.1-17.5c0-17,0-34,0-51
		c0-1.1-0.2-2.2-0.4-4.1c-1,1.3-1.6,2-2,2.6c-4.4,6.5-10.1,11.4-17.4,14.3c-3.1,1.2-6.3,2-9.6,2.6c-1.1,0.2-2.5-0.8-3.7-1.3
		c1.1-0.7,2.1-1.7,3.4-2.1C393.5,171.2,394.7,171.4,395.8,171.3z M430.4,156.6c-0.1,0.6-0.2,1.2-0.2,1.9c0,17.9,0,35.9,0,53.9
		c0,0.9,0.2,2,0.5,2.9c4.7,14.9,17.9,17.3,29.4,10.2c9.3-5.7,11-19.2,3.6-27.3c-0.8-0.9-2.2-1.9-0.7-3c0.6-0.4,2.4,0.4,3,1.1
		c3.9,5,5.9,10.7,4.6,17.2c-0.4,1.9-0.7,3.7-1.1,5.6c0.5,0.1,0.7,0.3,0.8,0.3c0.3,0,0.6-0.1,0.8-0.2c5.2-1.4,8.4-5.1,11-9.5
		c1.9-3.1,3.8-6,5.8-9c2.3-3.5,4.1-7.2,3.5-11.6c-0.5-0.1-0.7-0.2-0.8-0.1c-1,0.4-2,0.8-3,1.2c-5.9,2.5-11.7,3-17.4-0.4
		c-1.7-0.9-2.7-0.8-4.2,0.3c-3.8,2.9-8.3,3.4-12.8,2.6c-2.8-0.6-5.4-2.3-8.2-0.3c0,0-0.3-0.2-0.7-0.7c4-1.3,3.6-5,4.6-8.2
		c0.6,1,0.7,2,0.7,2.8c0,2,1,3.1,2.7,3.3c2.5,0.3,5.1,0.7,7.4,0.1c2.7-0.7,5.1-2.5,8-4c3.8,2.9,8.5,4.6,13.8,3.5
		c9.1-1.8,15.2-8.2,11.6-17.2c-1.7-4.2-2.4-8-1.6-12.5c0.8-4.4-1.3-7.8-4.4-8.9c-0.5,1-0.9,2.1-1.4,3.2
		c-4.6,9.8-12.6,13.7-21.7,13.2c-3.3-0.2-5.8,1-7.6,4.6c1.6,0.1,3,0.1,4.4,0.5c0.7,0.2,1.3,1.2,2,1.9c-0.7,0.5-1.4,1.1-2.2,1.5
		c-0.5,0.2-1.2,0.1-1.8,0c-6.1-1-12.1-2.9-16.8-6.9C437.9,164.7,434.3,160.6,430.4,156.6z M395.4,153c-0.7,0.4-1.2,0.9-1.9,1
		c-1.7,0.2-2.1,1.1-2,2.6c0.1,1.2-0.1,2.3,0.1,3.5c0.6,5.9,7.3,10.6,12.1,8.1c10.9-5.8,17.5-14.9,18.4-27.3
		c0.6-6.6,0.1-13.3,0.1-19.9c0-1.1,0-2.4-0.5-3.4c-2.1-5.2-8.9-8.5-14.3-7.2c-5.6,1.4-9.7,7.1-9.2,12.6c0.5,5.9,5.3,10.3,11.8,10.7
		c0.6-1.3,1.1-2.6,1.7-3.9c0.2,0.1,0.4,0.2,0.5,0.3c0.2,3.3,0.4,6.5,0.6,9.9c-0.3-0.1-1-0.2-1-0.5c-0.8-2.9-3.3-3-5.7-3.7
		c-5.6-1.9-9.5-5.4-10.2-11.6c-0.2-1.5-0.4-3.1-0.6-4.7c-6.1-0.4-10.8,1.9-14.1,6.7c-1.4,2-3,3.5-5.3,4.6c-4.1,1.9-6.7,5.1-7.8,9.7
		c-1.4,5.9,0,11.2,3.2,16.2c3.8,6,9.7,7.8,16.4,7.2c0.6-0.1,1.7-1.1,1.6-1.5c-0.8-3.4,0.3-7.5-3.3-10.2c-0.3-0.2-0.3-0.9-0.4-1.4
		C388.5,153.5,391.8,152.8,395.4,153z M439.5,140.2c0.2-3.3,0.4-6.7,0.6-10c0.2-0.2,0.3-0.3,0.5-0.5c0.7,1.3,1.4,2.6,2.1,3.9
		c6.4-0.7,11.1-4.9,11.4-10.6c0.4-5.9-3.6-11.1-9.6-12.6c-6.9-1.7-14.2,4.1-14.2,11.1c0,5.9-0.1,11.7,0,17.6
		c0.3,12.8,6.8,22,17.5,28.5c1.4,0.8,3.6,1,5.3,0.7c6.6-1.3,8-6.4,7.8-11.5c-0.1-1.4-0.5-2.7-2.3-2.7c-0.7,0-1.2-0.7-1.9-1.1
		c2-0.4,3.7,0.1,5.4-0.2c1.6-0.3,3-1.3,4.4-2c-0.7,1.9-2,3.1-2.5,4.6c-0.7,1.6-0.5,3.4-0.7,5.2c-0.5,3-0.1,3.3,3,3.5
		c12.2,0.6,17.7-8.8,18.5-17.5c0.7-7.2-2-12.7-8.7-16.1c-1.6-0.8-3.2-2.2-4.2-3.7c-3.6-4.9-8.3-7.4-14.7-7.2
		c-0.1,1.4-0.3,2.5-0.4,3.6c-0.3,5.4-3.1,9.1-7.7,11.6C445.7,136.5,441.3,136,439.5,140.2z"/>
	<path class="st0" d="M418.7,328.4c-0.7-0.4-1.3-0.7-2-1c-3.5-1.2-6.4-3.3-8.2-6.7c-2-3.8-5.1-5.9-9.6-6c-4.3-0.2-7.1-3.1-7-6.8
		c0.1-3.8,3-6.3,7.3-6.3c17.6,0,35.3,0.1,52.9,0.1c3.8,0,6.4,2.1,6.8,5.5c0.4,3.7-1.4,6.2-5.3,7.2c-0.7,0.2-1.7,0-2.3,0.4
		c-2.4,1.1-5.6,1.8-6.9,3.7c-3.1,4.6-6.5,8.2-11.7,10C428.1,328.4,423.3,328.4,418.7,328.4z"/>
	<path class="st0" d="M425.6,284.6c8.7,0,17.4,0,26.1,0c4.6,0,7.2,2.3,7.2,6.2c0.1,4.1-2.6,6.7-7.2,6.7c-16.7,0.1-33.3,0.1-50.1,0.1
		c-1.7,0-3.3,0-4.9-0.4c-3.3-0.8-5.2-4-4.8-7.1c0.5-3.2,3.1-5.6,6.5-5.6C407.5,284.5,416.6,284.5,425.6,284.6L425.6,284.6z"/>
</g>
<g>
	<path class="st1" d="M706.4,460.2c2.1,2.3,4.3,4.2,5.9,6.3c3.4,4.6,3.6,9.6,1,14.6c-1,2-2,4.2-3.5,5.8c-6,6.2-5.3,13.1-2.3,20.2
		c2.9,7,5.8,13.9,8.5,20.9c6.3,15.9-1.3,33.2-15.2,41.7c-8.5,5.2-18,7.7-27.8,8.7c-14.3,1.5-28.8,2-43.1,3.5
		c-4.6,0.5-9.2,2.1-13.5,4c-1.7,0.7-3.1,3.6-3.4,5.7c-3.7,21.3-12.4,40.5-23.3,59c-6.1,10.5-12.2,21-17.7,31.8
		c-4.6,8.7-6.9,18.2-7.9,28.1c-0.6,5.3-1.6,10.9-3.9,15.6c-5.6,11.3-15,15.5-28.8,13.8c-10.9-1.3-20.8-5.7-30.5-10.5
		c-14.1-7.2-27.1-16-39.6-25.6c-16.3-12.4-31.7-25.9-46.1-40.6c-9.5-9.8-19-19.5-28-29.8c-13.5-15.5-26-32-35.6-50.3
		c-3.9-7.4-7.2-15-8.2-23.4c-0.4-3.2-0.1-6.5,0.7-9.7c4.4-20,6.4-39.9,2.9-60.4c-3.8-21.9-12.6-41.4-26.3-58.8
		c-6.6-8.4-14.1-16.1-20.6-24.5c-6.9-8.8-13.8-17.7-19.4-27.5c-6.3-11.1-11.6-22.9-16.3-34.7c-6.1-15.9-9.5-32.5-11-49.6
		c-1.4-17.5-1.1-34.9,1.4-52.3c2.8-19.1,8-37.6,15.6-55.4c6-14.1,13.4-27.4,22-40.1c11.4-16.8,25-31.6,40.8-44.2
		c14.4-11.5,30.3-20.4,47.6-27c22.5-8.5,45.7-10.5,69.4-9.9c24.4,0.6,48.9,1.5,73,6.1c17.4,3.3,34.3,8.4,50.3,16.1
		c19.6,9.4,36.8,22,52.1,37.3c12,12,20.8,25.9,27.5,41.2c4.1,9.3,8.1,18.6,11.8,28c8,20.3,15,41,19.2,62.4c2,10.4,0.6,20.4-5.3,29.5
		c-3.3,5.2-3.2,10-0.3,15.5c7.2,13.6,16.4,25.5,26.5,37c9.5,10.7,18.4,21.8,26,34c8.3,13.3,3.5,21.8-8.3,28.2
		c-4.9,2.7-10,5.1-15,7.6c-2,1-2.5,2.2-1.9,4.6c2.7,10,5.1,20.2,7.7,30.4c1.8,6.9-0.5,12.2-6.5,15.8
		C706.9,459.6,706.6,460,706.4,460.2z M447.8,71.6c-12.3-0.5-29.3-0.3-46,3.6C384,79.5,367.4,86.9,352,96.7
		c-19.3,12.3-35.5,28-49.3,46.1c-12.4,16.3-22.2,34.4-29.5,53.6c-7.2,18.7-11.5,38.1-13.7,58c-2.5,23-0.7,45.7,4.6,68.1
		c3.5,15.2,9,29.9,16.3,43.8c6.4,12.5,14.1,24.3,23.1,35.1c7.2,8.6,14.9,16.9,21.8,25.7c11.1,14,19.3,29.8,24.3,47.1
		c6.6,23.1,7,46.4,1.6,69.9c-2.1,9.3-2.6,18.1,1.2,27c5.6,13,12.9,25,21.5,36.1c7.8,10.1,16,20.1,24.4,29.7
		c15.6,17.8,32.5,34.4,50.8,49.4c12.3,10.1,25.3,19.5,38.4,28.4c11.9,8.2,24.7,14.8,38.9,18.2c5.7,1.4,11.3,2.2,17,0.5
		c8.7-2.7,13.1-9.4,13.7-17.8c1.6-19.6,8.7-37.1,18.8-53.6c8.1-13.4,16.5-26.6,22.1-41.2c3.3-8.5,5.7-17.3,7.9-26
		c1.5-5.7,2.5-11.1,8.2-14.4c5.3-3,11.1-3.9,16.8-4.5c12.5-1.1,25.2-1.9,37.7-2.9c10.8-0.8,21.2-3.3,30.3-9.4
		c6.5-4.4,10.9-10.3,12.5-18.1c1.7-7.6-0.3-14.7-3.3-21.6c-3-7.2-5.8-14.4-8.5-21.6c-1.8-4.7-1.1-9.3,1.7-13.6
		c2-3.2,4.2-6.3,6.1-9.6c1.9-3.1,2.3-6.4-0.2-9.1c-2.1-2.3-5.1-3.8-7.6-5.9c-1.1-0.9-2.8-2.1-2.9-3.3c-0.1-1.2,1.3-2.7,2.3-3.6
		c1.3-1.2,3-2,4.6-2.9c3.6-1.9,5-4.9,4.1-8.7c-2.1-9.3-4-18.7-6.7-27.9c-2.9-9.7-3.1-10.1,5.5-15.4c0.9-0.6,2-0.9,3-1.5
		c5.1-2.8,10.3-5.4,15.2-8.6c4.8-3.2,5.7-8.3,2.8-13.3c-6.3-11.1-14-21.4-22.6-31c-11.7-13.3-23-26.8-31.4-42.5
		c-4.3-8-4.3-15.3,0.5-22.9c4.4-7.1,5.9-14.9,4.4-23c-2.8-16.1-7.6-31.7-13.3-47c-4.7-12.8-10-25.5-15.3-38.2
		c-6.5-15.5-14.4-30.1-26.3-42.5c-12.6-13-26.4-24.5-42.1-33.3c-18.2-10.2-37.8-16.7-58.2-20.6C500.1,73.6,476.5,71.9,447.8,71.6z"
		/>
</g>
</svg>
