<?xml version="1.0" encoding="utf-8"?>
<!-- Generator: Adobe Illustrator 19.0.1, SVG Export Plug-In . SVG Version: 6.00 Build 0)  -->
<svg version="1.1" id="Layer_1" xmlns="http://www.w3.org/2000/svg" xmlns:xlink="http://www.w3.org/1999/xlink" x="0px" y="0px"
	 viewBox="0 0 800 800" style="enable-background:new 0 0 800 800;" xml:space="preserve">
<style type="text/css">
	.st0{fill:#FFFFFF;}
	.st1{fill:#3F403F;}
	.st2{fill:#F26222;}
</style>
<g>
	<path class="st0" d="M92.1,547.2c7.8,11.8,15.6,23.4,23.1,35.1c2,3.2,3.9,3.5,7.3,2.5c20.5-6.3,41-12.4,61.7-18.2
		c6.4-1.8,11.8-4.7,16.5-9.5c5.7-5.9,11.9-11.2,17.8-16.8c12.1-11.4,24.2-22.8,36.5-34.4c-0.8-1-1.3-1.8-2-2.5
		c-11.6-13.1-21.5-27.5-29.2-43.2c-17.6-36.1-24.3-74.1-19-114c7.7-58.2,35.7-104.3,83.6-138.1c28-19.8,59.2-31.2,93.5-34.4
		c37.1-3.5,72.6,2.2,106.3,18.5c23,11.1,43,26.1,60.3,44.9c15.5,16.8,27.5,35.8,36.5,56.7c14.8,34.7,18.6,70.9,13.2,108.1
		c-5.6,39.1-22.1,73.3-48.4,102.6c-25.1,27.9-55.9,47.3-92.1,57.8c-22.8,6.6-46,9.3-69.6,7.3c-3-0.3-3.6,0.7-4,3.4
		c-2.8,23.8-5.9,47.5-8.7,71.3c-0.5,4.3-1.1,9.2,0.4,13.1c7.9,22.1,16.5,43.9,24.7,65.9c1.2,3.2,2.9,4.2,6.3,3.9
		c12.3-1,24.6-1.8,36.9-2.2c4.1-0.1,5.4-1.8,6.2-5.4c5.1-22.5,10.6-45,15.6-67.5c0.8-3.7,2.6-5,5.9-6.1c13.8-4.3,27.5-8.9,41.1-13.7
		c3.2-1.2,5.3-1.1,8,1.2c17.1,14.4,34.3,28.6,51.4,42.9c5.8,4.8,5.9,4.9,12.3,0.6c10.8-7.1,21.6-14.2,32.5-21.4
		c-7.1-24.2-14.1-47.9-21.3-71.6c-1-3.2-0.3-5,1.9-7.4c10.5-11.4,20.8-22.9,30.7-34.8c2.7-3.3,5.1-4.5,9.1-3.8
		c22.8,4,45.6,7.7,68.3,11.6c3.1,0.5,4.9,0,6.3-3c5.4-11.3,10.8-22.5,16.6-33.6c1.8-3.4,1.4-5.4-1.4-8c-17.1-15.9-34-31.9-50.9-48
		c-1.4-1.3-2.5-4-2.2-5.8c2.9-15.8,6.4-31.6,9.2-47.4c0.7-3.9,2.4-5.6,5.8-6.8c21.5-8,42.9-16.2,64.5-24.1c3.4-1.2,4.7-2.8,4.4-6.5
		c-1-12.1-2.1-24.2-2.5-36.4c-0.2-4.7-2.3-5.9-6.3-6.9c-22.5-5.1-45-10.4-67.5-15.8c-1.8-0.4-3.9-2.4-4.5-4.1
		c-5.1-14.4-9.9-28.9-14.5-43.5c-0.6-1.8-0.1-4.6,1-6.1c4.3-5.7,9-11.1,13.6-16.6c11.5-13.8,23-27.6,34.6-41.6
		c-7.8-11.7-15.5-23.2-23-34.8c-2.1-3.2-4.1-3.8-7.8-2.7c-22.1,6.7-44.3,13.2-66.4,19.8c-3,0.9-4.9,0.7-7.5-1.6
		c-12-11-24.3-21.8-36.7-32.4c-2.3-2-2.6-3.7-2.1-6.4c4-23.3,7.7-46.6,11.8-69.8c0.6-3.6-0.5-4.9-3.4-6.3
		c-11.3-5.4-22.5-10.9-33.6-16.6c-3.1-1.6-4.8-1.3-7.2,1.3c-16,17.2-32.2,34.2-48.4,51.2c-1.2,1.3-3.7,2.6-5.2,2.3
		c-16.3-3-32.6-6.2-48.9-9.7c-2-0.4-4.5-2.4-5.2-4.2c-8.5-22-16.8-44.1-25-66.2c-1.2-3.2-2.6-4.3-6.1-4c-12.4,1.1-24.9,2-37.4,2.7
		c-3.4,0.2-4.8,1.2-5.6,4.6c-5.1,22.7-10.6,45.3-15.7,68c-0.8,3.6-2.4,5.1-5.9,6.1c-13.6,4.2-27.2,8.7-40.7,13.6
		c-3.5,1.3-5.8,1.4-8.8-1.2c-17.5-14.9-35.3-29.4-52.9-44.3c-2.9-2.4-4.9-2.9-8.2-0.7c-10,6.9-20.1,13.6-30.5,20
		c-3.7,2.3-4.1,4.5-2.9,8.4c6.8,22.1,13.2,44.3,19.9,66.4c0.8,2.6,0.8,4.4-1.3,6.7c-11,12-21.6,24.4-32.6,36.4
		c-1.4,1.5-4.2,3-6.1,2.7c-10.7-1.5-21.3-3.5-32-5.3c-12.6-2.1-25.2-4.3-37.9-6.3c-2.6-0.4-4.9-0.9-6.6,2.6
		c-6,12.8-12.4,25.4-19.1,38.9c1.2,0.9,2.7,1.8,3.9,2.9c16.8,15.7,33.4,31.6,50.2,47.2c2.8,2.6,3.3,4.9,2.4,8.7
		c-3.4,15.1-6.4,30.2-9,45.4c-0.6,3.5-1.8,5.1-4.9,6.3c-21.8,8.1-43.5,16.5-65.4,24.6c-3.2,1.2-4.3,2.6-4.1,6.1
		c0.9,12.3,1.6,24.6,2.2,36.9c0.2,3.6,1.4,5.5,5.3,6.3c22.5,5,45,10.4,67.5,15.5c3.5,0.8,5.1,2.4,6.1,5.9c3.1,11,5.6,22.5,10.5,32.7
		c4.9,10.1,2.9,16.4-4.2,24.3C119.2,513.6,106,530.5,92.1,547.2z M262,498.4c6.9-6.5,12.6-12.3,18.6-17.7c2.7-2.5,2.4-4.1,0.3-7
		c-7.3-10.3-15.3-20.3-20.8-31.6c-14.1-28.5-19.1-58.8-14.6-90.6c4.6-32.8,17.9-61.4,40.6-85.5c27.1-28.9,60.5-45.4,99.8-49
		c32.1-2.9,62.6,3.1,90.9,19.1c28.4,16,50,38.6,64.3,67.8c11.6,23.6,16.8,48.8,15.5,75.3c-0.7,15.8-3.2,31.1-8.5,45.9
		c-9.8,27.4-25.9,50.6-48.5,69c-15.2,12.4-32.2,21.7-51,27.7c-17.8,5.6-36,8.1-54.5,7.6c-3.1-0.1-4.5,0.8-4.7,4.1
		c-0.5,6.5-1.4,12.9-2.1,19.3c-0.7,6-0.2,6.9,6.1,6.7c12.5-0.4,25.1-0.2,37.3-2.2c45.7-7.5,84.1-28.5,114.3-63.9
		c27.9-32.8,43-70.7,44.9-113.8c1.6-36.1-6.4-70-24.5-101.4c-19.2-33.2-45.9-58.6-80.2-75.6c-35.3-17.4-72.7-23.1-111.6-17.2
		c-39.7,6-73.9,23.4-102.8,51.2c-19.2,18.5-33.6,40.4-43.5,65.1c-11.6,28.9-15.8,59-12.4,90c3,26.9,11.2,52.4,25.4,75.5
		C246.6,477.7,254.3,487.5,262,498.4z M374.7,389.8c-1,1.8-1.8,3.2-2.5,4.6c-31.9,63.5-63.7,127-95.6,190.6
		c-1.8,3.6-3.7,7.1-5.2,10.8c-0.4,1,0,3.3,0.7,3.7c8.9,4.7,18,9.2,27.4,13.9c34.8-69.9,69.3-139.3,104-209.1
		C393.7,399.3,384.4,394.6,374.7,389.8z M151.1,731.7c6.6,1.9,13,3.3,18.9,5.5c20.2,7.8,40.1,16.1,60.3,23.8
		c12.6,4.8,25.5,9,39.3,7.6c6.4-0.6,13.7-0.6,15.8-8.9c-2.7-4.5-5.2-9-7.6-12.9c-2.2-0.2-4.2,0-5.9-0.6c-8.5-2.8-17-5.6-25.4-8.7
		c-23.2-8.5-46.4-17.2-69.6-25.9c-10.5-3.9-20.5-3-29.8,3.4c-2.6,1.8-4.1,3.7-1.8,6.9C147.5,725.3,149.3,728.8,151.1,731.7z
		 M212.6,622.6c2.5,0.3,4.9,0.3,7,1c8.3,2.8,16.7,5.6,24.9,8.7c20,7.6,39.8,15.7,60,22.9c11.5,4.1,23.6,5.7,35.7,1.6
		c5.7-2,7.2-5.8,4.1-10.7c-1.9-3.1-3.7-6.3-5.2-8.9c-3.1-0.5-6.1-0.6-8.8-1.5c-6.8-2.2-13.5-4.6-20.2-7.1
		c-23.6-8.8-47.3-17.7-70.9-26.5c-10.7-4-21-3.9-30.8,2.9c-2.9,2-4.2,3.8-1.8,7.2C209,615.6,210.8,619.3,212.6,622.6z M191.5,658.5
		c2.8,0.5,5.8,0.5,8.6,1.5c10.2,3.6,20.3,7.5,30.4,11.2c19.9,7.3,39.8,15,59.9,21.8c9.6,3.2,19.7,3,29.5-0.4
		c4.8-1.7,6.3-5.8,3.6-10.1c-2-3.2-3.9-6.6-5.7-9.6c-2.2-0.2-4.5,0-6.5-0.7c-9.3-3.1-18.6-6.3-27.8-9.6
		c-21.8-8.1-43.6-16.3-65.4-24.4c-10.6-3.9-21-4.1-30.8,2.8c-2.8,2-4.5,3.7-2,7.1C187.5,651.4,189.3,654.9,191.5,658.5z
		 M173.4,695.1c2.6,0.4,5.4,0.4,7.9,1.2c7.6,2.5,15.1,5.2,22.5,8c20.8,7.9,41.4,16.2,62.4,23.7c11.5,4.1,23.6,5.6,35.6,1
		c4.7-1.8,6.1-5.8,3.5-10c-2-3.2-3.8-6.6-5.5-9.4c-2.9-0.4-5.7-0.5-8.3-1.3c-7.4-2.4-14.8-5-22.1-7.7c-23-8.6-46-17.3-69.1-25.8
		c-10.8-4-21.4-4.1-31.3,2.7c-2.6,1.8-4.4,3.8-1.8,7.3C169.8,688,171.6,691.8,173.4,695.1z M191.3,755.4c-2.6,5.1-5,9.6-7,14.3
		c-0.4,0.9,0.2,3.1,1,3.5c8.8,4.6,17.7,9,27.3,13.8c2.9-5.7,5.5-11,8.4-16.8C210.9,765.2,201.3,760.4,191.3,755.4z"/>
	<path class="st1" d="M92.1,547.2c13.9-16.7,27.2-33.7,41.6-49.6c7.1-7.8,9.1-14.2,4.2-24.3c-5-10.2-7.4-21.6-10.5-32.7
		c-1-3.6-2.6-5.1-6.1-5.9c-22.5-5.1-45-10.5-67.5-15.5c-4-0.9-5.2-2.7-5.3-6.3c-0.6-12.3-1.3-24.6-2.2-36.9
		c-0.3-3.4,0.9-4.9,4.1-6.1c21.8-8.1,43.5-16.5,65.4-24.6c3.2-1.2,4.3-2.8,4.9-6.3c2.6-15.2,5.6-30.4,9-45.4
		c0.9-3.8,0.4-6.1-2.4-8.7c-16.8-15.7-33.5-31.5-50.2-47.2c-1.2-1.1-2.6-2-3.9-2.9c6.7-13.5,13.1-26.1,19.1-38.9
		c1.6-3.5,4-3,6.6-2.6c12.6,2,25.3,4.2,37.9,6.3c10.7,1.8,21.3,3.8,32,5.3c1.9,0.3,4.7-1.2,6.1-2.7c11-12,21.6-24.4,32.6-36.4
		c2.1-2.3,2-4.1,1.3-6.7c-6.7-22.1-13.1-44.3-19.9-66.4c-1.2-3.9-0.8-6.1,2.9-8.4c10.3-6.4,20.5-13.1,30.5-20
		c3.2-2.2,5.3-1.8,8.2,0.7c17.6,14.8,35.4,29.4,52.9,44.3c3,2.6,5.3,2.5,8.8,1.2c13.4-4.8,27-9.3,40.7-13.6c3.5-1.1,5.1-2.6,5.9-6.1
		c5.1-22.7,10.6-45.3,15.7-68c0.8-3.4,2.2-4.4,5.6-4.6c12.5-0.6,24.9-1.6,37.4-2.7c3.5-0.3,4.9,0.8,6.1,4
		c8.2,22.1,16.5,44.2,25,66.2c0.7,1.8,3.2,3.8,5.2,4.2c16.2,3.5,32.5,6.7,48.9,9.7c1.6,0.3,4-1,5.2-2.3c16.2-17,32.4-34,48.4-51.2
		c2.4-2.6,4.1-2.9,7.2-1.3c11.1,5.7,22.3,11.2,33.6,16.6c2.9,1.4,4,2.7,3.4,6.3c-4.1,23.2-7.8,46.6-11.8,69.8
		c-0.5,2.7-0.2,4.4,2.1,6.4c12.4,10.6,24.6,21.4,36.7,32.4c2.5,2.3,4.5,2.5,7.5,1.6c22.1-6.6,44.3-13.1,66.4-19.8
		c3.7-1.1,5.7-0.5,7.8,2.7c7.5,11.6,15.2,23.1,23,34.8c-11.6,14-23.1,27.8-34.6,41.6c-4.6,5.5-9.3,10.9-13.6,16.6
		c-1.1,1.5-1.5,4.3-1,6.1c4.6,14.6,9.4,29.1,14.5,43.5c0.6,1.7,2.7,3.7,4.5,4.1c22.4,5.5,44.9,10.7,67.5,15.8c4,0.9,6.2,2.1,6.3,6.9
		c0.5,12.1,1.5,24.3,2.5,36.4c0.3,3.6-1,5.2-4.4,6.5c-21.5,7.9-43,16.1-64.5,24.1c-3.4,1.3-5.1,2.9-5.8,6.8
		c-2.8,15.8-6.3,31.6-9.2,47.4c-0.3,1.8,0.8,4.5,2.2,5.8c16.8,16.1,33.8,32.2,50.9,48c2.8,2.6,3.2,4.5,1.4,8
		c-5.8,11.1-11.2,22.3-16.6,33.6c-1.4,3-3.2,3.6-6.3,3c-22.8-3.9-45.6-7.7-68.3-11.6c-4.1-0.7-6.4,0.5-9.1,3.8
		c-9.9,11.9-20.3,23.4-30.7,34.8c-2.2,2.4-2.9,4.2-1.9,7.4c7.2,23.7,14.1,47.5,21.3,71.6c-10.8,7.1-21.6,14.3-32.5,21.4
		c-6.5,4.2-6.5,4.2-12.3-0.6c-17.2-14.3-34.4-28.5-51.4-42.9c-2.7-2.3-4.7-2.3-8-1.2c-13.6,4.8-27.3,9.4-41.1,13.7
		c-3.4,1.1-5.1,2.4-5.9,6.1c-5,22.5-10.5,45-15.6,67.5c-0.8,3.6-2.1,5.3-6.2,5.4c-12.3,0.4-24.6,1.2-36.9,2.2
		c-3.4,0.3-5.1-0.7-6.3-3.9c-8.2-22-16.8-43.8-24.7-65.9c-1.4-3.9-0.9-8.8-0.4-13.1c2.8-23.8,5.9-47.5,8.7-71.3c0.3-2.7,1-3.7,4-3.4
		c23.6,2,46.9-0.7,69.6-7.3c36.2-10.5,67-29.9,92.1-57.8c26.3-29.2,42.8-63.5,48.4-102.6c5.4-37.2,1.6-73.4-13.2-108.1
		c-8.9-20.9-21-39.9-36.5-56.7c-17.3-18.8-37.3-33.8-60.3-44.9c-33.7-16.2-69.2-21.9-106.3-18.5c-34.2,3.2-65.5,14.6-93.5,34.4
		c-47.8,33.8-75.9,79.9-83.6,138.1c-5.2,39.9,1.4,77.9,19,114c7.7,15.7,17.6,30.1,29.2,43.2c0.6,0.7,1.2,1.5,2,2.5
		c-12.3,11.6-24.4,23-36.5,34.4c-5.9,5.6-12.1,10.9-17.8,16.8c-4.7,4.9-10.1,7.7-16.5,9.5c-20.6,5.8-41.2,12-61.7,18.2
		c-3.4,1-5.3,0.7-7.3-2.5C107.7,570.6,99.9,559,92.1,547.2z"/>
	<path class="st2" d="M262,498.4c-7.7-10.9-15.4-20.7-21.9-31.2c-14.3-23.1-22.5-48.6-25.4-75.5c-3.4-30.9,0.8-61,12.4-90
		c10-24.7,24.3-46.6,43.5-65.1c28.9-27.8,63.1-45.2,102.8-51.2c39-5.9,76.4-0.3,111.6,17.2c34.3,17,61.1,42.4,80.2,75.6
		c18.1,31.4,26,65.3,24.5,101.4c-1.9,43.1-17,81-44.9,113.8c-30.1,35.4-68.6,56.4-114.3,63.9c-12.2,2-24.8,1.8-37.3,2.2
		c-6.3,0.2-6.8-0.7-6.1-6.7c0.8-6.4,1.7-12.9,2.1-19.3c0.2-3.3,1.6-4.2,4.7-4.1c18.6,0.5,36.7-2,54.5-7.6c18.8-6,35.8-15.3,51-27.7
		c22.6-18.4,38.6-41.6,48.5-69c5.3-14.8,7.8-30.1,8.5-45.9c1.3-26.5-4-51.7-15.5-75.3c-14.3-29.2-35.9-51.8-64.3-67.8
		c-28.3-16-58.9-22-90.9-19.1c-39.3,3.6-72.7,20.1-99.8,49c-22.7,24.2-36,52.7-40.6,85.5c-4.5,31.8,0.6,62.1,14.6,90.6
		c5.5,11.2,13.6,21.3,20.8,31.6c2.1,2.9,2.4,4.5-0.3,7C274.6,486.1,268.8,491.8,262,498.4z"/>
	<path class="st2" d="M374.7,389.8c9.7,4.8,19,9.5,28.7,14.4c-34.7,69.8-69.2,139.2-104,209.1c-9.4-4.7-18.4-9.2-27.4-13.9
		c-0.7-0.4-1.1-2.7-0.7-3.7c1.5-3.7,3.4-7.2,5.2-10.8c31.9-63.5,63.7-127,95.6-190.6C372.9,393,373.8,391.6,374.7,389.8z"/>
	<path class="st1" d="M151.1,731.7c-1.7-2.9-3.6-6.5-5.8-9.7c-2.3-3.2-0.8-5.1,1.8-6.9c9.3-6.4,19.3-7.3,29.8-3.4
		c23.2,8.6,46.4,17.3,69.6,25.9c8.4,3.1,16.9,5.9,25.4,8.7c1.7,0.6,3.7,0.4,5.9,0.6c2.3,4,4.9,8.4,7.6,12.9
		c-2.1,8.3-9.4,8.3-15.8,8.9c-13.8,1.4-26.7-2.8-39.3-7.6c-20.2-7.7-40.1-16-60.3-23.8C164,735,157.7,733.6,151.1,731.7z"/>
	<path class="st1" d="M212.6,622.6c-1.9-3.3-3.6-7-6-10.4c-2.4-3.4-1.1-5.2,1.8-7.2c9.7-6.9,20.1-6.9,30.8-2.9
		c23.7,8.8,47.3,17.7,70.9,26.5c6.7,2.5,13.4,4.9,20.2,7.1c2.7,0.9,5.7,1,8.8,1.5c1.5,2.6,3.3,5.8,5.2,8.9c3.1,4.9,1.6,8.8-4.1,10.7
		c-12.1,4.1-24.2,2.5-35.7-1.6c-20.2-7.1-40-15.3-60-22.9c-8.2-3.1-16.5-6-24.9-8.7C217.5,622.9,215.2,622.9,212.6,622.6z"/>
	<path class="st1" d="M191.5,658.5c-2.1-3.6-3.9-7.2-6.2-10.4c-2.4-3.5-0.8-5.2,2-7.1c9.8-6.9,20.2-6.7,30.8-2.8
		c21.8,8,43.6,16.3,65.4,24.4c9.2,3.4,18.5,6.6,27.8,9.6c2,0.7,4.3,0.5,6.5,0.7c1.8,3,3.6,6.4,5.7,9.6c2.6,4.2,1.2,8.4-3.6,10.1
		c-9.8,3.4-19.9,3.7-29.5,0.4c-20.1-6.8-40-14.5-59.9-21.8c-10.1-3.7-20.2-7.6-30.4-11.2C197.3,659.1,194.2,659,191.5,658.5z"/>
	<path class="st1" d="M173.4,695.1c-1.9-3.3-3.6-7.1-6.1-10.4c-2.6-3.5-0.9-5.5,1.8-7.3c9.9-6.8,20.6-6.6,31.3-2.7
		c23.1,8.5,46,17.3,69.1,25.8c7.3,2.7,14.7,5.3,22.1,7.7c2.6,0.8,5.4,0.9,8.3,1.3c1.6,2.8,3.5,6.2,5.5,9.4c2.6,4.2,1.2,8.2-3.5,10
		c-12,4.7-24.1,3.1-35.6-1c-21-7.4-41.6-15.8-62.4-23.7c-7.5-2.8-15-5.5-22.5-8C178.8,695.5,176,695.5,173.4,695.1z"/>
	<path class="st2" d="M191.3,755.4c10,5,19.6,9.8,29.6,14.8c-2.9,5.9-5.5,11.1-8.4,16.8c-9.5-4.8-18.4-9.1-27.3-13.8
		c-0.8-0.4-1.4-2.6-1-3.5C186.3,765,188.7,760.5,191.3,755.4z"/>
</g>
</svg>
