<?xml version="1.0" encoding="utf-8"?>
<!-- Generator: Adobe Illustrator 20.1.0, SVG Export Plug-In . SVG Version: 6.00 Build 0)  -->
<svg version="1.1" id="Layer_1" xmlns="http://www.w3.org/2000/svg" xmlns:xlink="http://www.w3.org/1999/xlink" x="0px" y="0px"
	 viewBox="0 0 800 800" style="enable-background:new 0 0 800 800;" xml:space="preserve">
<style type="text/css">
	.st0{fill:#383838;}
	.st1{fill:#F26222;}
	.st2{fill:#FFFFFF;}
</style>
<g>
	<g>
		<path class="st0" d="M338.1,590.7c0-36.6,0-70.6,0-105.8c25.2,0,49.7,0,75.3,0c0,34.5,0,68.9,0,105.8c6.4,0,11.7,0,17,0
			c50.3,0,100.7-0.1,151,0c27.1,0,43.9,14.6,44.1,37.7c0.2,23.3-16.6,38.3-43.4,38.3c-137.3,0.1-274.5,0.1-411.8,0
			c-26.8,0-43.8-14.9-43.7-38c0-23.1,17-37.9,43.9-37.9c49.8-0.1,99.6,0,149.5,0C325.4,590.7,330.9,590.7,338.1,590.7z"/>
	</g>
</g>
<g>
	<g>
		<g>
			<path class="st1" d="M421.4,540.4c-88.3,0-176.6-1.4-264.8,0.4C50.1,542.9,0.6,475.7,15.8,370c7.3-50.8,47.3-75.5,93.6-87
				c25.4-6.3,39.7-15.4,47.8-43.2c41.1-141.5,194.2-179,297-73.6c14.1,14.4,25.4,19,45.7,13c98.9-28.9,174.4,20.6,192.2,122.1
				c1.9,11,13.6,24.2,24.2,29.3c63.9,30.4,88.1,87.9,62.5,153.6c-14.5,37.1-42,56.2-81.9,56.2C605.1,540.5,513.2,540.4,421.4,540.4z
				"/>
		</g>
	</g>
</g>
<g>
	<g>
		<path class="st2" d="M293.4,427.6l30.3-29.9c8.8,11.3,17.4,19.8,25.8,25.6c8.5,5.7,17.3,9,26.6,9.9v-80c-28-6-48.6-15.2-61.8-27.8
			c-13.2-12.5-19.8-29-19.8-49.5c0-21.4,7.2-38.6,21.7-51.6s34.4-20.1,59.9-21.5v-25.4h23.2v25.4c15.5,1.5,29.5,5.4,42.1,11.9
			s24.4,15.7,35.3,27.8l-29.6,31c-7.1-9.9-14.5-17.3-22.2-22.4c-7.7-5-16.3-7.9-25.7-8.7v72.7c30.8,7.7,52.8,18,65.9,30.9
			s19.7,30.4,19.7,52.4c0,22.6-7.7,40.8-23.1,54.5s-36.2,20.8-62.5,21.5v37.1H376v-37.1c-17.5-1.7-33.1-6.4-46.7-14.2
			C315.8,452.5,303.8,441.6,293.4,427.6z M376.1,307.3v-66.6c-13,0.6-22.9,3.7-29.8,9.1c-6.8,5.5-10.2,13.1-10.2,23
			c0,9.5,3.1,16.9,9.3,22.3C351.7,300.4,361.9,304.5,376.1,307.3z M399.3,434.4c13.5,0,23.7-2.8,30.7-8.5c6.9-5.7,10.4-14,10.4-25.1
			c0-11.2-3.2-19.9-9.6-26.1s-16.9-10.9-31.5-14.1V434.4z"/>
	</g>
</g>
</svg>
