<?xml version="1.0" encoding="utf-8"?>
<!-- Generator: Adobe Illustrator 20.1.0, SVG Export Plug-In . SVG Version: 6.00 Build 0)  -->
<svg version="1.1" id="Layer_1" xmlns="http://www.w3.org/2000/svg" xmlns:xlink="http://www.w3.org/1999/xlink" x="0px" y="0px"
	 viewBox="0 0 800 800" style="enable-background:new 0 0 800 800;" xml:space="preserve">
<style type="text/css">
	.st0{fill:#383838;}
	.st1{fill:#F26222;}
	.st2{fill:#FFFFFF;}
</style>
<g>
	<path class="st0" d="M338.1,590.7c0-36.6,0-70.6,0-105.8c25.2,0,49.7,0,75.3,0c0,34.5,0,68.9,0,105.8c6.4,0,11.7,0,17,0
		c50.3,0,100.7-0.1,151,0c27.1,0,43.9,14.6,44.1,37.7c0.2,23.3-16.6,38.3-43.4,38.3c-137.3,0.1-274.5,0.1-411.8,0
		c-26.8,0-43.8-14.9-43.7-38c0-23.1,17-37.9,43.9-37.9c49.8-0.1,99.6,0,149.5,0C325.4,590.7,330.9,590.7,338.1,590.7z"/>
</g>
<g>
	<g>
		<path class="st1" d="M421.4,540.4c-88.3,0-176.6-1.4-264.8,0.4C50.1,542.9,0.6,475.7,15.8,370c7.3-50.8,47.3-75.5,93.6-87
			c25.4-6.3,39.7-15.4,47.8-43.2c41.1-141.5,194.2-179,297-73.6c14.1,14.4,25.4,19,45.7,13c98.9-28.9,174.4,20.6,192.2,122.1
			c1.9,11,13.6,24.2,24.2,29.3c63.9,30.4,88.1,87.9,62.5,153.6c-14.5,37.1-42,56.2-81.9,56.2C605.1,540.5,513.2,540.4,421.4,540.4z"
			/>
	</g>
</g>
<g>
	<path class="st2" d="M387.9,299.3c0.6,0.1,0.7,0.2,0.9,0.1c14.6-0.5,29.3-1.8,43.8-4.1c5.2-0.8,9.2-5.4,9.8-10.6
		c0.5-4.3,0.9-8.7,1.5-13c0.8-6.9-2.3-12.4-8.7-15.1c-10.1-4.2-20.6-7.3-31.3-9.3c-3.6-0.7-7.2-1.2-11.2-1.9
		c0.5,1.2,0.8,1.9,1.2,2.6c2.8,6.2,5.6,12.4,8.5,18.5c0.6,1.2,0.6,2.2,0,3.3c-2.4,4.7-4.7,9.4-7,14.2
		C392.9,289.2,390.5,294.2,387.9,299.3z M475.5,260.7c0.7-4.5,1.5-8.7,2.2-13c11.6,4.5,21.1,11.4,28.7,20.8
		c7.6,9.3,12.4,20.1,14.6,32c0.3-0.5,0.5-0.9,0.6-1.3c6.8-30.6-8.9-62.6-37.5-75.9c-1.7-0.8-2.1-1.7-1.7-3.4
		c0.7-3.1,1.1-6.2,1.7-9.8c-12.2,6.9-23.9,13.4-35.9,20.1C457.2,240.3,466.2,250.3,475.5,260.7z M277.2,264.7
		c-4.5-0.7-8.7-1.3-12.9-2c3.1-8.6,7.6-16,13.6-22.5c10.4-11.5,23.4-18.5,38.6-21.8c-3.9-0.7-7.9-1.4-11.7-1.6
		c-28.2-1.2-53.7,14.6-65.3,40.4c-0.7,1.4-1.3,1.8-2.8,1.6c-3.2-0.6-6.5-1-10.2-1.6c6.9,12,13.8,23.7,20.7,35.6
		C257.2,283.3,267,274.2,277.2,264.7z M352.3,299.5c-0.5-1-0.7-1.7-1.1-2.3c-4.4-8.9-8.8-17.9-13.2-26.8c-0.7-1.4-0.7-2.6-0.1-4.1
		c2.9-6.1,5.6-12.2,8.4-18.4c0.3-0.7,0.6-1.3,0.9-2.2c-0.6,0-0.9,0-1.2,0c-14.1,2-27.7,5.6-40.9,11.1c-5.7,2.4-8.9,8-8.3,14.1
		c0.5,4.2,1.2,8.4,1.4,12.6c0.2,6,5.2,11.4,11.8,12c9.8,0.9,19.4,2.1,29.2,3C343.4,299.1,347.7,299.3,352.3,299.5z M380.1,300.1
		c0-0.4,0-0.7-0.1-1.1c-1.1-6.9-2.1-13.9-3.2-20.8c-0.5-2.7-0.4-5.1,0.9-7.6c1.2-2.2,1.7-4.6,3-6.7c1.7-2.9,1.1-4.9-1.1-7.4
		c-2.4-2.6-4.8-3.4-8.3-3.6c-5.5-0.4-9.3,1.2-12.3,5.7c-0.7,1-1,1.7-0.5,2.8c1.7,3.8,3.3,7.6,4.9,11.5c0.3,0.7,0.5,1.7,0.4,2.5
		c-0.5,3.6-1.1,7.2-1.7,10.8c-0.7,4.6-1.4,9.2-2.2,14C366.8,300.1,373.5,300.1,380.1,300.1z"/>
	<path class="st2" d="M204,448.2c0.5-4.2,1.2-8.5,1.6-12.7c0.4-5.1,1.9-9.8,5.5-13.5c1.3-1.4,3-2.6,4.8-3.5
		c10.2-4.5,20.7-7.9,31.6-9.6c2.2-0.3,3-1.2,3-3.2c0-0.7,0.1-1.6,0.2-2.5c-7.4-0.8-14.8-0.7-22-2.7c7.9-7.7,9.2-17.3,9-27.1
		c-0.1-5.5-1.5-11.1-2.8-16.5c-0.1-0.1-0.2-0.2-0.3-0.2c-2.8-0.2-2.7-0.2-3.1-3.1c-1.3-9.8,1.3-18.5,6.6-26.5
		c2.7-4.2,7.1-6.8,11.6-8.7c13-5.6,26.1-5.6,39.1-0.3c10.2,4.1,15.1,12.4,17,22.8c1.2,6.5,0.5,12.7-1.3,19c-2.2,7.5-2.9,15.2-1.4,23
		c1,5.2,2.1,10.4,7.9,13.7c-8.4,3.9-16.9,5-25.5,6.8c0.2,1.5,0.2,3.1,0.6,4.5c0.1,0.4,1,0.9,1.6,1c10.9,2,21.4,5.2,31.7,9.5
		c6.2,2.6,9.5,7.5,10.7,13.8c1.1,6,1.5,12.1,2.1,18.1c0.6,6.7-2.6,11.2-9,13c-36.9,10.2-73.7,10-110.5-0.2c-3.9-1.1-6.2-3.6-7.5-7.2
		c-0.2-0.6-0.5-1.2-0.7-1.8C204,451.9,204,450.1,204,448.2z M241.1,355.4c0.3,2.9,0.7,5.6,0.9,8.3c0.2,1.2,0.5,2.4-0.9,3.4
		c-0.4,0.2-0.5,1.3-0.4,2c0.2,1.2,0.6,2.5,0.7,3.7c0.7,5.1,2.9,9.8,4.4,14.6c0.6,1.8,0.8,3.7,1.3,5.6c1.7,6,5.7,9.8,11.4,11.7
		c6.1,2.1,12.4,2,18.6,0c5-1.6,8.7-5.1,10.8-9.9c1.9-4.4,2.1-9.2,4.2-13.6c1.7-3.6,2.1-7.9,2.8-11.9c0.2-0.7-0.3-1.7-0.6-2.6
		c-0.2-0.8-0.7-1.7-0.7-2.4c0.2-2.6,0.5-5.2,0.8-7.9c-13.2-1.2-25-5.3-34.4-14.9C255.4,348.5,249.2,353,241.1,355.4z M279.8,408.2
		c-8.1,3.3-15.9,3.2-23.7,0.1c-0.4,4.4-0.9,8.5-1.2,12.7c-0.2,3.2,1,5.8,3.9,7.3c6.2,3.2,12.4,3.3,18.6-0.1c2.6-1.4,4.1-3.8,3.8-6.9
		C280.7,417,280.3,412.7,279.8,408.2z"/>
	<path class="st2" d="M548.1,454.5c-0.2,0.5-0.6,1-0.7,1.6c-1.4,3.4-3.7,5.6-7.4,6.6c-37.1,10.3-74.3,10.3-111.5,0
		c-5-1.4-8.4-5.7-8.2-11.1c0.4-7,1-14.1,2.4-21.1c1.2-5.9,4.8-10.3,10.7-12.7c9.8-4,19.8-7.3,30.4-9.1c0.5-0.1,1-0.2,1.8-0.4
		c-0.2-1.8-0.3-3.7-0.5-5.6c-0.3-3.7-0.7-7.4-1.2-11.1c-0.1-0.7-0.6-1.7-1.2-2.2c-3.1-2.6-5.2-5.5-5.3-9.8c-0.1-2.3-0.4-4.6-0.8-6.9
		c-0.1-0.6-0.7-1.3-1.3-1.5c-1.5-0.6-2.3-1.5-2.4-3.1c-0.5-5-1.1-10-1.6-15c-0.1-0.6-0.1-1.4,0.2-1.7c1.4-1.4,0.6-2.7,0.2-4.2
		c-3-10.3-2.7-20.3,2.2-29.9c2.2-4.3,5.2-7.8,9.8-9.7c0.9-0.3,2.1-0.8,2.8-0.6c1.9,0.7,3.1-0.1,4.4-1.2c5-4.2,10.6-5.1,16.8-3.5
		c10.4,2.7,18.9,8.3,25.1,17.3c2.5,3.7,3.6,7.9,3.4,12.2c-0.2,5.2-0.8,10.4-1.3,15.6c-0.1,1.1-0.1,1.9,1.1,2.6
		c0.7,0.4,1.3,1.7,1.2,2.6c-0.4,5.3-1,10.5-1.6,15.8c-0.2,1.9-1.7,2.6-3.5,2.8c-0.3,2.9-0.8,5.9-1,8.8c-0.2,3.8-2.2,6.5-5,8.9
		c-0.7,0.6-1.3,1.5-1.4,2.4c-0.7,5.5-1.2,10.9-1.7,16.6c0.7,0.2,1.3,0.3,2.1,0.5c10.9,1.9,21.5,5.2,31.6,9.8
		c5.6,2.5,8.5,7.4,9.6,13.3c0.7,4.4,1.1,8.8,1.6,13.2c0.1,0.7,0.2,1.2,0.4,1.9C548.1,449.5,548.1,452,548.1,454.5z M457.6,342.9
		c0,0.7-0.1,1.2,0,1.7c1.4,12.2,2.8,24.3,4.3,36.5c0.2,1.1,0.7,2.3,1.5,3.1c2.2,2.6,5,4.4,8.4,4.8c2,0.2,4,0.7,5.9,0.7
		c6.5-0.2,13-0.2,19.4-0.7c4.7-0.4,9.1-4.4,9.5-8c1.1-9,2.2-18,3.1-27c0.1-0.5-0.2-1.2-0.5-1.6c-2.3-2.6-3.4-5.6-4.1-8.9
		c-0.4-1.8-0.7-3.6-1-5.6c-10.7,0.8-20.5-1.4-29.8-6.9C470.3,336.9,464.9,341.2,457.6,342.9z M469.5,393.7
		c0.3,5.5,0.7,10.7,0.9,15.9c0.2,3.5,1.1,4.8,4.4,5.5c6.4,1.5,12.7,1.5,19,0c3.4-0.7,4.2-2,4.4-5.5c0-0.7,0.1-1.3,0.2-2
		c0.2-4.6,0.5-9.2,0.8-14C489.2,396.8,479.5,396.8,469.5,393.7z"/>
	<path class="st2" d="M375.4,143.7c2.4,0.5,4.8,0.8,7.1,1.7c3.1,1.2,6.4,2.3,9.3,4.1c8.7,5.2,11.3,13.3,10.4,22.9
		c-0.4,4.3-0.9,8.5-1.3,12.8c4,0.2,4.7,1.2,4.3,5c-0.4,4.6-0.9,9.2-1.4,13.8c-0.4,3.8-1.7,4.7-5.6,3.7c-0.3,2.7-0.8,5.4-0.9,8
		c-0.2,4.4-2.2,7.4-5.5,10.1c-0.7,0.7-1.4,1.7-1.6,2.7c-0.7,3.8-1.2,7.6-1.7,11.4c-0.7,5-3.3,7.8-8.4,8.5c-6.5,1-13.1,1-19.6-0.1
		c-1.7-0.3-3.5-1.2-5-2.2c-1.9-1.1-2.9-2.9-3.2-5.2c-0.5-4.2-1.1-8.4-1.8-12.6c-0.2-1-0.8-2.1-1.6-2.7c-3.1-2.6-5.2-5.6-5.5-9.9
		c-0.1-2.7-0.6-5.4-0.9-8.2c-0.6,0.2-1,0.3-1.4,0.4c-2.2,0.5-3.8-0.6-4.1-2.9c-0.7-5.5-1.2-10.9-1.7-16.4c-0.2-2.4,1.3-3.6,4.5-3.5
		c-0.3-2.8-0.7-5.6-0.9-8.4c-0.2-3.7-0.6-7.4-0.3-11.1c0.3-7,4.1-12.3,9.8-16.1c4.5-3.1,9.6-4.6,15-5.5c0.7-0.1,1.2-0.3,1.9-0.4
		C368.8,143.7,372.1,143.7,375.4,143.7z"/>
	<path class="st2" d="M416.4,524.8c-1.7-3-3.3-5.9-4.8-8.8c-0.7-1.3-1.4-1.7-2.9-1.3c-16.4,3.8-32.1,1.9-47.1-5.7
		c-13.1-6.7-22.9-16.7-29.6-29.7c-0.3-0.6-0.6-1.2-0.8-1.8c0-0.1,0-0.2,0.1-0.5c11.8,10.6,25.6,16.5,41.4,17.7
		c8.2,0.7,19.9-0.8,25.2-3.2c-2-3.6-4-7.2-6.2-11.3c13.6,2.3,26.9,4.5,40.4,6.9c-0.3,0.9-0.6,1.6-0.8,2.3
		c-4.6,11.2-9.2,22.4-13.8,33.6c-0.2,0.7-0.4,1.3-0.7,2.1C416.6,524.8,416.5,524.8,416.4,524.8z"/>
	<path class="st2" d="M387.9,299.3c2.6-5.2,5-10.2,7.4-15.1c2.3-4.7,4.6-9.5,7-14.2c0.6-1.2,0.6-2.2,0-3.3
		c-2.9-6.2-5.7-12.4-8.5-18.5c-0.3-0.7-0.7-1.4-1.2-2.6c4,0.7,7.6,1.2,11.2,1.9c10.8,2.1,21.2,5.1,31.3,9.3
		c6.4,2.6,9.5,8.2,8.7,15.1c-0.5,4.3-1,8.7-1.5,13c-0.6,5.2-4.6,9.8-9.8,10.6c-14.6,2.2-29.1,3.6-43.8,4.1
		C388.8,299.5,388.5,299.4,387.9,299.3z"/>
	<path class="st2" d="M475.5,260.7c-9.3-10.3-18.3-20.3-27.5-30.6c11.9-6.7,23.7-13.2,35.9-20.1c-0.6,3.6-1,6.7-1.7,9.8
		c-0.3,1.7,0,2.6,1.7,3.4c28.6,13.4,44.4,45.4,37.5,75.9c-0.1,0.4-0.2,0.8-0.6,1.3c-2.2-11.9-6.9-22.6-14.6-32
		c-7.6-9.3-17.1-16.2-28.7-20.8C477,252.1,476.3,256.1,475.5,260.7z"/>
	<path class="st2" d="M277.2,264.7c-10.2,9.4-20,18.6-30.1,28c-6.9-11.8-13.7-23.6-20.7-35.6c3.7,0.6,6.9,1,10.2,1.6
		c1.5,0.2,2.2-0.2,2.8-1.6c11.6-25.7,37-41.5,65.3-40.4c3.9,0.2,7.9,0.8,11.7,1.6c-15.2,3.2-28.2,10.3-38.6,21.8
		c-6,6.5-10.4,14-13.6,22.5C268.5,263.4,272.6,264.1,277.2,264.7z"/>
	<path class="st2" d="M352.3,299.5c-4.5-0.2-8.8-0.3-13-0.7c-9.8-0.9-19.4-2.2-29.2-3c-6.6-0.6-11.7-6-11.8-12
		c-0.2-4.2-0.9-8.4-1.4-12.6c-0.7-6.1,2.6-11.7,8.3-14.1c13.1-5.5,26.8-9.1,40.9-11.1c0.3-0.1,0.7,0,1.2,0c-0.3,0.8-0.7,1.5-0.9,2.2
		c-2.8,6.1-5.5,12.2-8.4,18.4c-0.7,1.5-0.7,2.6,0.1,4.1c4.5,8.9,8.8,17.9,13.2,26.8C351.5,297.9,351.8,298.5,352.3,299.5z"/>
	<path class="st2" d="M380.1,300.1c-6.7,0-13.2,0-20.1,0c0.7-4.7,1.4-9.3,2.2-14c0.6-3.6,1.2-7.2,1.7-10.8c0.1-0.8-0.1-1.7-0.4-2.5
		c-1.6-3.9-3.2-7.7-4.9-11.5c-0.5-1.2-0.2-1.8,0.5-2.8c3-4.5,6.9-6.1,12.3-5.7c3.5,0.2,5.9,1,8.3,3.6c2.2,2.5,2.8,4.5,1.1,7.4
		c-1.2,2.1-1.8,4.5-3,6.7c-1.3,2.5-1.4,5-0.9,7.6c1.2,6.9,2.2,13.8,3.2,20.8C380.1,299.4,380.1,299.6,380.1,300.1z"/>
</g>
</svg>
