<?xml version="1.0" encoding="utf-8"?>
<!-- Generator: Adobe Illustrator 19.0.1, SVG Export Plug-In . SVG Version: 6.00 Build 0)  -->
<svg version="1.1" id="Layer_1" xmlns="http://www.w3.org/2000/svg" xmlns:xlink="http://www.w3.org/1999/xlink" x="0px" y="0px"
	 viewBox="94 -4 800 800" style="enable-background:new 94 -4 800 800;" xml:space="preserve">
<style type="text/css">
	.st0{fill:#FFFFFF;}
</style>
<g>
	<path class="st0" d="M464.1,681.9c1.1,0.4,2.1,1,3.2,1.3c16.5,4.6,33.3,7.2,50.3,7.2c67,0.1,123.3-23.1,164.2-77.7
		c52.7-70.3,65.9-176,11.8-265.5C645.9,267.9,554,225.4,463.8,244.4c-83.6,17.6-138.6,69.5-168.5,148.9c-1.8,4.7-2.9,9.6-4.3,14.4
		c20.3-49.4,53.1-87.6,101.2-111.3s98.4-27.3,149.6-11.1c91.2,28.8,153.8,120.5,138.4,224.9c-6.7,45.4-27.1,84.4-60.3,116.1
		C576.2,667.9,523.8,685.2,464.1,681.9z M569.8,432.2c-0.2-0.9-0.4-1.8-0.6-2.7c-4.8,0.4-9.8,0.1-14.4,1.3
		c-52.5,14.2-105.7,23.6-160.1,24.5c-33.1,0.5-65.9-2-98.2-10c-8.5-2.1-15.9-5.7-21.8-12.3c-1.5-1.7-4.5-2.8-6.9-2.9
		c-10.5-0.3-21-0.1-31.5-0.1c-9.3,0-11.1,2.1-8.7,11.3c0.7,2.7,1.8,5.7,3.6,7.5c4.6,4.5,9.2,9.2,14.7,12.5
		c12.1,7.3,25.8,10.6,39.6,13.2c33.5,6.3,67.3,6.3,101.1,4.3c49.9-2.9,98.5-12.3,145.2-30.4C544.7,443.6,557.2,437.7,569.8,432.2z
		 M536.6,521.2c0-0.6,0-1.2,0-1.8c-2.1-0.1-4.4-0.8-6.3-0.2c-40.5,11.4-81.6,19.3-123.7,21.5c-33.1,1.7-65.9,0-98.2-8.1
		c-6.9-1.7-12.6-5.1-17.2-10.4c-1-1.1-2.6-2.3-4-2.4c-10.2-0.1-20.3,0.1-30.5,0.1c-3.5,0-4.6,1.7-4.6,4.9c-0.2,6.8,2.9,12.2,8,15.9
		c5.3,3.9,11.2,7.3,17.3,9.8c15.9,6.4,32.8,8.8,49.7,9.9c53.3,3.5,105.7-2,156.9-17.8C502.2,537.1,519.7,529.9,536.6,521.2z
		 M534.1,593.7c-7.5,2.1-14.9,4.2-22.4,6.1c-43.3,10.9-87,16.6-131.6,9.3c-10-1.6-20.8-2.1-28-11.3c-0.6-0.7-2.1-1-3.1-1
		c-6.7,0-13.3,0.2-20,0c-3.1-0.1-4.1,1.4-3.6,3.9c0.5,2.4,0.9,5.5,2.5,6.8c4.9,4.1,10,8.5,15.7,10.9c16.2,6.7,33.7,7.6,50.9,8
		c22,0.5,43.8-1.6,65.4-5.8C486.1,615.5,511,607.1,534.1,593.7z M761.1,243c-1.1,0.5-3.7,1.2-5.9,2.6
		c-19.3,12.1-38.6,24.4-57.8,36.6c-6.5,4.1-8.2,10.8-4.4,16.7c3.6,5.6,10.1,6.7,16.6,2.6c8.7-5.5,17.4-11.1,26.1-16.6
		c10.8-6.9,21.7-13.7,32.4-20.7c4.9-3.2,6.5-8.2,4.8-13.5C771.6,246.1,767.5,243.1,761.1,243z M300.5,292.4c-3-3.8-4.9-7.8-8-9.9
		c-19.2-12.6-38.6-24.9-58.1-37.1c-1.8-1.1-3.9-2-6-2.3c-5-0.7-9.6,2.4-11.4,7.2c-2,5.3-0.4,10.7,4.6,14c11.7,7.6,23.6,15,35.4,22.5
		c8.2,5.2,16.3,10.3,24.5,15.4c3.9,2.4,8.2,2.8,11.7-0.1C296,299.8,297.7,296.3,300.5,292.4z M343.1,138.9
		c-9.6,0.2-14.7,8.6-11,16.7c9.9,21.5,20,42.8,30.1,64.2c3.1,6.5,9,8.8,14.8,6.3c5.9-2.6,8.5-9.1,5.6-15.5
		c-10-21.8-20.2-43.4-30.4-65.1C350.1,141.1,346.6,139,343.1,138.9z M614.7,227c3.8-0.1,7.3-2.4,9.4-7c3.8-8.1,7.6-16.2,11.4-24.4
		c6.2-13.2,12.5-26.4,18.5-39.7c3.1-6.7,0.8-13.3-5.3-16.1c-5.9-2.7-11.8-0.2-15.1,6.5c-2.4,4.9-4.7,9.9-7,14.9
		c-7.5,16.1-15.1,32.2-22.6,48.3C600.1,218.3,604.9,226.9,614.7,227z M507,151.4L507,151.4c0-11.8,0-23.7,0-35.5
		c0-7.6-4.5-12.7-11.1-12.7s-11.1,5-11.1,12.7c0,23.3,0,46.7,0,70c0,7.6,4.6,12.8,11.1,12.8c6.6-0.1,11.1-5.1,11.1-12.7
		C507,174.4,507,162.9,507,151.4z"/>
	<path class="st0" d="M464.1,681.9c59.7,3.3,112.1-13.9,155.6-55.5c33.2-31.7,53.6-70.7,60.3-116.1
		c15.5-104.4-47.2-196.1-138.4-224.9c-51.2-16.2-101.5-12.6-149.6,11.1c-48,23.7-80.8,61.8-101.2,111.3c1.4-4.8,2.6-9.7,4.3-14.4
		C325,314,380,262.1,463.6,244.5c90.1-18.9,182.1,23.5,229.9,102.8c54,89.5,40.8,195.2-11.8,265.5c-40.9,54.6-97.2,77.8-164.2,77.7
		c-17.1,0-33.9-2.6-50.3-7.2C466.2,682.9,465.2,682.3,464.1,681.9z"/>
	<path class="st0" d="M569.8,432.2c-12.6,5.5-25.1,11.4-37.9,16.4c-46.7,18.1-95.3,27.4-145.2,30.4c-33.8,2-67.6,1.9-101.1-4.3
		c-13.8-2.6-27.5-5.9-39.6-13.2c-5.4-3.3-10.1-8-14.7-12.5c-1.9-1.9-3-4.9-3.6-7.5c-2.3-9.2-0.6-11.3,8.7-11.3
		c10.5,0,21-0.2,31.5,0.1c2.4,0.1,5.4,1.2,6.9,2.9c6,6.6,13.3,10.2,21.8,12.3c32.3,7.9,65.1,10.5,98.2,10
		c54.5-0.9,107.7-10.3,160.1-24.5c4.6-1.2,9.6-0.9,14.4-1.3C569.4,430.4,569.6,431.3,569.8,432.2z"/>
	<path class="st0" d="M536.6,521.2c-16.9,8.7-34.4,15.9-52.5,21.5c-51.2,15.9-103.5,21.3-156.9,17.8c-17-1.1-33.8-3.5-49.7-9.9
		c-6.1-2.5-11.9-5.9-17.3-9.8c-5.1-3.7-8.2-9.1-8-15.9c0.1-3.2,1.1-4.9,4.6-4.9c10.2,0,20.3-0.2,30.5-0.1c1.3,0,3,1.2,4,2.4
		c4.7,5.3,10.3,8.7,17.2,10.4c32.3,8,65.1,9.8,98.2,8.1c42.1-2.2,83.2-10.1,123.7-21.5c1.9-0.5,4.2,0.1,6.3,0.2
		C536.6,520,536.6,520.6,536.6,521.2z"/>
	<path class="st0" d="M534.1,593.7c-23.1,13.4-48,21.9-74.1,26.9c-21.6,4.2-43.5,6.3-65.4,5.8c-17.3-0.4-34.7-1.2-50.9-8
		c-5.8-2.4-10.8-6.8-15.7-10.9c-1.6-1.3-2-4.4-2.5-6.8c-0.5-2.5,0.5-4,3.6-3.9c6.7,0.2,13.3-0.1,20,0c1.1,0,2.6,0.3,3.1,1
		c7.1,9.2,17.9,9.7,28,11.3c44.6,7.2,88.3,1.5,131.6-9.3C519.2,597.9,526.6,595.7,534.1,593.7z"/>
	<path class="st0" d="M761.1,243c6.4,0.1,10.4,3.1,12,7.8c1.7,5.2,0.1,10.3-4.8,13.5c-10.7,7-21.6,13.8-32.4,20.7
		c-8.7,5.5-17.4,11.1-26.1,16.6c-6.5,4.1-13.1,3-16.6-2.6c-3.8-5.9-2.1-12.6,4.4-16.7c19.2-12.3,38.5-24.5,57.8-36.6
		C757.4,244.2,760,243.5,761.1,243z"/>
	<path class="st0" d="M300.5,292.4c-2.8,3.9-4.4,7.4-7.1,9.7c-3.5,2.9-7.8,2.5-11.7,0.1c-8.2-5.1-16.4-10.3-24.5-15.4
		c-11.8-7.5-23.7-14.9-35.4-22.5c-5-3.3-6.6-8.6-4.6-14c1.8-4.7,6.4-7.8,11.4-7.2c2.1,0.3,4.2,1.2,6,2.3
		c19.4,12.3,38.9,24.5,58.1,37.1C295.6,284.6,297.5,288.6,300.5,292.4z"/>
	<path class="st0" d="M343.1,138.9c3.5,0,7,2.2,9,6.5c10.2,21.7,20.4,43.4,30.4,65.1c2.9,6.3,0.3,12.9-5.6,15.5
		c-5.8,2.5-11.7,0.2-14.8-6.3C352,198.3,341.9,177,332,155.5C328.4,147.5,333.5,139.1,343.1,138.9z"/>
	<path class="st0" d="M614.7,227c-9.8-0.1-14.6-8.8-10.5-17.5c7.5-16.1,15-32.2,22.6-48.3c2.3-5,4.6-10,7-14.9
		c3.2-6.7,9.2-9.2,15.1-6.5c6,2.7,8.3,9.3,5.3,16.1c-6.1,13.3-12.3,26.5-18.5,39.7c-3.8,8.1-7.7,16.2-11.4,24.4
		C622,224.6,618.5,226.9,614.7,227z"/>
	<path class="st0" d="M507,151.4c0,11.5,0,23,0,34.5c0,7.6-4.5,12.7-11.1,12.7c-6.4,0.1-11-5.1-11.1-12.8c-0.1-23.3-0.1-46.7,0-70
		c0-7.7,4.5-12.7,11.1-12.7s11.1,5.1,11.1,12.7C507,127.7,507,139.6,507,151.4L507,151.4z"/>
</g>
</svg>
