<?xml version="1.0" encoding="utf-8"?>
<!-- Generator: Adobe Illustrator 19.0.1, SVG Export Plug-In . SVG Version: 6.00 Build 0)  -->
<svg version="1.1" id="Layer_1" xmlns="http://www.w3.org/2000/svg" xmlns:xlink="http://www.w3.org/1999/xlink" x="0px" y="0px"
	 viewBox="102 20.9 800 800" style="enable-background:new 102 20.9 800 800;" xml:space="preserve">
<style type="text/css">
	.st0{fill:#FFFFFF;}
</style>
<g>
	<path class="st0" d="M504.1,787.9c-113.5,0-227,0-340.5,0c-25.8,0-29.3-3.4-29.3-29.2c-0.1-155.2,0.9-310.4-0.3-465.6
		c-0.9-115.5,75.8-183,145-201.1c18.2-4.8,37.3-8,56-8c170.5-0.6,341-0.4,511.5-0.3c21.4,0,25.9,4.6,25.9,26.1
		c0,217.5,0,435,0,652.5c0,21.2-4.5,25.7-26.3,25.7C732.2,787.9,618.2,787.9,504.1,787.9z M838.5,116.6c-7.1,0-12.8,0-18.5,0
		c-159.9,0-319.9-0.1-479.8,0c-100.7,0-173.9,73.1-173.9,173.7c-0.1,148.9,0,297.7,0,446.6c0,5.6,0.5,11.2,0.8,17.3
		c224.6,0,447.6,0,671.5,0C838.5,541.9,838.5,330.5,838.5,116.6z"/>
	<path class="st0" d="M358.2,551.8c4.4,3.4,8.9,6.6,13.3,10.1c37.5,29.9,79.8,47.9,128,46.7c18.3-0.5,37.6-5.9,54.5-13.4
		c24.5-10.9,35-33.3,34.3-59.5c-0.8-28.7-15.5-49.4-43.3-57.9c-28.7-8.7-58.1-15.1-87.1-22.8c-37.8-10.1-71.6-26.2-90.1-63.5
		c-35.5-71.3,4-155.6,84.2-177c60.4-16.1,119.2-6,175.9,18c4.4,1.8,8.6,9.2,9,14.2c1.1,16.8,0.6,33.8,0.3,50.7
		c-0.1,3.8-2.3,7.6-3.6,11.4c-3.7-1.3-8.1-1.8-11.1-4.1c-30-22.8-63.1-37.9-101-41.5c-24.2-2.3-47.4,1.1-68.6,13.4
		c-22.2,12.8-32.3,32.2-30.7,58c1.4,23.9,12.3,42.6,34.2,50.8c27,10.1,55.4,16.4,83.2,24.3c10.6,3,21.3,5.9,31.9,9
		c82.9,24.8,95.7,101.6,73.2,159.2c-19.6,49.9-59,75.5-110.5,83.5c-58.5,9-114.2-1.5-168-25.2c-10.2-4.5-14.3-10.5-13.9-21.6
		c0.7-20.3,0.2-40.6,0.2-60.9C354.3,553.2,356.3,552.5,358.2,551.8z"/>
</g>
</svg>
