<?xml version="1.0" encoding="utf-8"?>
<!-- Generator: Adobe Illustrator 19.0.1, SVG Export Plug-In . SVG Version: 6.00 Build 0)  -->
<svg version="1.1" id="Layer_1" xmlns="http://www.w3.org/2000/svg" xmlns:xlink="http://www.w3.org/1999/xlink" x="0px" y="0px"
	 viewBox="94 -4 800 800" style="enable-background:new 94 -4 800 800;" xml:space="preserve">
<style type="text/css">
	.st0{fill:#F26222;}
	.st1{fill:#383838;}
</style>
<g>
	<path class="st0" d="M498.9,26.2c3.4,1.5,7,2.7,10.1,4.6c8,5.1,12.7,12.7,12.8,22.1c0.2,29,0.5,58-0.5,86.9
		c-0.5,14.3-12.3,23.8-26.2,23.9c-14,0.2-24.9-9.1-27-23.2c-0.5-3.4-0.8-7-0.9-10.5c-0.1-22.2,0.5-44.5-0.2-66.7
		c-0.6-18.2,5.1-31.5,23.5-37.3C493.3,26.2,496.1,26.2,498.9,26.2z"/>
	<path class="st0" d="M135,381.7c1.5-3.4,2.7-7,4.6-10.1c5.1-8,12.7-12.8,22.1-12.8c29.4-0.1,58.9-0.4,88.3,0.7
		c13.3,0.5,22.5,12.9,22.5,26.7c0,13.2-9.4,24.6-22.6,26.2c-8.8,1-17.7,1-26.6,1c-17.1,0.1-34.2-0.5-51.2,0.2
		c-18.2,0.7-31.5-5.1-37.3-23.5C135,387.4,135,384.5,135,381.7z"/>
	<path class="st1" d="M494.8,606.8c-19.7,0-39.3,0.1-59,0c-15.4-0.1-23.4-7.4-23-22.7c0.5-18.4-5.5-34.3-14.9-49.6
		c-14.8-24.1-30.4-47.8-44-72.5c-15.8-28.7-22.4-60.1-19-92.8c5.4-51.2,29.4-92.1,72.9-119.8c60-38.2,130.6-34.5,186.7,9.2
		c32.9,25.6,52.4,59.9,58.7,101.3c6.4,41.8-3.7,80.4-24.9,116.2c-11.8,19.9-24.6,39.2-37,58.8c-9.4,14.9-15.2,30.8-14.8,48.9
		c0.4,15.6-7.6,22.9-23.5,22.9C533.7,606.8,514.3,606.8,494.8,606.8z M407.9,439.8c-2.3-41.6,9.5-76.5,37.2-105.4
		c27.6-28.8,62.2-41.8,102.7-42.3c-33-22.5-90.6-22.7-129,15.9C380.2,346.8,381.6,404.7,407.9,439.8z"/>
	<path class="st1" d="M494.8,635.1c19.4,0,38.8-0.1,58.3,0c16.7,0.1,24.4,7.9,24.5,24.6c0,11.7,0.1,23.4,0,35.1
		c-0.1,14.6-8,22.6-22.4,22.9c-1.2,0-2.4,0.1-3.5,0c-7.3-1-12.1,1.6-16.9,7.7c-20.8,26.3-60.6,25.3-81.4-1.7
		c-3.5-4.6-7-6.9-12.8-6.1c-2.7,0.4-5.6,0.1-8.4,0c-11.2-0.5-19.7-8.3-20-19.4c-0.4-14.5-0.4-29,0-43.5c0.4-11.9,9.5-19.4,23-19.5
		C455,635,474.9,635.1,494.8,635.1z"/>
	<path class="st0" d="M784.8,412.7c-15,0-30,0.8-44.9-0.2c-13.6-0.9-23-12.6-23.1-26.3c-0.1-13.7,9.1-24.8,22.7-26.8
		c3.9-0.6,7.9-0.9,11.9-0.9c26.4,0.2,52.9-0.1,79.3,1c13.7,0.6,23.2,12.9,23.3,27c0.1,12.7-9.7,25-22.9,25.9
		C815.8,413.5,800.3,412.6,784.8,412.7C784.8,412.6,784.8,412.7,784.8,412.7z"/>
	<path class="st0" d="M346,206.2c-0.6,14.4-5.2,22.6-14.7,27.6c-9.8,5.1-19.3,4.3-28.4-2c-1.5-1.1-3.1-2.1-4.5-3.4
		c-19.2-19.2-38.6-38.2-57.5-57.7c-10.5-10.8-10.8-26.7-1.7-36.9c11-12.4,27.8-13.5,40.4-1.4c19.9,19.1,39.4,38.7,58.4,58.7
		C342.5,195.7,344.3,203,346,206.2z"/>
	<path class="st0" d="M667.1,236.9c-6.9-0.3-15-4.8-20-14c-5.3-9.7-4.7-19.3,1.5-28.4c1.4-2.1,3-4.2,4.8-6
		c18.3-18.4,36.6-36.9,55.1-55.1c15.6-15.3,38.1-11.5,46.1,7.9c4.7,11.3,1.5,21.7-6.8,30.2c-18.9,19.2-37.9,38.2-57.1,57.1
		C685.2,234.1,678.5,237.1,667.1,236.9z"/>
	<path class="st0" d="M259.2,647.7c-10.6-0.5-18.7-5.2-23.4-14.9c-4.7-9.6-4-18.9,2.2-27.7c1.5-2.1,3.1-4.1,4.9-6
		c18.2-18.2,36.3-36.5,54.6-54.6c11.8-11.7,27.5-12.8,38.4-3.3c12.5,10.9,13.8,27.7,1.7,40.3c-19.1,20-38.6,39.4-58.7,58.4
		c-4.9,4.6-12.4,6.4-18.7,9.5C259.9,648.9,259.5,648.3,259.2,647.7z"/>
	<path class="st0" d="M756.5,621.4c-0.5,10.9-5.4,19.1-15.5,23.8c-9.7,4.5-19,3.5-27.7-2.8c-1.9-1.4-3.7-2.8-5.4-4.5
		c-18.2-18.2-36.5-36.3-54.6-54.6c-11.7-11.8-12.9-27.5-3.4-38.4c10.9-12.5,27.7-13.9,40.3-1.8c20,19.1,39.4,38.6,58.4,58.7
		c4.6,4.9,6.4,12.4,9.5,18.7C757.7,620.7,757.1,621.1,756.5,621.4z"/>
</g>
</svg>
