<?xml version="1.0" encoding="utf-8"?>
<!-- Generator: Adobe Illustrator 19.0.1, SVG Export Plug-In . SVG Version: 6.00 Build 0)  -->
<svg version="1.1" id="Layer_1" xmlns="http://www.w3.org/2000/svg" xmlns:xlink="http://www.w3.org/1999/xlink" x="0px" y="0px"
	 viewBox="-151 334 309 125" style="enable-background:new -151 334 309 125;" xml:space="preserve">
<style type="text/css">
	.st0{fill:#FFFFFF;}
	.st1{fill:#F26424;}
	.st2{fill:#383938;}
</style>
<g>
	<path class="st0" d="M-113.5,367.4c-0.5,0-0.7,0-1,0.1c-10.5,1.9-20.9,3.8-31.5,5.6c-1.6,0.3-2,0.9-2,2.3c0,14.3,0,28.7,0,43
		c0,1.7,0.5,2.2,2.1,2.6c7,1.2,14.2,2.6,21.3,3.7c3.6,0.6,7.3,1.3,11.1,1.9C-113.5,406.8-113.5,387.2-113.5,367.4z M-109.5,412.8
		c0,0.6,0,1.3,0,1.9c0,2.7,1.5,4,4.2,3.8c2.8-0.2,5-2.2,5.1-5c0.1-1.5,0.9-2.1,1.9-3c2.1-1.8,4.2-4,6-6.1c0.7-1,1.2-1.7,2.7-1.8
		c3.1-0.2,5.1-2.7,5-5.8c-0.1-3-2-5.1-5.2-5.3c-1.2-0.1-1.7-0.4-2.2-1.5c-1.4-2.9-3.4-5.1-6.2-6.6c-1.3-0.6-1.8-1.4-1.8-2.9
		c-0.2-3.8-4.4-6.2-7.7-4.5c-0.7,0.4-1.4,1.5-1.5,2.3c-0.2,1.5,0,3.1-0.1,4.7c-0.3,2.8,1.3,3.5,3.5,3.6c1.2,0,2.5-0.7,3.7-1
		c0.7-0.2,1.9-0.5,2.3-0.1c1.9,1.7,3.6,3.5,5.2,5.4c0.4,0.5,0.2,1.9-0.1,2.6c-1.1,1.9-1.5,4.1-0.3,5.8c1.5,2,0.7,3.5-0.5,5
		c-1,1.2-2.2,2.2-3.4,3.2s-2.3,1.4-3.8,0.2c-1.6-1.3-3.5-1.1-5.4-0.2c-1.7,0.9-1.2,2.5-1.3,3.8
		C-109.5,412.1-109.5,412.4-109.5,412.8z M49.7,397.1c0,5.2,0,10.5,0,15.7c0,1.3,0.2,2,1.8,2c1.5,0,2.1-0.4,2.1-2
		c-0.1-3,0-5.9,0-8.9c0-2.8,0-2.7,2.7-2.8c1.7,0,3.4-0.1,5.1-0.2c6.4-0.7,10.5-5.7,10.1-12.1c-0.3-5.8-4.6-9.4-11.1-9.5
		c-2.9,0-5.8,0.1-8.7,0c-1.7-0.1-2,0.6-2,2.1C49.7,386.7,49.7,391.9,49.7,397.1z M-40.1,393.5c-0.2-0.1-0.3-0.1-0.5-0.2
		c0-0.6-0.1-1.4-0.1-2c0-4-0.1-8,0-12c0-1.5-0.6-1.9-2-1.9s-1.8,0.4-1.8,1.8c0,11.3,0,22.5,0,33.9c0,1.4,0.5,1.8,1.8,1.8
		c1.4,0,2-0.3,1.9-1.9c-0.1-4.1,0-8.1,0-12.2c0-2.6,0.7-4.9,2.6-6.8c2-2,4.5-2.1,6.9-1.5c2.2,0.5,3.2,2.3,3.6,4.5
		c0.2,1.1,0.3,2,0.3,3.1c0,4.4,0.1,8.8,0,13.1c0,1.4,0.6,1.7,1.8,1.6c1,0,2,0.1,1.9-1.5c-0.1-5.3,0.1-10.8-0.1-16.1
		c-0.2-5.6-3.5-8.2-9-8.1C-35.8,389.2-38.1,390.9-40.1,393.5z M-69.7,409.6c0.4,1.6-1.1,3.5,1.2,4.5c4.2,1.7,8.4,2,12.6,0.4
		c6.5-2.6,8-10.3,2.7-15c-1.6-1.4-3.4-2.5-5.1-3.6c-1.7-1.2-3.6-2.1-5.2-3.4c-3.5-2.8-2.7-8.2,1.5-9.7c1.6-0.6,3.5-0.6,5.2-0.5
		c1.7,0.1,3.4,0.9,5.2,1.4c-0.3-1.5,1.1-3.5-1.5-4.2c-3.4-0.9-6.8-1-10.3,0.2c-3.2,1.2-5.6,3.3-6.2,6.8c-0.6,3.6,0.4,6.7,3.5,9
		c1.5,1.1,3.1,2,4.6,3c1.9,1.3,3.8,2.5,5.6,4c1.8,1.6,2.1,3.8,1.4,6.2c-0.6,2.1-2.3,3.2-4.4,3.4c-1.6,0.2-3.3,0.2-4.8-0.1
		C-65.7,411.4-67.5,410.5-69.7,409.6z M85.3,389.1c-2.5-0.1-5.2,0.5-7.7,2.3c-4.1,3-4.9,7.4-4.8,12.1c0.1,6.3,4.3,11.1,10.4,11.9
		c6.6,1,12.3-2.5,14-8.7c0.5-1.9,0.6-4.1,0.5-6C97.4,393.5,92.8,389.2,85.3,389.1z M-15.9,394.8c2.8-2,5.7-2.9,8.9-2.6
		c1.6,0.1,2.9,0.9,3.6,2.3c1.8,3.3,1.2,4.5-2.5,5.1c-3,0.5-6,1-8.8,1.9c-3,1.2-4,3.9-4,7c0.1,3,1.4,5.1,4.2,6.3
		c3.8,1.6,7.9,0.6,10.7-2.6c0.3-0.3,0.4-0.7,0.6-1.2c0.2,0.1,0.4,0.2,0.6,0.4c0.1,0.6,0.2,1.3,0.1,1.8c-0.1,1.5,0.9,1.5,1.9,1.5
		c1.1,0,1.9,0,1.9-1.5c0-5.1,0.2-10.3,0-15.6c-0.2-5.7-3.2-8.5-8.9-8.3c-2,0.1-4.1,0.5-6,1.1C-16.3,391-16.4,391.3-15.9,394.8z
		 M42.2,410.6c-2.6,0.6-4.9,1.6-7.4,1.8c-4.7,0.4-8-2.3-8.7-6.9c-0.3-2.4-0.2-2.5,2.2-2.5c4.7,0,9.3,0,14-0.1c0.6,0,1.7-0.6,1.8-1.1
		c1-4.2-1.4-9.4-4.9-11.4c-3.7-2.1-9.3-1.6-12.7,1.4c-4.1,3.4-5.6,10.3-3.5,16.3c1.4,4.3,4.4,6.9,8.9,7.3c2.6,0.2,5.3-0.2,7.9-0.9
		C42.4,413.8,42.4,413.3,42.2,410.6z M114.4,389.5c-0.1,0.9-0.2,1.4-0.2,2c0,7,0,14.2,0,21.3c0,1.4,0.3,2,1.9,2
		c1.5,0,1.9-0.5,1.9-1.9c-0.1-4,0-8,0-12c0-2.7,0.6-5,2.7-6.9c3.6-3.5,9.2-1.9,10.5,2.9c0.2,0.9,0.3,1.8,0.3,2.7
		c0,4.5,0.1,9.1,0,13.6c0,1.5,0.6,1.7,1.9,1.7c1.3,0,1.9-0.3,1.9-1.7c-0.1-5.2,0-10.5-0.1-15.7c-0.1-4.2-2.6-7.4-6.1-8
		c-3.7-0.6-7.2,0-9.7,3.2c-0.2,0.3-0.6,0.5-1.2,1.1c-0.2-1.4,0.1-2.8-0.5-3.4C117.1,389.5,115.7,389.7,114.4,389.5z M153.5,412.2
		c-5.1,0.3-6.3-0.5-6.3-5c-0.1-4.2,0-8.3,0-12.6c0-1.6,0.6-2,2.1-1.9c1.4,0.1,2.8,0,4.3,0c0-1.2,0-1.9,0-2.9c-1.6,0-3-0.1-4.5,0
		c-1.5,0.1-2-0.5-1.9-1.9c0.1-1.8,0-3.5,0-5.4c-3.5,0.6-3.6,0.7-3.6,3.2c0,4,0,4-4,4.3c-0.1,0-0.2,0.1-0.3,0.2
		c-0.4,2.6-0.4,2.8,1.9,2.7c2-0.1,2.5,0.7,2.3,2.6c-0.1,4.7-0.1,9.4,0.1,14.1c0.2,4.6,3.1,6.8,7.7,6.2
		C153.6,415,153.8,414.7,153.5,412.2z M12.3,394.1c-0.2,0-0.3,0-0.5,0c0-1,0-1.9,0-2.9c0.1-1.3-0.6-1.6-1.7-1.5
		c-1.1,0-1.9-0.1-1.9,1.5c0,7.4,0,14.8,0.1,22.2c0,0.5,0.7,1.3,1.4,1.4c1.6,0.4,2.3-0.3,2.2-2.1c0-4.3,0-8.7,0.2-12.9
		c0.2-3.7,2.6-6.7,5.3-7.2c1.2-0.2,2.3,0,3.5,0c0.6-3.4-0.1-3.5-3.4-3c-1.3,0.2-2.5,1.3-3.4,2.1C13.4,392.2,12.9,393.3,12.3,394.1z
		 M103.3,389.7c0,0.7-0.1,1.4-0.1,1.9c0,7,0,14,0,21c0,1.3,0.1,2.1,1.7,2c1.5,0,2-0.4,2-2c-0.1-7,0-14.2,0-21.3
		c0-0.5-0.1-1.2-0.1-1.8C105.6,389.7,104.5,389.7,103.3,389.7z M107.6,379.9c-0.2-1.3-1.1-2.1-2.7-2c-1.6,0.1-2.3,1-2.2,2.6
		s1.1,2.1,2.5,2.1C106.5,382.6,107.7,381.4,107.6,379.9z"/>
	<path class="st1" d="M-113.5,367.4c0,19.9,0,39.4,0,59.4c-3.8-0.6-7.5-1.3-11.1-1.9c-7-1.3-14.2-2.6-21.3-3.7
		c-1.6-0.3-2.1-0.9-2.1-2.6c0.1-14.3,0-28.7,0-43c0-1.5,0.5-2.1,2-2.3c10.5-1.8,21-3.7,31.5-5.6
		C-114.4,367.4-114.1,367.4-113.5,367.4z M-138.4,403.1c0,1.5,0,2.9,0,4.2c0,0.4,0.3,0.9,0.5,1.2c3.4,3.2,10.5,1.2,11.7-3.3
		c1-3.5-0.1-6.8-3-9.1c-1.2-0.9-2.3-1.6-3.5-2.5c-1.1-0.7-1.7-2-1-3.1c0.5-0.7,1.9-1.4,2.9-1.4c1.2,0,2.5,0.6,3.7,1
		c0.5-5.7,0.9-6.1-5.4-5.8c-0.4,0-0.7,0.1-1.2,0.2c-2.7,0.9-4.2,2.7-4.7,5.2c-0.7,3.3,0.2,6.2,2.9,8.4c1.2,1,2.6,1.6,3.5,2.8
		c0.6,0.6,1,2.1,0.6,2.9c-0.2,0.6-1.8,1.2-2.6,1.1C-135.3,404.7-136.7,403.8-138.4,403.1z"/>
	<path class="st1" d="M-109.5,412.8c0-0.4,0-0.7,0-1.2c0.1-1.4-0.5-3,1.3-3.8c1.8-0.9,3.8-1.1,5.4,0.2c1.5,1.2,2.7,0.7,3.8-0.2
		c1.2-1,2.5-2,3.4-3.2c1.3-1.5,1.9-3,0.5-5c-1.2-1.7-0.7-3.8,0.3-5.8c0.4-0.7,0.5-2,0.1-2.6c-1.6-1.9-3.3-3.7-5.2-5.4
		c-0.4-0.4-1.6-0.1-2.3,0.1c-1.3,0.3-2.5,1.1-3.7,1c-2.2-0.1-3.7-0.7-3.5-3.6c0.1-1.6-0.1-3.2,0.1-4.7c0.1-0.9,0.7-2,1.5-2.3
		c3.4-1.8,7.5,0.6,7.7,4.5c0.1,1.4,0.6,2.1,1.8,2.9c2.8,1.5,4.9,3.7,6.2,6.6c0.5,1.1,1.1,1.4,2.2,1.5c3.2,0.1,5.2,2.2,5.3,5.2
		c0.1,3.1-1.9,5.6-5,5.8c-1.4,0.1-1.8,0.9-2.7,1.8c-1.8,2.2-3.7,4.3-6,6.1c-1.1,0.9-1.8,1.5-1.9,3c-0.1,2.8-2.3,4.8-5.1,5
		c-2.7,0.2-4.2-1.2-4.2-3.8C-109.5,414.1-109.5,413.4-109.5,412.8z"/>
	<path class="st2" d="M49.7,397.1c0-5.1,0-10.4,0-15.5c0-1.6,0.3-2.2,2-2.1c2.9,0.1,5.8,0,8.7,0c6.5,0.1,10.8,3.7,11.1,9.5
		c0.3,6.4-3.7,11.3-10.1,12.1c-1.7,0.2-3.4,0.2-5.1,0.2c-2.7,0-2.7,0-2.7,2.8c0,3-0.1,5.9,0,8.9c0,1.6-0.6,1.9-2.1,2
		c-1.6,0-1.8-0.7-1.8-2C49.7,407.6,49.7,402.3,49.7,397.1z M53.5,390.4L53.5,390.4c0,2-0.1,4.1,0.1,6.1c0,0.5,0.7,1.5,1.1,1.4
		c2.8-0.1,5.7-0.1,8.3-0.9c3.3-1,4.7-4.2,4.4-8.1c-0.3-3.2-2.2-5.3-5.7-5.9c-2-0.3-4.1-0.1-6.1-0.3c-1.5-0.1-2.1,0.4-2.1,2
		C53.5,386.5,53.5,388.4,53.5,390.4z"/>
	<path class="st2" d="M-40.1,393.5c1.9-2.6,4.3-4.3,7.6-4.4c5.4-0.2,8.8,2.6,9,8.1c0.2,5.3,0,10.8,0.1,16.1c0,1.6-1,1.4-1.9,1.5
		c-1.2,0.1-1.8-0.2-1.8-1.6c0.1-4.4,0-8.8,0-13.1c0-1.1-0.1-2.1-0.3-3.1c-0.4-2.1-1.4-4-3.6-4.5c-2.5-0.6-4.9-0.4-6.9,1.5
		c-1.9,1.9-2.6,4.2-2.6,6.8c0,4.1-0.1,8.1,0,12.2c0,1.5-0.5,1.9-1.9,1.9c-1.3,0-1.8-0.4-1.8-1.8c0-11.3,0-22.5,0-33.9
		c0-1.4,0.4-1.8,1.8-1.8c1.4,0,2,0.3,2,1.9c-0.1,4,0,8,0,12c0,0.6,0.1,1.4,0.1,2C-40.5,393.4-40.2,393.4-40.1,393.5z"/>
	<path class="st2" d="M-69.7,409.6c2.2,0.9,4.1,1.7,6,2.1c1.6,0.3,3.2,0.3,4.8,0.1c2-0.2,3.7-1.3,4.4-3.4c0.6-2.2,0.4-4.6-1.4-6.2
		c-1.7-1.5-3.6-2.7-5.6-4c-1.5-1.1-3.1-1.9-4.6-3c-3.1-2.2-4.2-5.3-3.5-9c0.6-3.5,3-5.7,6.2-6.8c3.4-1.2,6.8-1.1,10.3-0.2
		c2.6,0.6,1.2,2.7,1.5,4.2c-1.9-0.5-3.5-1.2-5.2-1.4c-1.7-0.1-3.6-0.1-5.2,0.5c-4.2,1.6-5,6.9-1.5,9.7c1.6,1.3,3.5,2.2,5.2,3.4
		c1.7,1.2,3.6,2.2,5.1,3.6c5.2,4.7,3.8,12.4-2.7,15c-4.3,1.6-8.5,1.3-12.6-0.4C-70.8,413.2-69.4,411.2-69.7,409.6z"/>
	<path class="st2" d="M85.3,389.1c7.6,0,12.1,4.4,12.5,11.5c0.1,2-0.1,4.1-0.5,6c-1.6,6.2-7.3,9.6-14,8.7
		c-6.1-0.9-10.3-5.6-10.4-11.9c-0.1-4.7,0.7-9,4.8-12.1C80,389.6,82.8,389.1,85.3,389.1z M85.6,392.1c-4.3-0.1-7.5,2-8.3,6.2
		c-0.5,2.5-0.5,5.2-0.1,7.7c0.7,4.1,4.2,6.4,8.3,6.4c4.2,0,7.3-2.2,8-6.4c0.4-2.6,0.4-5.3-0.1-7.9C92.5,394,89.9,392.2,85.6,392.1z"
		/>
	<path class="st2" d="M-15.9,394.8c-0.5-3.4-0.4-3.7,2.3-4.5c1.9-0.5,4-1,6-1.1c5.7-0.1,8.7,2.7,8.9,8.3c0.2,5.2,0,10.5,0.1,15.7
		c0,1.5-0.9,1.5-1.9,1.5c-1.1,0-2,0-1.9-1.5c0-0.6-0.1-1.2-0.1-1.8c-0.2-0.1-0.4-0.2-0.6-0.4c-0.2,0.4-0.3,0.9-0.6,1.2
		c-2.7,3.2-6.8,4.2-10.7,2.6c-2.8-1.2-4.2-3.3-4.2-6.3c-0.1-3.1,1-5.9,4.1-6.9c2.8-1,5.8-1.5,8.8-1.9c3.7-0.6,4.4-1.7,2.5-5.1
		c-0.7-1.4-2-2.1-3.6-2.3C-10.2,391.9-13.1,392.6-15.9,394.8z M-2.4,404.1c-0.2-0.9,0.5-2.3-1.4-2.1c-2.3,0.3-4.8,0.6-7.2,1.2
		c-3,0.7-4.3,2.8-3.7,5.7c0.4,2.2,2.6,3.7,5.3,3.6C-5.3,412.3-2.4,409-2.4,404.1z"/>
	<path class="st2" d="M42.2,410.6c0.2,2.8,0.2,3.2-2.6,3.8c-2.6,0.6-5.3,1.1-7.9,0.9c-4.5-0.3-7.5-3-8.9-7.3
		c-2-6.1-0.5-12.8,3.5-16.3c3.4-2.9,9-3.5,12.7-1.4c3.4,2,5.8,7.3,4.9,11.4c-0.1,0.5-1.2,1.1-1.8,1.1c-4.7,0.1-9.3,0-14,0.1
		c-2.5,0-2.5,0.1-2.1,2.5c0.7,4.6,4,7.4,8.7,6.9C37.3,412.2,39.8,411.2,42.2,410.6z M33,400.1L33,400.1c1.8,0,3.6,0,5.6,0
		c1.4,0,1.8-0.6,1.7-1.9c-0.3-3.8-3-6.2-6.7-6.1c-3.4,0.1-6.6,2.9-7.2,6.4c-0.2,1.1,0.1,1.6,1.3,1.6C29.3,400.1,31.1,400.1,33,400.1
		z"/>
	<path class="st2" d="M114.4,389.5c1.2,0.2,2.7,0,3.2,0.5c0.6,0.6,0.3,2,0.5,3.4c0.5-0.4,0.9-0.7,1.2-1.1c2.6-3.2,6-3.8,9.7-3.2
		c3.4,0.6,6,3.8,6.1,8c0.1,5.2,0,10.5,0.1,15.7c0,1.5-0.6,1.8-1.9,1.7c-1.3,0-1.9-0.2-1.9-1.7c0.1-4.5,0-9.1,0-13.6
		c0-0.9-0.1-1.8-0.3-2.7c-1.3-4.8-6.8-6.4-10.5-2.9c-2,1.9-2.7,4.4-2.7,6.9c0,4-0.1,8,0,12c0,1.4-0.4,1.9-1.9,1.9s-1.9-0.6-1.9-2
		c0-7,0-14.2,0-21.3C114.2,391,114.3,390.4,114.4,389.5z"/>
	<path class="st2" d="M153.5,412.2c0.3,2.6,0.1,2.9-2.2,3.2c-4.6,0.6-7.5-1.6-7.7-6.2c-0.2-4.7-0.1-9.4-0.1-14.1
		c0-1.8-0.3-2.7-2.3-2.6c-2.3,0.1-2.5,0-1.9-2.7c0.1-0.1,0.2-0.2,0.3-0.2c4-0.3,4-0.3,4-4.3c0-2.5,0.1-2.5,3.6-3.2
		c0,1.8,0,3.6,0,5.4c0,1.4,0.4,2,1.9,1.9c1.4-0.1,2.9,0,4.5,0c0,1,0,1.8,0,2.9c-1.4,0-2.9,0.1-4.3,0c-1.5-0.1-2.1,0.4-2.1,1.9
		c0.1,4.2,0,8.3,0,12.6C147.2,411.6,148.4,412.6,153.5,412.2z"/>
	<path class="st2" d="M12.3,394.1c0.6-0.9,1.1-1.8,1.8-2.5c1-0.9,2.1-1.9,3.4-2.1c3.3-0.5,4.1-0.3,3.4,3c-1.2,0-2.3-0.1-3.5,0
		c-2.9,0.4-5.2,3.4-5.3,7.2c-0.2,4.3-0.2,8.7-0.2,12.9c0,1.8-0.6,2.5-2.2,2.1c-0.5-0.1-1.3-0.9-1.4-1.4c-0.1-7.4,0-14.8-0.1-22.2
		c0-1.5,1-1.4,1.9-1.5c1.1,0,1.8,0.2,1.7,1.5c0,1,0,1.9,0,2.9C12,394,12.1,394,12.3,394.1z"/>
	<path class="st2" d="M103.3,389.7c1.3,0,2.2,0,3.4,0c0.1,0.6,0.1,1.2,0.1,1.8c0,7,0,14.2,0,21.3c0,1.6-0.5,2-2,2
		c-1.6,0-1.7-0.7-1.7-2c0-7,0-14,0-21C103.2,391.1,103.2,390.6,103.3,389.7z"/>
	<path class="st2" d="M107.6,379.9c0.1,1.6-1.1,2.7-2.5,2.7s-2.3-0.6-2.5-2.1c-0.1-1.6,0.7-2.5,2.2-2.6
		C106.5,377.8,107.4,378.6,107.6,379.9z"/>
</g>
</svg>
