<?xml version="1.0" encoding="utf-8"?>
<!-- Generator: Adobe Illustrator 20.0.0, SVG Export Plug-In . SVG Version: 6.00 Build 0)  -->
<svg version="1.1" id="Layer_1" xmlns="http://www.w3.org/2000/svg" xmlns:xlink="http://www.w3.org/1999/xlink" x="0px" y="0px"
	 viewBox="0 0 800 800" style="enable-background:new 0 0 800 800;" xml:space="preserve">
<style type="text/css">
	.st0{fill:#FFFFFF;}
	.st1{fill:#FFFFFF;stroke:#FFFFFF;stroke-width:12;stroke-miterlimit:10;}
	.st2{fill:none;stroke:#FFFFFF;stroke-width:13;stroke-miterlimit:10;}
</style>
<g>
	<path class="st0" d="M-700.5,381.1c-24.1,29.6-55.5,44.1-91.9,49.7c0.8,6.4,1.9,12.6,2.1,18.8c0.7,18.5-1.8,36.2-15.9,49.7
		c-4.4,4.2-10.2,7.1-15.7,9.9c-2.9,1.5-4.8,2.5-5.5,6.1c-3.1,15.2-9.3,29-22.6,37.8c-6.6,4.3-14.4,6.8-21.6,10.3
		c-1.5,0.7-3.4,1.9-3.9,3.3c-4.5,14-14,23.7-26.4,30.7c-16,9.1-32.8,11.5-50.4,4.3c-1.2-0.5-3.6,0.4-4.6,1.5
		c-9.4,9.8-19.9,17.6-33.7,20.1c-15.6,2.8-29.4-1.5-41.8-10.5c-11.3-8.2-21.9-17.4-32.3-25.7c-5.5,5.8-10.7,12.2-16.8,17.5
		c-9.6,8.4-20.9,12.6-33.9,9.7c-8.4-1.8-15.2-6.7-21.6-12.1c-31.3-26.7-61.3-54.9-90.1-84.2c-8.9-9-18.4-17.5-27.3-26.5
		c-6.4-6.4-11.7-13.6-14.8-22.3c-5.5-15.2-2.4-28.7,7.6-41c1.6-2,3.2-4,5-6.3c-6.4-6-12.8-11.9-19.6-18.2
		c-2.5,7.3-4.8,14.2-7.1,21.1c-2.7,8.2-9.5,11.5-17.3,8.2c-23.7-9.8-47.4-19.7-71.1-29.5c-6.8-2.8-9.2-7.6-6.9-14.6
		c7.4-22.9,15-45.7,22.6-68.6c14.8-44.8,29.6-89.6,44.4-134.3c3.8-11.6,7.6-23.1,11.4-34.7c2.3-6.9,8.8-9.9,15.2-6.6
		c15.2,7.7,30.3,15.5,45.5,23.2c11.1,5.7,22.1,11.8,33.5,17c4.7,2.1,10.3,2.2,15.5,2.9c44,5.5,88,10.9,132,16.4
		c6.5,0.8,13,2.2,19.5,2.9c3.1,0.3,6.5,0.2,9.3-0.8c14.9-5.3,29.8-5,45-1.3c23.7,5.9,47.5,11.1,71.3,16.5c6.2,1.4,12.4,3.1,18.7,4.3
		c2,0.4,4.5,0.2,6.4-0.7c18.4-7.9,36.7-16.1,55.1-24.1c2.9-1.3,4.5-2.5,4.6-6.2c0-2.3,1.7-5.3,3.6-6.8c6.8-5.4,13.8-10.6,21.1-15.2
		c18.3-11.7,36.7-23.1,55.2-34.5c9.3-5.7,13.2-4.6,19.3,4.2c28.3,40.7,56.7,81.5,85.1,122.2c14.9,21.3,30.1,42.5,44.7,64
		c2.5,3.6,3.7,8.5,4.3,12.9c0.7,4.7-1.7,8.3-6,11.1c-23.3,15.4-46.4,31.1-69.6,46.7c-6.6,4.4-12.2,4.5-17.8-1.1
		c-3.1-3.1-5.4-7.1-7.9-10.7C-698.2,385.9-699,383.8-700.5,381.1z M-1241.5,402c18.2-14.8,45.2-15,61.1,3.5c0.8,1,3.1,1.5,4.4,1.1
		c26.4-7.4,54.3,11.3,57.4,38.6c0.3,2.6,1.1,3.7,3.9,4.3c18.1,4.2,29.4,15.7,34.1,33.5c1.4,5.2,1.3,10.7,2,16.2
		c30.2,5.3,45.4,40.2,28.7,66c4.7,4,9.3,8,13.9,11.9c6.4,5.4,12.5,11.1,19.3,16c14.6,10.5,32.6,3.6,41.8-10.2
		c1.4-2.1,1.4-3.5-0.8-5.2c-9.5-7.4-18.8-15-28.4-22.4c-10.1-7.7-20.5-15-30.4-22.9c-2.8-2.2-5.4-5.3-6.7-8.5
		c-1.6-4,0.3-7.9,3.8-10.6c3.8-3,8-3,11.7-0.4c7.2,5.1,14.1,10.6,21,16c18.2,14.1,36.3,28.2,54.5,42.2c3.2,2.4,6.4,5,10,6.6
		c17.9,7.8,36.4-6.9,39.8-22c0.3-1.3-1-3.6-2.2-4.5c-31.4-24.5-62.9-48.9-94.4-73.3c-6.2-4.8-12.7-9.3-18.9-14.1
		c-5.1-4-6.3-9.5-3.5-14.5c2.6-4.5,8.2-6.3,13.9-3.8c3.5,1.5,6.9,3.5,9.9,5.8c5.8,4.5,11.2,9.7,17,14.2c21.8,16.8,43.7,33.3,65.5,50
		c8.3,6.3,16.7,12.6,24.8,19.1c6,4.8,12,4.6,18.2,0.8c7.3-4.5,12.9-10.6,15.8-18.8c2.5-6.9,1.5-10.7-4.3-15.2
		c-5.4-4.2-11.2-8.1-16.7-12.3c-30-22.8-60.1-45.8-90.1-68.6c-7.4-5.6-15.1-10.9-22.3-16.8c-5.1-4.2-5.3-10.3-1.5-15.1
		c3.5-4.4,9.4-5.1,14.7-1.4c4.9,3.4,9.5,7.1,14.2,10.7c22.6,17.2,45.2,34.5,67.8,51.7c14.6,11.1,29.1,22.3,43.7,33.3
		c7.9,6,15.2,5.9,21.9-0.7c3.2-3.2,6.2-7.2,7.8-11.4c4.8-12.5,3.8-25.2-0.9-37.7c-0.4-1-1-2.2-1.8-2.7c-9.9-5.7-16-15.2-23.5-23.3
		c-4.2-4.6-8.2-9.8-13.3-13.1c-14.6-9.6-29.6-18.7-44.7-27.5c-31.1-18.1-62.4-35.8-93.5-53.8c-2.4-1.4-4.1-1.4-6.6-0.3
		c-21.5,9.7-43.1,19.2-66.7,22.8c-27.1,4.1-51.4-1.5-71.7-20.9c-6-5.8-10.6-12.5-12.8-20.6c-3.7-13.9,3.3-26.4,18.8-33.9
		c14.6-7.1,29.1-14.2,43.6-21.5c5.5-2.8,10.7-6.2,16.9-9.8c-2.1-0.4-3.2-0.7-4.2-0.8c-13.7-1.4-27.5-2.8-41.2-4
		c-29.9-2.6-59.9-5-89.8-7.6c-2.8-0.2-3.9,0.5-4.8,3.1c-16.2,49-32.4,98.1-48.9,147c-2,5.9-0.9,10.2,3,14.5
		C-1254.6,387.7-1248,395-1241.5,402z M-713.8,362.5c-9.1-12.6-18.2-25.1-27.3-37.8c-23.8-33.3-47.5-66.7-71.4-100
		c-0.8-1.1-3.3-2-4.5-1.5c-21,8.4-41.8,17.3-62.8,25.6c-4.9,1.9-10.6,2.8-15.8,2.5c-5.7-0.3-11.3-2.3-16.9-3.6
		c-26.1-6-52.2-12-78.3-18c-9.2-2.1-18.3-3.8-27.5-0.4c-6.5,2.4-13,4.7-19.1,7.8c-17,8.8-33.6,18.2-50.5,27.1
		c-12.5,6.6-25.2,12.7-37.9,18.9c-4,1.9-4.8,3.9-2.1,7.7c6.2,8.7,14.6,14.5,24.7,17.6c15.8,4.8,31.7,2.8,46.9-2.6
		c18.5-6.6,36.6-14.6,54.8-22.2c3.1-1.3,5.2-1,8,0.7c12.8,8,25.6,16,38.7,23.6c33.3,19.4,66.6,38.8,100,57.9
		c12.2,7,22.1,16.1,31.2,26.7c15.1,17.8,9.1,16.6,33.3,12.3c18.4-3.2,35.8-9.3,50.8-20.8C-731.1,377.2-722.7,369.9-713.8,362.5z
		 M-804.4,198.3c42.2,61.8,88.1,120.3,126.6,184.6c19.9-13.4,39.5-26.7,59.4-40.1c-42.9-60.7-85.4-121-128.1-181.5
		C-766.2,173.8-785.4,186.1-804.4,198.3z M-1301.6,410.6c0.5-1,0.9-1.6,1.1-2.2c10.6-32.8,21.2-65.6,31.8-98.4
		c11.7-36.1,23.4-72.3,35.2-108.4c0.8-2.6,1.7-4.5-1.8-6.2c-12.2-5.8-24.2-12-36.2-18c-4.4-2.2-8.8-4.3-13.7-6.6
		c-23.1,72.5-46,144.4-68.9,216.6C-1336.4,395.2-1319.2,402.8-1301.6,410.6z M-1192.5,516.2c0.6-0.6,1.4-1.1,1.9-1.9
		c10.5-13,21-25.9,31.3-39c4.8-6.2,9.8-12.4,13.7-19.1c3.8-6.5,2.1-13.3-3.4-18.9c-6-6.1-14.7-8.7-21-5.9c-2,0.9-4,2.2-5.4,3.9
		c-7.2,8.7-14.1,17.5-21.1,26.2c-7.6,9.5-15.2,19-22.7,28.2C-1210,498.7-1201.3,507.3-1192.5,516.2z M-1150.9,556.4
		c1.5-1.5,2.8-2.7,3.9-4.1c10.9-13.5,21.7-27,32.5-40.6c3.2-4,7.1-7.8,9.1-12.3c3.5-7.7-1.5-18.9-9.1-23.2
		c-7.7-4.3-16.7-2.1-22.6,5.3c-8,10-16.1,20-24.1,30c-5.3,6.6-10.5,13.3-16,20.1C-1168.4,540.1-1159.8,548.1-1150.9,556.4z
		 M-1134.7,570.6c6.4,5.5,12.3,10.4,18.1,15.4c8.3,7.1,19.1,2.7,23.8-4.3c6.9-10.3,14.2-20.2,21.2-30.4c6.5-9.5,2.4-22.1-8.5-26.1
		c-8.5-3.1-17.6-0.6-23.2,6.3C-1113.6,544.5-1124,557.4-1134.7,570.6z M-1235.6,476.3c13.7-17.1,26.6-33,39.4-48.9
		c-7.3-13.2-21.8-15-30.5-3.9c-5.9,7.6-11.5,15.5-17.2,23.2c-3,4.1-4,8.7-1.8,13.2C-1242.9,465.3-1239.3,470.4-1235.6,476.3z"/>
</g>
<g>
	<path class="st1" d="M401.2,184.4c11-11.3,21.3-22.3,32.1-32.7c23-22.1,47.8-41.9,76.6-56.3c12.8-6.4,26.2-11.1,40.4-11.6
		c25.4-1,45.4,11.9,53.7,40.3c5.2,17.6,5.5,35.3,4.6,53.2c-1.3,25-5.6,49.6-12.5,73.8c-3.9,13.7-7.4,27.5-11.3,41.8
		c5,1.5,9.9,2.9,14.8,4.3c20,6,40.2,11.1,59.8,18.1c25.5,9.1,49.7,21.1,70.3,39.1c10.9,9.5,19.9,20.4,23.8,34.8
		c5.8,21.5-1.8,38.5-17.1,53.1c-20.6,19.7-45.7,31.6-72,41.2c-18.6,6.8-37.8,12.1-56.9,17.7c-8,2.3-16.2,3.7-25.2,5.8
		c1.1,4.2,2,7.9,3,11.6c8.3,31.9,15.8,63.9,17.9,97c1.4,22.7,0.2,45-7.7,66.3c-6.2,16.6-18,27.9-35.8,31.8
		c-21.1,4.7-40.1-2-58.5-11.3c-23.6-11.9-44.3-27.9-63.3-46c-13.2-12.6-25.7-26-38.3-39.3c-3.4-3.6-5.6-2.4-8.2,0.3
		c-9.5,9.6-18.7,19.5-28.7,28.6c-25.7,23.3-52.5,45.1-85.4,57.6c-18,6.9-36.6,11.6-55.4,1.9c-16-8.3-24.2-22.4-28.8-39
		c-5.4-19.2-4.7-38.8-3.3-58.3c2.2-29.8,8.8-58.8,17.9-87.2c1.9-6,3.4-12.1,4.9-17.4c-24.4-7.8-48.5-14.6-71.9-23.1
		c-22.8-8.2-44.7-18.7-64.1-33.5C66,439,56.1,429.8,50.2,417.6c-9-18.4-6.9-36.2,4.5-52.9c15.3-22.4,38.3-34.7,62-45.8
		c24.6-11.5,50.6-18.8,76.9-25.4c5.6-1.4,11.2-2.8,16.9-3.6c4.6-0.7,4.8-2.9,3.8-6.6c-3.2-11.1-6.8-22-9-33.3
		c-3.8-20-6.9-40.2-9.8-60.3c-2.3-16-1.9-32.1,0.6-48c3.6-22.9,10.6-44.3,33.7-55.6c13.3-6.5,27.2-5.2,40.7-1.4
		c26.8,7.5,49.4,22.9,70,40.8c19.6,17,37.6,35.8,56.3,53.9C398,180.8,399.3,182.3,401.2,184.4z M427.4,519.8c0-0.5,0-1,0-1.6
		c9.4,0,18.7-0.2,28.1,0.1c7.2,0.2,12-1.8,16.5-8.6c22.1-33.5,42.4-68,60.8-103.5c1.9-3.7,2.2-7.3,0.1-11.3
		c-4.6-8.8-8.3-18-13.2-26.6c-15.5-27.3-31.5-54.2-46.9-81.5c-3.3-5.8-7.6-7.3-13.4-7.5c-16.5-0.5-32.9-1.6-49.4-1.7
		c-25.1-0.1-50.1,0.4-75.2,1c-2.2,0.1-4.9,2.4-6.4,4.4c-4.3,5.9-8.3,12.1-12,18.5c-17.1,29.5-34,59-50.8,88.7
		c-1.5,2.7-2.5,6.4-1.9,9.3c0.8,4,3.1,7.7,5.1,11.3c16,29,31.8,58,48.2,86.8c5.7,10.1,10.5,20.6,26.2,19.7c16.9-1,34,1.7,51.1,2.4
		C405.3,520.2,416.4,519.8,427.4,519.8z M750.6,401.5c-1.1-17.1-9.4-29.1-19.9-39.7c-16.5-16.7-37-27.3-58.1-36.6
		c-26.9-12-55.3-19.8-83.9-26.7c-5-1.2-6.6,0.1-8.1,4.5c-3.8,11.3-7.7,22.5-12.4,33.5c-8.5,20.1-17.7,39.8-26.4,59.9
		c-1,2.4-0.9,5.7-0.1,8.2c1.5,4.7,4.1,9,6,13.6c6,14.5,12,28.9,17.7,43.5c4.7,12.2,8.9,24.6,13.5,36.9c1.1,2.9,2.3,5.1,6.6,3.9
		c19.3-5.2,39.2-8.8,58.1-15.2c19.1-6.4,37.6-14.8,55.8-23.6c17.1-8.3,32.2-19.7,43.3-35.5C748.7,419.7,750.6,410.1,750.6,401.5z
		 M402.9,185.8c2,2.8,3,4.3,4.1,5.7c11.3,14.3,23,28.4,34,42.9c8.9,11.7,16.9,24.1,25.5,36c1.7,2.4,4.3,5.4,6.8,5.8
		c25.7,3.7,51.5,6.8,77.3,10.4c9.9,1.4,19.7,3.7,30,5.6c1.3-4.3,2.5-8.2,3.5-12.2c4.7-17.4,10-34.7,13.7-52.4
		c3.3-15.9,5.3-32.1,6.6-48.3c1.6-19.4,0.6-38.8-5.7-57.7c-7-21.1-23.4-34.7-47.1-33.9c-18.6,0.7-35.2,7.7-51,16.6
		c-22,12.2-41.3,28.1-59.8,45.1C428,161.4,415.5,173.7,402.9,185.8z M578.3,508.2c-15.5,2.4-29.6,4.9-43.8,6.6
		c-20.7,2.5-41.5,4.2-62.2,6.5c-2.3,0.3-5.1,1.9-6.6,3.8c-16.4,21.2-32.4,42.6-48.7,63.8c-5.7,7.4-12.1,14.4-19.1,22.9
		c3,2.3,5.8,3.7,7.7,5.9c24.3,28.5,51.7,53.4,83.3,73.3c18.6,11.7,38.2,21.3,61.3,20.1c18.5-1,31.6-9.7,39.5-26
		c9-18.6,10.9-38.9,10.1-59c-1-27.8-4.9-55.3-12.1-82.2C584.6,532,581.4,520.2,578.3,508.2z M216.5,292.5
		c-28.6,6.3-56.3,12.9-83,23.5c-24,9.5-46.8,20.9-65.5,39c-12,11.5-19.9,25.5-19.2,42.7c0.8,18.1,12.1,30.6,25,41.7
		c17.7,15.2,38.2,26.1,59.8,34c23.6,8.6,47.9,15.6,72,22.9c9.2,2.8,9,2.2,12.2-5.6c12.3-29.2,24.6-58.4,37.3-87.4
		c1.8-4.2,2.3-7.6,0.2-11.6c-1.8-3.5-3.5-7.1-4.9-10.7c-8.1-20.3-16.2-40.5-24.1-60.9C222.7,311.1,219.8,302,216.5,292.5z
		 M217.3,503.9c-0.7,1.5-1.6,2.8-2,4.3c-5.3,19.7-11.4,39.3-15.6,59.2c-3.4,16.4-4.8,33.3-6.6,50.1c-2.1,18.8-0.5,37.4,6.2,55.1
		c9.4,24.5,26,34.8,47.2,34c22.2-0.8,42.1-9.7,60.4-21.6c22.1-14.4,43-30.6,61.8-49.3c8.3-8.2,16.3-16.6,24.4-25
		c-4-5.2-7.6-9.7-11-14.3c-17.6-23.9-35.3-47.8-52.7-71.9c-2.5-3.4-5.1-5.1-9.1-5.5c-14.2-1.6-28.4-2.8-42.6-5
		C257.7,511,237.8,507.4,217.3,503.9z M251.1,85.5c-17.4,0.7-30.6,7.7-39.5,21.8c-9.3,14.9-12.7,31.7-13.4,48.9
		c-1.9,43.5,7.5,85.2,19.6,126.6c1.2,4.2,2.9,4.6,6.8,4c17.3-2.7,34.5-5.3,51.9-7.3c16.8-2,33.6-3.1,50.4-4.9c2-0.2,4.4-2,5.7-3.7
		c5.1-6.8,9.4-14.1,14.7-20.7c15.4-19.4,31-38.8,46.9-57.8c3.4-4.1,3.2-6.6-0.2-10c-5.6-5.6-11-11.5-16.5-17.2
		c-24.2-25.5-50.5-48.2-81.3-65.5C281.9,91.7,266.8,86.7,251.1,85.5z M332.6,521.9c19.3,29.3,39.5,58,63,84.2
		c11.8-8.6,62.2-72.4,66.4-84.2C419.1,521.9,376.4,521.9,332.6,521.9z M325.5,278.9c-35.3,3-69.8,5.7-104.9,13.2
		c11,34.2,24.2,66.8,38.8,99.4C281.6,353.7,303.3,316.8,325.5,278.9z M538.1,393.5c0.2-0.2,0.8-0.7,1.1-1.4
		c4.7-9.8,9.7-19.5,13.9-29.5c8.4-20.3,16.2-40.9,24.3-61.4c1.5-3.8,0.3-5.6-3.6-6.2c-28.6-4.4-57.2-9-85.8-13.3
		c-4.4-0.7-8.8-0.6-13.1-0.9C496.2,318.7,517.2,356.1,538.1,393.5z M464.5,274.5c-0.1,0.2,0.1-0.1,0-0.2
		c-19.7-26.1-39.3-52.3-59.2-78.3c-4.6-6-5.1-5.8-9.9,0c-12.1,14.7-24.3,29.4-36.1,44.4c-8.3,10.5-16,21.6-24,32.4
		c0.2,0.6,0.5,1.1,0.7,1.7C378.9,274.5,421.6,274.5,464.5,274.5z M538.9,405.5c-22.4,38-44.1,74.6-66,111.6
		c34.7-1.8,69.1-6,104.9-13.1C564.6,470.4,551.8,438.2,538.9,405.5z M321.7,514.9c-21.1-37.7-41.7-74.4-62.7-111.8
		c-7.4,16.2-15,31.7-21.7,47.5c-6.7,15.8-12.7,32-19.5,49.1C252.7,506.5,286.6,512.5,321.7,514.9z"/>
</g>
<path class="st2" d="M235,170.8c0,20.5-16.6,37.1-37.1,37.1c-20.3-0.1-37-16.6-37-37c0.1-21,16.8-37.1,37.1-37.1
	C218.4,133.7,235,150.4,235,170.8z"/>
<path class="st2" d="M747.6,341.1c0,20.5-16.6,37.1-37.1,37.1c-20.3-0.1-37-16.6-37-37c0.1-21,16.8-37.1,37.1-37.1
	C730.9,304.1,747.5,320.8,747.6,341.1z"/>
<path class="st2" d="M229.2,624.1c0,20.5-16.6,37.1-37.1,37.1c-20.3-0.1-37-16.6-37-37c0.1-21,16.8-37.1,37.1-37.1
	C212.6,587.1,229.1,603.8,229.2,624.1z"/>
<path class="st0" d="M431,391.4c0,20.5-16.6,37.1-37.1,37.1c-20.3-0.1-37-16.6-37-37c0.1-21,16.8-37.1,37.1-37.1
	C414.4,354.4,431,371,431,391.4z"/>
</svg>
