<?xml version="1.0" encoding="utf-8"?>
<!-- Generator: Adobe Illustrator 19.0.1, SVG Export Plug-In . SVG Version: 6.00 Build 0)  -->
<svg version="1.1" id="Layer_1" xmlns="http://www.w3.org/2000/svg" xmlns:xlink="http://www.w3.org/1999/xlink" x="0px" y="0px"
	 viewBox="94 -4 800 800" style="enable-background:new 94 -4 800 800;" xml:space="preserve">
<style type="text/css">
	.st0{fill:#383838;}
	.st1{fill:#F26222;}
</style>
<g>
	<path class="st0" d="M863,350.9c-1.1,4.7-2.2,9.5-3.4,14.2c-3.1,11.5-9.6,20.2-21.7,23.3c-5.3,1.3-5.1,4.9-5.1,8.9
		c0,38.5,0,76.9,0,115.4c0,16.6-9.1,27.9-25,30.7c-12.8,2.3-25.5-7-30.5-22.1c-0.2-0.7-0.8-1.2-1.8-2.7c-0.9,2-1.7,3.5-2.2,4.9
		c-4.3,12.6-17.7,21.8-29.3,20.1c-15.4-2.3-25.4-13.3-25.7-28.5c-0.1-4.7,0.2-9.4-0.1-14c-0.9-14.2,1-26.6,10.2-39.1
		c6.5-8.9,9.2-22.2,9.7-33.6c1.3-30.6,0.6-61.3,0.4-92c-0.1-29.1-15-50.6-42.5-60.7c-6-2.2-7.7-5.1-7.5-11.2
		c0.7-24.4,15.6-40.5,39.8-42.4c4.6-0.4,9.2-0.9,14.5-1.4c5,20.9,10.2,41.3,22.4,59.5c0.5-19.6,10-39.1-1.8-59.1
		c8.4,0,15.2,0,23.8,0c-11.7,19.6-2.4,39.2-2.8,58.7c0.7,0.2,1.3,0.4,2,0.6c1.4-2.3,3.2-4.4,4-6.9c5.4-15.4,10.8-30.7,15.6-46.3
		c1.6-5.2,3.3-7.5,9-6c6.5,1.7,13.4,1.9,19.8,3.9c14.6,4.5,23.9,14.1,26.1,29.8c0.2,1.4,1.2,2.8,1.9,4.1
		C863,289.5,863,320.2,863,350.9z"/>
	<path class="st0" d="M500.3,669c-0.7,1.8-1.3,3.6-2,5.4c-4.6,12.2-17.7,20.5-29.3,18.6c-15.2-2.5-25.1-13.3-25.2-28
		c-0.1-39-0.2-78,0.1-116.9c0-6.1-1.5-9-7.8-10.9c-12.2-3.7-17.6-14-20.1-25.6c-1.3-6-1.7-12.4-1.8-18.6c-0.2-25.2-0.1-50.4,0-75.6
		c0-28.7,13.8-43.4,42.6-45.9c1-0.1,2.1,0,3.1-0.4c6.9-2.5,9,0.8,10.9,7.2c4.6,15.6,10.3,30.9,15.8,46.2c0.7,2,2.3,3.7,5.1,5.1
		c0.9-9.9,2.4-19.8,2.4-29.7c0.1-9.5-1.3-19-2.2-29.1c5.3,0,12.1,0,20.5,0c-11,19.4-2.2,38.9-1.4,58.7
		c12.3-17.8,17.5-38.1,22.3-59.2c13,1,25.6,1.8,36.8,8.7c12.4,7.6,17.2,19.6,17.3,33c0.2,31.7-0.1,63.4-1.3,95
		c-0.6,15-7.7,27-23.5,31.2c-5.5,1.5-4.5,5.5-4.5,9.3c0,39,0.1,78,0,116.9c0,13.5-8.4,24.3-20.9,27.6c-14.2,3.7-28.8-3.9-33.7-17.8
		c-0.6-1.7-1-3.4-1.5-5.1C501.5,669.2,500.9,669.1,500.3,669z"/>
	<path class="st0" d="M628.2,354.8c0.2-19.6,10.1-39.2-2-59c8.4,0,15.2,0,21.1,0c-0.8,9.7-2.3,19.4-2.3,29.1
		c0,9.9,1.6,19.8,4.2,30.2c1.2-2.1,2.9-4,3.7-6.2c5.5-15.6,11.1-31.2,16-47c1.6-5.2,3.2-7.5,9-5.9c4.4,1.2,9.3,1,13.8,2
		c22.3,5.4,32.8,18,33.2,40.8c0.4,27.6,0.4,55.1-0.1,82.7c-0.2,7.9-2.1,16-4.5,23.5c-2.8,8.8-9,15.3-18.3,17.6
		c-5.4,1.3-6.7,4.1-6.7,9.4c0.2,38.2,0.1,76.4,0.1,114.6c0,18-9,29.4-25.7,31.5c-10.2,1.3-26.1-4.9-30.1-22.8
		c-0.1-0.4-0.7-0.7-1.7-1.6c-0.7,1.7-1.5,3.1-1.9,4.6c-4.2,12.7-17.4,21.7-29.2,19.9c-15.7-2.4-25.6-13.3-25.8-28.3
		c0-4.9,0.3-9.9-0.1-14.8c-1.1-13.7,0.5-26,10.2-37.5c8.3-9.9,10.2-23.1,10.2-36.1c0.1-30.4,0.1-60.8,0-91.3
		c-0.1-27.5-15.8-50.5-41.8-59.7c-6.7-2.4-8.6-5.5-8.2-12.2c1.2-23.7,14.7-38.6,38.4-41.5c5.1-0.6,10.2-1,16-1.6
		C610.6,316.3,616.1,336.7,628.2,354.8z"/>
	<path class="st0" d="M224.9,518.8c-1.3,3-2.1,4.7-2.9,6.5c-5.4,12.5-18,20-29.8,17.6c-15.6-3.1-24.5-13.3-24.6-28.5
		c-0.1-38.7-0.1-77.5,0.1-116.2c0-6.2-1.7-8.9-7.8-10.9c-13.1-4.3-18.4-15.3-20.3-28.1c-1.1-7.2-1.4-14.5-1.5-21.7
		c-0.2-23.1-0.1-46.3-0.1-69.4c0-28.7,13.7-43.8,42.2-46.5c1.8-0.2,3.7-0.3,5.4-0.8c5.4-1.6,6.9,0.9,8.4,5.8
		c4.8,15.6,10.2,30.9,15.6,46.3c0.9,2.5,2.7,4.7,5.1,6.8c0.4-19.6,9.8-38.9-1.8-58.8c8.2,0,15,0,23.5,0
		c-11.1,19.6-2.2,39.2-0.7,59.3c1.3-2,2.9-3.9,3.7-6.1c5.4-15.4,10.9-30.7,15.8-46.3c1.7-5.5,3.1-8.8,9.9-6.8
		c8.6,2.6,18,3.3,26.1,6.8c14.7,6.4,23.9,26.4,20.2,42c-0.4,1.7-2.7,3.5-4.5,4.3c-32.9,13.8-45.2,32.1-45.2,67.7
		c0,27.8,0,55.6,0,83.4c0,17.5,5.2,33.1,16.3,46.8c2.3,2.9,3.7,7.3,3.9,11.1c0.5,10.1,0.2,20.3,0.2,30.4c-0.1,16-8.7,26.3-24.4,29.4
		c-12.2,2.4-25-5.6-30.4-19.1C226.6,522.7,226,521.4,224.9,518.8z"/>
	<path class="st0" d="M354.7,354.5c-0.7-19.4,8.9-38.9-2.9-58.7c8.4,0,15.2,0,21,0c-0.8,9.7-2.3,19.4-2.2,29.1
		c0,9.9,1.6,19.9,4.1,30.3c1.3-2.1,2.9-4,3.7-6.2c5.4-15.4,10.9-30.7,15.7-46.2c1.7-5.6,3.4-8.7,10-6.8c4.4,1.3,9.3,1.2,13.8,2.3
		c27.1,6.4,32.5,23.7,32.5,45.1c0,1.9-2.5,4.9-4.6,5.7c-32.5,13.4-45.2,32.2-45.2,67.7c0,27,0.1,54.1,0,81.1
		c-0.1,18.9,4.9,35.8,17.3,50.4c1.8,2.1,2.9,5.5,3,8.4c0.3,10.9,0.2,21.8,0.1,32.7c0,15.1-9.9,26.4-25.1,29
		c-12.1,2-25.5-7-29.8-20.1c-0.4-1.4-1-2.7-2.2-5.8c-1.3,3.4-1.9,5.2-2.6,7c-4.5,12.1-17.9,20.8-29.2,19
		c-15.2-2.5-25.3-13.3-25.4-27.9c-0.2-39-0.2-78,0-117c0-5.9-1.1-9.1-7.5-11.1c-12.8-3.9-18.1-14.7-20.5-27c-0.6-3-1.3-6.2-1.3-9.2
		c0.1-31.2-0.7-62.4,0.9-93.5c1.1-20.9,15.6-33.2,36.7-35.7c16.4-1.9,15.7-1.8,20.4,14.2c4.4,15,10.3,29.6,15.6,44.3
		C352.1,355.1,353.4,354.8,354.7,354.5z"/>
	<path class="st0" d="M188.1,157.2c-0.1-19,17.2-36.4,36.4-36.5c19.7-0.1,36.9,16.8,37.1,36.6c0.2,19.6-17.1,36.9-36.7,36.9
		C205.2,194.1,188.2,177,188.1,157.2z"/>
	<path class="st0" d="M637.1,269c-23.6-2.5-36.3-19.1-35.2-38.1c1.4-24.3,19.6-36,37.2-35.1c24.7,1.2,36.6,19.4,35.7,37.4
		C673.4,257.9,655.3,268.3,637.1,269z"/>
	<path class="st0" d="M775.7,194.2c-19.8-0.1-37-17.4-36.8-36.9c0.2-19.8,17.6-37,37.1-36.6c19.8,0.4,36.9,17.8,36.5,37.3
		C812,177.2,794.7,194.3,775.7,194.2z"/>
	<path class="st0" d="M400.4,232.2c0.3,18.9-16.6,37-36.1,36.7c-20.9-0.3-36.7-14-37.1-36.1c-0.4-20.4,13.3-35.7,36.1-37.1
		C382.7,194.5,400.1,212.3,400.4,232.2z"/>
	<path class="st0" d="M500.8,270.4c19.2-0.4,36.9,17.1,37,36.7c0.1,19-16.9,37.1-36.1,36.7c-21.1-0.5-36.7-14.2-37.1-36.1
		C464.3,287.3,477.9,272.5,500.8,270.4z"/>
</g>
<path class="st1" d="M351.8,295.8c0,0,6.1,9.8,5.9,23.2l-0.3,6.3l-1.2,10.1c0,0-0.9,6.9-1,7.6s-1,8.2-0.5,9.6c0.4,1.4,0,1.4,0,2
	c0,0.6,19.9,0.7,19.9,0.7s-3.2-13.8-3.6-20.9c0,0-1.2-14.1-0.1-19.5c0,0,1.5-15.7,1.7-17.3c0.1-1.7,0.1-1.7,0.1-1.7H351.8z"/>
<path class="st1" d="M649.8,354.9c0.1-0.2,0.3-0.4,0.5-0.6c-0.8-3.2-3.4-14-3.8-19.9c0,0-1.3-14.1-0.1-19.5c0,0,1.7-15.7,1.9-17.3
	c0.2-1.7,0.2-1.7,0.2-1.7h-23.5c0,0,6.9,9.8,6.6,23.2l-0.3,6.3l-1.3,10.1c0,0-1,6.9-1.1,7.6c-0.1,0.7-1.1,8.2-0.6,9.6s0,1.4,0,2
	c0,0.6,17,0.7,21.3,0.7C649.6,355.1,649.7,355,649.8,354.9z"/>
<path class="st1" d="M788.5,220.9h-25.8c0,0,6,10.7,6.2,18c0,0,1,10.5-0.7,15.4c0,0-2.1,12.2-2.6,15.8c0,0-1.2,7.2-1,9.5
	c0.3,0.1,0.5,0.3,0.8,0.4l20-0.3c0,0-0.5-17-2.7-26.1c0,0-2.1-18.4,1.4-23.5C784.1,230.1,787.9,220.9,788.5,220.9z"/>
<path class="st1" d="M238.7,220.9h-26.4c0,0,6.2,10.9,6.3,18.2c0,0,1,10.6-0.7,15.5c0,0-2.2,12.3-2.7,15.9c0,0-0.9,5.6-1,8.5
	c0.3,0.3,0.6,0.7,0.9,1c0.2,0.1,0.5,0.3,0.7,0.5l19.8-0.3c0,0-0.5-17.2-2.8-26.4c0,0-2.1-18.6,1.4-23.7
	C234.2,230.1,238.1,220.9,238.7,220.9z"/>
<path class="st1" d="M511.7,429.1c-0.2-2.5-1.4-15.4-3.1-22.2c0,0-2.8-17.1-0.1-24.7c0,0,3.4-11,4.7-11.3H491c0,0,3,22.9,2.3,28
	c0,0-0.9,18-2.1,25.4l-0.5,4.8c0.3,0.2,0.5,0.4,0.8,0.6l19.6-0.1C511.3,429.4,511.5,429.2,511.7,429.1z"/>
</svg>
