<?xml version="1.0" encoding="utf-8"?>
<!-- Generator: Adobe Illustrator 19.0.1, SVG Export Plug-In . SVG Version: 6.00 Build 0)  -->
<svg version="1.1" id="Layer_1" xmlns="http://www.w3.org/2000/svg" xmlns:xlink="http://www.w3.org/1999/xlink" x="0px" y="0px"
	 viewBox="94 -4 800 800" style="enable-background:new 94 -4 800 800;" xml:space="preserve">
<style type="text/css">
	.st0{fill:#F26222;}
	.st1{fill:#383838;}
</style>
<g>
	<path class="st0" d="M225.6,600.3c-28.7-28.7-57-57.1-84.2-84.4C230.5,427.2,320,338,411.7,246.8c26.1,27,54.6,56.6,82.6,85.6
		c61.1-60.9,120.5-120.3,181.2-180.7c-28.3-27.4-56.9-55.1-85.5-82.8c0.8-1.2,1.6-2.4,2.3-3.5c3.7,0,7.4,0,11.1,0
		c70.3,0,140.6,0,210.9,0c25.3,0,35.6,10.4,35.6,36c0,73.7,0,147.5,0,223.2c-3.3-2.7-5.6-4.2-7.5-6.1
		c-23.2-23.2-46.7-46.1-69.4-69.8c-7.2-7.6-11.3-7-18.4,0.1C673,331,591,412.8,509.2,494.9c-4.1,4.1-7.2,9.1-12.3,15.7
		c-17.6-18.2-32.8-34.1-48.1-49.7c-11.1-11.3-22.7-22.1-33.4-33.8c-6.3-6.9-10.3-6.1-16.6,0.2c-55.4,56-111.2,111.6-166.9,167.3
		C229.9,596.7,227.6,598.6,225.6,600.3z"/>
	<path class="st1" d="M761.4,307.6c0,129.5,0,255.3,0,382.6c-17.3,0-34.2,0.2-51-0.3c-1.9,0-4.4-3.4-5.3-5.7c-0.9-2.3-0.3-5.3-0.3-8
		c0-100,0.1-199.9-0.2-299.9c0-7.9,2.1-13.7,7.9-19.2C728.5,341.6,743.8,325.5,761.4,307.6z"/>
	<path class="st1" d="M610.1,690.4c0-6.3,0-10.4,0-14.6c0-68,0.2-135.9-0.2-203.9c0-8.9,2.7-15.1,9-21.1
		c17.1-16.5,33.6-33.6,52.1-52.2c0.4,6,0.9,9.3,0.9,12.5c0,88.4-0.2,176.8,0.3,265.2c0.1,11.1-2.8,14.9-14.2,14.2
		C642.6,689.7,627.2,690.4,610.1,690.4z"/>
	<path class="st1" d="M577.4,493c0,66.7,0,131.3,0,197.3c-19.2,0-37.7,0.2-56.1-0.3c-2.1-0.1-5.7-4.9-5.7-7.6
		c-0.4-40.5-0.4-81.1-0.1-121.6c0-3.1,1.3-7.1,3.4-9.3C537.8,532.2,557,513.3,577.4,493z"/>
	<path class="st1" d="M483.8,690.2c-19.6,0-38.1,0.3-56.4-0.5c-2-0.1-5.2-6.7-5.2-10.3c-0.4-27.4-0.3-54.8-0.3-82.2
		c0-31.2,0-62.4,0-97c14.7,14.5,26.3,27.8,39.8,38.8c17.6,14.3,24.5,31,22.7,53.9c-2.1,27.6-0.5,55.6-0.5,83.4
		C483.8,680.5,483.8,684.7,483.8,690.2z"/>
	<path class="st1" d="M389.5,503.5c0,60.7,0.1,119-0.3,177.2c0,3.2-4.1,9.1-6.5,9.2c-17.7,0.8-35.4,0.4-54,0.4
		c-0.4-4.2-1-7.6-1-10.9c-0.1-35.1-0.2-70.3,0.1-105.4c0-4.3,1.1-9.7,3.9-12.6C350.1,542.3,369.1,523.8,389.5,503.5z"/>
	<path class="st1" d="M295.2,597.9c0,32.1,0,61.2,0,92.6c-9.5,0-18.5,0-27.5,0c-8.5,0-16.9,0.4-25.4-0.1c-5-0.3-14-1.4-14.2-3
		c-1-7.6-2.6-18.3,1.6-22.9C249.9,641.9,272,621,295.2,597.9z"/>
</g>
</svg>
