<?xml version="1.0" encoding="utf-8"?>
<!-- Generator: Adobe Illustrator 19.0.1, SVG Export Plug-In . SVG Version: 6.00 Build 0)  -->
<svg version="1.1" xmlns="http://www.w3.org/2000/svg" xmlns:xlink="http://www.w3.org/1999/xlink" x="0px" y="0px"
	 viewBox="0 0 800 800" style="enable-background:new 0 0 800 800;" xml:space="preserve">
<style type="text/css">
	.st0{display:none;}
	.st1{display:inline;fill:#FFFFFF;}
	.st2{display:inline;fill:#3F3F3F;}
	.st3{display:inline;fill:#F26222;}
	.st4{fill:#3F3F3F;}
	.st5{fill:#F26222;}
	.st6{display:inline;}
</style>
<g id="Layer_1">
	<g class="st0">
		<path class="st1" d="M370.1,685.9c1.1,0.4,2.1,1,3.2,1.3c16.5,4.6,33.3,7.2,50.3,7.2c67,0.1,123.3-23.1,164.2-77.7
			c52.7-70.3,65.9-176,11.8-265.5C551.9,271.9,460,229.4,369.8,248.4c-83.6,17.6-138.6,69.5-168.5,148.9c-1.8,4.7-2.9,9.6-4.3,14.4
			c20.3-49.4,53.1-87.6,101.2-111.3c48.1-23.7,98.4-27.3,149.6-11.1c91.2,28.8,153.8,120.5,138.4,224.9
			c-6.7,45.4-27.1,84.4-60.3,116.1C482.2,671.9,429.8,689.2,370.1,685.9z M475.8,436.2c-0.2-0.9-0.4-1.8-0.6-2.7
			c-4.8,0.4-9.8,0.1-14.4,1.3c-52.5,14.2-105.7,23.6-160.1,24.5c-33.1,0.5-65.9-2-98.2-10c-8.5-2.1-15.9-5.7-21.8-12.3
			c-1.5-1.7-4.5-2.8-6.9-2.9c-10.5-0.3-21-0.1-31.5-0.1c-9.3,0-11.1,2.1-8.7,11.3c0.7,2.7,1.8,5.7,3.6,7.5
			c4.6,4.5,9.2,9.2,14.7,12.5c12.1,7.3,25.8,10.6,39.6,13.2c33.5,6.3,67.3,6.3,101.1,4.3c49.9-2.9,98.5-12.3,145.2-30.4
			C450.7,447.6,463.2,441.7,475.8,436.2z M442.6,525.2c0-0.6,0-1.2,0-1.8c-2.1-0.1-4.4-0.8-6.3-0.2c-40.5,11.4-81.6,19.3-123.7,21.5
			c-33.1,1.7-65.9,0-98.2-8.1c-6.9-1.7-12.6-5.1-17.2-10.4c-1-1.1-2.6-2.3-4-2.4c-10.2-0.1-20.3,0.1-30.5,0.1
			c-3.5,0-4.6,1.7-4.6,4.9c-0.2,6.8,2.9,12.2,8,15.9c5.3,3.9,11.2,7.3,17.3,9.8c15.9,6.4,32.8,8.8,49.7,9.9
			c53.3,3.5,105.7-2,156.9-17.8C408.2,541.1,425.7,533.9,442.6,525.2z M440.1,597.7c-7.5,2.1-14.9,4.2-22.4,6.1
			c-43.3,10.9-87,16.6-131.6,9.3c-10-1.6-20.8-2.1-28-11.3c-0.6-0.7-2.1-1-3.1-1c-6.7,0-13.3,0.2-20,0c-3.1-0.1-4.1,1.4-3.6,3.9
			c0.5,2.4,0.9,5.5,2.5,6.8c4.9,4.1,10,8.5,15.7,10.9c16.2,6.7,33.7,7.6,50.9,8c22,0.5,43.8-1.6,65.4-5.8
			C392.1,619.5,417,611.1,440.1,597.7z M667.1,247c-1.1,0.5-3.7,1.2-5.9,2.6c-19.3,12.1-38.6,24.4-57.8,36.6
			c-6.5,4.1-8.2,10.8-4.4,16.7c3.6,5.6,10.1,6.7,16.6,2.6c8.7-5.5,17.4-11.1,26.1-16.6c10.8-6.9,21.7-13.7,32.4-20.7
			c4.9-3.2,6.5-8.2,4.8-13.5C677.6,250.1,673.5,247.1,667.1,247z M206.5,296.4c-3-3.8-4.9-7.8-8-9.9c-19.2-12.6-38.6-24.9-58.1-37.1
			c-1.8-1.1-3.9-2-6-2.3c-5-0.7-9.6,2.4-11.4,7.2c-2,5.3-0.4,10.7,4.6,14c11.7,7.6,23.6,15,35.4,22.5c8.2,5.2,16.3,10.3,24.5,15.4
			c3.9,2.4,8.2,2.8,11.7-0.1C202,303.8,203.7,300.3,206.5,296.4z M249.1,142.9c-9.6,0.2-14.7,8.6-11,16.7
			c9.9,21.5,20,42.8,30.1,64.2c3.1,6.5,9,8.8,14.8,6.3c5.9-2.6,8.5-9.1,5.6-15.5c-10-21.8-20.2-43.4-30.4-65.1
			C256.1,145.1,252.6,143,249.1,142.9z M520.7,231c3.8-0.1,7.3-2.4,9.4-7c3.8-8.1,7.6-16.2,11.4-24.4c6.2-13.2,12.5-26.4,18.5-39.7
			c3.1-6.7,0.8-13.3-5.3-16.1c-5.9-2.7-11.8-0.2-15.1,6.5c-2.4,4.9-4.7,9.9-7,14.9c-7.5,16.1-15.1,32.2-22.6,48.3
			C506.1,222.3,510.9,230.9,520.7,231z M413,155.4C413,155.4,413,155.4,413,155.4c0-11.8,0-23.7,0-35.5c0-7.6-4.5-12.7-11.1-12.7
			c-6.6,0-11.1,5-11.1,12.7c0,23.3,0,46.7,0,70c0,7.6,4.6,12.8,11.1,12.8c6.6-0.1,11.1-5.1,11.1-12.7C413,178.4,413,166.9,413,155.4
			z"/>
		<path class="st2" d="M370.1,685.9c59.7,3.3,112.1-13.9,155.6-55.5c33.2-31.7,53.6-70.7,60.3-116.1
			c15.5-104.4-47.2-196.1-138.4-224.9c-51.2-16.2-101.5-12.6-149.6,11.1c-48,23.7-80.8,61.8-101.2,111.3c1.4-4.8,2.6-9.7,4.3-14.4
			c29.9-79.4,84.9-131.3,168.5-148.9c90.1-18.9,182.1,23.5,229.9,102.8c54,89.5,40.8,195.2-11.8,265.5
			c-40.9,54.6-97.2,77.8-164.2,77.7c-17.1,0-33.9-2.6-50.3-7.2C372.2,686.9,371.2,686.3,370.1,685.9z"/>
		<path class="st3" d="M475.8,436.2c-12.6,5.5-25.1,11.4-37.9,16.4c-46.7,18.1-95.3,27.4-145.2,30.4c-33.8,2-67.6,1.9-101.1-4.3
			c-13.8-2.6-27.5-5.9-39.6-13.2c-5.4-3.3-10.1-8-14.7-12.5c-1.9-1.9-3-4.9-3.6-7.5c-2.3-9.2-0.6-11.3,8.7-11.3
			c10.5,0,21-0.2,31.5,0.1c2.4,0.1,5.4,1.2,6.9,2.9c6,6.6,13.3,10.2,21.8,12.3c32.3,7.9,65.1,10.5,98.2,10
			c54.5-0.9,107.7-10.3,160.1-24.5c4.6-1.2,9.6-0.9,14.4-1.3C475.4,434.4,475.6,435.3,475.8,436.2z"/>
		<path class="st3" d="M442.6,525.2c-16.9,8.7-34.4,15.9-52.5,21.5c-51.2,15.9-103.5,21.3-156.9,17.8c-17-1.1-33.8-3.5-49.7-9.9
			c-6.1-2.5-11.9-5.9-17.3-9.8c-5.1-3.7-8.2-9.1-8-15.9c0.1-3.2,1.1-4.9,4.6-4.9c10.2,0,20.3-0.2,30.5-0.1c1.3,0,3,1.2,4,2.4
			c4.7,5.3,10.3,8.7,17.2,10.4c32.3,8,65.1,9.8,98.2,8.1c42.1-2.2,83.2-10.1,123.7-21.5c1.9-0.5,4.2,0.1,6.3,0.2
			C442.6,524,442.6,524.6,442.6,525.2z"/>
		<path class="st3" d="M440.1,597.7c-23.1,13.4-48,21.9-74.1,26.9c-21.6,4.2-43.5,6.3-65.4,5.8c-17.3-0.4-34.7-1.2-50.9-8
			c-5.8-2.4-10.8-6.8-15.7-10.9c-1.6-1.3-2-4.4-2.5-6.8c-0.5-2.5,0.5-4,3.6-3.9c6.7,0.2,13.3-0.1,20,0c1.1,0,2.6,0.3,3.1,1
			c7.1,9.2,17.9,9.7,28,11.3c44.6,7.2,88.3,1.5,131.6-9.3C425.2,601.9,432.6,599.7,440.1,597.7z"/>
		<path class="st3" d="M667.1,247c6.4,0.1,10.4,3.1,12,7.8c1.7,5.2,0.1,10.3-4.8,13.5c-10.7,7-21.6,13.8-32.4,20.7
			c-8.7,5.5-17.4,11.1-26.1,16.6c-6.5,4.1-13.1,3-16.6-2.6c-3.8-5.9-2.1-12.6,4.4-16.7c19.2-12.3,38.5-24.5,57.8-36.6
			C663.4,248.2,666,247.5,667.1,247z"/>
		<path class="st3" d="M206.5,296.4c-2.8,3.9-4.4,7.4-7.1,9.7c-3.5,2.9-7.8,2.5-11.7,0.1c-8.2-5.1-16.4-10.3-24.5-15.4
			c-11.8-7.5-23.7-14.9-35.4-22.5c-5-3.3-6.6-8.6-4.6-14c1.8-4.7,6.4-7.8,11.4-7.2c2.1,0.3,4.2,1.2,6,2.3
			c19.4,12.3,38.9,24.5,58.1,37.1C201.6,288.6,203.5,292.6,206.5,296.4z"/>
		<path class="st3" d="M249.1,142.9c3.5,0,7,2.2,9,6.5c10.2,21.7,20.4,43.4,30.4,65.1c2.9,6.3,0.3,12.9-5.6,15.5
			c-5.8,2.5-11.7,0.2-14.8-6.3c-10.1-21.4-20.2-42.7-30.1-64.2C234.4,151.5,239.5,143.1,249.1,142.9z"/>
		<path class="st3" d="M520.7,231c-9.8-0.1-14.6-8.8-10.5-17.5c7.5-16.1,15-32.2,22.6-48.3c2.3-5,4.6-10,7-14.9
			c3.2-6.7,9.2-9.2,15.1-6.5c6,2.7,8.3,9.3,5.3,16.1c-6.1,13.3-12.3,26.5-18.5,39.7c-3.8,8.1-7.7,16.2-11.4,24.4
			C528,228.6,524.5,230.9,520.7,231z"/>
		<path class="st3" d="M413,155.4c0,11.5,0,23,0,34.5c0,7.6-4.5,12.7-11.1,12.7c-6.4,0.1-11-5.1-11.1-12.8c-0.1-23.3-0.1-46.7,0-70
			c0-7.7,4.5-12.7,11.1-12.7c6.6,0,11.1,5.1,11.1,12.7C413,131.7,413,143.6,413,155.4C413,155.4,413,155.4,413,155.4z"/>
	</g>
	<g>
		<path class="st4" d="M588.8,375.6c0.5,30.9-9.3,58.8-24.7,85c-10,17-20.9,33.5-31.4,50.1c-15.2,24-28.3,48.8-34.7,76.7
			c-1.5,6.5-6.5,10.3-13.9,11c-40.4,3.5-80.8,7-121.2,10.2c-16,1.3-26.6-6.6-29.3-22.8c-4.6-27.6-16.3-51.9-31.2-75.1
			c-12.5-19.3-26-38-37.4-57.9c-36.7-63.8-27.6-125.3,13.4-183.2c27.2-38.4,65.3-61.8,112.2-68.8c54.6-8.1,102.2,7.9,142.1,45.5
			C569.4,281.3,587.8,324.8,588.8,375.6z"/>
		<path class="st5" d="M374.8,736.2c-5.3,0.5-10.4,1.2-15.4,1.5c-9.2,0.6-14.6-4.5-15.5-14.2c-1-10.6,2.9-16.4,12.3-17.4
			c30.7-3.3,61.5-6.4,92.3-9.6c9.2-0.9,18.4-1.8,27.5-2.8c9.1-1,15,3.7,16.4,13.2c1.5,10.5-2.5,17-11.7,18.6c-3.2,0.5-6.5,0.7-9.7,1
			c-3,0.3-6.1,0.6-9.6,1c-0.2,1.7-0.4,3.2-0.4,4.7c-0.2,12.6-6.9,20.3-19.3,20.7c-15.5,0.5-31.1,0.4-46.7,0
			C384.8,752.6,378.8,747.4,374.8,736.2z"/>
		<path class="st5" d="M343.8,677.5c-0.1-8.3,4.5-13.4,13.6-14.4c18.9-2,37.8-3.8,56.6-5.8c20-2,40-3.7,59.9-6.3
			c16.2-2.1,20.5,10,18.4,21.7c-1.1,5.8-5.5,9.2-11.5,9.8c-16.5,1.8-33.1,3.5-49.6,5.2c-22.5,2.3-45,4.4-67.4,6.8
			C349.7,696.1,344,691.3,343.8,677.5z"/>
		<path class="st5" d="M343.8,635.5c-0.3-8.6,4.4-14.1,13-15c39.1-4,78.2-7.8,117.2-12.1c17-1.8,19.6,10.2,18.5,20.9
			c-0.7,5.9-5.6,10-12,10.7c-20,2.2-40,4.2-59.9,6.3c-19.3,2-38.5,3.9-57.8,5.7C349.5,653.3,344.2,648.6,343.8,635.5z"/>
	</g>
	<path class="st5" d="M701.3,198.8c6.9,0.1,11.3,3.4,13,8.5c1.9,5.7,0.1,11.2-5.2,14.6c-11.7,7.6-23.5,15-35.3,22.5
		c-9.5,6-18.9,12.1-28.4,18c-7.1,4.5-14.2,3.3-18.1-2.8c-4.1-6.5-2.3-13.7,4.8-18.2c20.9-13.3,41.8-26.6,62.8-39.8
		C697.3,200.1,700,199.3,701.3,198.8z"/>
	<path class="st5" d="M200.6,252.5c-3,4.2-4.8,8-7.8,10.5c-3.8,3.2-8.5,2.7-12.7,0.1c-8.9-5.6-17.8-11.2-26.7-16.8
		c-12.8-8.1-25.7-16.2-38.5-24.5c-5.5-3.5-7.2-9.4-5-15.2c1.9-5.1,7-8.5,12.3-7.8c2.2,0.3,4.5,1.3,6.5,2.5
		c21.1,13.3,42.3,26.6,63.1,40.4C195.3,244,197.3,248.4,200.6,252.5z"/>
	<path class="st5" d="M246.9,85.7c3.8,0,7.6,2.4,9.8,7.1c11.1,23.6,22.2,47.1,33,70.8c3.2,6.9,0.4,14-6,16.8
		c-6.3,2.8-12.7,0.2-16.1-6.8c-11-23.2-21.9-46.4-32.7-69.8C231,95.1,236.5,85.9,246.9,85.7z"/>
	<path class="st5" d="M542.1,181.4c-10.7-0.1-15.8-9.5-11.5-19c8.1-17.5,16.4-35,24.5-52.5c2.5-5.4,5-10.8,7.6-16.2
		c3.5-7.2,10-10,16.4-7.1c6.5,3,9.1,10.2,5.7,17.5c-6.6,14.4-13.4,28.8-20.2,43.2c-4.1,8.8-8.3,17.6-12.4,26.5
		C550,178.8,546.3,181.3,542.1,181.4z"/>
	<path class="st5" d="M425.1,99.2c0,12.5,0,25,0,37.5c0,8.3-4.9,13.8-12.1,13.9c-7,0.1-12-5.6-12-13.9c-0.1-25.4-0.1-50.7,0-76.1
		c0-8.4,4.9-13.8,12-13.8c7.2,0,12.1,5.5,12.1,13.8C425.1,73.5,425.1,86.4,425.1,99.2C425.1,99.2,425.1,99.2,425.1,99.2z"/>
</g>
<g id="Layer_2" class="st0">
	<g class="st6">
		<path d="M576.9,311.4c0.5,33.4-10.1,63.7-26.7,92c-10.8,18.4-22.6,36.2-34,54.2c-16.4,25.9-30.6,52.8-37.5,83.1
			c-1.6,7.1-7.1,11.2-15.1,11.9c-43.7,3.8-87.4,7.6-131.2,11.1c-17.3,1.4-28.8-7.1-31.7-24.7c-4.9-29.9-17.6-56.2-33.8-81.3
			c-13.5-20.9-28.1-41.1-40.5-62.7c-39.7-69.1-29.9-135.7,14.5-198.3c29.4-41.6,70.6-66.9,121.4-74.4c59.1-8.8,110.6,8.5,153.8,49.3
			C556,209.3,575.8,256.4,576.9,311.4z"/>
		<path d="M345.3,701.7c-5.8,0.6-11.2,1.3-16.7,1.6c-9.9,0.6-15.8-4.9-16.7-15.4c-1-11.4,3.2-17.8,13.3-18.9
			c33.3-3.6,66.6-6.9,99.9-10.4c9.9-1,19.9-2,29.8-3.1c9.9-1.1,16.2,4,17.7,14.3c1.6,11.4-2.7,18.4-12.7,20.1
			c-3.5,0.6-7,0.7-10.5,1.1c-3.3,0.3-6.6,0.7-10.4,1.1c-0.2,1.8-0.4,3.5-0.5,5.1c-0.2,13.7-7.4,22-20.9,22.4
			c-16.8,0.5-33.7,0.4-50.5,0C356.1,719.4,349.7,713.8,345.3,701.7z"/>
		<path d="M311.7,638.2c-0.1-9,4.8-14.5,14.7-15.6c20.4-2.2,40.9-4.2,61.3-6.2c21.6-2.2,43.3-4,64.8-6.8
			c17.6-2.3,22.2,10.8,19.9,23.5c-1.2,6.3-5.9,10-12.5,10.7c-17.9,1.9-35.8,3.8-53.7,5.6c-24.3,2.5-48.7,4.8-73,7.4
			C318.2,658.3,312,653.1,311.7,638.2z"/>
		<path d="M311.7,592.7c-0.4-11.5,7.4-17.9,21.5-16c36.3,4.8,73.1,0.9,107.9-10.6c28.7-9.5,33.1,6.3,31.6,19.9
			c-0.7,6.4-6,10.8-13,11.6c-21.6,2.3-43.3,4.6-64.9,6.8c-20.9,2.1-41.7,4.2-62.6,6.2C317.9,612,312.2,606.9,311.7,592.7z"/>
	</g>
</g>
</svg>
