<?xml version="1.0" encoding="utf-8"?>
<!-- Generator: Adobe Illustrator 19.0.1, SVG Export Plug-In . SVG Version: 6.00 Build 0)  -->
<svg version="1.1" id="Layer_1" xmlns="http://www.w3.org/2000/svg" xmlns:xlink="http://www.w3.org/1999/xlink" x="0px" y="0px"
	 viewBox="94 -4 800 800" style="enable-background:new 94 -4 800 800;" xml:space="preserve">
<style type="text/css">
	.st0{fill:#FFFFFF;}
</style>
<g>
	<path class="st0" d="M661.2,624.1c21.9,17.1,32.6,40.4,37.7,67.2c6.2,32.7-3.4,50.9-35.8,57c-18.7,3.5-39.1,3.6-57.8,0.2
		c-32.1-5.8-42.8-25.4-36.2-58.3c5.4-26.6,12-38.6,37-66.6c-35.6-39-39.4-70.2-11.7-96c23.2-21.6,58.9-20.9,80.9,1.6
		C701.5,556,697.1,587,661.2,624.1z"/>
	<path class="st0" d="M562.7,736.7c-14.5-5.6-27.6-9.5-39.5-15.7c-10.6-5.6-15.5-16-14.7-28.4c2-33.6,12-63.7,40.6-87
		c-20-13.5-32.4-30.7-31.4-55.1c0.6-14.4,5.3-27,15.3-37.6c20.4-21.7,51-24.5,77.7-6c-23.3,10.9-38.9,28.1-42.7,53.4
		c-3.8,25.1,5.9,45.8,25.2,63.1C565.7,654.8,553.5,690.6,562.7,736.7z"/>
	<path class="st0" d="M674.7,623.4c36.3-30.5,37.5-89.3-16.1-116.7c22.4-18.8,56.4-15.8,76.9,6.7c24.3,26.6,19.1,58.3-15.8,93
		c19.6,15.2,30.9,35.7,36.1,59.5c2,9.3,4.5,19.1,3.4,28.2c-1,8.3-4.9,17.9-10.7,23.8c-11.2,11.4-26.8,14.3-42.4,16.3
		C714.7,691.3,702.4,655.5,674.7,623.4z"/>
</g>
<g>
	<path class="st0" d="M272.1,331.5c-33.9,48.6-67.9,97.2-101.8,145.8c-2.7-1.3-5.3-2.7-8-4c1.3-7.4,1.4-15.4,4.2-22.2
		c26.5-64.7,53.2-129.3,80.6-193.6c9.5-22.2,24.4-39.9,51.6-37.1c9,0.9,17.2,8.3,25.8,12.6c7.5,3.8,15.1,7.5,22.7,11.2
		c2.1-1.6,4.2-3.3,6.3-4.9c0,5.7,0.5,11.5-0.1,17.2c-2.8,29.6-7.8,59.2-8,88.8c-0.1,11.6,10.5,23.3,17,36.5
		c19.3-13.1,28.5-25.2,25.5-45.4c-3.7-24.6-5.6-49.5-8-74.3c-0.7-7.3-0.1-14.6-0.1-18.1c10.7-2.9,20.4-2.6,25.3-7.3
		c21.7-21.1,45.6-23.6,69.5-4.6c16.8,13.4,33.1,27.5,49.3,41.6c13.7,11.9,28,15.2,45.9,8.9c31.9-11.3,64.5-20.8,96.9-30.7
		c6.2-1.9,13-2.1,19.5-3c1,1.6,1.9,3.1,2.9,4.7c-4.7,4.7-8.8,10.5-14.3,14c-35.2,22.1-70,45.1-106.6,64.6c-10.8,5.8-28,4.1-40.8,0.6
		c-15-4.1-28.4-14-42.7-21.1c-21.6-10.7-28.1-6.7-28.5,18.1c-0.3,20.8-0.7,41.6,0.1,62.4c0.6,13.8-4.8,18.1-18.1,17.9
		c-45.8-0.6-91.6-0.7-137.3,0c-15,0.2-19.4-5.7-18.9-19.7c0.7-18.9,0.2-37.9,0.2-56.9C278.8,332.7,275.4,332.1,272.1,331.5z"/>
	<path class="st0" d="M440,119.4c0.1,42-31.3,73.2-73.7,73.2c-41.4,0-74-32.5-74-73.8c0.1-40.9,33-73.4,74.6-73.5
		C408.1,45.1,439.9,77.4,440,119.4z"/>
</g>
<g>
	<path class="st0" d="M813.8,433.8c0-101.8,0-200.7,0-302.7c-7.9,0-15.1,0-22.4,0c-79.1,0-158.2,0-237.2,0c-4.9,0-10.7,1.7-14.4-0.4
		c-7.3-4.1-17.9-9.5-19.2-15.9c-2.5-12.8,8-17.3,20-17.2c24.2,0.1,48.5,0,72.4,0c8.6-31.9,10.8-33.3,48.7-31.3
		c19.5,1,22.5,4.4,26.6,31.3c43.3,0,86.9-0.1,130.5,0c25.1,0,28.6,3.4,28.6,29c0.1,104,0.1,208.1,0,312.1c0,24.9-3.2,28.1-27,28.1
		c-91.6,0.1-183.1,0-274.7,0c-4.8,0-10.9,1.3-14.2-1.1c-5-3.6-10.9-9.8-11-15s5.4-12.6,10.5-15.1c5.7-2.9,13.5-1.8,20.4-1.8
		c79.1-0.1,158.2-0.1,237.2-0.1C796,433.8,803.6,433.8,813.8,433.8z"/>
</g>
</svg>
