<?xml version="1.0" encoding="utf-8"?>
<!-- Generator: Adobe Illustrator 19.0.1, SVG Export Plug-In . SVG Version: 6.00 Build 0)  -->
<svg version="1.1" id="Layer_1" xmlns="http://www.w3.org/2000/svg" xmlns:xlink="http://www.w3.org/1999/xlink" x="0px" y="0px"
	 viewBox="94 -4 800 800" style="enable-background:new 94 -4 800 800;" xml:space="preserve">
<style type="text/css">
	.st0{fill:#383838;}
	.st1{fill:#F26222;}
</style>
<g>
	<path class="st0" d="M207,14.2c6.8-0.3,12.3-0.8,17.8-0.8c134,0,268.1-0.2,402.1,0.5c9.2,0,20.6,4.6,27.3,10.9
		c36.5,34.5,72,70,107.3,105.7c4.7,4.8,8.4,12.9,8.4,19.5c0.4,201.8,0.3,403.5,0.3,605.3c0,2-0.8,4-1.5,7.3
		c-186.8,0-373.5,0-561.8,0C207,514,207,265.1,207,14.2z M268.5,700.5c147.5,0,292.9,0,438.6,0c0-178.6,0-355.6,0-535.5
		c-41.9,0-82.5,0-125.1,0c0-32,0-61,0-90.7c-105.5,0-209,0-313.5,0C268.5,283.4,268.5,491.1,268.5,700.5z"/>
	<path class="st0" d="M643.8,233.2c0,9.4,0,17.5,0,26.9c-83.2,0-165.6,0-248.8,0c0-9.4,0-17.5,0-26.9
		C477.4,233.2,559.8,233.2,643.8,233.2z"/>
	<path class="st0" d="M394.4,355.4c0-8.9,0-16.6,0-26c82.8,0,165.4,0,249.1,0c0,8.3,0,16.4,0,26
		C561.5,355.4,478.9,355.4,394.4,355.4z"/>
	<path class="st0" d="M394.9,448.7c0-9.3,0-17.5,0-26.9c82.5,0,165,0,248.6,0c0,8.6,0,17.2,0,26.9
		C561.1,448.7,479.1,448.7,394.9,448.7z"/>
	<path class="st0" d="M394.9,544.1c0-9.5,0-17.7,0-26.9c82.8,0,164.7,0,248.2,0c0,8.4,0,17,0,26.9
		C561.4,544.1,478.9,544.1,394.9,544.1z"/>
	<path class="st0" d="M394.9,637c0-9.3,0-17.4,0-26.8c82.5,0,164.5,0,248.1,0c0,8.2,0,16.7,0,26.8C561.2,637,479.3,637,394.9,637z"
		/>
	<path class="st1" d="M331.9,259.7c0-9.7,0-17.8,0-26.7c9.2,0,17.8,0,27.4,0c0,9.1,0,17,0,26.7C350.6,259.7,342.1,259.7,331.9,259.7
		z"/>
	<path class="st1" d="M359.1,356.5c-9.8,0-17.4,0-26.4,0c0-8.5,0-17,0-27.3c7.9,0,16.4,0,26.4,0
		C359.1,337.8,359.1,346.2,359.1,356.5z"/>
	<path class="st1" d="M332.1,448.6c0-9.2,0-17.3,0-26.7c8.5,0,17,0,27.1,0c0,8.5,0,16.9,0,26.7C350.4,448.6,342.4,448.6,332.1,448.6
		z"/>
	<path class="st1" d="M332.1,517c9.2,0,17.2,0,26.9,0c0,9.2,0,17.6,0,27.2c-8.9,0-17.4,0-26.9,0C332.1,535.6,332.1,527.6,332.1,517z
		"/>
	<path class="st1" d="M359.5,609.9c0,9.4,0,17.3,0,26.9c-9.1,0-17.5,0-27.1,0c0-8.9,0-17.4,0-26.9
		C340.9,609.9,348.9,609.9,359.5,609.9z"/>
</g>
</svg>
