<?xml version="1.0" encoding="utf-8"?>
<!-- Generator: Adobe Illustrator 19.0.1, SVG Export Plug-In . SVG Version: 6.00 Build 0)  -->
<svg version="1.1" id="Layer_1" xmlns="http://www.w3.org/2000/svg" xmlns:xlink="http://www.w3.org/1999/xlink" x="0px" y="0px"
	 viewBox="94 -4 800 800" style="enable-background:new 94 -4 800 800;" xml:space="preserve">
<style type="text/css">
	.st0{fill:#3F3F3F;}
	.st1{fill:#F26222;}
	.st2{fill:#383838;}
</style>
<g>
	<path class="st0" d="M473.5,727.9c91.5,5.1,171.7-21.3,238.4-85c50.9-48.6,82.1-108.3,92.4-177.9c23.7-159.9-72.3-300.4-212-344.5
		c-78.4-24.8-155.5-19.3-229.2,17c-73.5,36.3-123.8,94.7-155,170.5c2.1-7.4,4-14.9,6.6-22.1c45.8-121.6,130-201.1,258.1-228.1
		c138-29,279,36,352.2,157.5c82.7,137.1,62.5,299-18.1,406.7C744.2,705.6,658,741.2,555.4,741c-26.2,0-51.9-4-77.1-11
		C476.8,729.4,475.2,728.5,473.5,727.9z"/>
	<path class="st1" d="M635.5,345.3c-19.3,8.4-38.5,17.5-58.1,25.1c-71.5,27.7-146,42-222.4,46.6c-51.8,3.1-103.6,2.9-154.9-6.6
		c-21.1-4-42.1-9-60.7-20.2c-8.3-5.1-15.5-12.3-22.5-19.1c-2.9-2.9-4.6-7.5-5.5-11.5c-3.5-14.1-0.9-17.3,13.3-17.3
		c16.1,0,32.2-0.3,48.3,0.2c3.7,0.2,8.3,1.8,10.6,4.4c9.2,10.1,20.4,15.6,33.4,18.8c49.5,12.1,99.7,16.1,150.4,15.3
		c83.5-1.4,165-15.8,245.3-37.5c7-1.8,14.7-1.4,22.1-2C634.9,342.6,635.2,344,635.5,345.3z"/>
	<path class="st1" d="M584.6,481.7c-25.9,13.3-52.7,24.4-80.4,32.9c-78.4,24.4-158.6,32.6-240.4,27.3c-26-1.7-51.8-5.4-76.1-15.2
		c-9.3-3.8-18.2-9-26.5-15c-7.8-5.7-12.6-13.9-12.3-24.4c0.2-4.9,1.7-7.5,7-7.5c15.6,0,31.1-0.3,46.7-0.2c2,0,4.6,1.8,6.1,3.7
		c7.2,8.1,15.8,13.3,26.3,15.9c49.5,12.3,99.7,15,150.4,12.4c64.5-3.4,127.5-15.5,189.5-32.9c2.9-0.8,6.4,0.2,9.7,0.3
		C584.6,479.8,584.6,480.8,584.6,481.7z"/>
	<path class="st1" d="M580.8,592.7c-35.4,20.5-73.5,33.5-113.5,41.2c-33.1,6.4-66.6,9.7-100.2,8.9c-26.5-0.6-53.2-1.8-78-12.3
		c-8.9-3.7-16.5-10.4-24.1-16.7c-2.5-2-3.1-6.7-3.8-10.4c-0.8-3.8,0.8-6.1,5.5-6c10.3,0.3,20.4-0.2,30.6,0c1.7,0,4,0.5,4.7,1.5
		c10.9,14.1,27.4,14.9,42.9,17.3c68.3,11,135.3,2.3,201.6-14.2C558,599.2,569.3,595.8,580.8,592.7z"/>
</g>
<g>
	<path class="st2" d="M279.3,475.3c-5.2,0.7-10.5,1.6-15.8,2.1c-3.8,0.4-5.9,2.3-7.3,5.6c-3.8,9.1-7.8,18.1-11.7,27.1
		c-2.2,5-4.4,10.1-6.6,15.2c3.3,1.5,6.3,2.9,9.4,4.4c2.2-3.5,4.3-6.8,6.3-10c0.2,0.1,0.5,0.1,0.7,0.2c0,3.5,0,7,0,10.7
		c3.4,0.3,6.4,0.5,9.7,0.8c1.8-13.9,3.5-27.5,5.3-41.2c1.6-0.2,3.1-0.5,4.6-0.7c6.1-0.8,12.1-1.4,18.2-2.3c4.2-0.6,6.7-3.3,6.9-7.3
		c0.6-14.2-2.6-27.6-9.2-40.1c-1.5-2.8-4.2-5.3-7-7c-4.9-3.1-11.7-0.4-14,4.9c-3.6,8.4-10.2,12.4-19.1,12.8c-5,0.3-10,0.7-15,1.1
		c0,3.2,0,6.1,0,9.1c14,0.5,28.4,3.3,39.6-9C277.5,459.5,279.3,467,279.3,475.3z M257,466.4c-23.8,0-47.3,0-70.8,0
		c0,2.7,0,5.2,0,7.7c23.7,0,47.2,0,70.8,0C257,471.4,257,469,257,466.4z M231.1,457.3c-8,0-15.7-0.1-23.3,0.1c-2,0-2.7-0.6-3.2-2.5
		c-2.2-8.6-4.6-17.2-6.9-25.9c-1.9,0.5-3.7,1-5.8,1.6c2.6,9.6,5.1,19.1,7.7,28.6c1.8-0.4,3.3-0.7,5.1-1c0,1.9,0,3.5,0,5.1
		c9,0,17.7,0,26.5,0C231.1,461.3,231.1,459.5,231.1,457.3z"/>
	<path class="st2" d="M270.6,534c-2.6-2.8-2.6-3.7-0.1-6.5c0.2-0.2,0.4-0.4,0.5-0.7c1.9-6.5,6.5-9.8,12.9-11c0-6.6,0-13.1,0-19.9
		c-4.6,0-9.1,0-13.9,0c0.2-1.7,0.4-3,0.6-4.5c5.2-0.6,10.4-1.3,15.5-2c4-0.5,8-0.4,11.7-2.7c0.9-0.5,3,1,4.6,1.6
		c0.6,0.3,1.4,1.1,1.7,1c0.6-0.3,1.3-1.1,1.4-1.8c0.3-2.5,0.3-5.1,0.4-7.6c0-0.6-0.3-1.4-0.8-1.6c-2.4-1.3-2.6-3.4-2.6-5.8
		c0-8.6,0-17.3,0-25.9c0-4.1,3.7-6.5,6.9-4.4c1.1,0.7,2.2,2.5,2.2,3.8c0.2,9.4,0.2,18.8,0,28.2c0,1.2-0.7,2.9-1.7,3.5
		c-1.5,0.9-1.7,2-1.7,3.5c0,2-0.1,3.9-0.3,5.9c-0.2,2.4-1,4.4-3.8,4.8c-0.4,0.1-1,0.4-1.1,0.7c-1.3,3-3.8,3.2-6.6,3.1
		c-3.3-0.1-6.5,0-10,0c0,6.8,0,13.3,0,20.1c6.3,1.1,10.8,4.6,12.8,11c0.1,0.3,0.4,0.6,0.7,0.9c2.4,2.6,2.3,4.1-0.7,6.4
		c-0.8,0-1.5,0-2.3,0c-2-1.6-3.2-3.4-1.3-5.9c0.3-0.3,0.3-1,0.1-1.5c-0.9-3.7-5.2-7-9.8-7.2c0.2,2.8-0.2,5.9,0.9,8.1
		c1.7,3.4,2.1,4-0.7,6.5c-0.8,0-1.5,0-2.3,0c-2-1.2-3.5-3.2-1.8-5c2.9-3,1.1-6.3,1.7-9.5c-4.3-0.2-8.9,3.3-9.8,7.2
		c-0.1,0.4-0.1,1,0.1,1.3c2,2.4,0.9,4.3-1,6C272.5,534,271.6,534,270.6,534z"/>
	<path class="st2" d="M269.5,407.1c5,1.7,8.8,4.5,9.7,10.2c1,6.7-3,12.5-9.7,13.9c-5.8,1.2-11.9-2.6-13.7-8.5
		c-1.8-6.1,1.4-12.5,7.5-14.8c0.6-0.2,1.2-0.5,1.8-0.7C266.5,407.1,268,407.1,269.5,407.1z"/>
	<path class="st2" d="M273.5,534c1.8-1.8,2.9-3.6,1-6c-0.2-0.3-0.2-0.9-0.1-1.3c0.9-3.9,5.5-7.4,9.8-7.2c-0.6,3.1,1.1,6.4-1.7,9.5
		c-1.7,1.8-0.2,3.8,1.8,5C280.6,534,277,534,273.5,534z"/>
	<path class="st2" d="M286.4,534c2.8-2.5,2.4-3,0.7-6.5c-1.1-2.3-0.7-5.4-0.9-8.1c4.6,0.2,8.9,3.5,9.8,7.2c0.1,0.5,0.1,1.2-0.1,1.5
		c-2,2.5-0.8,4.3,1.3,5.9C293.6,534,290,534,286.4,534z"/>
	<path class="st2" d="M279.3,475.3c0-8.2-1.8-15.8-5-23.5c-11.3,12.3-25.6,9.5-39.6,9c0-3,0-5.9,0-9.1c5-0.4,10-0.9,15-1.1
		c9-0.5,15.5-4.5,19.1-12.8c2.3-5.3,9.1-7.9,14-4.9c2.7,1.7,5.5,4.2,7,7c6.6,12.5,9.7,25.9,9.2,40.1c-0.2,4-2.7,6.7-6.9,7.3
		c-6,0.8-12.1,1.5-18.2,2.3c-1.5,0.2-3,0.4-4.6,0.7c-1.7,13.7-3.5,27.2-5.3,41.2c-3.2-0.3-6.2-0.5-9.7-0.8c0-3.6,0-7.2,0-10.7
		c-0.2-0.1-0.5-0.1-0.7-0.2c-2.1,3.3-4.1,6.5-6.3,10c-3.1-1.5-6.1-2.9-9.4-4.4c2.2-5.1,4.4-10.1,6.6-15.2c3.9-9,7.9-18,11.7-27.1
		c1.4-3.3,3.5-5.3,7.3-5.6C268.8,476.9,274,476,279.3,475.3z"/>
	<path class="st2" d="M257,466.4c0,2.6,0,5.1,0,7.7c-23.6,0-47.1,0-70.8,0c0-2.5,0-5,0-7.7C209.7,466.4,233.2,466.4,257,466.4z"/>
	<path class="st1" d="M231.1,457.3c0,2.2,0,3.9,0,5.9c-8.8,0-17.5,0-26.5,0c0-1.6,0-3.2,0-5.1c-1.8,0.4-3.3,0.7-5.1,1
		c-2.6-9.5-5.1-18.9-7.7-28.6c2.1-0.6,3.9-1.1,5.8-1.6c2.4,8.7,4.7,17.3,6.9,25.9c0.5,1.9,1.2,2.5,3.2,2.5
		C215.5,457.2,223.2,457.3,231.1,457.3z"/>
</g>
<g>
	<path class="st2" d="M542.2,351.8c3.1,8.8,2,16.6-5,23.2c-0.8,0.7-1.6,1.4-2.4,2c-12,7.3-25.1,10.3-38.9,8
		c-8.9-1.5-15-6.7-16.4-16.3c-0.5-3.1-1.1-6.2-1.9-9.3c-1.9-7,0.6-12.4,5.9-16.7c1.5-1.3,3.2-2.3,4.8-3.5c2.4-1.9,4.3-2,7.2-0.1
		c6.7,4.5,17.5,1.7,22-5.2c1.2-1.8,2.3-2.6,4.4-2.1c2.4,0.6,4.9,0.9,7.3,1.6c6.6,1.9,11.1,5.8,12,13
		C541.3,348.2,541.8,350,542.2,351.8z"/>
	<path class="st2" d="M484.2,338c-12.4,6.6-12.6,16.7-9.1,28c1.2,4,2.1,8.1,3.2,12.5c-8.5,2.8-17.7,5.2-27.4,2.9
		c-7.2-1.8-12.1-6-13.3-13.8c-0.4-2.5-0.8-5-1.5-7.3c-2.4-7.5,0.8-12.7,6.6-16.9c3.1-2.2,5.6-4.1,10-1.3c5.4,3.5,14,1.1,17.5-4.4
		c1.7-2.6,3.4-2.8,5.8-2.2c2.4,0.6,4.8,1.2,7.2,1.7C483.6,337.4,483.9,337.7,484.2,338z"/>
	<path class="st2" d="M547.7,364.9c-1.5-8.1-2.7-15.7-4.5-23.2c-1.4-5.8-6-8.7-11.4-10.5c-1.7-0.6-3.4-1-6.2-1.9
		c3.6-2.4,6.4-4.5,9.4-6.3c0.6-0.3,1.9,0.1,2.7,0.6c7.4,4.5,15.7,2.8,20.8-4.3c0.5-0.7,1.6-1.6,2.3-1.5c10.7,1.2,17.2,4,18.4,14.5
		c0.1,1,0.4,2.1,0.6,3.1c2.8,13.9-0.6,20.7-14,25.6C559.9,363.2,553.4,363.8,547.7,364.9z"/>
	<path class="st2" d="M514.5,311.5c1.7,7.7,0,14.4-5.5,20c-2.2,2.2-4.7,2.7-7.6,1.6c-6.1-2.5-10.2-6.9-12.1-13.2
		c-0.9-2.9-1.2-5.9-1.3-8.9c-0.3-7.8,3-11.7,10.6-13.1c7.1-1.3,11.3,1,14,7.7C513.3,307.5,513.8,309.5,514.5,311.5z"/>
	<path class="st2" d="M483.9,318.3c-0.5,0.1-0.6,0.2-0.7,0.2c-9.5-4.2-8.6-13.6-9.5-21.4c-0.8-6.1,5-9.4,9.9-12.1
		c0.7-0.4,2.2,0,3.1,0.5c6.4,3.3,12.7,2,17.3-3.5c0.7-0.9,2.4-1.7,3.5-1.5c9.8,1.3,13.6,4.2,14.6,12.9c0.3,2.6,1.1,5.1,1.5,7.7
		c0.5,4-1,7.3-4.1,10.7c-2.3-7.3-3.5-15-11-17.8c-3.8-1.4-8.6-1.3-12.6-0.4C487,295.4,481.1,300.2,483.9,318.3z"/>
	<path class="st2" d="M555.8,300.4c1.2,6.4-0.2,12-4.6,16.9c-2.1,2.3-4.5,2.8-7.5,1.7c-8.5-3.3-14.1-16.1-10.6-24.5
		c1.9-4.7,6-5.9,10.5-6.3c4.4-0.4,7.7,1.3,9.6,5.4C554.3,295.7,554.9,298.1,555.8,300.4z"/>
	<path class="st2" d="M468.4,317.7c1.3,6.1-0.1,11.5-4.1,16.3c-2.3,2.8-5,3.5-8.4,2c-8.2-3.4-13.6-16.2-10.2-24.4
		c1.8-4.5,5.8-5.8,10.1-6.2c4.3-0.5,7.8,1,9.8,5C466.8,312.7,467.5,315.3,468.4,317.7z"/>
	<path class="st2" d="M501.8,265.1c1.1,5.6-0.1,10.4-3.9,14.6c-1.8,2-3.8,2.4-6.4,1.4c-7.4-3-12.2-13.9-9.1-21.2
		c1.6-3.9,5.1-5,8.9-5.3s6.7,1.1,8.3,4.6C500.5,261.1,501,263.2,501.8,265.1z"/>
	<path class="st2" d="M534.1,275.1c1.1,5.6-1.6,11.9-5.3,12.7c-4,0.8-9.3-4.7-10-10.4c-0.8-6.9,1.3-10.1,7.3-10.6
		C530.4,266.5,532.9,269,534.1,275.1z"/>
	<path class="st2" d="M471.7,287.5c0,1.8,0.5,3.8-0.2,5.1c-1.4,2.8-2.9,6.5-5.4,7.5c-3.5,1.4-6.6-1.8-8-4.9s-1.9-6.8-1.9-10.2
		c-0.1-3.2,2.5-4.7,5.5-5.3c3-0.7,5.9-0.5,7.7,2.4C470.4,283.8,470.9,285.8,471.7,287.5z"/>
</g>
<path class="st2" d="M448.1,610.2c-0.5-9.1-1.1-14.5-1-19.8c0.5-22.6,8.8-29.7,31.3-30.9c12.1-0.7,24.5-3.5,35.8-8
	c19-7.6,29.9-4.5,37.7,14.6c2.7,6.5,5.1,13.6,5.3,20.5c0.2,5.8-1.6,15.2-5.1,16.7c-9,3.8-20.3,5.6-26.7-5.5
	c-6.3-11-15.8-13-26.7-11.1c-10.3,1.9-16.8,8.1-18.2,19.4c-1.2,9.5-13.2,19.4-21.4,16.5C453.8,620.6,450.5,613.2,448.1,610.2z
	 M479.8,582.6c-7.3,1.3-14.1-15.9-20.4,1.7c-0.9,2.4-1.8,4.7-2.7,7.1c5.3,1.4,10.9,4.4,15.9,3.7C475.3,594.7,477,587.9,479.8,582.6z
	 M547.8,565.3c-1.3-1.5-2.6-3-3.9-4.5c-3.4-1.6-7.7-5.2-9.8-4.3c-2.7,1.3-5.5,6.8-4.8,9.6c0.7,2.7,5.9,6.1,8.9,5.9
	C541.6,571.7,544.7,567.7,547.8,565.3z"/>
</svg>
